<svg xmlns="http://www.w3.org/2000/svg" width="512" height="512" xmlns:v="https://vecta.io/nano"><path fill="#dce7c2" d="M128 256L0 128 128 0z"/><path d="M384 192V64h128zM0 512V384h128z" fill="#fbcba8"/><path fill="#f2a75e" d="M384 512V384h128z"/><path fill="#b4cd84" d="M384 192h128v128z"/><circle fill="#ea8e44" cx="32" cy="288" r="32"/><circle fill="#f0a174" cx="416" cy="32" r="32"/><path fill="#b4cd84" d="M384,320c0,70.692-57.308,128-128,128s-128-57.308-128-128H64l192,192l192-192H384z"/><path fill="#8ab73b" d="M256 0L128 128h64c0-35.346 28.654-64 64-64s64 28.654 64 64h64L256 0z"/><path fill="#c2715f" d="M191.997 256l64-64 64 64-64 64z"/></svg>