<svg xmlns="http://www.w3.org/2000/svg" width="512" height="512" xmlns:v="https://vecta.io/nano"><circle fill="#e60000" cx="480" cy="32" r="32"/><path fill="#8c0000" d="M445.709 84.112C447.182 87.788 448 91.797 448 96c0 17.673-14.327 32-32 32s-32-14.327-32-32 14.327-32 32-32c4.202 0 8.212.818 11.889 2.291C382.453 25.099 322.158 0 256 0 114.615 0 0 114.615 0 256s114.615 256 256 256 256-114.615 256-256c0-66.159-25.099-126.453-66.291-171.888zM384 288c0 88.365-71.635 160-160 160S64 376.365 64 288s71.634-160 160-160c36.021 0 69.259 11.906 96 31.993.004-17.67 14.329-31.993 32-31.993s32 14.327 32 32-14.323 31.996-31.993 32C372.094 218.741 384 251.979 384 288z"/><path fill="#c80000" d="M192 192c-70.692 0-128 57.308-128 128a129.07 129.07 0 0 0 1.146 17.141C72.288 291.178 112.035 256 160 256c53.02 0 96 42.98 96 96 0 47.966-35.178 87.712-81.141 94.854A129.24 129.24 0 0 0 192 448c70.692 0 128-57.308 128-128s-57.308-128-128-128z"/><circle fill="red" cx="128" cy="384" r="64"/></svg>