<svg xmlns="http://www.w3.org/2000/svg" width="512" height="512" xmlns:v="https://vecta.io/nano"><ellipse fill="#e6b7af" cx="479.795" cy="32" rx="32.205" ry="32"/><path fill="#efcaa6" d="M128,0H0v128C0,57.308,57.308,0,128,0z"/><path fill="#e0a39a" d="M64 64h64v64H64z"/><path fill="#ae8a4f" d="M128 192v-64h64z"/><path fill="#d7c1aa" d="M192 256v-64h64z"/><path fill="#e0a39a" d="M279.602 309.922C302.799 277.289 340.913 256 384 256H192v3.215c34.547 7.037 65.045 25.25 87.602 50.707z"/><ellipse fill="#d2948b" cx="416.205" cy="416" rx="32.205" ry="32"/><ellipse fill="#e0a39a" cx="96.205" cy="352" rx="32.205" ry="32"/><ellipse fill="#957c67" cx="223.795" cy="352" rx="32.205" ry="32"/><path fill="#ae8a4f" d="M128 448h64v64h-64z"/><path fill="#d2948b" d="M64 512H0v-64z"/><path fill="#b89d82" d="M256 448v-64h64z"/><path fill="#ddc08f" d="M128 384h64v64z"/><path fill="#d4a87f" d="M384 512h128V384c0 70.692-57.308 128-128 128z"/><path fill="#f0d5d1" d="M381.681 256.029L384 256c23.315 0 45.173 6.236 64 17.128V64H192v2.828c98.004 14.004 175.538 91.358 189.681 189.201z"/></svg>