<svg xmlns="http://www.w3.org/2000/svg" width="512" height="512" xmlns:v="https://vecta.io/nano"><circle fill="#e30613" cx="128" cy="256" r="64"/><circle fill="#e2a872" cx="224" cy="160" r="32"/><circle fill="#f2c8a2" cx="288" cy="224" r="32"/><circle fill="#e2a872" cx="288" cy="288" r="32"/><circle fill="#f2c8a2" cx="224" cy="352" r="32"/><path fill="#e6b7af" d="M384 384V256l64 64z"/><path fill="#fddbb8" d="M384 0c-53.228 0-98.861 32.492-118.164 78.721C335.224 107.654 384 176.127 384 256c70.692 0 128-57.308 128-128S454.692 0 384 0z"/><path fill="#dce7c2" d="M256 437.06V448h128V256c0 83.596-53.431 154.7-128 181.06z"/><path fill="#ef7e71" d="M512 512V320L384 448l64 64z"/><g fill="#b4cd84"><path d="M128,512h64v-64C85.961,448,0,362.039,0,256v128L128,512z"/><path d="M0,128v128C0,149.961,85.961,64,192,64V0h-64L0,128z"/></g></svg>