<svg xmlns="http://www.w3.org/2000/svg" width="512" height="512" xmlns:v="https://vecta.io/nano"><path fill="#6a912d" d="M192 0h-64L64 64l64 64 32-32-32-32z"/><path fill="#de7e0c" d="M224 32l-32 32 64 64-32 32 32 32 64-64z"/><path fill="#f4b26f" d="M320 0l-32 32 64 64 64-64-32-32-32 32z"/><path fill="#5e7f68" d="M448 64L320 192l64 64 32-32-32-32 96-96z"/><path fill="#4a671e" d="M480 160l-32 32 31.629 31.863 32.303-31.931z"/><path fill="#d0ddd3" d="M32 96L0 128l128 128 64-64-32.137-32.137L128 192z"/><path fill="#f4b26f" d="M0 320l64-64 64 64-32 32-32-32-32 32z"/><path fill="#fbe098" d="M224 224l-32 32 64 64 64-64-32-32-32 32z"/><path fill="#d0ddd3" d="M448 256l-64 64-32-32-32 32 64 64 95.966-95.965z"/><path fill="#f4b26f" d="M416 416l32-32 64 64-64 64-32-32 32-32z"/><path fill="#de7e0c" d="M352 416l-64 64-32.02-32.02-32.077 32.118-31.923-32.118 64.038-63.961L288 416l32-32z"/><path fill="#6a912d" d="M128 512l31.902-31.902 32.078 31.882z"/><path fill="#5e7f68" d="M224 352L95.902 480.098 32 416l32-32 31.951 32.049 96.029-96.069z"/></svg>