<svg xmlns="http://www.w3.org/2000/svg" width="1024" height="1024" xmlns:v="https://vecta.io/nano"><style><![CDATA[.B{fill:#94afc7}.C{fill:#d4cce7}.D{fill:#a0aa7d}.E{fill:#5f90b1}.F{fill:#a497c9}.G{fill:#c6ce00}.H{fill:#e5cb95}.I{fill:#627c2f}.J{fill:#6a912d}.K{fill:#93a1d2}.L{fill:#51657f}]]></style><circle cx="32" cy="32" r="32" class="B"/><circle cx="96" cy="160" r="32" class="C"/><circle cx="224" cy="224" r="32" class="D"/><path d="M192 64h-64.33V0z" class="E"/><path d="M128.165 256h-64.33v-64z" class="F"/><path d="M192 128h-64.33V64zm-127.67 0H0V64zm63.34 64H192v64z" class="G"/><path d="M191.67 128H256V64z" class="H"/><path d="M64 64h64v64H64z" class="I"/><path d="M128 128h64v64h-64z" class="J"/><path d="M256 64L192 0h64zM64 192L0 128h64z" class="K"/><path d="M0 192l64 64H0z" class="L"/><circle cx="288" cy="224" r="32" class="B"/><circle cx="416" cy="160" r="32" class="C"/><circle cx="480" cy="32" r="32" class="D"/><path d="M320 64v64.33h-64z" class="E"/><path d="M512 127.835v64.33h-64z" class="F"/><path d="M384 64v64.33h-64zm0 127.67V256h-64zm64-63.34V64h64z" class="G"/><path d="M384 64.33V0h-64z" class="H"/><path d="M320 128h64v64h-64z" class="I"/><path d="M384 64h64v64h-64z" class="J"/><path d="M320 0l-64 64V0zm128 192l-64 64v-64z" class="K"/><path d="M448 256l64-64v64z" class="L"/><circle cx="736" cy="224" r="32" class="B"/><circle cx="672" cy="96" r="32" class="C"/><circle cx="544" cy="32" r="32" class="D"/><path d="M576 192h64.329v64z" class="E"/><path d="M639.835 0h64.33v64z" class="F"/><path d="M576 128h64.329v64zm127.67 0H768v64zm-63.341-64H576V0z" class="G"/><path d="M576.329 128H512v64z" class="H"/><path d="M640 128h64v64h-64z" class="I"/><path d="M576 64h64v64h-64z" class="J"/><path d="M512 192l64 64h-64zM704 64l64 64h-64z" class="K"/><path d="M768 64L704 0h64z" class="L"/><circle cx="992" cy="32" r="32" class="B"/><circle cx="864" cy="96" r="32" class="C"/><circle cx="800" cy="224" r="32" class="D"/><path d="M960 192v-64.33h64z" class="E"/><path d="M768 128.165v-64.33h64z" class="F"/><path d="M896 192v-64.33h64zm0-127.67V0h64zm-64 63.34V192h-64z" class="G"/><path d="M896 191.67V256h64z" class="H"/><path d="M896 64h64v64h-64z" class="I"/><path d="M832 128h64v64h-64z" class="J"/><path d="M960 256l64-64v64zM832 64l64-64v64z" class="K"/><path d="M832 0l-64 64V0z" class="L"/><circle cx="992" cy="480" r="32" class="B"/><circle cx="928" cy="352" r="32" class="C"/><circle cx="800" cy="288" r="32" class="D"/><path d="M832 448h64.329v64z" class="E"/><path d="M895.835 256h64.33v64z" class="F"/><path d="M832 384h64.329v64zm127.67 0H1024v64zm-63.341-64H832v-64z" class="G"/><path d="M832.329 384H768v64z" class="H"/><path d="M896 384h64v64h-64z" class="I"/><path d="M832 320h64v64h-64z" class="J"/><path d="M768 448l64 64h-64zm192-128l64 64h-64z" class="K"/><path d="M1024 320l-64-64h64z" class="L"/><circle cx="736" cy="288" r="32" class="B"/><circle cx="608" cy="352" r="32" class="C"/><circle cx="544" cy="480" r="32" class="D"/><path d="M704 448v-64.33h64z" class="E"/><path d="M512 384.165v-64.33h64z" class="F"/><path d="M640 448v-64.33h64zm0-127.67V256h64zm-64 63.34V448h-64z" class="G"/><path d="M640 447.67V512h64z" class="H"/><path d="M640 320h64v64h-64z" class="I"/><path d="M576 384h64v64h-64z" class="J"/><path d="M704 512l64-64v64zM576 320l64-64v64z" class="K"/><path d="M576 256l-64 64v-64z" class="L"/><circle cx="288" cy="288" r="32" class="B"/><circle cx="352" cy="416" r="32" class="C"/><circle cx="480" cy="480" r="32" class="D"/><path d="M448 320h-64.33v-64z" class="E"/><path d="M384.165 512h-64.33v-64z" class="F"/><path d="M448 384h-64.33v-64zm-127.67 0H256v-64zm63.34 64H448v64z" class="G"/><path d="M447.67 384H512v-64z" class="H"/><path d="M320 320h64v64h-64z" class="I"/><path d="M384 384h64v64h-64z" class="J"/><path d="M512 320l-64-64h64zM320 448l-64-64h64z" class="K"/><path d="M256 448l64 64h-64z" class="L"/><circle cx="32" cy="480" r="32" class="B"/><circle cx="160" cy="416" r="32" class="C"/><circle cx="224" cy="288" r="32" class="D"/><path d="M64 320v64.33H0z" class="E"/><path d="M256 383.835v64.33h-64z" class="F"/><path d="M128 320v64.33H64zm0 127.67V512H64zm64-63.34V320h64z" class="G"/><path d="M128 320.33V256H64z" class="H"/><path d="M64 384h64v64H64z" class="I"/><path d="M128 320h64v64h-64z" class="J"/><path d="M64 256L0 320v-64zm128 192l-64 64v-64z" class="K"/><path d="M192 512l64-64v64z" class="L"/><circle cx="992" cy="992" r="32" class="B"/><circle cx="928" cy="864" r="32" class="C"/><circle cx="800" cy="800" r="32" class="D"/><path d="M832 960h64.329v64z" class="E"/><path d="M895.835 768h64.33v64z" class="F"/><path d="M832 896h64.329v64zm127.67 0H1024v64zm-63.341-64H832v-64z" class="G"/><path d="M832.329 896H768v64z" class="H"/><path d="M896 896h64v64h-64z" class="I"/><path d="M832 832h64v64h-64z" class="J"/><path d="M768 960l64 64h-64zm192-128l64 64h-64z" class="K"/><path d="M1024 832l-64-64h64z" class="L"/><circle cx="736" cy="800" r="32" class="B"/><circle cx="608" cy="864" r="32" class="C"/><circle cx="544" cy="992" r="32" class="D"/><path d="M704 960v-64.33h64z" class="E"/><path d="M512 896.165v-64.33h64z" class="F"/><path d="M640 960v-64.33h64zm0-127.671V768h64zm-64 63.341V960h-64z" class="G"/><path d="M640 959.67V1024h64z" class="H"/><path d="M640 832h64v64h-64z" class="I"/><path d="M576 896h64v64h-64z" class="J"/><path d="M704 1024l64-64v64zM576 832l64-64v64z" class="K"/><path d="M576 768l-64 64v-64z" class="L"/><circle cx="288" cy="800" r="32" class="B"/><circle cx="352" cy="928" r="32" class="C"/><circle cx="480" cy="992" r="32" class="D"/><path d="M448 832h-64.33v-64z" class="E"/><path d="M384.165 1024h-64.33v-64z" class="F"/><path d="M448 896h-64.33v-64zm-127.67 0H256v-64zm63.34 64H448v64z" class="G"/><path d="M447.67 896H512v-64z" class="H"/><path d="M320 832h64v64h-64z" class="I"/><path d="M384 896h64v64h-64z" class="J"/><path d="M512 832l-64-64h64zM320 960l-64-64h64z" class="K"/><path d="M256 960l64 64h-64z" class="L"/><circle cx="32" cy="992" r="32" class="B"/><circle cx="160" cy="928" r="32" class="C"/><circle cx="224" cy="800" r="32" class="D"/><path d="M64 832v64.329H0z" class="E"/><path d="M256 895.835v64.33h-64z" class="F"/><path d="M128 832v64.329H64zm0 127.67V1024H64zm64-63.341V832h64z" class="G"/><path d="M128 832.329V768H64z" class="H"/><path d="M64 896h64v64H64z" class="I"/><path d="M128 832h64v64h-64z" class="J"/><path d="M64 768L0 832v-64zm128 192l-64 64v-64z" class="K"/><path d="M192 1024l64-64v64z" class="L"/><circle cx="32" cy="544" r="32" class="B"/><circle cx="96" cy="672" r="32" class="C"/><circle cx="224" cy="736" r="32" class="D"/><path d="M192 576h-64.33v-64z" class="E"/><path d="M128.165 768h-64.33v-64z" class="F"/><path d="M192 640h-64.33v-64zm-127.67 0H0v-64zm63.34 64H192v64z" class="G"/><path d="M191.67 640H256v-64z" class="H"/><path d="M64 576h64v64H64z" class="I"/><path d="M128 640h64v64h-64z" class="J"/><path d="M256 576l-64-64h64zM64 704L0 640h64z" class="K"/><path d="M0 704l64 64H0z" class="L"/><circle cx="288" cy="736" r="32" class="B"/><circle cx="416" cy="672" r="32" class="C"/><circle cx="480" cy="544" r="32" class="D"/><path d="M320 576v64.329h-64z" class="E"/><path d="M512 639.835v64.33h-64z" class="F"/><path d="M384 576v64.329h-64zm0 127.67V768h-64zm64-63.341V576h64z" class="G"/><path d="M384 576.329V512h-64z" class="H"/><path d="M320 640h64v64h-64z" class="I"/><path d="M384 576h64v64h-64z" class="J"/><path d="M320 512l-64 64v-64zm128 192l-64 64v-64z" class="K"/><path d="M448 768l64-64v64z" class="L"/><circle cx="736" cy="736" r="32" class="B"/><circle cx="672" cy="608" r="32" class="C"/><circle cx="544" cy="544" r="32" class="D"/><path d="M576 704h64.329v64z" class="E"/><path d="M639.835 512h64.33v64z" class="F"/><path d="M576 640h64.329v64zm127.67 0H768v64zm-63.341-64H576v-64z" class="G"/><path d="M576.329 640H512v64z" class="H"/><path d="M640 640h64v64h-64z" class="I"/><path d="M576 576h64v64h-64z" class="J"/><path d="M512 704l64 64h-64zm192-128l64 64h-64z" class="K"/><path d="M768 576l-64-64h64z" class="L"/><circle cx="992" cy="544" r="32" class="B"/><circle cx="864" cy="608" r="32" class="C"/><circle cx="800" cy="736" r="32" class="D"/><path d="M960 704v-64.33h64z" class="E"/><path d="M768 640.165v-64.33h64z" class="F"/><path d="M896 704v-64.33h64zm0-127.671V512h64zm-64 63.341V704h-64z" class="G"/><path d="M896 703.67V768h64z" class="H"/><path d="M896 576h64v64h-64z" class="I"/><path d="M832 640h64v64h-64z" class="J"/><path d="M960 768l64-64v64zM832 576l64-64v64z" class="K"/><path d="M832 512l-64 64v-64z" class="L"/></svg>