<svg xmlns="http://www.w3.org/2000/svg" width="1024" height="1024" xmlns:v="https://vecta.io/nano"><style><![CDATA[.B{fill:#8b513d}.C{fill:#ee8a3c}.D{fill:#927144}.E{fill:#c55416}.F{fill:#bb6a26}.G{fill:#e38871}.H{fill:#dba063}.I{fill:#992b16}.J{fill:#bf5638}.K{fill:#8995ab}.L{fill:#51657f}]]></style><circle cx="32" cy="32" r="32" class="B"/><circle cx="96" cy="160" r="32" class="C"/><circle cx="224" cy="224" r="32" class="D"/><path d="M192 64h-64.33V0z" class="E"/><path d="M128.165 256h-64.33v-64z" class="F"/><path d="M192 128h-64.33V64zm-127.67 0H0V64zm63.34 64H192v64z" class="G"/><path d="M191.67 128H256V64z" class="H"/><path d="M64 64h64v64H64z" class="I"/><path d="M128 128h64v64h-64z" class="J"/><path d="M256 64L192 0h64zM64 192L0 128h64z" class="K"/><path d="M0 192l64 64H0z" class="L"/><circle cx="480" cy="32" r="32" class="B"/><circle cx="416" cy="160" r="32" class="C"/><circle cx="288" cy="224" r="32" class="D"/><path d="M320 64h64.33V0z" class="E"/><path d="M383.835 256h64.33v-64z" class="F"/><path d="M320 128h64.33V64zm127.67 0H512V64zm-63.34 64H320v64z" class="G"/><path d="M320.33 128H256V64z" class="H"/><path d="M384 64h64v64h-64z" class="I"/><path d="M320 128h64v64h-64z" class="J"/><path d="M256 64l64-64h-64zm192 128l64-64h-64z" class="K"/><path d="M512 192l-64 64h64z" class="L"/><circle cx="544" cy="224" r="32" class="B"/><circle cx="608" cy="96" r="32" class="C"/><circle cx="736" cy="32" r="32" class="D"/><path d="M704 192h-64.329v64z" class="E"/><path d="M640.165 0h-64.33v64z" class="F"/><path d="M704 128h-64.329v64zm-127.671 0H512v64zm63.342-64H704V0z" class="G"/><path d="M703.671 128H768v64z" class="H"/><path d="M576 128h64v64h-64z" class="I"/><path d="M640 64h64v64h-64z" class="J"/><path d="M768 192l-64 64h64zM576 64l-64 64h64z" class="K"/><path d="M512 64l64-64h-64z" class="L"/><circle cx="992" cy="224" r="32" class="B"/><circle cx="928" cy="96" r="32" class="C"/><circle cx="800" cy="32" r="32" class="D"/><path d="M832 192h64.329v64z" class="E"/><path d="M895.835 0h64.33v64z" class="F"/><path d="M832 128h64.329v64zm127.671 0H1024v64zm-63.342-64H832V0z" class="G"/><path d="M832.329 128H768v64z" class="H"/><path d="M896 128h64v64h-64z" class="I"/><path d="M832 64h64v64h-64z" class="J"/><path d="M768 192l64 64h-64zM960 64l64 64h-64z" class="K"/><path d="M1024 64L960 0h64z" class="L"/><circle cx="992" cy="288" r="32" class="B"/><circle cx="928" cy="416" r="32" class="C"/><circle cx="800" cy="480" r="32" class="D"/><path d="M832 320h64.329v-64z" class="E"/><path d="M895.835 512h64.33v-64z" class="F"/><path d="M832 384h64.329v-64zm127.671 0H1024v-64zm-63.342 64H832v64z" class="G"/><path d="M832.329 384H768v-64z" class="H"/><path d="M896 320h64v64h-64z" class="I"/><path d="M832 384h64v64h-64z" class="J"/><path d="M768 320l64-64h-64zm192 128l64-64h-64z" class="K"/><path d="M1024 448l-64 64h64z" class="L"/><circle cx="544" cy="288" r="32" class="B"/><circle cx="608" cy="416" r="32" class="C"/><circle cx="736" cy="480" r="32" class="D"/><path d="M704 320h-64.329v-64z" class="E"/><path d="M640.165 512h-64.33v-64z" class="F"/><path d="M704 384h-64.329v-64zm-127.671 0H512v-64zm63.342 64H704v64z" class="G"/><path d="M703.671 384H768v-64z" class="H"/><path d="M576 320h64v64h-64z" class="I"/><path d="M640 384h64v64h-64z" class="J"/><path d="M768 320l-64-64h64zM576 448l-64-64h64z" class="K"/><path d="M512 448l64 64h-64z" class="L"/><circle cx="480" cy="480" r="32" class="B"/><circle cx="416" cy="352" r="32" class="C"/><circle cx="288" cy="288" r="32" class="D"/><path d="M320 448h64.33v64z" class="E"/><path d="M383.835 256h64.33v64z" class="F"/><path d="M320 384h64.33v64zm127.67 0H512v64zm-63.34-64H320v-64z" class="G"/><path d="M320.33 384H256v64z" class="H"/><path d="M384 384h64v64h-64z" class="I"/><path d="M320 320h64v64h-64z" class="J"/><path d="M256 448l64 64h-64zm192-128l64 64h-64z" class="K"/><path d="M512 320l-64-64h64z" class="L"/><circle cx="32" cy="480" r="32" class="B"/><circle cx="96" cy="352" r="32" class="C"/><circle cx="224" cy="288" r="32" class="D"/><path d="M192 448h-64.33v64z" class="E"/><path d="M128.165 256h-64.33v64z" class="F"/><path d="M192 384h-64.33v64zm-127.67 0H0v64zm63.34-64H192v-64z" class="G"/><path d="M191.67 384H256v64z" class="H"/><path d="M64 384h64v64H64z" class="I"/><path d="M128 320h64v64h-64z" class="J"/><path d="M256 448l-64 64h64zM64 320L0 384h64z" class="K"/><path d="M0 320l64-64H0z" class="L"/><circle cx="32" cy="992" r="32" class="B"/><circle cx="96" cy="864" r="32" class="C"/><circle cx="224" cy="800" r="32" class="D"/><path d="M192 960h-64.33v64z" class="E"/><path d="M128.165 768h-64.33v64z" class="F"/><path d="M192 896h-64.33v64zm-127.67 0H0v64zm63.34-64H192v-64z" class="G"/><path d="M191.67 896H256v64z" class="H"/><path d="M64 896h64v64H64z" class="I"/><path d="M128 832h64v64h-64z" class="J"/><path d="M256 960l-64 64h64zM64 832L0 896h64z" class="K"/><path d="M0 832l64-64H0z" class="L"/><circle cx="480" cy="992" r="32" class="B"/><circle cx="416" cy="864" r="32" class="C"/><circle cx="288" cy="800" r="32" class="D"/><path d="M320 960h64.33v64z" class="E"/><path d="M383.835 768h64.33v64z" class="F"/><path d="M320 896h64.33v64zm127.67 0H512v64zm-63.34-64H320v-64z" class="G"/><path d="M320.33 896H256v64z" class="H"/><path d="M384 896h64v64h-64z" class="I"/><path d="M320 832h64v64h-64z" class="J"/><path d="M256 960l64 64h-64zm192-128l64 64h-64z" class="K"/><path d="M512 832l-64-64h64z" class="L"/><circle cx="544" cy="800" r="32" class="B"/><circle cx="608" cy="928" r="32" class="C"/><circle cx="736" cy="992" r="32" class="D"/><path d="M704 832h-64.329v-64z" class="E"/><path d="M640.165 1024h-64.33v-64z" class="F"/><path d="M704 896h-64.329v-64zm-127.671 0H512v-64zm63.342 64H704v64z" class="G"/><path d="M703.671 896H768v-64z" class="H"/><path d="M576 832h64v64h-64z" class="I"/><path d="M640 896h64v64h-64z" class="J"/><path d="M768 832l-64-64h64zM576 960l-64-64h64z" class="K"/><path d="M512 960l64 64h-64z" class="L"/><circle cx="992" cy="800" r="32" class="B"/><circle cx="928" cy="928" r="32" class="C"/><circle cx="800" cy="992" r="32" class="D"/><path d="M832 832h64.329v-64z" class="E"/><path d="M895.835 1024h64.33v-64z" class="F"/><path d="M832 896h64.329v-64zm127.671 0H1024v-64zm-63.342 64H832v64z" class="G"/><path d="M832.329 896H768v-64z" class="H"/><path d="M896 832h64v64h-64z" class="I"/><path d="M832 896h64v64h-64z" class="J"/><path d="M768 832l64-64h-64zm192 128l64-64h-64z" class="K"/><path d="M1024 960l-64 64h64z" class="L"/><circle cx="992" cy="736" r="32" class="B"/><circle cx="928" cy="608" r="32" class="C"/><circle cx="800" cy="544" r="32" class="D"/><path d="M832 704h64.329v64z" class="E"/><path d="M895.835 512h64.33v64z" class="F"/><path d="M832 640h64.329v64zm127.671 0H1024v64zm-63.342-64H832v-64z" class="G"/><path d="M832.329 640H768v64z" class="H"/><path d="M896 640h64v64h-64z" class="I"/><path d="M832 576h64v64h-64z" class="J"/><path d="M768 704l64 64h-64zm192-128l64 64h-64z" class="K"/><path d="M1024 576l-64-64h64z" class="L"/><circle cx="544" cy="736" r="32" class="B"/><circle cx="608" cy="608" r="32" class="C"/><circle cx="736" cy="544" r="32" class="D"/><path d="M704 704h-64.329v64z" class="E"/><path d="M640.165 512h-64.33v64z" class="F"/><path d="M704 640h-64.329v64zm-127.671 0H512v64zm63.342-64H704v-64z" class="G"/><path d="M703.671 640H768v64z" class="H"/><path d="M576 640h64v64h-64z" class="I"/><path d="M640 576h64v64h-64z" class="J"/><path d="M768 704l-64 64h64zM576 576l-64 64h64z" class="K"/><path d="M512 576l64-64h-64z" class="L"/><circle cx="480" cy="544" r="32" class="B"/><circle cx="416" cy="672" r="32" class="C"/><circle cx="288" cy="736" r="32" class="D"/><path d="M320 576h64.33v-64z" class="E"/><path d="M383.835 768h64.33v-64z" class="F"/><path d="M320 640h64.33v-64zm127.67 0H512v-64zm-63.34 64H320v64z" class="G"/><path d="M320.33 640H256v-64z" class="H"/><path d="M384 576h64v64h-64z" class="I"/><path d="M320 640h64v64h-64z" class="J"/><path d="M256 576l64-64h-64zm192 128l64-64h-64z" class="K"/><path d="M512 704l-64 64h64z" class="L"/><circle cx="32" cy="544" r="32" class="B"/><circle cx="96" cy="672" r="32" class="C"/><circle cx="224" cy="736" r="32" class="D"/><path d="M192 576h-64.33v-64z" class="E"/><path d="M128.165 768h-64.33v-64z" class="F"/><path d="M192 640h-64.33v-64zm-127.67 0H0v-64zm63.34 64H192v64z" class="G"/><path d="M191.67 640H256v-64z" class="H"/><path d="M64 576h64v64H64z" class="I"/><path d="M128 640h64v64h-64z" class="J"/><path d="M256 576l-64-64h64zM64 704L0 640h64z" class="K"/><path d="M0 704l64 64H0z" class="L"/></svg>