<svg xmlns="http://www.w3.org/2000/svg" width="1024" height="1024" xmlns:v="https://vecta.io/nano"><style><![CDATA[.B{fill:#83a153}.C{fill:#ac86a6}.D{fill:#a6c176}.E{fill:#8d8522}.F{fill:#cce0a6}.G{fill:#8c7ba3}]]></style><g class="B"><circle cx="48" cy="48" r="16"/><circle cx="48" cy="208" r="16"/></g><path d="M192 256v-64h64z" class="C"/><path d="M191.687 0v64h64z" class="D"/><path d="M160 96l32 32.643L160.643 160H224V96z" class="E"/><path d="M160 0L32 128l128 128v-96l-32-32 32-32.643z" class="F"/><path d="M0 160V96l32 32z" class="G"/><g class="B"><circle cx="304" cy="208" r="16"/><circle cx="464" cy="208" r="16"/></g><path d="M512 64h-64V0z" class="C"/><path d="M256 64.313h64v-64z" class="D"/><path d="M352 96l32.643-32L416 95.357V32h-64z" class="E"/><path d="M256 96l128 128L512 96h-96l-32 32-32.643-32z" class="F"/><path d="M416 256h-64l32-32z" class="G"/><g class="B"><circle cx="720" cy="208" r="16"/><circle cx="720" cy="48" r="16"/></g><path d="M576 0v64h-64z" class="C"/><path d="M576.313 256v-64h-64z" class="D"/><path d="M608 160l-32-32.643L607.357 96H544v64z" class="E"/><path d="M608 256l128-128L608 0v96l32 32-32 32.643z" class="F"/><path d="M768 96v64l-32-32z" class="G"/><g class="B"><circle cx="976" cy="48" r="16"/><circle cx="816" cy="48" r="16"/></g><path d="M768 192h64v64z" class="C"/><path d="M1024 191.687h-64v64z" class="D"/><path d="M928 160l-32.643 32L864 160.643V224h64z" class="E"/><path d="M1024 160L896 32 768 160h96l32-32 32.643 32z" class="F"/><path d="M864 0h64l-32 32z" class="G"/><g class="B"><circle cx="976" cy="464" r="16"/><circle cx="976" cy="304" r="16"/></g><path d="M832 256v64h-64z" class="C"/><path d="M832.313 512v-64h-64z" class="D"/><path d="M864 416l-32-32.643L863.357 352H800v64z" class="E"/><path d="M864 512l128-128-128-128v96l32 32-32 32.643z" class="F"/><path d="M1024 352v64l-32-32z" class="G"/><g class="B"><circle cx="720" cy="304" r="16"/><circle cx="560" cy="304" r="16"/></g><path d="M512 448h64v64z" class="C"/><path d="M768 447.687h-64v64z" class="D"/><path d="M672 416l-32.643 32L608 416.643V480h64z" class="E"/><path d="M768 416L640 288 512 416h96l32-32 32.643 32z" class="F"/><path d="M608 256h64l-32 32z" class="G"/><g class="B"><circle cx="304" cy="304" r="16"/><circle cx="304" cy="464" r="16"/></g><path d="M448 512v-64h64z" class="C"/><path d="M447.687 256v64h64z" class="D"/><path d="M416 352l32 32.643L416.643 416H480v-64z" class="E"/><path d="M416 256L288 384l128 128v-96l-32-32 32-32.643z" class="F"/><path d="M256 416v-64l32 32z" class="G"/><g class="B"><circle cx="48" cy="464" r="16"/><circle cx="208" cy="464" r="16"/></g><path d="M256 320h-64v-64z" class="C"/><path d="M0 320.313h64v-64z" class="D"/><path d="M96 352l32.643-32L160 351.357V288H96z" class="E"/><path d="M0 352l128 128 128-128h-96l-32 32-32.643-32z" class="F"/><path d="M160 512H96l32-32z" class="G"/><g class="B"><circle cx="976" cy="976" r="16"/><circle cx="976" cy="816" r="16"/></g><path d="M832 768v64h-64z" class="C"/><path d="M832.313 1024v-64h-64z" class="D"/><path d="M864 928l-32-32.643L863.357 864H800v64z" class="E"/><path d="M864 1024l128-128-128-128v96l32 32-32 32.643z" class="F"/><path d="M1024 864v64l-32-32z" class="G"/><g class="B"><circle cx="720" cy="816" r="16"/><circle cx="560" cy="816" r="16"/></g><path d="M512 960h64v64z" class="C"/><path d="M768 959.687h-64v64z" class="D"/><path d="M672 928l-32.643 32L608 928.643V992h64z" class="E"/><path d="M768 928L640 800 512 928h96l32-32 32.643 32z" class="F"/><path d="M608 768h64l-32 32z" class="G"/><g class="B"><circle cx="304" cy="816" r="16"/><circle cx="304" cy="976" r="16"/></g><path d="M448 1024v-64h64z" class="C"/><path d="M447.687 768v64h64z" class="D"/><path d="M416 864l32 32.643L416.643 928H480v-64z" class="E"/><path d="M416 768L288 896l128 128v-96l-32-32 32-32.643z" class="F"/><path d="M256 928v-64l32 32z" class="G"/><g class="B"><circle cx="48" cy="976" r="16"/><circle cx="208" cy="976" r="16"/></g><path d="M256 832h-64v-64z" class="C"/><path d="M0 832.313h64v-64z" class="D"/><path d="M96 864l32.643-32L160 863.357V800H96z" class="E"/><path d="M0 864l128 128 128-128h-96l-32 32-32.643-32z" class="F"/><path d="M160 1024H96l32-32z" class="G"/><g class="B"><circle cx="48" cy="560" r="16"/><circle cx="48" cy="720" r="16"/></g><path d="M192 768v-64h64z" class="C"/><path d="M191.687 512v64h64z" class="D"/><path d="M160 608l32 32.643L160.643 672H224v-64z" class="E"/><path d="M160 512L32 640l128 128v-96l-32-32 32-32.643z" class="F"/><path d="M0 672v-64l32 32z" class="G"/><g class="B"><circle cx="304" cy="720" r="16"/><circle cx="464" cy="720" r="16"/></g><path d="M512 576h-64v-64z" class="C"/><path d="M256 576.313h64v-64z" class="D"/><path d="M352 608l32.643-32L416 607.357V544h-64z" class="E"/><path d="M256 608l128 128 128-128h-96l-32 32-32.643-32z" class="F"/><path d="M416 768h-64l32-32z" class="G"/><g class="B"><circle cx="720" cy="720" r="16"/><circle cx="720" cy="560" r="16"/></g><path d="M576 512v64h-64z" class="C"/><path d="M576.313 768v-64h-64z" class="D"/><path d="M608 672l-32-32.643L607.357 608H544v64z" class="E"/><path d="M608 768l128-128-128-128v96l32 32-32 32.643z" class="F"/><path d="M768 608v64l-32-32z" class="G"/><g class="B"><circle cx="976" cy="560" r="16"/><circle cx="816" cy="560" r="16"/></g><path d="M768 704h64v64z" class="C"/><path d="M1024 703.687h-64v64z" class="D"/><path d="M928 672l-32.643 32L864 672.643V736h64z" class="E"/><path d="M1024 672L896 544 768 672h96l32-32 32.643 32z" class="F"/><path d="M864 512h64l-32 32z" class="G"/></svg>