<svg xmlns="http://www.w3.org/2000/svg" width="1024" height="1024" xmlns:v="https://vecta.io/nano"><style><![CDATA[.B{fill:#ea8e44}.C{fill:#d1523b}.D{fill:#8484b0}.E{fill:#b496dc}.F{fill:#6cc7e2}.G{fill:#59bfb4}]]></style><path d="M64 64H32l32-32z" class="B"/><path d="M96 32v64H32z" class="C"/><path d="M128 0l32 32-32 32z" class="D"/><path d="M224 192v32h-32l32 32 32-32z" class="C"/><path d="M224 32v32h-32l-32 32 32 32V96h32l32-32z" class="E"/><path d="M96,96c-35.346,0-64,28.654-64,64v64h64c35.346,0,64-28.654,64-64V96H96z" class="F"/><circle cx="192" cy="192" r="32" class="G"/><path d="M128 64v64H64z" class="B"/><circle cx="16" cy="240" r="16" class="D"/><path d="M448 64h32l-32-32z" class="B"/><path d="M416 32v64h64z" class="C"/><path d="M384 0l-32 32 32 32z" class="D"/><path d="M288 192v32h32l-32 32-32-32z" class="C"/><path d="M288 32v32h32l32 32-32 32V96h-32l-32-32z" class="E"/><path d="M416 96c35.346 0 64 28.654 64 64v64h-64c-35.346 0-64-28.654-64-64V96h64z" class="F"/><circle cx="320" cy="192" r="32" class="G"/><path d="M384 64v64h64z" class="B"/><circle cx="496" cy="240" r="16" class="D"/><path d="M576 192h-32l32 32z" class="B"/><path d="M608 224v-64h-64z" class="C"/><path d="M640 256l32-32-32-32z" class="D"/><path d="M736 64V32h-32l32-32 32 32z" class="C"/><path d="M736 224v-32h-32l-32-32 32-32v32h32l32 32z" class="E"/><path d="M608,160c-35.346,0-64-28.654-64-64V32h64c35.346,0,64,28.654,64,64v64H608z" class="F"/><circle cx="704" cy="64" r="32" class="G"/><path d="M640 192v-64h-64z" class="B"/><circle cx="528" cy="16" r="16" class="D"/><path d="M960 192h32l-32 32z" class="B"/><path d="M928 224v-64h64z" class="C"/><path d="M896 256l-32-32 32-32z" class="D"/><path d="M800 64V32h32L800 0l-32 32z" class="C"/><path d="M800 224v-32h32l32-32-32-32v32h-32l-32 32z" class="E"/><path d="M928 160c35.346 0 64-28.654 64-64V32h-64c-35.347 0-64 28.654-64 64v64h64z" class="F"/><circle cx="832" cy="64" r="32" class="G"/><path d="M896 192v-64h64z" class="B"/><circle cx="1008" cy="16" r="16" class="D"/><path d="M960 320h32l-32-32z" class="B"/><path d="M928 288v64h64z" class="C"/><path d="M896 256l-32 32 32 32z" class="D"/><path d="M800 448v32h32l-32 32-32-32z" class="C"/><path d="M800 288v32h32l32 32-32 32v-32h-32l-32-32z" class="E"/><path d="M928 352c35.346 0 64 28.654 64 64v64h-64c-35.347 0-64-28.654-64-64v-64h64z" class="F"/><circle cx="832" cy="448" r="32" class="G"/><path d="M896 320v64h64z" class="B"/><circle cx="1008" cy="496" r="16" class="D"/><path d="M576 320h-32l32-32z" class="B"/><path d="M608 288v64h-64z" class="C"/><path d="M640 256l32 32-32 32z" class="D"/><path d="M736 448v32h-32l32 32 32-32z" class="C"/><path d="M736 288v32h-32l-32 32 32 32v-32h32l32-32z" class="E"/><path d="M608,352c-35.346,0-64,28.654-64,64v64h64c35.346,0,64-28.654,64-64v-64H608z" class="F"/><circle cx="704" cy="448" r="32" class="G"/><path d="M640 320v64h-64z" class="B"/><circle cx="528" cy="496" r="16" class="D"/><path d="M448 448h32l-32 32z" class="B"/><path d="M416 480v-64h64z" class="C"/><path d="M384 512l-32-32 32-32z" class="D"/><path d="M288 320v-32h32l-32-32-32 32z" class="C"/><path d="M288 480v-32h32l32-32-32-32v32h-32l-32 32z" class="E"/><path d="M416 416c35.346 0 64-28.654 64-64v-64h-64c-35.346 0-64 28.654-64 64v64h64z" class="F"/><circle cx="320" cy="320" r="32" class="G"/><path d="M384 448v-64h64z" class="B"/><circle cx="496" cy="272" r="16" class="D"/><path d="M64 448H32l32 32z" class="B"/><path d="M96 480v-64H32z" class="C"/><path d="M128 512l32-32-32-32z" class="D"/><path d="M224 320v-32h-32l32-32 32 32z" class="C"/><path d="M224 480v-32h-32l-32-32 32-32v32h32l32 32z" class="E"/><path d="M96,416c-35.346,0-64-28.654-64-64v-64h64c35.346,0,64,28.654,64,64v64H96z" class="F"/><circle cx="192" cy="320" r="32" class="G"/><path d="M128 448v-64H64z" class="B"/><circle cx="16" cy="272" r="16" class="D"/><path d="M64 960H32l32 32z" class="B"/><path d="M96 992v-64H32z" class="C"/><path d="M128 1024l32-32-32-32z" class="D"/><path d="M224 832v-32h-32l32-32 32 32z" class="C"/><path d="M224 992v-32h-32l-32-32 32-32v32h32l32 32z" class="E"/><path d="M96,928c-35.346,0-64-28.654-64-64v-64h64c35.346,0,64,28.654,64,64v64H96z" class="F"/><circle cx="192" cy="832" r="32" class="G"/><path d="M128 960v-64H64z" class="B"/><circle cx="16" cy="784" r="16" class="D"/><path d="M448 960h32l-32 32z" class="B"/><path d="M416 992v-64h64z" class="C"/><path d="M384 1024l-32-32 32-32z" class="D"/><path d="M288 832v-32h32l-32-32-32 32z" class="C"/><path d="M288 992v-32h32l32-32-32-32v32h-32l-32 32z" class="E"/><path d="M416 928c35.346 0 64-28.654 64-64v-64h-64c-35.346 0-64 28.654-64 64v64h64z" class="F"/><circle cx="320" cy="832" r="32" class="G"/><path d="M384 960v-64h64z" class="B"/><circle cx="496" cy="784" r="16" class="D"/><path d="M576 832h-32l32-32z" class="B"/><path d="M608 800v64h-64z" class="C"/><path d="M640 768l32 32-32 32z" class="D"/><path d="M736 960v32h-32l32 32 32-32z" class="C"/><path d="M736 800v32h-32l-32 32 32 32v-32h32l32-32z" class="E"/><path d="M608,864c-35.346,0-64,28.653-64,64v64h64c35.346,0,64-28.654,64-64v-64H608z" class="F"/><circle cx="704" cy="960" r="32" class="G"/><path d="M640 832v64h-64z" class="B"/><circle cx="528" cy="1008" r="16" class="D"/><path d="M960 832h32l-32-32z" class="B"/><path d="M928 800v64h64z" class="C"/><path d="M896 768l-32 32 32 32z" class="D"/><path d="M800 960v32h32l-32 32-32-32z" class="C"/><path d="M800 800v32h32l32 32-32 32v-32h-32l-32-32z" class="E"/><path d="M928 864c35.346 0 64 28.653 64 64v64h-64c-35.347 0-64-28.654-64-64v-64h64z" class="F"/><circle cx="832" cy="960" r="32" class="G"/><path d="M896 832v64h64z" class="B"/><circle cx="1008" cy="1008" r="16" class="D"/><path d="M960 704h32l-32 32z" class="B"/><path d="M928 736v-64h64z" class="C"/><path d="M896 768l-32-32 32-32z" class="D"/><path d="M800 576v-32h32l-32-32-32 32z" class="C"/><path d="M800 736v-32h32l32-32-32-32v32h-32l-32 32z" class="E"/><path d="M928 672c35.346 0 64-28.654 64-64v-64h-64c-35.347 0-64 28.654-64 64v64h64z" class="F"/><circle cx="832" cy="576" r="32" class="G"/><path d="M896 704v-64h64z" class="B"/><circle cx="1008" cy="528" r="16" class="D"/><path d="M576 704h-32l32 32z" class="B"/><path d="M608 736v-64h-64z" class="C"/><path d="M640 768l32-32-32-32z" class="D"/><path d="M736 576v-32h-32l32-32 32 32z" class="C"/><path d="M736 736v-32h-32l-32-32 32-32v32h32l32 32z" class="E"/><path d="M608,672c-35.346,0-64-28.654-64-64v-64h64c35.346,0,64,28.654,64,64v64H608z" class="F"/><circle cx="704" cy="576" r="32" class="G"/><path d="M640 704v-64h-64z" class="B"/><circle cx="528" cy="528" r="16" class="D"/><path d="M448 576h32l-32-32z" class="B"/><path d="M416 544v64h64z" class="C"/><path d="M384 512l-32 32 32 32z" class="D"/><path d="M288 704v32h32l-32 32-32-32z" class="C"/><path d="M288 544v32h32l32 32-32 32v-32h-32l-32-32z" class="E"/><path d="M416 608c35.346 0 64 28.654 64 64v64h-64c-35.346 0-64-28.654-64-64v-64h64z" class="F"/><circle cx="320" cy="704" r="32" class="G"/><path d="M384 576v64h64z" class="B"/><circle cx="496" cy="752" r="16" class="D"/><path d="M64 576H32l32-32z" class="B"/><path d="M96 544v64H32z" class="C"/><path d="M128 512l32 32-32 32z" class="D"/><path d="M224 704v32h-32l32 32 32-32z" class="C"/><path d="M224 544v32h-32l-32 32 32 32v-32h32l32-32z" class="E"/><path d="M96,608c-35.346,0-64,28.654-64,64v64h64c35.346,0,64-28.654,64-64v-64H96z" class="F"/><circle cx="192" cy="704" r="32" class="G"/><path d="M128 576v64H64z" class="B"/><circle cx="16" cy="752" r="16" class="D"/></svg>