<svg xmlns="http://www.w3.org/2000/svg" width="1024" height="1024" xmlns:v="https://vecta.io/nano"><style><![CDATA[.B{fill:#875495}.C{fill:#a95260}.D{fill:#e2804f}.E{fill:#f2bf7e}.F{fill:#9fa9c2}.G{fill:#8484b0}]]></style><circle cx="128" cy="128" r="32" class="B"/><circle cx="128" cy="224" r="32" class="C"/><circle cx="48" cy="176" r="16" class="D"/><circle cx="208" cy="176" r="16" class="E"/><path d="M256 128L128 0 0 128v32L128 32l128 128z" class="F"/><path d="M64 0L0 64v32L96 0zm128 0h-32l96 96V64z" class="G"/><circle cx="384" cy="128" r="32" class="B"/><circle cx="384" cy="224" r="32" class="C"/><circle cx="464" cy="176" r="16" class="D"/><circle cx="304" cy="176" r="16" class="E"/><path d="M256 128L384 0l128 128v32L384 32 256 160z" class="F"/><path d="M448 0l64 64v32L416 0zM320 0h32l-96 96V64z" class="G"/><circle cx="640" cy="128" r="32" class="B"/><circle cx="640" cy="32" r="32" class="C"/><circle cx="560" cy="80" r="16" class="D"/><circle cx="720" cy="80" r="16" class="E"/><path d="M768 128L640 256 512 128V96l128 128L768 96z" class="F"/><path d="M576 256l-64-64v-32l96 96zm128 0h-32l96-96v32z" class="G"/><circle cx="896" cy="128" r="32" class="B"/><circle cx="896" cy="32" r="32" class="C"/><circle cx="976" cy="80" r="16" class="D"/><circle cx="816" cy="80" r="16" class="E"/><path d="M768 128l128 128 128-128V96L896 224 768 96z" class="F"/><path d="M960 256l64-64v-32l-96 96zm-128 0h32l-96-96v32z" class="G"/><circle cx="896" cy="384" r="32" class="B"/><circle cx="896" cy="480" r="32" class="C"/><circle cx="976" cy="432" r="16" class="D"/><circle cx="816" cy="432" r="16" class="E"/><path d="M768 384l128-128 128 128v32L896 288 768 416z" class="F"/><path d="M960 256l64 64v32l-96-96zm-128 0h32l-96 96v-32z" class="G"/><circle cx="640" cy="384" r="32" class="B"/><circle cx="640" cy="480" r="32" class="C"/><circle cx="560" cy="432" r="16" class="D"/><circle cx="720" cy="432" r="16" class="E"/><path d="M768 384L640 256 512 384v32l128-128 128 128z" class="F"/><path d="M576 256l-64 64v32l96-96zm128 0h-32l96 96v-32z" class="G"/><circle cx="384" cy="384" r="32" class="B"/><circle cx="384" cy="288" r="32" class="C"/><circle cx="464" cy="336" r="16" class="D"/><circle cx="304" cy="336" r="16" class="E"/><path d="M256 384l128 128 128-128v-32L384 480 256 352z" class="F"/><path d="M448 512l64-64v-32l-96 96zm-128 0h32l-96-96v32z" class="G"/><circle cx="128" cy="384" r="32" class="B"/><circle cx="128" cy="288" r="32" class="C"/><circle cx="48" cy="336" r="16" class="D"/><circle cx="208" cy="336" r="16" class="E"/><path d="M256 384L128 512 0 384v-32l128 128 128-128z" class="F"/><path d="M64 512L0 448v-32l96 96zm128 0h-32l96-96v32z" class="G"/><circle cx="128" cy="896" r="32" class="B"/><circle cx="128" cy="800" r="32" class="C"/><circle cx="48" cy="848" r="16" class="D"/><circle cx="208" cy="848" r="16" class="E"/><path d="M256 896l-128 128L0 896v-32l128 128 128-128z" class="F"/><path d="M64 1024L0 960v-32l96 96zm128 0h-32l96-96v32z" class="G"/><circle cx="384" cy="896" r="32" class="B"/><circle cx="384" cy="800" r="32" class="C"/><circle cx="464" cy="848" r="16" class="D"/><circle cx="304" cy="848" r="16" class="E"/><path d="M256 896l128 128 128-128v-32L384 992 256 864z" class="F"/><path d="M448 1024l64-64v-32l-96 96zm-128 0h32l-96-96v32z" class="G"/><circle cx="640" cy="896" r="32" class="B"/><circle cx="640" cy="992" r="32" class="C"/><circle cx="560" cy="944" r="16" class="D"/><circle cx="720" cy="944" r="16" class="E"/><path d="M768 896L640 768 512 896v32l128-128 128 128z" class="F"/><path d="M576 768l-64 64v32l96-96zm128 0h-32l96 96v-32z" class="G"/><circle cx="896" cy="896" r="32" class="B"/><circle cx="896" cy="992" r="32" class="C"/><circle cx="976" cy="944" r="16" class="D"/><circle cx="816" cy="944" r="16" class="E"/><path d="M768 896l128-128 128 128v32L896 800 768 928z" class="F"/><path d="M960 768l64 64v32l-96-96zm-128 0h32l-96 96v-32z" class="G"/><circle cx="896" cy="640" r="32" class="B"/><circle cx="896" cy="544" r="32" class="C"/><circle cx="976" cy="592" r="16" class="D"/><circle cx="816" cy="592" r="16" class="E"/><path d="M768 640l128 128 128-128v-32L896 736 768 608z" class="F"/><path d="M960 768l64-64v-32l-96 96zm-128 0h32l-96-96v32z" class="G"/><circle cx="640" cy="640" r="32" class="B"/><circle cx="640" cy="544" r="32" class="C"/><circle cx="560" cy="592" r="16" class="D"/><circle cx="720" cy="592" r="16" class="E"/><path d="M768 640L640 768 512 640v-32l128 128 128-128z" class="F"/><path d="M576 768l-64-64v-32l96 96zm128 0h-32l96-96v32z" class="G"/><circle cx="384" cy="640" r="32" class="B"/><circle cx="384" cy="736" r="32" class="C"/><circle cx="464" cy="688" r="16" class="D"/><circle cx="304" cy="688" r="16" class="E"/><path d="M256 640l128-128 128 128v32L384 544 256 672z" class="F"/><path d="M448 512l64 64v32l-96-96zm-128 0h32l-96 96v-32z" class="G"/><circle cx="128" cy="640" r="32" class="B"/><circle cx="128" cy="736" r="32" class="C"/><circle cx="48" cy="688" r="16" class="D"/><circle cx="208" cy="688" r="16" class="E"/><path d="M256 640L128 512 0 640v32l128-128 128 128z" class="F"/><path d="M64 512L0 576v32l96-96zm128 0h-32l96 96v-32z" class="G"/></svg>