<svg xmlns="http://www.w3.org/2000/svg" width="1024" height="1024" xmlns:v="https://vecta.io/nano"><style><![CDATA[.B{fill:#957c67}.C{fill:#f2c8bf}.D{fill:#ab6627}.E{fill:#d4b6a3}.F{fill:#d2948b}]]></style><g class="B"><path d="M48 64h16V48c0 8.836-7.164 16-16 16z"/><path d="M0,64h48c-8.836,0-16-7.164-16-16s7.164-16,16-16s16,7.164,16,16V0L0,64z"/></g><path d="M246.68 54.694C240.97 60.445 233.103 64 224.415 64c-17.444 0-31.585-14.327-31.585-32 0-8.727 3.453-16.634 9.044-22.407C189.219 3.449 175.013 0 160 0c-43.972 0-81.038 29.564-92.407 69.9C70.527 66.3 74.994 64 80 64c6.487 0 12.068 3.863 14.58 9.412C104.307 67.443 115.751 64 128 64c35.346 0 64 28.654 64 64 0 12.249-3.443 23.693-9.412 33.42 5.549 2.512 9.412 8.093 9.412 14.58 0 5.006-2.3 9.473-5.9 12.407C226.436 177.038 256 139.972 256 96c0-14.789-3.347-28.794-9.32-41.306zM144 64c-8.836 0-16-7.164-16-16s7.164-16 16-16 16 7.164 16 16-7.164 16-16 16zm64 64c-8.836 0-16-7.164-16-16s7.164-16 16-16 16 7.164 16 16-7.164 16-16 16zm-46.58 54.587c-5.804 3.56-12.216 6.224-19.048 7.792A96.5 96.5 0 0 0 160 192c3.856 0 7.657-.234 11.395-.676-4.452-1.336-8.084-4.557-9.975-8.737z" class="C"/><g class="D"><path d="M208 192c8.836 0 16 7.164 16 16s-7.164 16-16 16-16-7.164-16-16v48l64-64h-48z"/><path d="M208 192h-16v16c0-8.836 7.164-16 16-16z"/></g><path d="M64 128.58c-35.346 0-64 28.524-64 63.71a63.39 63.39 0 0 0 3.13 19.721C7.814 200.28 19.157 192 32.415 192a31.17 31.17 0 0 1 9.125 1.362A15.95 15.95 0 0 1 48 192c8.836 0 16 7.164 16 16 0 2.334-.504 4.549-1.402 6.548A32.39 32.39 0 0 1 64 224c0 13.032-7.693 24.236-18.726 29.226C51.198 255.028 57.484 256 64 256c35.346 0 64-28.524 64-63.71s-28.654-63.71-64-63.71z" class="E"/><path d="M158.586 118.573C156.078 124.13 150.493 128 144 128c-8.836 0-16-7.164-16-16 0-6.493 3.87-12.079 9.427-14.586A31.98 31.98 0 0 0 128 96c-17.673 0-32 14.327-32 32 17.673 0 32 14.327 32 32 17.673 0 32-14.327 32-32 0-3.281-.496-6.447-1.414-9.427z" class="F"/><g class="B"><path d="M464 64h-16V48c0 8.836 7.164 16 16 16z"/><path d="M512 64h-48c8.836 0 16-7.164 16-16s-7.164-16-16-16-16 7.164-16 16V0l64 64z"/></g><path d="M256 96c0 43.972 29.564 81.038 69.9 92.407-3.6-2.934-5.9-7.401-5.9-12.407 0-6.487 3.863-12.068 9.412-14.58C323.443 151.693 320 140.249 320 128c0-35.346 28.654-64 64-64 12.249 0 23.693 3.443 33.42 9.412C419.932 67.863 425.513 64 432 64c5.006 0 9.473 2.3 12.407 5.9C433.038 29.564 395.972 0 352 0c-15.013 0-29.219 3.449-41.874 9.593 5.591 5.773 9.044 13.68 9.044 22.407 0 17.673-14.141 32-31.585 32-8.688 0-16.555-3.555-22.265-9.306C259.347 67.206 256 81.211 256 96zm96-48c0-8.836 7.164-16 16-16s16 7.164 16 16-7.164 16-16 16-16-7.164-16-16zm-64 64c0-8.836 7.164-16 16-16s16 7.164 16 16-7.164 16-16 16-16-7.164-16-16zm62.58 70.587c5.804 3.56 12.216 6.224 19.048 7.792A96.5 96.5 0 0 1 352 192c-3.856 0-7.657-.234-11.395-.676 4.452-1.336 8.084-4.557 9.975-8.737z" class="C"/><g class="D"><path d="M304 192c-8.836 0-16 7.164-16 16s7.164 16 16 16 16-7.164 16-16v48l-64-64h48z"/><path d="M304 192h16v16c0-8.836-7.164-16-16-16z"/></g><path d="M448 128.58c35.346 0 64 28.524 64 63.71a63.39 63.39 0 0 1-3.13 19.721C504.186 200.28 492.843 192 479.585 192c-3.174 0-6.236.479-9.125 1.362a15.94 15.94 0 0 0-6.459-1.362c-8.836 0-16 7.164-16 16 0 2.334.504 4.549 1.402 6.548A32.36 32.36 0 0 0 448 224c0 13.032 7.693 24.236 18.726 29.226C460.802 255.028 454.516 256 448 256c-35.346 0-64-28.524-64-63.71s28.654-63.71 64-63.71z" class="E"/><path d="M353.414 118.573C355.922 124.13 361.507 128 368 128c8.836 0 16-7.164 16-16 0-6.493-3.87-12.079-9.427-14.586A31.98 31.98 0 0 1 384 96c17.673 0 32 14.327 32 32-17.673 0-32 14.327-32 32-17.673 0-32-14.327-32-32 0-3.281.496-6.447 1.414-9.427z" class="F"/><g class="B"><path d="M560 192h16v16c0-8.836-7.163-16-16-16z"/><path d="M512 192h48c-8.837 0-16 7.164-16 16s7.163 16 16 16 16-7.164 16-16v48l-64-64z"/></g><path d="M768 160c0-43.972-29.564-81.038-69.9-92.407 3.6 2.934 5.9 7.401 5.9 12.407 0 6.487-3.862 12.068-9.411 14.58C700.557 104.307 704 115.751 704 128c0 35.346-28.654 64-64 64-12.249 0-23.692-3.443-33.42-9.412-2.512 5.549-8.093 9.412-14.58 9.412-5.006 0-9.474-2.3-12.407-5.9C590.963 226.436 628.027 256 672 256c15.013 0 29.219-3.449 41.874-9.593-5.592-5.773-9.044-13.68-9.044-22.407 0-17.673 14.141-32 31.585-32 8.688 0 16.555 3.555 22.265 9.306C764.653 188.794 768 174.789 768 160zm-96 48c0 8.836-7.163 16-16 16s-16-7.164-16-16 7.163-16 16-16 16 7.164 16 16zm64-64c0 8.836-7.163 16-16 16s-16-7.164-16-16 7.163-16 16-16 16 7.164 16 16zm-62.58-70.587c-5.804-3.56-12.217-6.224-19.048-7.792A96.5 96.5 0 0 1 672 64c3.856 0 7.657.234 11.395.676-4.452 1.336-8.083 4.557-9.975 8.737z" class="C"/><g class="D"><path d="M720 64c8.837 0 16-7.164 16-16s-7.163-16-16-16-16 7.164-16 16V0l64 64h-48z"/><path d="M720 64h-16V48c0 8.836 7.163 16 16 16z"/></g><path d="M576 127.42c-35.346 0-64-28.524-64-63.71a63.42 63.42 0 0 1 3.13-19.721C519.814 55.72 531.157 64 544.415 64a31.18 31.18 0 0 0 9.126-1.362A15.94 15.94 0 0 0 560 64c8.837 0 16-7.164 16-16 0-2.334-.504-4.549-1.402-6.548C575.509 38.464 576 35.291 576 32c0-13.032-7.693-24.236-18.726-29.227A64.27 64.27 0 0 1 576 0c35.346 0 64 28.524 64 63.71s-28.654 63.71-64 63.71z" class="E"/><path d="M670.587 137.427C668.078 131.87 662.493 128 656 128c-8.837 0-16 7.164-16 16 0 6.493 3.87 12.079 9.427 14.586-2.98.917-6.146 1.414-9.427 1.414-17.673 0-32-14.327-32-32 17.673 0 32-14.327 32-32 17.673 0 32 14.327 32 32 0 3.281-.496 6.447-1.413 9.427z" class="F"/><g class="B"><path d="M976 192h-16v16c0-8.836 7.163-16 16-16z"/><path d="M1024 192h-48c8.837 0 16 7.164 16 16s-7.163 16-16 16-16-7.164-16-16v48l64-64z"/></g><path d="M777.32 201.306c5.71-5.751 13.577-9.306 22.265-9.306 17.444 0 31.585 14.327 31.585 32 0 8.727-3.452 16.634-9.044 22.407C834.781 252.551 848.987 256 864 256c43.973 0 81.037-29.564 92.407-69.9-2.934 3.6-7.401 5.9-12.407 5.9-6.487 0-12.068-3.863-14.58-9.412C919.692 188.557 908.249 192 896 192c-35.346 0-64-28.654-64-64 0-12.249 3.443-23.693 9.411-33.42C835.862 92.068 832 86.487 832 80c0-5.006 2.3-9.473 5.9-12.407C797.564 78.962 768 116.028 768 160c0 14.789 3.347 28.794 9.32 41.306zM880 192c8.837 0 16 7.164 16 16s-7.163 16-16 16-16-7.164-16-16 7.163-16 16-16zm-64-64c8.837 0 16 7.164 16 16s-7.163 16-16 16-16-7.164-16-16 7.163-16 16-16zm46.58-54.587c5.804-3.56 12.217-6.224 19.048-7.792A96.5 96.5 0 0 0 864 64c-3.856 0-7.657.234-11.395.676 4.452 1.336 8.083 4.557 9.975 8.737z" class="C"/><g class="D"><path d="M816 64c-8.837 0-16-7.164-16-16s7.163-16 16-16 16 7.164 16 16V0l-64 64h48z"/><path d="M816 64h16V48c0 8.836-7.163 16-16 16z"/></g><path d="M960 127.42c35.346 0 64-28.524 64-63.71a63.42 63.42 0 0 0-3.13-19.721C1016.186 55.72 1004.843 64 991.585 64a31.18 31.18 0 0 1-9.126-1.362A15.94 15.94 0 0 1 976 64c-8.837 0-16-7.164-16-16 0-2.334.504-4.549 1.402-6.548C960.491 38.464 960 35.291 960 32c0-13.032 7.693-24.236 18.726-29.227A64.27 64.27 0 0 0 960 0c-35.347 0-64 28.524-64 63.71s28.653 63.71 64 63.71z" class="E"/><path d="M865.413 137.427C867.922 131.87 873.507 128 880 128c8.837 0 16 7.164 16 16 0 6.493-3.87 12.079-9.427 14.586 2.98.917 6.146 1.414 9.427 1.414 17.673 0 32-14.327 32-32-17.673 0-32-14.327-32-32-17.673 0-32 14.327-32 32 0 3.281.496 6.447 1.413 9.427z" class="F"/><g class="B"><path d="M976 320h-16v-16c0 8.836 7.163 16 16 16z"/><path d="M1024 320h-48c8.837 0 16-7.164 16-16s-7.163-16-16-16-16 7.164-16 16v-48l64 64z"/></g><path d="M768 352c0 43.972 29.564 81.038 69.9 92.407-3.601-2.934-5.9-7.401-5.9-12.407 0-6.487 3.862-12.068 9.411-14.58C835.443 407.693 832 396.249 832 384c0-35.346 28.654-64 64-64 12.249 0 23.692 3.443 33.42 9.412 2.512-5.549 8.093-9.412 14.58-9.412 5.006 0 9.474 2.3 12.407 5.9C945.037 285.564 907.973 256 864 256c-15.013 0-29.219 3.449-41.874 9.593 5.592 5.773 9.044 13.68 9.044 22.407 0 17.673-14.141 32-31.585 32-8.688 0-16.555-3.555-22.265-9.306C771.347 323.206 768 337.211 768 352zm96-48c0-8.836 7.163-16 16-16s16 7.164 16 16-7.163 16-16 16-16-7.164-16-16zm-64 64c0-8.836 7.163-16 16-16s16 7.164 16 16-7.163 16-16 16-16-7.164-16-16zm62.58 70.587c5.804 3.56 12.217 6.224 19.048 7.792A96.5 96.5 0 0 1 864 448c-3.856 0-7.657-.234-11.395-.676 4.452-1.336 8.083-4.557 9.975-8.737z" class="C"/><g class="D"><path d="M816 448c-8.837 0-16 7.164-16 16s7.163 16 16 16 16-7.164 16-16v48l-64-64h48z"/><path d="M816 448h16v16c0-8.836-7.163-16-16-16z"/></g><path d="M960 384.58c35.346 0 64 28.524 64 63.71a63.42 63.42 0 0 1-3.13 19.721C1016.186 456.28 1004.843 448 991.585 448a31.18 31.18 0 0 0-9.126 1.362A15.94 15.94 0 0 0 976 448c-8.837 0-16 7.164-16 16 0 2.334.504 4.549 1.402 6.548-.911 2.988-1.402 6.161-1.402 9.452 0 13.032 7.693 24.236 18.726 29.226C972.803 511.028 966.516 512 960 512c-35.347 0-64-28.524-64-63.71s28.653-63.71 64-63.71z" class="E"/><path d="M865.413 374.573C867.922 380.13 873.507 384 880 384c8.837 0 16-7.164 16-16 0-6.493-3.87-12.079-9.427-14.586 2.98-.917 6.146-1.414 9.427-1.414 17.673 0 32 14.327 32 32-17.673 0-32 14.327-32 32-17.673 0-32-14.327-32-32 0-3.281.496-6.447 1.413-9.427z" class="F"/><g class="B"><path d="M560 320h16v-16c0 8.836-7.163 16-16 16z"/><path d="M512 320h48c-8.837 0-16-7.164-16-16s7.163-16 16-16 16 7.164 16 16v-48l-64 64z"/></g><path d="M758.68 310.694c-5.71 5.751-13.577 9.306-22.265 9.306-17.444 0-31.585-14.327-31.585-32 0-8.727 3.452-16.634 9.044-22.407C701.219 259.449 687.013 256 672 256c-43.973 0-81.037 29.564-92.407 69.9 2.934-3.6 7.401-5.9 12.407-5.9 6.487 0 12.068 3.863 14.58 9.412C616.308 323.443 627.751 320 640 320c35.346 0 64 28.654 64 64 0 12.249-3.443 23.693-9.411 33.42 5.549 2.512 9.411 8.093 9.411 14.58 0 5.006-2.3 9.473-5.9 12.407C738.436 433.038 768 395.972 768 352c0-14.789-3.347-28.794-9.32-41.306zM656 320c-8.837 0-16-7.164-16-16s7.163-16 16-16 16 7.164 16 16-7.163 16-16 16zm64 64c-8.837 0-16-7.164-16-16s7.163-16 16-16 16 7.164 16 16-7.163 16-16 16zm-46.58 54.587c-5.804 3.56-12.217 6.224-19.048 7.792A96.5 96.5 0 0 0 672 448c3.856 0 7.657-.234 11.395-.676-4.452-1.336-8.083-4.557-9.975-8.737z" class="C"/><g class="D"><path d="M720 448c8.837 0 16 7.164 16 16s-7.163 16-16 16-16-7.164-16-16v48l64-64h-48z"/><path d="M720 448h-16v16c0-8.836 7.163-16 16-16z"/></g><path d="M576 384.58c-35.346 0-64 28.524-64 63.71a63.42 63.42 0 0 0 3.13 19.721C519.814 456.28 531.157 448 544.415 448a31.18 31.18 0 0 1 9.126 1.362A15.94 15.94 0 0 1 560 448c8.837 0 16 7.164 16 16 0 2.334-.504 4.549-1.402 6.548.911 2.988 1.402 6.162 1.402 9.452 0 13.032-7.693 24.236-18.726 29.226C563.197 511.028 569.484 512 576 512c35.346 0 64-28.524 64-63.71s-28.654-63.71-64-63.71z" class="E"/><path d="M670.587 374.573C668.078 380.13 662.493 384 656 384c-8.837 0-16-7.164-16-16 0-6.493 3.87-12.079 9.427-14.586-2.98-.917-6.146-1.414-9.427-1.414-17.673 0-32 14.327-32 32 17.673 0 32 14.327 32 32 17.673 0 32-14.327 32-32 0-3.281-.496-6.447-1.413-9.427z" class="F"/><g class="B"><path d="M464 448h-16v16c0-8.836 7.164-16 16-16z"/><path d="M512 448h-48c8.836 0 16 7.164 16 16s-7.164 16-16 16-16-7.164-16-16v48l64-64z"/></g><path d="M265.32 457.306c5.71-5.751 13.578-9.306 22.265-9.306 17.444 0 31.585 14.327 31.585 32 0 8.727-3.453 16.634-9.044 22.407C322.781 508.551 336.987 512 352 512c43.972 0 81.038-29.564 92.407-69.9-2.934 3.6-7.401 5.9-12.407 5.9-6.487 0-12.068-3.863-14.58-9.412C407.693 444.557 396.249 448 384 448c-35.346 0-64-28.654-64-64 0-12.249 3.443-23.693 9.412-33.42-5.549-2.512-9.412-8.093-9.412-14.58 0-5.006 2.3-9.473 5.9-12.407C285.564 334.962 256 372.028 256 416c0 14.789 3.347 28.794 9.32 41.306zM368 448c8.836 0 16 7.164 16 16s-7.164 16-16 16-16-7.164-16-16 7.164-16 16-16zm-64-64c8.836 0 16 7.164 16 16s-7.164 16-16 16-16-7.164-16-16 7.164-16 16-16zm46.58-54.587c5.804-3.56 12.216-6.224 19.048-7.792A96.5 96.5 0 0 0 352 320c-3.856 0-7.657.234-11.395.676 4.452 1.336 8.084 4.557 9.975 8.737z" class="C"/><g class="D"><path d="M304 320c-8.836 0-16-7.164-16-16s7.164-16 16-16 16 7.164 16 16v-48l-64 64h48z"/><path d="M304 320h16v-16c0 8.836-7.164 16-16 16z"/></g><path d="M448 383.42c35.346 0 64-28.524 64-63.71a63.39 63.39 0 0 0-3.13-19.721C504.186 311.72 492.843 320 479.585 320c-3.174 0-6.236-.479-9.125-1.362a15.94 15.94 0 0 1-6.459 1.362c-8.836 0-16-7.164-16-16 0-2.334.504-4.549 1.402-6.548A32.36 32.36 0 0 1 448 288c0-13.032 7.693-24.236 18.726-29.227C460.802 256.972 454.516 256 448 256c-35.346 0-64 28.524-64 63.71s28.654 63.71 64 63.71z" class="E"/><path d="M353.414 393.427C355.922 387.87 361.507 384 368 384c8.836 0 16 7.164 16 16 0 6.493-3.87 12.079-9.427 14.586 2.98.917 6.146 1.414 9.427 1.414 17.673 0 32-14.327 32-32-17.673 0-32-14.327-32-32-17.673 0-32 14.327-32 32 0 3.281.496 6.447 1.414 9.427z" class="F"/><g class="B"><path d="M48 448h16v16c0-8.836-7.164-16-16-16z"/><path d="M0,448h48c-8.836,0-16,7.164-16,16s7.164,16,16,16s16-7.164,16-16v48L0,448z"/></g><path d="M256 416c0-43.972-29.564-81.038-69.9-92.407 3.6 2.934 5.9 7.401 5.9 12.407 0 6.487-3.863 12.068-9.412 14.58C188.557 360.307 192 371.751 192 384c0 35.346-28.654 64-64 64-12.249 0-23.693-3.443-33.42-9.412C92.068 444.137 86.487 448 80 448c-5.006 0-9.473-2.3-12.407-5.9C78.962 482.436 116.028 512 160 512c15.013 0 29.219-3.449 41.874-9.593-5.591-5.773-9.044-13.68-9.044-22.407 0-17.673 14.141-32 31.585-32 8.688 0 16.555 3.555 22.265 9.306C252.653 444.794 256 430.789 256 416zm-96 48c0 8.836-7.164 16-16 16s-16-7.164-16-16 7.164-16 16-16 16 7.164 16 16zm64-64c0 8.836-7.164 16-16 16s-16-7.164-16-16 7.164-16 16-16 16 7.164 16 16zm-62.58-70.587c-5.804-3.56-12.216-6.224-19.048-7.792A96.5 96.5 0 0 1 160 320c3.856 0 7.657.234 11.395.676-4.452 1.336-8.084 4.557-9.975 8.737z" class="C"/><g class="D"><path d="M208 320c8.836 0 16-7.164 16-16s-7.164-16-16-16-16 7.164-16 16v-48l64 64h-48z"/><path d="M208 320h-16v-16c0 8.836 7.164 16 16 16z"/></g><path d="M64 383.42c-35.346 0-64-28.524-64-63.71a63.39 63.39 0 0 1 3.13-19.721C7.814 311.72 19.157 320 32.415 320a31.17 31.17 0 0 0 9.125-1.362A15.95 15.95 0 0 0 48 320c8.836 0 16-7.164 16-16 0-2.334-.504-4.549-1.402-6.548A32.39 32.39 0 0 0 64 288c0-13.032-7.693-24.236-18.726-29.227C51.198 256.972 57.484 256 64 256c35.346 0 64 28.524 64 63.71s-28.654 63.71-64 63.71z" class="E"/><path d="M158.586 393.427C156.078 387.87 150.493 384 144 384c-8.836 0-16 7.164-16 16 0 6.493 3.87 12.079 9.427 14.586-2.98.917-6.146 1.414-9.427 1.414-17.673 0-32-14.327-32-32 17.673 0 32-14.327 32-32 17.673 0 32 14.327 32 32 0 3.281-.496 6.447-1.414 9.427z" class="F"/><g class="B"><path d="M48 960h16v16c0-8.837-7.164-16-16-16z"/><path d="M0,960h48c-8.836,0-16,7.163-16,16s7.164,16,16,16s16-7.163,16-16v48L0,960z"/></g><path d="M256 928c0-43.972-29.564-81.037-69.9-92.407 3.6 2.934 5.9 7.401 5.9 12.407 0 6.487-3.863 12.068-9.412 14.58C188.557 872.307 192 883.751 192 896c0 35.346-28.654 64-64 64-12.249 0-23.693-3.443-33.42-9.412C92.068 956.138 86.487 960 80 960c-5.006 0-9.473-2.3-12.407-5.9 11.37 40.336 48.435 69.9 92.407 69.9 15.013 0 29.219-3.448 41.874-9.593-5.591-5.772-9.044-13.68-9.044-22.407 0-17.673 14.141-32 31.585-32 8.688 0 16.555 3.555 22.265 9.306C252.653 956.794 256 942.789 256 928zm-96 48c0 8.837-7.164 16-16 16s-16-7.163-16-16 7.164-16 16-16 16 7.163 16 16zm64-64c0 8.837-7.164 16-16 16s-16-7.163-16-16 7.164-16 16-16 16 7.163 16 16zm-62.58-70.587a63.59 63.59 0 0 0-19.048-7.792A96.59 96.59 0 0 1 160 832c3.856 0 7.657.234 11.395.676-4.452 1.336-8.084 4.557-9.975 8.737z" class="C"/><g class="D"><path d="M208 832c8.836 0 16-7.163 16-16s-7.164-16-16-16-16 7.163-16 16v-48l64 64h-48z"/><path d="M208 832h-16v-16c0 8.837 7.164 16 16 16z"/></g><path d="M64 895.421c-35.346 0-64-28.524-64-63.711 0-6.884 1.101-13.511 3.13-19.721C7.814 823.721 19.157 832 32.415 832a31.17 31.17 0 0 0 9.125-1.362c1.977.874 4.161 1.362 6.46 1.362 8.836 0 16-7.163 16-16 0-2.334-.504-4.549-1.402-6.548C63.508 806.464 64 803.29 64 800c0-13.031-7.693-24.236-18.726-29.227C51.198 768.972 57.484 768 64 768c35.346 0 64 28.524 64 63.71s-28.654 63.711-64 63.711z" class="E"/><path d="M158.586 905.427C156.078 899.87 150.493 896 144 896c-8.836 0-16 7.163-16 16 0 6.493 3.87 12.078 9.427 14.587-2.98.917-6.146 1.413-9.427 1.413-17.673 0-32-14.327-32-32 17.673 0 32-14.327 32-32 17.673 0 32 14.327 32 32a31.98 31.98 0 0 1-1.414 9.427z" class="F"/><g class="B"><path d="M464 960h-16v16c0-8.837 7.164-16 16-16z"/><path d="M512 960h-48c8.836 0 16 7.163 16 16s-7.164 16-16 16-16-7.163-16-16v48l64-64z"/></g><path d="M265.32 969.306c5.71-5.751 13.578-9.306 22.265-9.306 17.444 0 31.585 14.327 31.585 32 0 8.728-3.453 16.635-9.044 22.407 12.655 6.145 26.861 9.593 41.874 9.593 43.972 0 81.038-29.564 92.407-69.9-2.934 3.601-7.401 5.9-12.407 5.9-6.487 0-12.068-3.862-14.58-9.412C407.693 956.557 396.249 960 384 960c-35.346 0-64-28.654-64-64 0-12.249 3.443-23.693 9.412-33.42-5.549-2.512-9.412-8.093-9.412-14.58 0-5.006 2.3-9.474 5.9-12.407C285.564 846.963 256 884.028 256 928c0 14.789 3.347 28.794 9.32 41.306zM368 960c8.836 0 16 7.163 16 16s-7.164 16-16 16-16-7.163-16-16 7.164-16 16-16zm-64-64c8.836 0 16 7.163 16 16s-7.164 16-16 16-16-7.163-16-16 7.164-16 16-16zm46.58-54.587a63.59 63.59 0 0 1 19.048-7.792A96.59 96.59 0 0 0 352 832c-3.856 0-7.657.234-11.395.676 4.452 1.336 8.084 4.557 9.975 8.737z" class="C"/><g class="D"><path d="M304 832c-8.836 0-16-7.163-16-16s7.164-16 16-16 16 7.163 16 16v-48l-64 64h48z"/><path d="M304 832h16v-16c0 8.837-7.164 16-16 16z"/></g><path d="M448 895.421c35.346 0 64-28.524 64-63.711 0-6.884-1.101-13.511-3.13-19.721C504.186 823.721 492.843 832 479.585 832c-3.174 0-6.236-.479-9.125-1.362-1.976.874-4.16 1.362-6.459 1.362-8.836 0-16-7.163-16-16 0-2.334.504-4.549 1.402-6.548-.911-2.988-1.403-6.162-1.403-9.452 0-13.031 7.693-24.236 18.726-29.227C460.802 768.972 454.516 768 448 768c-35.346 0-64 28.524-64 63.71s28.654 63.711 64 63.711z" class="E"/><path d="M353.414 905.427C355.922 899.87 361.507 896 368 896c8.836 0 16 7.163 16 16 0 6.493-3.87 12.078-9.427 14.587 2.98.917 6.146 1.413 9.427 1.413 17.673 0 32-14.327 32-32-17.673 0-32-14.327-32-32-17.673 0-32 14.327-32 32a31.98 31.98 0 0 0 1.414 9.427z" class="F"/><g class="B"><path d="M560 832h16v-16c0 8.837-7.163 16-16 16z"/><path d="M512 832h48c-8.837 0-16-7.163-16-16s7.163-16 16-16 16 7.163 16 16v-48l-64 64z"/></g><path d="M758.68 822.694c-5.71 5.75-13.577 9.306-22.265 9.306-17.444 0-31.585-14.327-31.585-32a32.1 32.1 0 0 1 9.044-22.407C701.219 771.448 687.013 768 672 768c-43.973 0-81.037 29.564-92.407 69.9 2.934-3.601 7.401-5.9 12.407-5.9 6.487 0 12.068 3.862 14.58 9.411C616.308 835.443 627.751 832 640 832c35.346 0 64 28.654 64 64 0 12.249-3.443 23.693-9.411 33.42 5.549 2.512 9.411 8.093 9.411 14.58 0 5.006-2.3 9.474-5.9 12.407C738.436 945.037 768 907.972 768 864c0-14.789-3.347-28.794-9.32-41.306zM656 832c-8.837 0-16-7.163-16-16s7.163-16 16-16 16 7.163 16 16-7.163 16-16 16zm64 64c-8.837 0-16-7.163-16-16s7.163-16 16-16 16 7.163 16 16-7.163 16-16 16zm-46.58 54.587a63.6 63.6 0 0 1-19.048 7.792A96.59 96.59 0 0 0 672 960c3.856 0 7.657-.234 11.395-.676-4.452-1.336-8.083-4.557-9.975-8.737z" class="C"/><g class="D"><path d="M720 960c8.837 0 16 7.163 16 16s-7.163 16-16 16-16-7.163-16-16v48l64-64h-48z"/><path d="M720 960h-16v16c0-8.837 7.163-16 16-16z"/></g><path d="M576 896.579c-35.346 0-64 28.524-64 63.711 0 6.884 1.102 13.511 3.13 19.721C519.814 968.279 531.157 960 544.415 960a31.18 31.18 0 0 1 9.126 1.362c1.976-.874 4.16-1.362 6.459-1.362 8.837 0 16 7.163 16 16 0 2.334-.504 4.549-1.402 6.548.911 2.988 1.402 6.161 1.402 9.452 0 13.031-7.693 24.236-18.726 29.227 5.923 1.802 12.21 2.773 18.726 2.773 35.346 0 64-28.523 64-63.71s-28.654-63.711-64-63.711z" class="E"/><path d="M670.587 886.573C668.078 892.13 662.493 896 656 896c-8.837 0-16-7.163-16-16 0-6.493 3.87-12.078 9.427-14.587-2.98-.917-6.146-1.413-9.427-1.413-17.673 0-32 14.327-32 32 17.673 0 32 14.327 32 32 17.673 0 32-14.327 32-32a32.01 32.01 0 0 0-1.413-9.427z" class="F"/><g class="B"><path d="M976 832h-16v-16c0 8.837 7.163 16 16 16z"/><path d="M1024 832h-48c8.837 0 16-7.163 16-16s-7.163-16-16-16-16 7.163-16 16v-48l64 64z"/></g><path d="M768 864c0 43.972 29.564 81.037 69.9 92.407-3.601-2.934-5.9-7.401-5.9-12.407 0-6.487 3.862-12.068 9.411-14.58C835.443 919.693 832 908.249 832 896c0-35.346 28.654-64 64-64 12.249 0 23.692 3.443 33.42 9.411 2.512-5.549 8.093-9.411 14.58-9.411 5.006 0 9.474 2.3 12.407 5.9C945.037 797.564 907.973 768 864 768c-15.013 0-29.219 3.448-41.874 9.593A32.1 32.1 0 0 1 831.17 800c0 17.673-14.141 32-31.585 32-8.688 0-16.555-3.556-22.265-9.306C771.347 835.206 768 849.211 768 864zm96-48c0-8.837 7.163-16 16-16s16 7.163 16 16-7.163 16-16 16-16-7.163-16-16zm-64 64c0-8.837 7.163-16 16-16s16 7.163 16 16-7.163 16-16 16-16-7.163-16-16zm62.58 70.587a63.6 63.6 0 0 0 19.048 7.792A96.59 96.59 0 0 1 864 960c-3.856 0-7.657-.234-11.395-.676 4.452-1.336 8.083-4.557 9.975-8.737z" class="C"/><g class="D"><path d="M816 960c-8.837 0-16 7.163-16 16s7.163 16 16 16 16-7.163 16-16v48l-64-64h48z"/><path d="M816 960h16v16c0-8.837-7.163-16-16-16z"/></g><path d="M960 896.579c35.346 0 64 28.524 64 63.711 0 6.884-1.102 13.511-3.13 19.721-4.685-11.731-16.027-20.011-29.285-20.011a31.18 31.18 0 0 0-9.126 1.362c-1.976-.874-4.16-1.362-6.459-1.362-8.837 0-16 7.163-16 16 0 2.334.504 4.549 1.402 6.548-.911 2.988-1.402 6.161-1.402 9.452 0 13.031 7.693 24.236 18.726 29.227-5.923 1.802-12.21 2.773-18.726 2.773-35.347 0-64-28.523-64-63.71s28.653-63.711 64-63.711z" class="E"/><path d="M865.413 886.573C867.922 892.13 873.507 896 880 896c8.837 0 16-7.163 16-16 0-6.493-3.87-12.078-9.427-14.587 2.98-.917 6.146-1.413 9.427-1.413 17.673 0 32 14.327 32 32-17.673 0-32 14.327-32 32-17.673 0-32-14.327-32-32a32.01 32.01 0 0 1 1.413-9.427z" class="F"/><g class="B"><path d="M976 704h-16v16c0-8.837 7.163-16 16-16z"/><path d="M1024 704h-48c8.837 0 16 7.163 16 16s-7.163 16-16 16-16-7.163-16-16v48l64-64z"/></g><path d="M777.32 713.306c5.71-5.751 13.577-9.306 22.265-9.306 17.444 0 31.585 14.327 31.585 32a32.1 32.1 0 0 1-9.044 22.407C834.781 764.552 848.987 768 864 768c43.973 0 81.037-29.564 92.407-69.9-2.934 3.601-7.401 5.9-12.407 5.9-6.487 0-12.068-3.862-14.58-9.412C919.692 700.557 908.249 704 896 704c-35.346 0-64-28.654-64-64 0-12.249 3.443-23.693 9.411-33.42-5.549-2.512-9.411-8.093-9.411-14.58 0-5.006 2.3-9.474 5.9-12.407C797.564 590.963 768 628.028 768 672c0 14.789 3.347 28.794 9.32 41.306zM880 704c8.837 0 16 7.163 16 16s-7.163 16-16 16-16-7.163-16-16 7.163-16 16-16zm-64-64c8.837 0 16 7.163 16 16s-7.163 16-16 16-16-7.163-16-16 7.163-16 16-16zm46.58-54.587a63.6 63.6 0 0 1 19.048-7.792A96.59 96.59 0 0 0 864 576c-3.856 0-7.657.234-11.395.676 4.452 1.336 8.083 4.557 9.975 8.737z" class="C"/><g class="D"><path d="M816 576c-8.837 0-16-7.163-16-16s7.163-16 16-16 16 7.163 16 16v-48l-64 64h48z"/><path d="M816 576h16v-16c0 8.837-7.163 16-16 16z"/></g><path d="M960 639.421c35.346 0 64-28.524 64-63.711 0-6.884-1.102-13.511-3.13-19.721-4.685 11.731-16.027 20.011-29.285 20.011a31.18 31.18 0 0 1-9.126-1.362c-1.976.874-4.16 1.362-6.459 1.362-8.837 0-16-7.163-16-16 0-2.334.504-4.549 1.402-6.548-.911-2.988-1.402-6.162-1.402-9.452 0-13.031 7.693-24.236 18.726-29.227A64.27 64.27 0 0 0 960 512c-35.347 0-64 28.524-64 63.71s28.653 63.711 64 63.711z" class="E"/><path d="M865.413 649.427C867.922 643.87 873.507 640 880 640c8.837 0 16 7.163 16 16 0 6.493-3.87 12.078-9.427 14.587 2.98.917 6.146 1.413 9.427 1.413 17.673 0 32-14.327 32-32-17.673 0-32-14.327-32-32-17.673 0-32 14.327-32 32a32.01 32.01 0 0 0 1.413 9.427z" class="F"/><g class="B"><path d="M560 704h16v16c0-8.837-7.163-16-16-16z"/><path d="M512 704h48c-8.837 0-16 7.163-16 16s7.163 16 16 16 16-7.163 16-16v48l-64-64z"/></g><path d="M768 672c0-43.972-29.564-81.037-69.9-92.407 3.601 2.934 5.9 7.401 5.9 12.407 0 6.487-3.862 12.068-9.411 14.58C700.557 616.307 704 627.751 704 640c0 35.346-28.654 64-64 64-12.249 0-23.692-3.443-33.42-9.412-2.512 5.55-8.093 9.412-14.58 9.412-5.006 0-9.474-2.3-12.407-5.9C590.963 738.436 628.027 768 672 768c15.013 0 29.219-3.448 41.874-9.593A32.1 32.1 0 0 1 704.83 736c0-17.673 14.141-32 31.585-32 8.688 0 16.555 3.555 22.265 9.306C764.653 700.794 768 686.789 768 672zm-96 48c0 8.837-7.163 16-16 16s-16-7.163-16-16 7.163-16 16-16 16 7.163 16 16zm64-64c0 8.837-7.163 16-16 16s-16-7.163-16-16 7.163-16 16-16 16 7.163 16 16zm-62.58-70.587a63.6 63.6 0 0 0-19.048-7.792A96.59 96.59 0 0 1 672 576c3.856 0 7.657.234 11.395.676-4.452 1.336-8.083 4.557-9.975 8.737z" class="C"/><g class="D"><path d="M720 576c8.837 0 16-7.163 16-16s-7.163-16-16-16-16 7.163-16 16v-48l64 64h-48z"/><path d="M720 576h-16v-16c0 8.837 7.163 16 16 16z"/></g><path d="M576 639.421c-35.346 0-64-28.524-64-63.711 0-6.884 1.102-13.511 3.13-19.721C519.814 567.721 531.157 576 544.415 576a31.18 31.18 0 0 0 9.126-1.362c1.976.874 4.16 1.362 6.459 1.362 8.837 0 16-7.163 16-16 0-2.334-.504-4.549-1.402-6.548.911-2.988 1.402-6.162 1.402-9.452 0-13.031-7.693-24.236-18.726-29.227A64.27 64.27 0 0 1 576 512c35.346 0 64 28.524 64 63.71s-28.654 63.711-64 63.711z" class="E"/><path d="M670.587 649.427C668.078 643.87 662.493 640 656 640c-8.837 0-16 7.163-16 16 0 6.493 3.87 12.078 9.427 14.587-2.98.917-6.146 1.413-9.427 1.413-17.673 0-32-14.327-32-32 17.673 0 32-14.327 32-32 17.673 0 32 14.327 32 32a32.01 32.01 0 0 1-1.413 9.427z" class="F"/><g class="B"><path d="M464 576h-16v-16c0 8.837 7.164 16 16 16z"/><path d="M512 576h-48c8.836 0 16-7.163 16-16s-7.164-16-16-16-16 7.163-16 16v-48l64 64z"/></g><path d="M256 608c0 43.972 29.564 81.037 69.9 92.407-3.6-2.934-5.9-7.401-5.9-12.407 0-6.487 3.863-12.068 9.412-14.58C323.443 663.693 320 652.249 320 640c0-35.346 28.654-64 64-64 12.249 0 23.693 3.443 33.42 9.411 2.511-5.549 8.093-9.411 14.58-9.411 5.006 0 9.473 2.3 12.407 5.9C433.038 541.564 395.972 512 352 512c-15.013 0-29.219 3.448-41.874 9.593 5.591 5.772 9.044 13.68 9.044 22.407 0 17.673-14.141 32-31.585 32-8.688 0-16.555-3.556-22.265-9.306C259.347 579.206 256 593.211 256 608zm96-48c0-8.837 7.164-16 16-16s16 7.163 16 16-7.164 16-16 16-16-7.163-16-16zm-64 64c0-8.837 7.164-16 16-16s16 7.163 16 16-7.164 16-16 16-16-7.163-16-16zm62.58 70.587a63.59 63.59 0 0 0 19.048 7.792A96.59 96.59 0 0 1 352 704c-3.856 0-7.657-.234-11.395-.676 4.452-1.336 8.084-4.557 9.975-8.737z" class="C"/><g class="D"><path d="M304 704c-8.836 0-16 7.163-16 16s7.164 16 16 16 16-7.163 16-16v48l-64-64h48z"/><path d="M304 704h16v16c0-8.837-7.164-16-16-16z"/></g><path d="M448 640.579c35.346 0 64 28.524 64 63.711 0 6.884-1.101 13.511-3.13 19.721C504.186 712.279 492.843 704 479.585 704c-3.174 0-6.236.479-9.125 1.362-1.976-.874-4.16-1.362-6.459-1.362-8.836 0-16 7.163-16 16 0 2.334.504 4.549 1.402 6.548A32.36 32.36 0 0 0 448 736c0 13.031 7.693 24.236 18.726 29.227C460.802 767.028 454.516 768 448 768c-35.346 0-64-28.524-64-63.71s28.654-63.711 64-63.711z" class="E"/><path d="M353.414 630.573C355.922 636.13 361.507 640 368 640c8.836 0 16-7.163 16-16 0-6.493-3.87-12.078-9.427-14.587 2.98-.917 6.146-1.413 9.427-1.413 17.673 0 32 14.327 32 32-17.673 0-32 14.327-32 32-17.673 0-32-14.327-32-32a31.98 31.98 0 0 1 1.414-9.427z" class="F"/><g class="B"><path d="M48 576h16v-16c0 8.837-7.164 16-16 16z"/><path d="M0,576h48c-8.836,0-16-7.163-16-16s7.164-16,16-16s16,7.163,16,16v-48L0,576z"/></g><path d="M246.68 566.694c-5.71 5.75-13.578 9.306-22.265 9.306-17.444 0-31.585-14.327-31.585-32 0-8.728 3.453-16.635 9.044-22.407C189.219 515.448 175.013 512 160 512c-43.972 0-81.038 29.564-92.407 69.9 2.934-3.6 7.401-5.9 12.407-5.9 6.487 0 12.068 3.862 14.58 9.411C104.307 579.443 115.751 576 128 576c35.346 0 64 28.654 64 64 0 12.249-3.443 23.693-9.412 33.42 5.549 2.512 9.412 8.093 9.412 14.58 0 5.006-2.3 9.474-5.9 12.407C226.436 689.037 256 651.972 256 608c0-14.789-3.347-28.794-9.32-41.306zM144 576c-8.836 0-16-7.163-16-16s7.164-16 16-16 16 7.163 16 16-7.164 16-16 16zm64 64c-8.836 0-16-7.163-16-16s7.164-16 16-16 16 7.163 16 16-7.164 16-16 16zm-46.58 54.587a63.59 63.59 0 0 1-19.048 7.792A96.59 96.59 0 0 0 160 704c3.856 0 7.657-.234 11.395-.676-4.452-1.336-8.084-4.557-9.975-8.737z" class="C"/><g class="D"><path d="M208 704c8.836 0 16 7.163 16 16s-7.164 16-16 16-16-7.163-16-16v48l64-64h-48z"/><path d="M208 704h-16v16c0-8.837 7.164-16 16-16z"/></g><path d="M64 640.579c-35.346 0-64 28.524-64 63.711 0 6.884 1.101 13.511 3.13 19.721C7.814 712.279 19.157 704 32.415 704a31.17 31.17 0 0 1 9.125 1.362C43.517 704.488 45.701 704 48 704c8.836 0 16 7.163 16 16 0 2.334-.504 4.549-1.402 6.548A32.39 32.39 0 0 1 64 736c0 13.031-7.693 24.236-18.726 29.227C51.198 767.028 57.484 768 64 768c35.346 0 64-28.524 64-63.71s-28.654-63.711-64-63.711z" class="E"/><path d="M158.586 630.573C156.078 636.13 150.493 640 144 640c-8.836 0-16-7.163-16-16 0-6.493 3.87-12.078 9.427-14.587-2.98-.917-6.146-1.413-9.427-1.413-17.673 0-32 14.327-32 32 17.673 0 32 14.327 32 32 17.673 0 32-14.327 32-32a31.98 31.98 0 0 0-1.414-9.427z" class="F"/></svg>