<svg xmlns="http://www.w3.org/2000/svg" width="1024" height="1024" xmlns:v="https://vecta.io/nano"><style><![CDATA[.B{fill:#f49c68}.C{fill:#f08372}.D{fill:#b4252d}.E{fill:#ed6e4c}.F{fill:#971a5a}.G{fill:#e30613}]]></style><circle cx="128" cy="128" r="32" class="B"/><circle cx="128" cy="224" r="32" class="C"/><circle cx="48" cy="176" r="16" class="D"/><circle cx="208" cy="176" r="16" class="E"/><path d="M256 128L128 0 0 128v32L128 32l128 128z" class="F"/><path d="M64 0L0 64v32L96 0zm128 0h-32l96 96V64z" class="G"/><circle cx="384" cy="128" r="32" class="B"/><circle cx="480" cy="128" r="32" class="C"/><circle cx="432" cy="208" r="16" class="D"/><circle cx="432" cy="48" r="16" class="E"/><path d="M384 0L256 128l128 128h32L288 128 416 0z" class="F"/><path d="M256 192l64 64h32l-96-96zm0-128v32l96-96h-32z" class="G"/><circle cx="640" cy="128" r="32" class="B"/><circle cx="640" cy="32" r="32" class="C"/><circle cx="720" cy="80" r="16" class="D"/><circle cx="560" cy="80" r="16" class="E"/><path d="M512 128l128 128 128-128V96L640 224 512 96z" class="F"/><path d="M704 256l64-64v-32l-96 96zm-128 0h32l-96-96v32z" class="G"/><circle cx="896" cy="128" r="32" class="B"/><circle cx="800" cy="128" r="32" class="C"/><circle cx="848" cy="48" r="16" class="D"/><circle cx="848" cy="208" r="16" class="E"/><path d="M896 256l128-128L896 0h-32l128 128-128 128z" class="F"/><path d="M1024 64L960 0h-32l96 96zm0 128v-32l-96 96h32z" class="G"/><circle cx="896" cy="384" r="32" class="B"/><circle cx="896" cy="288" r="32" class="C"/><circle cx="976" cy="336" r="16" class="D"/><circle cx="816" cy="336" r="16" class="E"/><path d="M768 384l128 128 128-128v-32L896 480 768 352z" class="F"/><path d="M960 512l64-64v-32l-96 96zm-128 0h32l-96-96v32z" class="G"/><circle cx="640" cy="384" r="32" class="B"/><circle cx="544" cy="384" r="32" class="C"/><circle cx="592" cy="304" r="16" class="D"/><circle cx="592" cy="464" r="16" class="E"/><path d="M640 512l128-128-128-128h-32l128 128-128 128z" class="F"/><path d="M768 320l-64-64h-32l96 96zm0 128v-32l-96 96h32z" class="G"/><circle cx="384" cy="384" r="32" class="B"/><circle cx="384" cy="480" r="32" class="C"/><circle cx="304" cy="432" r="16" class="D"/><circle cx="464" cy="432" r="16" class="E"/><path d="M512 384L384 256 256 384v32l128-128 128 128z" class="F"/><path d="M320 256l-64 64v32l96-96zm128 0h-32l96 96v-32z" class="G"/><circle cx="128" cy="384" r="32" class="B"/><circle cx="224" cy="384" r="32" class="C"/><circle cx="176" cy="464" r="16" class="D"/><circle cx="176" cy="304" r="16" class="E"/><path d="M128 256L0 384l128 128h32L32 384l128-128z" class="F"/><path d="M0 448l64 64h32L0 416zm0-128v32l96-96H64z" class="G"/><circle cx="896" cy="896" r="32" class="B"/><circle cx="896" cy="800" r="32" class="C"/><circle cx="976" cy="848" r="16" class="D"/><circle cx="816" cy="848" r="16" class="E"/><path d="M768 896l128 128 128-128v-32L896 992 768 864z" class="F"/><path d="M960 1024l64-64v-32l-96 96zm-128 0h32l-96-96v32z" class="G"/><circle cx="640" cy="896" r="32" class="B"/><circle cx="544" cy="896" r="32" class="C"/><circle cx="592" cy="816" r="16" class="D"/><circle cx="592" cy="976" r="16" class="E"/><path d="M640 1024l128-128-128-128h-32l128 128-128 128z" class="F"/><path d="M768 832l-64-64h-32l96 96zm0 128v-32l-96 96h32z" class="G"/><circle cx="384" cy="896" r="32" class="B"/><circle cx="384" cy="992" r="32" class="C"/><circle cx="304" cy="944" r="16" class="D"/><circle cx="464" cy="944" r="16" class="E"/><path d="M512 896L384 768 256 896v32l128-128 128 128z" class="F"/><path d="M320 768l-64 64v32l96-96zm128 0h-32l96 96v-32z" class="G"/><circle cx="128" cy="896" r="32" class="B"/><circle cx="224" cy="896" r="32" class="C"/><circle cx="176" cy="976" r="16" class="D"/><circle cx="176" cy="816" r="16" class="E"/><path d="M128 768L0 896l128 128h32L32 896l128-128z" class="F"/><path d="M0 960l64 64h32L0 928zm0-128v32l96-96H64z" class="G"/><circle cx="128" cy="640" r="32" class="B"/><circle cx="128" cy="736" r="32" class="C"/><circle cx="48" cy="688" r="16" class="D"/><circle cx="208" cy="688" r="16" class="E"/><path d="M256 640L128 512 0 640v32l128-128 128 128z" class="F"/><path d="M64 512L0 576v32l96-96zm128 0h-32l96 96v-32z" class="G"/><circle cx="384" cy="640" r="32" class="B"/><circle cx="480" cy="640" r="32" class="C"/><circle cx="432" cy="720" r="16" class="D"/><circle cx="432" cy="560" r="16" class="E"/><path d="M384 512L256 640l128 128h32L288 640l128-128z" class="F"/><path d="M256 704l64 64h32l-96-96zm0-128v32l96-96h-32z" class="G"/><circle cx="640" cy="640" r="32" class="B"/><circle cx="640" cy="544" r="32" class="C"/><circle cx="720" cy="592" r="16" class="D"/><circle cx="560" cy="592" r="16" class="E"/><path d="M512 640l128 128 128-128v-32L640 736 512 608z" class="F"/><path d="M704 768l64-64v-32l-96 96zm-128 0h32l-96-96v32z" class="G"/><circle cx="896" cy="640" r="32" class="B"/><circle cx="800" cy="640" r="32" class="C"/><circle cx="848" cy="560" r="16" class="D"/><circle cx="848" cy="720" r="16" class="E"/><path d="M896 768l128-128-128-128h-32l128 128-128 128z" class="F"/><path d="M1024 576l-64-64h-32l96 96zm0 128v-32l-96 96h32z" class="G"/></svg>