<svg xmlns="http://www.w3.org/2000/svg" width="1024" height="1024" xmlns:v="https://vecta.io/nano"><style><![CDATA[.B{fill:#dcbb9a}.C{fill:#b18759}.D{fill:#636d6a}.E{fill:#dba063}.F{fill:#bfc2c5}.G{fill:#8e9391}]]></style><circle cx="32" cy="32" r="32" class="B"/><circle cx="96" cy="160" r="32" class="E"/><circle cx="224" cy="224" r="32" class="B"/><path d="M192 128h-64.33V64z" class="D"/><path d="M256 64L192 0h64z" class="C"/><path d="M192 64L128 0v64z" class="B"/><path d="M256 64l-64 64h64zM64 192l64 64H64z" class="F"/><path d="M0 192l64 64H0z" class="C"/><g class="G"><path d="M0 64l64 64H0z"/><path d="M64 192L0 128h64z"/></g><path d="M192 256l-64-64h64z" class="D"/><g class="C"><path d="M128 128h64v64h-64z"/><path d="M64 64h64v64H64z"/></g><circle cx="480" cy="32" r="32" class="B"/><circle cx="416" cy="160" r="32" class="E"/><circle cx="288" cy="224" r="32" class="B"/><path d="M320 128h64.33V64z" class="D"/><path d="M256 64l64-64h-64z" class="C"/><path d="M320 64l64-64v64z" class="B"/><path d="M256 64l64 64h-64zm192 128l-64 64h64z" class="F"/><path d="M512 192l-64 64h64z" class="C"/><g class="G"><path d="M512 64l-64 64h64z"/><path d="M448 192l64-64h-64z"/></g><path d="M320 256l64-64h-64z" class="D"/><g class="C"><path d="M320 128h64v64h-64z"/><path d="M384 64h64v64h-64z"/></g><circle cx="544" cy="224" r="32" class="B"/><circle cx="608" cy="96" r="32" class="E"/><circle cx="736" cy="32" r="32" class="B"/><path d="M704 128h-64.329v64z" class="D"/><path d="M768 192l-64 64h64z" class="C"/><path d="M704 192l-64 64v-64z" class="B"/><path d="M768 192l-64-64h64zM576 64l64-64h-64z" class="F"/><path d="M512 64l64-64h-64z" class="C"/><g class="G"><path d="M512 192l64-64h-64z"/><path d="M576 64l-64 64h64z"/></g><path d="M704 0l-64 64h64z" class="D"/><g class="C"><path d="M640 64h64v64h-64z"/><path d="M576 128h64v64h-64z"/></g><circle cx="992" cy="224" r="32" class="B"/><circle cx="928" cy="96" r="32" class="E"/><circle cx="800" cy="32" r="32" class="B"/><path d="M832 128h64.329v64z" class="D"/><path d="M768 192l64 64h-64z" class="C"/><path d="M832 192l64 64v-64z" class="B"/><path d="M768 192l64-64h-64zM960 64L896 0h64z" class="F"/><path d="M1024 64L960 0h64z" class="C"/><g class="G"><path d="M1024 192l-64-64h64z"/><path d="M960 64l64 64h-64z"/></g><path d="M832 0l64 64h-64z" class="D"/><g class="C"><path d="M832 64h64v64h-64z"/><path d="M896 128h64v64h-64z"/></g><circle cx="992" cy="288" r="32" class="B"/><circle cx="928" cy="416" r="32" class="E"/><circle cx="800" cy="480" r="32" class="B"/><path d="M832 384h64.329v-64z" class="D"/><path d="M768 320l64-64h-64z" class="C"/><path d="M832 320l64-64v64z" class="B"/><path d="M768 320l64 64h-64zm192 128l-64 64h64z" class="F"/><path d="M1024 448l-64 64h64z" class="C"/><g class="G"><path d="M1024 320l-64 64h64z"/><path d="M960 448l64-64h-64z"/></g><path d="M832 512l64-64h-64z" class="D"/><g class="C"><path d="M832 384h64v64h-64z"/><path d="M896 320h64v64h-64z"/></g><circle cx="544" cy="288" r="32" class="B"/><circle cx="608" cy="416" r="32" class="E"/><circle cx="736" cy="480" r="32" class="B"/><path d="M704 384h-64.329v-64z" class="D"/><path d="M768 320l-64-64h64z" class="C"/><path d="M704 320l-64-64v64z" class="B"/><path d="M768 320l-64 64h64zM576 448l64 64h-64z" class="F"/><path d="M512 448l64 64h-64z" class="C"/><g class="G"><path d="M512 320l64 64h-64z"/><path d="M576 448l-64-64h64z"/></g><path d="M704 512l-64-64h64z" class="D"/><g class="C"><path d="M640 384h64v64h-64z"/><path d="M576 320h64v64h-64z"/></g><circle cx="480" cy="480" r="32" class="B"/><circle cx="416" cy="352" r="32" class="E"/><circle cx="288" cy="288" r="32" class="B"/><path d="M320 384h64.33v64z" class="D"/><path d="M256 448l64 64h-64z" class="C"/><path d="M320 448l64 64v-64z" class="B"/><path d="M256 448l64-64h-64zm192-128l-64-64h64z" class="F"/><path d="M512 320l-64-64h64z" class="C"/><g class="G"><path d="M512 448l-64-64h64z"/><path d="M448 320l64 64h-64z"/></g><path d="M320 256l64 64h-64z" class="D"/><g class="C"><path d="M320 320h64v64h-64z"/><path d="M384 384h64v64h-64z"/></g><circle cx="32" cy="480" r="32" class="B"/><circle cx="96" cy="352" r="32" class="E"/><circle cx="224" cy="288" r="32" class="B"/><path d="M192 384h-64.33v64z" class="D"/><path d="M256 448l-64 64h64z" class="C"/><path d="M192 448l-64 64v-64z" class="B"/><path d="M256 448l-64-64h64zM64 320l64-64H64z" class="F"/><path d="M0 320l64-64H0z" class="C"/><g class="G"><path d="M0 448l64-64H0z"/><path d="M64 320L0 384h64z"/></g><path d="M192 256l-64 64h64z" class="D"/><g class="C"><path d="M128 320h64v64h-64z"/><path d="M64 384h64v64H64z"/></g><circle cx="32" cy="992" r="32" class="B"/><circle cx="96" cy="864" r="32" class="E"/><circle cx="224" cy="800" r="32" class="B"/><path d="M192 896h-64.33v64z" class="D"/><path d="M256 960l-64 64h64z" class="C"/><path d="M192 960l-64 64v-64z" class="B"/><path d="M256 960l-64-64h64zM64 832l64-64H64z" class="F"/><path d="M0 832l64-64H0z" class="C"/><g class="G"><path d="M0 960l64-64H0z"/><path d="M64 832L0 896h64z"/></g><path d="M192 768l-64 64h64z" class="D"/><g class="C"><path d="M128 832h64v64h-64z"/><path d="M64 896h64v64H64z"/></g><circle cx="480" cy="992" r="32" class="B"/><circle cx="416" cy="864" r="32" class="E"/><circle cx="288" cy="800" r="32" class="B"/><path d="M320 896h64.33v64z" class="D"/><path d="M256 960l64 64h-64z" class="C"/><path d="M320 960l64 64v-64z" class="B"/><path d="M256 960l64-64h-64zm192-128l-64-64h64z" class="F"/><path d="M512 832l-64-64h64z" class="C"/><g class="G"><path d="M512 960l-64-64h64z"/><path d="M448 832l64 64h-64z"/></g><path d="M320 768l64 64h-64z" class="D"/><g class="C"><path d="M320 832h64v64h-64z"/><path d="M384 896h64v64h-64z"/></g><circle cx="544" cy="800" r="32" class="B"/><circle cx="608" cy="928" r="32" class="E"/><circle cx="736" cy="992" r="32" class="B"/><path d="M704 896h-64.329v-64z" class="D"/><path d="M768 832l-64-64h64z" class="C"/><path d="M704 832l-64-64v64z" class="B"/><path d="M768 832l-64 64h64zM576 960l64 64h-64z" class="F"/><path d="M512 960l64 64h-64z" class="C"/><g class="G"><path d="M512 832l64 64h-64z"/><path d="M576 960l-64-64h64z"/></g><path d="M704 1024l-64-64h64z" class="D"/><g class="C"><path d="M640 896h64v64h-64z"/><path d="M576 832h64v64h-64z"/></g><circle cx="992" cy="800" r="32" class="B"/><circle cx="928" cy="928" r="32" class="E"/><circle cx="800" cy="992" r="32" class="B"/><path d="M832 896h64.329v-64z" class="D"/><path d="M768 832l64-64h-64z" class="C"/><path d="M832 832l64-64v64z" class="B"/><path d="M768 832l64 64h-64zm192 128l-64 64h64z" class="F"/><path d="M1024 960l-64 64h64z" class="C"/><g class="G"><path d="M1024 832l-64 64h64z"/><path d="M960 960l64-64h-64z"/></g><path d="M832 1024l64-64h-64z" class="D"/><g class="C"><path d="M832 896h64v64h-64z"/><path d="M896 832h64v64h-64z"/></g><circle cx="992" cy="736" r="32" class="B"/><circle cx="928" cy="608" r="32" class="E"/><circle cx="800" cy="544" r="32" class="B"/><path d="M832 640h64.329v64z" class="D"/><path d="M768 704l64 64h-64z" class="C"/><path d="M832 704l64 64v-64z" class="B"/><path d="M768 704l64-64h-64zm192-128l-64-64h64z" class="F"/><path d="M1024 576l-64-64h64z" class="C"/><g class="G"><path d="M1024 704l-64-64h64z"/><path d="M960 576l64 64h-64z"/></g><path d="M832 512l64 64h-64z" class="D"/><g class="C"><path d="M832 576h64v64h-64z"/><path d="M896 640h64v64h-64z"/></g><circle cx="544" cy="736" r="32" class="B"/><circle cx="608" cy="608" r="32" class="E"/><circle cx="736" cy="544" r="32" class="B"/><path d="M704 640h-64.329v64z" class="D"/><path d="M768 704l-64 64h64z" class="C"/><path d="M704 704l-64 64v-64z" class="B"/><path d="M768 704l-64-64h64zM576 576l64-64h-64z" class="F"/><path d="M512 576l64-64h-64z" class="C"/><g class="G"><path d="M512 704l64-64h-64z"/><path d="M576 576l-64 64h64z"/></g><path d="M704 512l-64 64h64z" class="D"/><g class="C"><path d="M640 576h64v64h-64z"/><path d="M576 640h64v64h-64z"/></g><circle cx="480" cy="544" r="32" class="B"/><circle cx="416" cy="672" r="32" class="E"/><circle cx="288" cy="736" r="32" class="B"/><path d="M320 640h64.33v-64z" class="D"/><path d="M256 576l64-64h-64z" class="C"/><path d="M320 576l64-64v64z" class="B"/><path d="M256 576l64 64h-64zm192 128l-64 64h64z" class="F"/><path d="M512 704l-64 64h64z" class="C"/><g class="G"><path d="M512 576l-64 64h64z"/><path d="M448 704l64-64h-64z"/></g><path d="M320 768l64-64h-64z" class="D"/><g class="C"><path d="M320 640h64v64h-64z"/><path d="M384 576h64v64h-64z"/></g><circle cx="32" cy="544" r="32" class="B"/><circle cx="96" cy="672" r="32" class="E"/><circle cx="224" cy="736" r="32" class="B"/><path d="M192 640h-64.33v-64z" class="D"/><path d="M256 576l-64-64h64z" class="C"/><path d="M192 576l-64-64v64z" class="B"/><path d="M256 576l-64 64h64zM64 704l64 64H64z" class="F"/><path d="M0 704l64 64H0z" class="C"/><g class="G"><path d="M0 576l64 64H0z"/><path d="M64 704L0 640h64z"/></g><path d="M192 768l-64-64h64z" class="D"/><g class="C"><path d="M128 640h64v64h-64z"/><path d="M64 576h64v64H64z"/></g></svg>