<svg xmlns="http://www.w3.org/2000/svg" xmlns:xlink="http://www.w3.org/1999/xlink" width="1024" height="1024" xmlns:v="https://vecta.io/nano"><style><![CDATA[.B{fill:#a5a0a3}.C{fill:#ccc9cd}.D{fill:#5d5d5c}.E{fill:#efc981}]]></style><ellipse cx="239.898" cy="16" rx="16.102" ry="16" class="C"/><path d="M64,0H0v64C0,28.654,28.654,0,64,0z" class="B"/><path d="M32 32h32v32H32z" class="D"/><path d="M64 96V64h32z" class="B"/><g class="C"><ellipse cx="208.102" cy="208" rx="16.102" ry="16"/><ellipse cx="48.102" cy="144" rx="16.102" ry="16"/><ellipse cx="112.102" cy="144" rx="16.102" ry="16"/></g><path d="M64 224h32v32H64z" class="D"/><path d="M32 256H0v-32z" class="B"/><path d="M64 192h32v32z"/><g class="B"><path d="M64 192h32v32z"/><use xlink:href="#B"/></g><path d="M96 32c70.692 0 128 57.308 128 128V32H96zM80 96c61.856 0 112 50.308 112 112.365V96H80zm80 160v-96H48c56.314 0 102.915 41.7 110.813 96H160z" class="E"/><ellipse cx="272" cy="16.102" rx="16" ry="16.102" class="C"/><use xlink:href="#C" class="B"/><path d="M288 192h32v32h-32z" class="D"/><path d="M352 192h-32v-32z" class="B"/><g class="C"><ellipse cx="464" cy="47.898" rx="16" ry="16.102"/><ellipse cx="400" cy="207.898" rx="16" ry="16.102"/><ellipse cx="400" cy="143.898" rx="16" ry="16.102"/></g><path d="M480 160h32v32h-32z" class="D"/><path d="M512 224v32h-32z" class="B"/><path d="M448 192v-32h32z"/><path d="M448 192v-32h32zm64-128V0h-64c35.346 0 64 28.654 64 64z" class="B"/><path d="M288 160c0-70.692 57.308-128 128-128H288v128zm64 16c0-61.856 50.308-112 112.365-112H352v112zm160-80h-96v112c0-56.314 41.7-102.915 96-110.813V96z" class="E"/><ellipse cx="528.102" cy="240" rx="16.102" ry="16" class="C"/><use xlink:href="#B" x="512" class="B"/><path d="M704 192h32v32h-32z" class="D"/><path d="M704 160v32h-32z" class="B"/><g class="C"><ellipse cx="559.898" cy="48" rx="16.102" ry="16"/><ellipse cx="719.898" cy="112" rx="16.102" ry="16"/><ellipse cx="655.898" cy="112" rx="16.102" ry="16"/></g><path d="M672 0h32v32h-32z" class="D"/><path d="M736 0h32v32z" class="B"/><path d="M704 64h-32V32z"/><g class="B"><path d="M704 64h-32V32z"/><use xlink:href="#D"/></g><path d="M672 224c-70.692 0-128-57.308-128-128v128h128zm16-64c-61.855 0-112-50.308-112-112.365V160h112zM608 0v96h112c-56.314 0-102.915-41.7-110.813-96H608z" class="E"/><ellipse cx="1008" cy="239.898" rx="16" ry="16.102" class="C"/><path d="M1024 64V0h-64c35.346 0 64 28.654 64 64z" class="B"/><path d="M960 32h32v32h-32z" class="D"/><path d="M928 64h32v32z" class="B"/><g class="C"><ellipse cx="816" cy="208.102" rx="16" ry="16.102"/><ellipse cx="880" cy="48.102" rx="16" ry="16.102"/><ellipse cx="880" cy="112.102" rx="16" ry="16.102"/></g><path d="M768 64h32v32h-32z" class="D"/><path d="M768 32V0h32z" class="B"/><path d="M832 64v32h-32z"/><g class="B"><path d="M832 64v32h-32z"/><use xlink:href="#C" x="512"/></g><path d="M992 96c0 70.692-57.308 128-128 128h128V96zm-64-16c0 61.856-50.308 112-112.365 112H928V80zm-160 80h96V48c0 56.314-41.7 102.915-96 110.813V160z" class="E"/><ellipse cx="784.102" cy="496" rx="16.102" ry="16" class="C"/><use xlink:href="#B" x="768" y="256" class="B"/><path d="M960 448h32v32h-32z" class="D"/><path d="M960 416v32h-32z" class="B"/><g class="C"><ellipse cx="815.898" cy="304" rx="16.102" ry="16"/><ellipse cx="975.898" cy="368" rx="16.102" ry="16"/><ellipse cx="911.898" cy="368" rx="16.102" ry="16"/></g><path d="M928 256h32v32h-32z" class="D"/><path d="M992 256h32v32z" class="B"/><path d="M960 320h-32v-32z"/><g class="B"><path d="M960 320h-32v-32z"/><use xlink:href="#D" x="256" y="256"/></g><path d="M928 480c-70.692 0-128-57.308-128-128v128h128zm16-64c-61.855 0-112-50.308-112-112.365V416h112zm-80-160v96h112c-56.314 0-102.915-41.7-110.813-96H864z" class="E"/><ellipse cx="752" cy="495.898" rx="16" ry="16.102" class="C"/><use xlink:href="#E" class="B"/><path d="M704 288h32v32h-32z" class="D"/><path d="M672 320h32v32z" class="B"/><g class="C"><ellipse cx="560" cy="464.102" rx="16" ry="16.102"/><ellipse cx="624" cy="304.102" rx="16" ry="16.102"/><ellipse cx="624" cy="368.102" rx="16" ry="16.102"/></g><path d="M512 320h32v32h-32z" class="D"/><path d="M512 288v-32h32z" class="B"/><path d="M576 320v32h-32z"/><g class="B"><path d="M576 320v32h-32z"/><use xlink:href="#C" x="256" y="256"/></g><path d="M736 352c0 70.692-57.308 128-128 128h128V352zm-64-16c0 61.856-50.308 112-112.365 112H672V336zm-160 80h96V304c0 56.314-41.7 102.915-96 110.813V416z" class="E"/><ellipse cx="495.898" cy="272" rx="16.102" ry="16" class="C"/><use xlink:href="#D" x="-256" y="256" class="B"/><path d="M288 288h32v32h-32z" class="D"/><path d="M320 352v-32h32z" class="B"/><g class="C"><ellipse cx="464.102" cy="464" rx="16.102" ry="16"/><ellipse cx="304.102" cy="400" rx="16.102" ry="16"/><ellipse cx="368.102" cy="400" rx="16.102" ry="16"/></g><path d="M320 480h32v32h-32z" class="D"/><path d="M288 512h-32v-32z" class="B"/><path d="M320 448h32v32z"/><g class="B"><path d="M320 448h32v32z"/><use xlink:href="#B" x="256" y="256"/></g><path d="M352 288c70.692 0 128 57.308 128 128V288H352zm-16 64c61.856 0 112 50.308 112 112.365V352H336zm80 160v-96H304c56.314 0 102.915 41.7 110.813 96H416z" class="E"/><ellipse cx="16" cy="272.102" rx="16" ry="16.102" class="C"/><use xlink:href="#C" x="-256" y="256" class="B"/><path d="M32 448h32v32H32z" class="D"/><path d="M96 448H64v-32z" class="B"/><g class="C"><ellipse cx="208" cy="303.898" rx="16" ry="16.102"/><ellipse cx="144" cy="463.898" rx="16" ry="16.102"/><ellipse cx="144" cy="399.898" rx="16" ry="16.102"/></g><path d="M224 416h32v32h-32z" class="D"/><path d="M256 480v32h-32z" class="B"/><path d="M192 448v-32h32z"/><g class="B"><path d="M192 448v-32h32z"/><use xlink:href="#E" x="-512"/></g><path d="M32 416c0-70.692 57.308-128 128-128H32v128zm64 16c0-61.856 50.308-112 112.365-112H96v112zm160-80h-96v112c0-56.314 41.7-102.915 96-110.813V352z" class="E"/><ellipse cx="784.102" cy="1008" rx="16.102" ry="16" class="C"/><use xlink:href="#B" x="768" y="768" class="B"/><path d="M960 960h32v32h-32z" class="D"/><path d="M960 928v32h-32z" class="B"/><g class="C"><ellipse cx="815.898" cy="816" rx="16.102" ry="16"/><ellipse cx="975.898" cy="880" rx="16.102" ry="16"/><ellipse cx="911.898" cy="880" rx="16.102" ry="16"/></g><path d="M928 768h32v32h-32z" class="D"/><path d="M992 768h32v32z" class="B"/><path d="M960 832h-32v-32z"/><g class="B"><path d="M960 832h-32v-32z"/><use xlink:href="#D" x="256" y="768"/></g><path d="M928 992c-70.692 0-128-57.308-128-128v128h128zm16-64c-61.855 0-112-50.308-112-112.365V928h112zm-80-160v96h112c-56.314 0-102.915-41.7-110.813-96H864z" class="E"/><ellipse cx="752" cy="1007.898" rx="16" ry="16.102" class="C"/><use xlink:href="#E" y="512" class="B"/><path d="M704 800h32v32h-32z" class="D"/><path d="M672 832h32v32z" class="B"/><g class="C"><ellipse cx="560" cy="976.102" rx="16" ry="16.102"/><ellipse cx="624" cy="816.102" rx="16" ry="16.102"/><ellipse cx="624" cy="880.102" rx="16" ry="16.102"/></g><path d="M512 832h32v32h-32z" class="D"/><path d="M512 800v-32h32z" class="B"/><path d="M576 832v32h-32z"/><g class="B"><path d="M576 832v32h-32z"/><use xlink:href="#C" x="256" y="768"/></g><path d="M736 864c0 70.692-57.308 128-128 128h128V864zm-64-16c0 61.855-50.308 112-112.365 112H672V848zm-160 80h96V816c0 56.314-41.7 102.915-96 110.813V928z" class="E"/><ellipse cx="495.898" cy="784" rx="16.102" ry="16" class="C"/><use xlink:href="#D" x="-256" y="768" class="B"/><path d="M288 800h32v32h-32z" class="D"/><path d="M320 864v-32h32z" class="B"/><g class="C"><ellipse cx="464.102" cy="976" rx="16.102" ry="16"/><ellipse cx="304.102" cy="912" rx="16.102" ry="16"/><ellipse cx="368.102" cy="912" rx="16.102" ry="16"/></g><path d="M320 992h32v32h-32z" class="D"/><path d="M288 1024h-32v-32z" class="B"/><path d="M320 960h32v32z"/><g class="B"><path d="M320 960h32v32z"/><use xlink:href="#B" x="256" y="768"/></g><path d="M352 800c70.692 0 128 57.308 128 128V800H352zm-16 64c61.856 0 112 50.308 112 112.365V864H336zm80 160v-96H304c56.314 0 102.915 41.7 110.813 96H416z" class="E"/><ellipse cx="16" cy="784.102" rx="16" ry="16.102" class="C"/><use xlink:href="#C" x="-256" y="768" class="B"/><path d="M32 960h32v32H32z" class="D"/><path d="M96 960H64v-32z" class="B"/><g class="C"><ellipse cx="208" cy="815.898" rx="16" ry="16.102"/><ellipse cx="144" cy="975.898" rx="16" ry="16.102"/><ellipse cx="144" cy="911.898" rx="16" ry="16.102"/></g><path d="M224 928h32v32h-32z" class="D"/><path d="M256 992v32h-32z" class="B"/><path d="M192 960v-32h32z"/><g class="B"><path d="M192 960v-32h32z"/><use xlink:href="#E" x="-512" y="512"/></g><path d="M32 928c0-70.692 57.308-128 128-128H32v128zm64 16c0-61.855 50.308-112 112.365-112H96v112zm160-80h-96v112c0-56.314 41.7-102.915 96-110.813V864z" class="E"/><ellipse cx="239.898" cy="528" rx="16.102" ry="16" class="C"/><path d="M64 512H0v64c0-35.346 28.654-64 64-64z" class="B"/><path d="M32 544h32v32H32z" class="D"/><path d="M64 608v-32h32z" class="B"/><g class="C"><ellipse cx="208.102" cy="720" rx="16.102" ry="16"/><ellipse cx="48.102" cy="656" rx="16.102" ry="16"/><ellipse cx="112.102" cy="656" rx="16.102" ry="16"/></g><path d="M64 736h32v32H64z" class="D"/><path d="M32 768H0v-32z" class="B"/><path d="M64 704h32v32z"/><g class="B"><path d="M64 704h32v32z"/><use xlink:href="#B" y="512"/></g><path d="M96 544c70.692 0 128 57.308 128 128V544H96zm-16 64c61.856 0 112 50.308 112 112.365V608H80zm80 160v-96H48c56.314 0 102.915 41.7 110.813 96H160z" class="E"/><ellipse cx="272" cy="528.102" rx="16" ry="16.102" class="C"/><use xlink:href="#C" y="512" class="B"/><path d="M288 704h32v32h-32z" class="D"/><path d="M352 704h-32v-32z" class="B"/><g class="C"><ellipse cx="464" cy="559.898" rx="16" ry="16.102"/><ellipse cx="400" cy="719.898" rx="16" ry="16.102"/><ellipse cx="400" cy="655.898" rx="16" ry="16.102"/></g><path d="M480 672h32v32h-32z" class="D"/><path d="M512 736v32h-32z" class="B"/><path d="M448 704v-32h32z"/><g class="B"><path d="M448 704v-32h32z"/><use xlink:href="#E" x="-256" y="256"/></g><path d="M288 672c0-70.692 57.308-128 128-128H288v128zm64 16c0-61.855 50.308-112 112.365-112H352v112zm160-80h-96v112c0-56.314 41.7-102.915 96-110.813V608z" class="E"/><ellipse cx="528.102" cy="752" rx="16.102" ry="16" class="C"/><use xlink:href="#B" x="512" y="512" class="B"/><path d="M704 704h32v32h-32z" class="D"/><path d="M704 672v32h-32z" class="B"/><g class="C"><ellipse cx="559.898" cy="560" rx="16.102" ry="16"/><ellipse cx="719.898" cy="624" rx="16.102" ry="16"/><ellipse cx="655.898" cy="624" rx="16.102" ry="16"/></g><path d="M672 512h32v32h-32z" class="D"/><path d="M736 512h32v32z" class="B"/><path d="M704 576h-32v-32z"/><g class="B"><path d="M704 576h-32v-32z"/><use xlink:href="#D" y="512"/></g><path d="M672 736c-70.692 0-128-57.308-128-128v128h128zm16-64c-61.855 0-112-50.308-112-112.365V672h112zm-80-160v96h112c-56.314 0-102.915-41.7-110.813-96H608z" class="E"/><ellipse cx="1008" cy="751.898" rx="16" ry="16.102" class="C"/><use xlink:href="#E" x="256" y="256" class="B"/><path d="M960 544h32v32h-32z" class="D"/><path d="M928 576h32v32z" class="B"/><g class="C"><ellipse cx="816" cy="720.102" rx="16" ry="16.102"/><ellipse cx="880" cy="560.102" rx="16" ry="16.102"/><ellipse cx="880" cy="624.102" rx="16" ry="16.102"/></g><path d="M768 576h32v32h-32z" class="D"/><path d="M768 544v-32h32z" class="B"/><path d="M832 576v32h-32z"/><g class="B"><path d="M832 576v32h-32z"/><use xlink:href="#C" x="512" y="512"/></g><path d="M992 608c0 70.692-57.308 128-128 128h128V608zm-64-16c0 61.855-50.308 112-112.365 112H928V592zm-160 80h96V560c0 56.314-41.7 102.915-96 110.813V672z" class="E"/><defs ><path id="B" d="M192 256h64v-64c0 35.346-28.654 64-64 64z"/><path id="C" d="M256 192v64h64c-35.346 0-64-28.654-64-64z"/><path id="D" d="M576 0h-64v64c0-35.346 28.654-64 64-64z"/><path id="E" d="M768 320v-64h-64c35.346 0 64 28.654 64 64z"/></defs></svg>