<svg xmlns="http://www.w3.org/2000/svg" width="1024" height="1024" xmlns:v="https://vecta.io/nano"><style><![CDATA[.B{fill:#91d0d6}.C{fill:#ee8a3c}.D{fill:#87a873}.E{fill:#f4b26f}.F{fill:#6cc7e2}.G{fill:#8f7e14}.H{fill:#94afc7}.I{fill:#005e2d}.J{fill:#00b4d5}.K{fill:#68934f}.L{fill:#b58500}.M{fill:#6a912d}]]></style><path d="M0 0h64v64H0z" class="B"/><path d="M192 160h64v64h-64z" class="D"/><circle cx="160" cy="96" r="64" class="E"/><g class="F"><circle cx="144" cy="16" r="16"/><circle cx="48" cy="144" r="16"/></g><circle cx="16" cy="176" r="16" class="C"/><circle cx="80" cy="208" r="16" class="G"/><circle cx="80" cy="240" r="16" class="H"/><path d="M192 0h32v32h-32z" class="C"/><path d="M64 64h32v32H64z" class="I"/><path d="M256 32L224 0h32z" class="B"/><path d="M160 192l-32-32h32z" class="J"/><path d="M160 224l-32-32h32z" class="K"/><g class="L"><path d="M160 256l-32-32h32z"/><path d="M160 256l32-32h-32z"/></g><path d="M256 64l-32 32V64z" class="M"/><path d="M0 256v-64h64zM448 0h64v64h-64z" class="B"/><path d="M256 160h64v64h-64z" class="D"/><circle cx="352" cy="96" r="64" class="E"/><g class="F"><circle cx="368" cy="16" r="16"/><circle cx="464" cy="144" r="16"/></g><circle cx="496" cy="176" r="16" class="C"/><circle cx="432" cy="208" r="16" class="G"/><circle cx="432" cy="240" r="16" class="H"/><path d="M288 0h32v32h-32z" class="C"/><path d="M416 64h32v32h-32z" class="I"/><path d="M256 32l32-32h-32z" class="B"/><path d="M352 192l32-32h-32z" class="J"/><path d="M352 224l32-32h-32z" class="K"/><g class="L"><path d="M352 256l32-32h-32z"/><path d="M352 256l-32-32h32z"/></g><path d="M256 64l32 32V64z" class="M"/><g class="B"><path d="M512 256v-64h-64z"/><path d="M512 192h64v64h-64z"/></g><path d="M704 32h64v64h-64z" class="D"/><circle cx="672" cy="160" r="64" class="E"/><g class="F"><circle cx="656" cy="240" r="16"/><circle cx="560" cy="112" r="16"/></g><circle cx="528" cy="80" r="16" class="C"/><circle cx="592" cy="48" r="16" class="G"/><circle cx="592" cy="16" r="16" class="H"/><path d="M704 224h32v32h-32z" class="C"/><path d="M576 160h32v32h-32z" class="I"/><path d="M768 224l-32 32h32z" class="B"/><path d="M672 64l-32 32h32z" class="J"/><path d="M672 32l-32 32h32z" class="K"/><g class="L"><path d="M672 0l-32 32h32z"/><path d="M672 0l32 32h-32z"/></g><path d="M768 192l-32-32v32z" class="M"/><path d="M512 0v64h64zm448 192h64v64h-64z" class="B"/><path d="M768 32h64v64h-64z" class="D"/><circle cx="864" cy="160" r="64" class="E"/><g class="F"><circle cx="880" cy="240" r="16"/><circle cx="976" cy="112" r="16"/></g><circle cx="1008" cy="80" r="16" class="C"/><circle cx="944" cy="48" r="16" class="G"/><circle cx="944" cy="16" r="16" class="H"/><path d="M800 224h32v32h-32z" class="C"/><path d="M928 160h32v32h-32z" class="I"/><path d="M768 224l32 32h-32z" class="B"/><path d="M864 64l32 32h-32z" class="J"/><path d="M864 32l32 32h-32z" class="K"/><g class="L"><path d="M864 0l32 32h-32z"/><path d="M864 0l-32 32h32z"/></g><path d="M768 192l32-32v32z" class="M"/><path d="M1024 0v64h-64zm-64 256h64v64h-64z" class="B"/><path d="M768 416h64v64h-64z" class="D"/><circle cx="864" cy="352" r="64" class="E"/><g class="F"><circle cx="880" cy="272" r="16"/><circle cx="976" cy="400" r="16"/></g><circle cx="1008" cy="432" r="16" class="C"/><circle cx="944" cy="464" r="16" class="G"/><circle cx="944" cy="496" r="16" class="H"/><path d="M800 256h32v32h-32z" class="C"/><path d="M928 320h32v32h-32z" class="I"/><path d="M768 288l32-32h-32z" class="B"/><path d="M864 448l32-32h-32z" class="J"/><path d="M864 480l32-32h-32z" class="K"/><g class="L"><path d="M864 512l32-32h-32z"/><path d="M864 512l-32-32h32z"/></g><path d="M768 320l32 32v-32z" class="M"/><path d="M1024 512v-64h-64zM512 256h64v64h-64z" class="B"/><path d="M704 416h64v64h-64z" class="D"/><circle cx="672" cy="352" r="64" class="E"/><g class="F"><circle cx="656" cy="272" r="16"/><circle cx="560" cy="400" r="16"/></g><circle cx="528" cy="432" r="16" class="C"/><circle cx="592" cy="464" r="16" class="G"/><circle cx="592" cy="496" r="16" class="H"/><path d="M704 256h32v32h-32z" class="C"/><path d="M576 320h32v32h-32z" class="I"/><path d="M768 288l-32-32h32z" class="B"/><path d="M672 448l-32-32h32z" class="J"/><path d="M672 480l-32-32h32z" class="K"/><g class="L"><path d="M672 512l-32-32h32z"/><path d="M672 512l32-32h-32z"/></g><path d="M768 320l-32 32v-32z" class="M"/><g class="B"><path d="M512 512v-64h64z"/><path d="M448 448h64v64h-64z"/></g><path d="M256 288h64v64h-64z" class="D"/><circle cx="352" cy="416" r="64" class="E"/><g class="F"><circle cx="368" cy="496" r="16"/><circle cx="464" cy="368" r="16"/></g><circle cx="496" cy="336" r="16" class="C"/><circle cx="432" cy="304" r="16" class="G"/><circle cx="432" cy="272" r="16" class="H"/><path d="M288 480h32v32h-32z" class="C"/><path d="M416 416h32v32h-32z" class="I"/><path d="M256 480l32 32h-32z" class="B"/><path d="M352 320l32 32h-32z" class="J"/><path d="M352 288l32 32h-32z" class="K"/><g class="L"><path d="M352 256l32 32h-32z"/><path d="M352 256l-32 32h32z"/></g><path d="M256 448l32-32v32z" class="M"/><path d="M512 256v64h-64zM0 448h64v64H0z" class="B"/><path d="M192 288h64v64h-64z" class="D"/><circle cx="160" cy="416" r="64" class="E"/><g class="F"><circle cx="144" cy="496" r="16"/><circle cx="48" cy="368" r="16"/></g><circle cx="16" cy="336" r="16" class="C"/><circle cx="80" cy="304" r="16" class="G"/><circle cx="80" cy="272" r="16" class="H"/><path d="M192 480h32v32h-32z" class="C"/><path d="M64 416h32v32H64z" class="I"/><path d="M256 480l-32 32h32z" class="B"/><path d="M160 320l-32 32h32z" class="J"/><path d="M160 288l-32 32h32z" class="K"/><g class="L"><path d="M160 256l-32 32h32z"/><path d="M160 256l32 32h-32z"/></g><path d="M256 448l-32-32v32z" class="M"/><path d="M0 256v64h64zm0 704h64v64H0z" class="B"/><path d="M192 800h64v64h-64z" class="D"/><circle cx="160" cy="928" r="64" class="E"/><g class="F"><circle cx="144" cy="1008" r="16"/><circle cx="48" cy="880" r="16"/></g><circle cx="16" cy="848" r="16" class="C"/><circle cx="80" cy="816" r="16" class="G"/><circle cx="80" cy="784" r="16" class="H"/><path d="M192 992h32v32h-32z" class="C"/><path d="M64 928h32v32H64z" class="I"/><path d="M256 992l-32 32h32z" class="B"/><path d="M160 832l-32 32h32z" class="J"/><path d="M160 800l-32 32h32z" class="K"/><g class="L"><path d="M160 768l-32 32h32z"/><path d="M160 768l32 32h-32z"/></g><path d="M256 960l-32-32v32z" class="M"/><path d="M0 768v64h64zm448 192h64v64h-64z" class="B"/><path d="M256 800h64v64h-64z" class="D"/><circle cx="352" cy="928" r="64" class="E"/><g class="F"><circle cx="368" cy="1008" r="16"/><circle cx="464" cy="880" r="16"/></g><circle cx="496" cy="848" r="16" class="C"/><circle cx="432" cy="816" r="16" class="G"/><circle cx="432" cy="784" r="16" class="H"/><path d="M288 992h32v32h-32z" class="C"/><path d="M416 928h32v32h-32z" class="I"/><path d="M256 992l32 32h-32z" class="B"/><path d="M352 832l32 32h-32z" class="J"/><path d="M352 800l32 32h-32z" class="K"/><g class="L"><path d="M352 768l32 32h-32z"/><path d="M352 768l-32 32h32z"/></g><path d="M256 960l32-32v32z" class="M"/><g class="B"><path d="M512 768v64h-64z"/><path d="M512 768h64v64h-64z"/></g><path d="M704 928h64v64h-64z" class="D"/><circle cx="672" cy="864" r="64" class="E"/><g class="F"><circle cx="656" cy="784" r="16"/><circle cx="560" cy="912" r="16"/></g><circle cx="528" cy="944" r="16" class="C"/><circle cx="592" cy="976" r="16" class="G"/><circle cx="592" cy="1008" r="16" class="H"/><path d="M704 768h32v32h-32z" class="C"/><path d="M576 832h32v32h-32z" class="I"/><path d="M768 800l-32-32h32z" class="B"/><path d="M672 960l-32-32h32z" class="J"/><path d="M672 992l-32-32h32z" class="K"/><g class="L"><path d="M672 1024l-32-32h32z"/><path d="M672 1024l32-32h-32z"/></g><path d="M768 832l-32 32v-32z" class="M"/><path d="M512 1024v-64h64zm448-256h64v64h-64z" class="B"/><path d="M768 928h64v64h-64z" class="D"/><circle cx="864" cy="864" r="64" class="E"/><g class="F"><circle cx="880" cy="784" r="16"/><circle cx="976" cy="912" r="16"/></g><circle cx="1008" cy="944" r="16" class="C"/><circle cx="944" cy="976" r="16" class="G"/><circle cx="944" cy="1008" r="16" class="H"/><path d="M800 768h32v32h-32z" class="C"/><path d="M928 832h32v32h-32z" class="I"/><path d="M768 800l32-32h-32z" class="B"/><path d="M864 960l32-32h-32z" class="J"/><path d="M864 992l32-32h-32z" class="K"/><g class="L"><path d="M864 1024l32-32h-32z"/><path d="M864 1024l-32-32h32z"/></g><path d="M768 832l32 32v-32z" class="M"/><path d="M1024 1024v-64h-64zm-64-320h64v64h-64z" class="B"/><path d="M768 544h64v64h-64z" class="D"/><circle cx="864" cy="672" r="64" class="E"/><g class="F"><circle cx="880" cy="752" r="16"/><circle cx="976" cy="624" r="16"/></g><circle cx="1008" cy="592" r="16" class="C"/><circle cx="944" cy="560" r="16" class="G"/><circle cx="944" cy="528" r="16" class="H"/><path d="M800 736h32v32h-32z" class="C"/><path d="M928 672h32v32h-32z" class="I"/><path d="M768 736l32 32h-32z" class="B"/><path d="M864 576l32 32h-32z" class="J"/><path d="M864 544l32 32h-32z" class="K"/><g class="L"><path d="M864 512l32 32h-32z"/><path d="M864 512l-32 32h32z"/></g><path d="M768 704l32-32v32z" class="M"/><path d="M1024 512v64h-64zM512 704h64v64h-64z" class="B"/><path d="M704 544h64v64h-64z" class="D"/><circle cx="672" cy="672" r="64" class="E"/><g class="F"><circle cx="656" cy="752" r="16"/><circle cx="560" cy="624" r="16"/></g><circle cx="528" cy="592" r="16" class="C"/><circle cx="592" cy="560" r="16" class="G"/><circle cx="592" cy="528" r="16" class="H"/><path d="M704 736h32v32h-32z" class="C"/><path d="M576 672h32v32h-32z" class="I"/><path d="M768 736l-32 32h32z" class="B"/><path d="M672 576l-32 32h32z" class="J"/><path d="M672 544l-32 32h32z" class="K"/><g class="L"><path d="M672 512l-32 32h32z"/><path d="M672 512l32 32h-32z"/></g><path d="M768 704l-32-32v32z" class="M"/><g class="B"><path d="M512 512v64h64z"/><path d="M448 512h64v64h-64z"/></g><path d="M256 672h64v64h-64z" class="D"/><circle cx="352" cy="608" r="64" class="E"/><g class="F"><circle cx="368" cy="528" r="16"/><circle cx="464" cy="656" r="16"/></g><circle cx="496" cy="688" r="16" class="C"/><circle cx="432" cy="720" r="16" class="G"/><circle cx="432" cy="752" r="16" class="H"/><path d="M288 512h32v32h-32z" class="C"/><path d="M416 576h32v32h-32z" class="I"/><path d="M256 544l32-32h-32z" class="B"/><path d="M352 704l32-32h-32z" class="J"/><path d="M352 736l32-32h-32z" class="K"/><g class="L"><path d="M352 768l32-32h-32z"/><path d="M352 768l-32-32h32z"/></g><path d="M256 576l32 32v-32z" class="M"/><path d="M512 768v-64h-64zM0 512h64v64H0z" class="B"/><path d="M192 672h64v64h-64z" class="D"/><circle cx="160" cy="608" r="64" class="E"/><g class="F"><circle cx="144" cy="528" r="16"/><circle cx="48" cy="656" r="16"/></g><circle cx="16" cy="688" r="16" class="C"/><circle cx="80" cy="720" r="16" class="G"/><circle cx="80" cy="752" r="16" class="H"/><path d="M192 512h32v32h-32z" class="C"/><path d="M64 576h32v32H64z" class="I"/><path d="M256 544l-32-32h32z" class="B"/><path d="M160 704l-32-32h32z" class="J"/><path d="M160 736l-32-32h32z" class="K"/><g class="L"><path d="M160 768l-32-32h32z"/><path d="M160 768l32-32h-32z"/></g><path d="M256 576l-32 32v-32z" class="M"/><path d="M0 768v-64h64z" class="B"/></svg>