<svg xmlns="http://www.w3.org/2000/svg" width="1024" height="1024" xmlns:v="https://vecta.io/nano"><style><![CDATA[.B{fill:#ac345a}.C{fill:#f39200}.D{fill:#fddf87}.E{fill:#feedc8}.F{fill:#ac86a6}.G{fill:#ed6e4c}]]></style><g class="B"><circle cx="48" cy="48" r="16"/><circle cx="48" cy="208" r="16"/></g><path d="M192 256v-64h64z" class="C"/><path d="M191.687 0v64h64z" class="D"/><path d="M160 96l32 32.643L160.643 160H224V96z" class="E"/><path d="M160 0L32 128l128 128v-96l-32-32 32-32.643z" class="F"/><path d="M0 160V96l32 32z" class="G"/><g class="B"><circle cx="464" cy="48" r="16"/><circle cx="464" cy="208" r="16"/></g><path d="M320 256v-64h-64z" class="C"/><path d="M320.313 0v64h-64z" class="D"/><path d="M352 96l-32 32.643L351.357 160H288V96z" class="E"/><path d="M352 0l128 128-128 128v-96l32-32-32-32.643z" class="F"/><path d="M512 160V96l-32 32z" class="G"/><g class="B"><circle cx="560" cy="208" r="16"/><circle cx="560" cy="48" r="16"/></g><path d="M704 0v64h64z" class="C"/><path d="M703.687 256v-64h64z" class="D"/><path d="M672 160l32-32.643L672.643 96H736v64z" class="E"/><path d="M672 256L544 128 672 0v96l-32 32 32 32.643z" class="F"/><path d="M512 96v64l32-32z" class="G"/><g class="B"><circle cx="976" cy="208" r="16"/><circle cx="976" cy="48" r="16"/></g><path d="M832 0v64h-64z" class="C"/><path d="M832.313 256v-64h-64z" class="D"/><path d="M864 160l-32-32.643L863.357 96H800v64z" class="E"/><path d="M864 256l128-128L864 0v96l32 32-32 32.643z" class="F"/><path d="M1024 96v64l-32-32z" class="G"/><g class="B"><circle cx="976" cy="304" r="16"/><circle cx="976" cy="464" r="16"/></g><path d="M832 512v-64h-64z" class="C"/><path d="M832.313 256v64h-64z" class="D"/><path d="M864 352l-32 32.643L863.357 416H800v-64z" class="E"/><path d="M864 256l128 128-128 128v-96l32-32-32-32.643z" class="F"/><path d="M1024 416v-64l-32 32z" class="G"/><g class="B"><circle cx="560" cy="304" r="16"/><circle cx="560" cy="464" r="16"/></g><path d="M704 512v-64h64z" class="C"/><path d="M703.687 256v64h64z" class="D"/><path d="M672 352l32 32.643L672.643 416H736v-64z" class="E"/><path d="M672 256L544 384l128 128v-96l-32-32 32-32.643z" class="F"/><path d="M512 416v-64l32 32z" class="G"/><g class="B"><circle cx="464" cy="464" r="16"/><circle cx="464" cy="304" r="16"/></g><path d="M320 256v64h-64z" class="C"/><path d="M320.313 512v-64h-64z" class="D"/><path d="M352 416l-32-32.643L351.357 352H288v64z" class="E"/><path d="M352 512l128-128-128-128v96l32 32-32 32.643z" class="F"/><path d="M512 352v64l-32-32z" class="G"/><g class="B"><circle cx="48" cy="464" r="16"/><circle cx="48" cy="304" r="16"/></g><path d="M192 256v64h64z" class="C"/><path d="M191.687 512v-64h64z" class="D"/><path d="M160 416l32-32.643L160.643 352H224v64z" class="E"/><path d="M160 512L32 384l128-128v96l-32 32 32 32.643z" class="F"/><path d="M0 352v64l32-32z" class="G"/><g class="B"><circle cx="48" cy="976" r="16"/><circle cx="48" cy="816" r="16"/></g><path d="M192 768v64h64z" class="C"/><path d="M191.687 1024v-64h64z" class="D"/><path d="M160 928l32-32.643L160.643 864H224v64z" class="E"/><path d="M160 1024L32 896l128-128v96l-32 32 32 32.643z" class="F"/><path d="M0 864v64l32-32z" class="G"/><g class="B"><circle cx="464" cy="976" r="16"/><circle cx="464" cy="816" r="16"/></g><path d="M320 768v64h-64z" class="C"/><path d="M320.313 1024v-64h-64z" class="D"/><path d="M352 928l-32-32.643L351.357 864H288v64z" class="E"/><path d="M352 1024l128-128-128-128v96l32 32-32 32.643z" class="F"/><path d="M512 864v64l-32-32z" class="G"/><g class="B"><circle cx="560" cy="816" r="16"/><circle cx="560" cy="976" r="16"/></g><path d="M704 1024v-64h64z" class="C"/><path d="M703.687 768v64h64z" class="D"/><path d="M672 864l32 32.643L672.643 928H736v-64z" class="E"/><path d="M672 768L544 896l128 128v-96l-32-32 32-32.643z" class="F"/><path d="M512 928v-64l32 32z" class="G"/><g class="B"><circle cx="976" cy="816" r="16"/><circle cx="976" cy="976" r="16"/></g><path d="M832 1024v-64h-64z" class="C"/><path d="M832.313 768v64h-64z" class="D"/><path d="M864 864l-32 32.643L863.357 928H800v-64z" class="E"/><path d="M864 768l128 128-128 128v-96l32-32-32-32.643z" class="F"/><path d="M1024 928v-64l-32 32z" class="G"/><g class="B"><circle cx="976" cy="720" r="16"/><circle cx="976" cy="560" r="16"/></g><path d="M832 512v64h-64z" class="C"/><path d="M832.313 768v-64h-64z" class="D"/><path d="M864 672l-32-32.643L863.357 608H800v64z" class="E"/><path d="M864 768l128-128-128-128v96l32 32-32 32.643z" class="F"/><path d="M1024 608v64l-32-32z" class="G"/><g class="B"><circle cx="560" cy="720" r="16"/><circle cx="560" cy="560" r="16"/></g><path d="M704 512v64h64z" class="C"/><path d="M703.687 768v-64h64z" class="D"/><path d="M672 672l32-32.643L672.643 608H736v64z" class="E"/><path d="M672 768L544 640l128-128v96l-32 32 32 32.643z" class="F"/><path d="M512 608v64l32-32z" class="G"/><g class="B"><circle cx="464" cy="560" r="16"/><circle cx="464" cy="720" r="16"/></g><path d="M320 768v-64h-64z" class="C"/><path d="M320.313 512v64h-64z" class="D"/><path d="M352 608l-32 32.643L351.357 672H288v-64z" class="E"/><path d="M352 512l128 128-128 128v-96l32-32-32-32.643z" class="F"/><path d="M512 672v-64l-32 32z" class="G"/><g class="B"><circle cx="48" cy="560" r="16"/><circle cx="48" cy="720" r="16"/></g><path d="M192 768v-64h64z" class="C"/><path d="M191.687 512v64h64z" class="D"/><path d="M160 608l32 32.643L160.643 672H224v-64z" class="E"/><path d="M160 512L32 640l128 128v-96l-32-32 32-32.643z" class="F"/><path d="M0 672v-64l32 32z" class="G"/></svg>