<svg xmlns="http://www.w3.org/2000/svg" width="1024" height="1024" xmlns:v="https://vecta.io/nano"><style><![CDATA[.B{fill:#95c23d}.C{fill:#aea497}.D{fill:#7a6951}.E{fill:#83a153}]]></style><circle cx="144" cy="128" r="48" class="B"/><path d="M128,0v48c44.183,0,80,35.817,80,80s-35.817,80-80,80v48l128-128L128,0z" class="C"/><path d="M32 64v32l32 32-32 32v32l64-64z" class="D"/><path d="M32 160L0 128l32-32z" class="E"/><circle cx="368" cy="128" r="48" class="B"/><path d="M384,0v48c-44.183,0-80,35.817-80,80s35.817,80,80,80v48L256,128L384,0z" class="C"/><path d="M480 64v32l-32 32 32 32v32l-64-64z" class="D"/><path d="M480 160l32-32-32-32z" class="E"/><circle cx="656" cy="128" r="48" class="B"/><path d="M640,256v-48c44.183,0,80-35.817,80-80s-35.817-80-80-80V0l128,128L640,256z" class="C"/><path d="M544 192v-32l32-32-32-32V64l64 64z" class="D"/><path d="M544 96l-32 32 32 32z" class="E"/><circle cx="880" cy="128" r="48" class="B"/><path d="M896,256v-48c-44.183,0-80-35.817-80-80s35.817-80,80-80V0L768,128L896,256z" class="C"/><path d="M992 192v-32l-32-32 32-32V64l-64 64z" class="D"/><path d="M992 96l32 32-32 32z" class="E"/><circle cx="880" cy="384" r="48" class="B"/><path d="M896,256v48c-44.183,0-80,35.817-80,80s35.817,80,80,80v48L768,384L896,256z" class="C"/><path d="M992 320v32l-32 32 32 32v32l-64-64z" class="D"/><path d="M992 416l32-32-32-32z" class="E"/><circle cx="656" cy="384" r="48" class="B"/><path d="M640,256v48c44.183,0,80,35.817,80,80s-35.817,80-80,80v48l128-128L640,256z" class="C"/><path d="M544 320v32l32 32-32 32v32l64-64z" class="D"/><path d="M544 416l-32-32 32-32z" class="E"/><circle cx="368" cy="384" r="48" class="B"/><path d="M384,512v-48c-44.183,0-80-35.817-80-80s35.817-80,80-80v-48L256,384L384,512z" class="C"/><path d="M480 448v-32l-32-32 32-32v-32l-64 64z" class="D"/><path d="M480 352l32 32-32 32z" class="E"/><circle cx="144" cy="384" r="48" class="B"/><path d="M128,512v-48c44.183,0,80-35.817,80-80s-35.817-80-80-80v-48l128,128L128,512z" class="C"/><path d="M32 448v-32l32-32-32-32v-32l64 64z" class="D"/><path d="M32 352L0 384l32 32z" class="E"/><circle cx="144" cy="896" r="48" class="B"/><path d="M128 1024v-48c44.183 0 80-35.817 80-80s-35.817-80-80-80v-48l128 128-128 128z" class="C"/><path d="M32 960v-32l32-32-32-32v-32l64 64z" class="D"/><path d="M32 864L0 896l32 32z" class="E"/><circle cx="368" cy="896" r="48" class="B"/><path d="M384 1024v-48c-44.183 0-80-35.817-80-80s35.817-80 80-80v-48L256 896l128 128z" class="C"/><path d="M480 960v-32l-32-32 32-32v-32l-64 64z" class="D"/><path d="M480 864l32 32-32 32z" class="E"/><circle cx="656" cy="896" r="48" class="B"/><path d="M640,768v48c44.183,0,80,35.817,80,80s-35.817,80-80,80v48l128-128L640,768z" class="C"/><path d="M544 832v32l32 32-32 32v32l64-64z" class="D"/><path d="M544 928l-32-32 32-32z" class="E"/><circle cx="880" cy="896" r="48" class="B"/><path d="M896,768v48c-44.183,0-80,35.817-80,80s35.817,80,80,80v48L768,896L896,768z" class="C"/><path d="M992 832v32l-32 32 32 32v32l-64-64z" class="D"/><path d="M992 928l32-32-32-32z" class="E"/><circle cx="880" cy="640" r="48" class="B"/><path d="M896,768v-48c-44.183,0-80-35.817-80-80s35.817-80,80-80v-48L768,640L896,768z" class="C"/><path d="M992 704v-32l-32-32 32-32v-32l-64 64z" class="D"/><path d="M992 608l32 32-32 32z" class="E"/><circle cx="656" cy="640" r="48" class="B"/><path d="M640,768v-48c44.183,0,80-35.817,80-80s-35.817-80-80-80v-48l128,128L640,768z" class="C"/><path d="M544 704v-32l32-32-32-32v-32l64 64z" class="D"/><path d="M544 608l-32 32 32 32z" class="E"/><circle cx="368" cy="640" r="48" class="B"/><path d="M384,512v48c-44.183,0-80,35.817-80,80s35.817,80,80,80v48L256,640L384,512z" class="C"/><path d="M480 576v32l-32 32 32 32v32l-64-64z" class="D"/><path d="M480 672l32-32-32-32z" class="E"/><circle cx="144" cy="640" r="48" class="B"/><path d="M128,512v48c44.183,0,80,35.817,80,80s-35.817,80-80,80v48l128-128L128,512z" class="C"/><path d="M32 576v32l32 32-32 32v32l64-64z" class="D"/><path d="M32 672L0 640l32-32z" class="E"/></svg>