<svg xmlns="http://www.w3.org/2000/svg" width="1024" height="1024" xmlns:v="https://vecta.io/nano"><style><![CDATA[.B{fill:#aad264}.C{fill:#8ab73b}.D{fill:#a0b4dc}.E{fill:#feedc8}.F{fill:#dce6b4}.G{fill:#b7c54c}]]></style><path d="M64 64H32l32-32z" class="B"/><path d="M96 32v64H32z" class="C"/><path d="M128 0l32 32-32 32z" class="D"/><path d="M224 192v32h-32l32 32 32-32z" class="C"/><path d="M224 32v32h-32l-32 32 32 32V96h32l32-32z" class="E"/><path d="M96,96c-35.346,0-64,28.654-64,64v64h64c35.346,0,64-28.654,64-64V96H96z" class="F"/><circle cx="192" cy="192" r="32" class="G"/><path d="M128 64v64H64z" class="B"/><circle cx="16" cy="240" r="16" class="D"/><path d="M320 192v32l-32-32z" class="B"/><path d="M288 160h64v64z" class="C"/><path d="M256 128l32-32 32 32z" class="D"/><path d="M448 32h32v32l32-32-32-32z" class="C"/><path d="M288 32h32v32l32 32 32-32h-32V32L320 0z" class="E"/><path d="M352 160c0 35.346 28.654 64 64 64h64v-64c0-35.346-28.654-64-64-64h-64v64z" class="F"/><circle cx="448" cy="64" r="32" class="G"/><path d="M320 128h64v64z" class="B"/><circle cx="496" cy="240" r="16" class="D"/><path d="M704 192h32l-32 32z" class="B"/><path d="M672 224v-64h64z" class="C"/><path d="M640 256l-32-32 32-32z" class="D"/><path d="M544 64V32h32L544 0l-32 32z" class="C"/><path d="M544 224v-32h32l32-32-32-32v32h-32l-32 32z" class="E"/><path d="M672 160c35.346 0 64-28.654 64-64V32h-64c-35.346 0-64 28.654-64 64v64h64z" class="F"/><circle cx="576" cy="64" r="32" class="G"/><path d="M640 192v-64h64z" class="B"/><circle cx="752" cy="16" r="16" class="D"/><path d="M960 64V32l32 32z" class="B"/><path d="M992 96h-64V32z" class="C"/><path d="M1024 128l-32 32-32-32z" class="D"/><path d="M832 224h-32v-32l-32 32 32 32z" class="C"/><path d="M992 224h-32v-32l-32-32-32 32h32v32l32 32z" class="E"/><path d="M928,96c0-35.346-28.654-64-64-64h-64v64c0,35.346,28.654,64,64,64h64V96z" class="F"/><circle cx="832" cy="192" r="32" class="G"/><path d="M960 128h-64V64z" class="B"/><circle cx="784" cy="16" r="16" class="D"/><path d="M960 448h32l-32 32z" class="B"/><path d="M928 480v-64h64z" class="C"/><path d="M896 512l-32-32 32-32z" class="D"/><path d="M800 320v-32h32l-32-32-32 32z" class="C"/><path d="M800 480v-32h32l32-32-32-32v32h-32l-32 32z" class="E"/><path d="M928 416c35.346 0 64-28.654 64-64v-64h-64c-35.347 0-64 28.654-64 64v64h64z" class="F"/><circle cx="832" cy="320" r="32" class="G"/><path d="M896 448v-64h64z" class="B"/><circle cx="1008" cy="272" r="16" class="D"/><path d="M704 320v-32l32 32z" class="B"/><path d="M736 352h-64v-64z" class="C"/><path d="M768 384l-32 32-32-32z" class="D"/><path d="M576 480h-32v-32l-32 32 32 32z" class="C"/><path d="M736 480h-32v-32l-32-32-32 32h32v32l32 32z" class="E"/><path d="M672,352c0-35.346-28.654-64-64-64h-64v64c0,35.346,28.654,64,64,64h64V352z" class="F"/><circle cx="576" cy="448" r="32" class="G"/><path d="M704 384h-64v-64z" class="B"/><circle cx="528" cy="272" r="16" class="D"/><path d="M320 320h-32l32-32z" class="B"/><path d="M352 288v64h-64z" class="C"/><path d="M384 256l32 32-32 32z" class="D"/><path d="M480 448v32h-32l32 32 32-32z" class="C"/><path d="M480 288v32h-32l-32 32 32 32v-32h32l32-32z" class="E"/><path d="M352,352c-35.346,0-64,28.654-64,64v64h64c35.346,0,64-28.654,64-64v-64H352z" class="F"/><circle cx="448" cy="448" r="32" class="G"/><path d="M384 320v64h-64z" class="B"/><circle cx="272" cy="496" r="16" class="D"/><path d="M64 448v32l-32-32z" class="B"/><path d="M32 416h64v64z" class="C"/><path d="M0 384l32-32 32 32z" class="D"/><path d="M192 288h32v32l32-32-32-32z" class="C"/><path d="M32 288h32v32l32 32 32-32H96v-32l-32-32z" class="E"/><path d="M96 416c0 35.346 28.654 64 64 64h64v-64c0-35.346-28.654-64-64-64H96v64z" class="F"/><circle cx="192" cy="320" r="32" class="G"/><path d="M64 384h64v64z" class="B"/><circle cx="240" cy="496" r="16" class="D"/><path d="M960 960h32l-32 32z" class="B"/><path d="M928 992v-64h64z" class="C"/><path d="M896 1024l-32-32 32-32z" class="D"/><path d="M800 832v-32h32l-32-32-32 32z" class="C"/><path d="M800 992v-32h32l32-32-32-32v32h-32l-32 32z" class="E"/><path d="M928 928c35.346 0 64-28.654 64-64v-64h-64c-35.347 0-64 28.654-64 64v64h64z" class="F"/><circle cx="832" cy="832" r="32" class="G"/><path d="M896 960v-64h64z" class="B"/><circle cx="1008" cy="784" r="16" class="D"/><path d="M704 832v-32l32 32z" class="B"/><path d="M736 864h-64v-64z" class="C"/><path d="M768 896l-32 32-32-32z" class="D"/><path d="M576 992h-32v-32l-32 32 32 32z" class="C"/><path d="M736 992h-32v-32l-32-32-32 32h32v32l32 32z" class="E"/><path d="M672,864c0-35.346-28.654-64-64-64h-64v64c0,35.346,28.654,64,64,64h64V864z" class="F"/><circle cx="576" cy="960" r="32" class="G"/><path d="M704 896h-64v-64z" class="B"/><circle cx="528" cy="784" r="16" class="D"/><path d="M320 832h-32l32-32z" class="B"/><path d="M352 800v64h-64z" class="C"/><path d="M384 768l32 32-32 32z" class="D"/><path d="M480 960v32h-32l32 32 32-32z" class="C"/><path d="M480 800v32h-32l-32 32 32 32v-32h32l32-32z" class="E"/><path d="M352,864c-35.346,0-64,28.653-64,64v64h64c35.346,0,64-28.654,64-64v-64H352z" class="F"/><circle cx="448" cy="960" r="32" class="G"/><path d="M384 832v64h-64z" class="B"/><circle cx="272" cy="1008" r="16" class="D"/><path d="M64 960v32l-32-32z" class="B"/><path d="M32 928h64v64z" class="C"/><path d="M0 896l32-32 32 32z" class="D"/><path d="M192 800h32v32l32-32-32-32z" class="C"/><path d="M32 800h32v32l32 32 32-32H96v-32l-32-32z" class="E"/><path d="M96 928c0 35.346 28.654 64 64 64h64v-64c0-35.347-28.654-64-64-64H96v64z" class="F"/><circle cx="192" cy="832" r="32" class="G"/><path d="M64 896h64v64z" class="B"/><circle cx="240" cy="1008" r="16" class="D"/><path d="M64 576H32l32-32z" class="B"/><path d="M96 544v64H32z" class="C"/><path d="M128 512l32 32-32 32z" class="D"/><path d="M224 704v32h-32l32 32 32-32z" class="C"/><path d="M224 544v32h-32l-32 32 32 32v-32h32l32-32z" class="E"/><path d="M96,608c-35.346,0-64,28.654-64,64v64h64c35.346,0,64-28.654,64-64v-64H96z" class="F"/><circle cx="192" cy="704" r="32" class="G"/><path d="M128 576v64H64z" class="B"/><circle cx="16" cy="752" r="16" class="D"/><path d="M320 704v32l-32-32z" class="B"/><path d="M288 672h64v64z" class="C"/><path d="M256 640l32-32 32 32z" class="D"/><path d="M448 544h32v32l32-32-32-32z" class="C"/><path d="M288 544h32v32l32 32 32-32h-32v-32l-32-32z" class="E"/><path d="M352 672c0 35.346 28.654 64 64 64h64v-64c0-35.346-28.654-64-64-64h-64v64z" class="F"/><circle cx="448" cy="576" r="32" class="G"/><path d="M320 640h64v64z" class="B"/><circle cx="496" cy="752" r="16" class="D"/><path d="M704 704h32l-32 32z" class="B"/><path d="M672 736v-64h64z" class="C"/><path d="M640 768l-32-32 32-32z" class="D"/><path d="M544 576v-32h32l-32-32-32 32z" class="C"/><path d="M544 736v-32h32l32-32-32-32v32h-32l-32 32z" class="E"/><path d="M672 672c35.346 0 64-28.654 64-64v-64h-64c-35.346 0-64 28.654-64 64v64h64z" class="F"/><circle cx="576" cy="576" r="32" class="G"/><path d="M640 704v-64h64z" class="B"/><circle cx="752" cy="528" r="16" class="D"/><path d="M960 576v-32l32 32z" class="B"/><path d="M992 608h-64v-64z" class="C"/><path d="M1024 640l-32 32-32-32z" class="D"/><path d="M832 736h-32v-32l-32 32 32 32z" class="C"/><path d="M992 736h-32v-32l-32-32-32 32h32v32l32 32z" class="E"/><path d="M928,608c0-35.346-28.654-64-64-64h-64v64c0,35.346,28.654,64,64,64h64V608z" class="F"/><circle cx="832" cy="704" r="32" class="G"/><path d="M960 640h-64v-64z" class="B"/><circle cx="784" cy="528" r="16" class="D"/></svg>