<svg xmlns="http://www.w3.org/2000/svg" width="1024" height="1024" xmlns:v="https://vecta.io/nano"><style><![CDATA[.B{fill:#6e8c00}.C{fill:#6478e6}.D{fill:#96b400}.E{fill:#c8dc64}.F{fill:#a0afff}.G{fill:#dc4632}.H{fill:#f0c878}]]></style><path d="M64 112c0-8.836-7.151-16-15.972-16a15.9 15.9 0 0 0-6.577 1.42A31.99 31.99 0 0 0 32 96c-17.673 0-32 14.327-32 32s14.327 32 32 32 32-14.327 32-32a31.98 31.98 0 0 0-1.413-9.423C63.492 116.57 64 114.345 64 112z" class="B"/><path d="M128 192l9.373 9.373C131.582 207.164 128 215.164 128 224c0 17.673 14.327 32 32 32 8.836 0 16.836-3.582 22.627-9.373L192 256v-64h-64z" class="D"/><path d="M64 32V0h32z" class="C"/><path d="M256 224h-32v-32z" class="E"/><path d="M192 224h32v32z" class="B"/><path d="M0 224h32v32z" class="C"/><path d="M0 64V32h32z" class="B"/><path d="M0 64h32v32H0z" class="E"/><path d="M160 32c-35.346 0-64 28.654-64 64 0 12.243 3.44 23.682 9.403 33.407C102.43 128.494 99.272 128 96 128c-17.673 0-32 14.327-32 32v32h32c17.673 0 32-14.327 32-32 0-3.272-.494-6.43-1.407-9.403C136.318 156.56 147.757 160 160 160c35.346 0 64-28.654 64-64s-28.654-64-64-64z" class="F"/><path d="M32 192l4.687 4.687C33.791 199.582 32 203.582 32 208c0 8.836 7.164 16 16 16 4.418 0 8.418-1.791 11.313-4.687L64 224v-32H32z" class="G"/><circle cx="224" cy="32" r="32" class="D"/><path d="M256 192h-64v-64z" class="C"/><path d="M128 64H64l64-64z" class="H"/><path d="M448 112c0-8.836 7.151-16 15.972-16a15.9 15.9 0 0 1 6.577 1.42A31.99 31.99 0 0 1 480 96c17.673 0 32 14.327 32 32s-14.327 32-32 32-32-14.327-32-32a31.98 31.98 0 0 1 1.413-9.423C448.508 116.57 448 114.345 448 112z" class="B"/><path d="M384 192l-9.373 9.373C380.418 207.164 384 215.164 384 224c0 17.673-14.327 32-32 32-8.836 0-16.836-3.582-22.627-9.373L320 256v-64h64z" class="D"/><path d="M448 32V0h-32z" class="C"/><path d="M256 224h32v-32z" class="E"/><path d="M320 224h-32v32z" class="B"/><path d="M512 224h-32v32z" class="C"/><path d="M512 64V32h-32z" class="B"/><path d="M480 64h32v32h-32z" class="E"/><path d="M352 32c35.346 0 64 28.654 64 64 0 12.243-3.44 23.682-9.403 33.407A31.98 31.98 0 0 1 416 128c17.673 0 32 14.327 32 32v32h-32c-17.673 0-32-14.327-32-32 0-3.272.494-6.43 1.407-9.403C375.682 156.56 364.243 160 352 160c-35.346 0-64-28.654-64-64s28.654-64 64-64z" class="F"/><path d="M480 192l-4.687 4.687C478.209 199.582 480 203.582 480 208c0 8.836-7.164 16-16 16-4.418 0-8.418-1.791-11.313-4.687L448 224v-32h32z" class="G"/><circle cx="288" cy="32" r="32" class="D"/><path d="M256 192h64v-64z" class="C"/><path d="M384 64h64L384 0z" class="H"/><path d="M576 144a15.99 15.99 0 0 1-15.972 16c-2.346 0-4.57-.511-6.577-1.42-2.987.922-6.161 1.42-9.451 1.42-17.673 0-32-14.327-32-32s14.327-32 32-32 32 14.327 32 32a32.01 32.01 0 0 1-1.412 9.423c.904 2.007 1.412 4.232 1.412 6.577z" class="B"/><path d="M640 64l9.373-9.373C643.582 48.836 640 40.836 640 32c0-17.673 14.327-32 32-32 8.837 0 16.837 3.582 22.627 9.373L704 0v64h-64z" class="D"/><path d="M576 224v32h32z" class="C"/><path d="M768 32h-32v32z" class="E"/><path d="M704 32h32V0z" class="B"/><path d="M512 32h32V0z" class="C"/><path d="M512 192v32h32z" class="B"/><path d="M512 160h32v32h-32z" class="E"/><path d="M672 224c-35.346 0-64-28.654-64-64 0-12.243 3.44-23.682 9.403-33.407-2.973.913-6.131 1.407-9.403 1.407-17.673 0-32-14.327-32-32V64h32c17.673 0 32 14.327 32 32 0 3.272-.494 6.43-1.406 9.403C648.318 99.44 659.757 96 672 96c35.346 0 64 28.654 64 64s-28.654 64-64 64z" class="F"/><path d="M544 64l4.687-4.687C545.791 56.418 544 52.418 544 48c0-8.836 7.163-16 16-16 4.418 0 8.418 1.791 11.313 4.687L576 32v32h-32z" class="G"/><circle cx="736" cy="224" r="32" class="D"/><path d="M768 64h-64v64z" class="C"/><path d="M640 192h-64l64 64z" class="H"/><path d="M960 144a15.99 15.99 0 0 0 15.972 16c2.346 0 4.57-.511 6.577-1.42 2.987.922 6.161 1.42 9.451 1.42 17.673 0 32-14.327 32-32s-14.327-32-32-32-32 14.327-32 32a32.01 32.01 0 0 0 1.412 9.423C960.508 139.43 960 141.655 960 144z" class="B"/><path d="M896 64l-9.373-9.373C892.418 48.836 896 40.836 896 32c0-17.673-14.327-32-32-32-8.837 0-16.837 3.582-22.627 9.373L832 0v64h64z" class="D"/><path d="M960 224v32h-32z" class="C"/><path d="M768 32h32v32z" class="E"/><path d="M832 32h-32V0z" class="B"/><path d="M1024 32h-32V0z" class="C"/><path d="M1024 192v32h-32z" class="B"/><path d="M992 160h32v32h-32z" class="E"/><path d="M864 224c35.346 0 64-28.654 64-64 0-12.243-3.44-23.682-9.403-33.407 2.973.913 6.131 1.407 9.403 1.407 17.673 0 32-14.327 32-32V64h-32c-17.673 0-32 14.327-32 32 0 3.272.494 6.43 1.406 9.403C887.682 99.44 876.243 96 864 96c-35.346 0-64 28.654-64 64s28.654 64 64 64z" class="F"/><path d="M992 64l-4.687-4.687C990.209 56.418 992 52.418 992 48c0-8.836-7.163-16-16-16-4.418 0-8.418 1.791-11.313 4.687L960 32v32h32z" class="G"/><circle cx="800" cy="224" r="32" class="D"/><path d="M768 64h64v64z" class="C"/><path d="M896 192h64l-64 64z" class="H"/><path d="M960 368a15.99 15.99 0 0 1 15.972-16c2.346 0 4.57.511 6.577 1.42 2.987-.922 6.161-1.42 9.451-1.42 17.673 0 32 14.327 32 32s-14.327 32-32 32-32-14.327-32-32a32.01 32.01 0 0 1 1.412-9.423C960.508 372.57 960 370.345 960 368z" class="B"/><path d="M896 448l-9.373 9.373C892.418 463.164 896 471.164 896 480c0 17.673-14.327 32-32 32-8.837 0-16.837-3.582-22.627-9.373L832 512v-64h64z" class="D"/><path d="M960 288v-32h-32z" class="C"/><path d="M768 480h32v-32z" class="E"/><path d="M832 480h-32v32z" class="B"/><path d="M1024 480h-32v32z" class="C"/><path d="M1024 320v-32h-32z" class="B"/><path d="M992 320h32v32h-32z" class="E"/><path d="M864 288c35.346 0 64 28.654 64 64 0 12.243-3.44 23.682-9.403 33.407 2.973-.913 6.131-1.407 9.403-1.407 17.673 0 32 14.327 32 32v32h-32c-17.673 0-32-14.327-32-32 0-3.272.494-6.43 1.406-9.403C887.682 412.56 876.243 416 864 416c-35.346 0-64-28.654-64-64s28.654-64 64-64z" class="F"/><path d="M992 448l-4.687 4.687C990.209 455.582 992 459.582 992 464c0 8.836-7.163 16-16 16-4.418 0-8.418-1.791-11.313-4.687L960 480v-32h32z" class="G"/><circle cx="800" cy="288" r="32" class="D"/><path d="M768 448h64v-64z" class="C"/><path d="M896 320h64l-64-64z" class="H"/><path d="M576 368a15.99 15.99 0 0 0-15.972-16c-2.346 0-4.57.511-6.577 1.42-2.987-.922-6.161-1.42-9.451-1.42-17.673 0-32 14.327-32 32s14.327 32 32 32 32-14.327 32-32a32.01 32.01 0 0 0-1.412-9.423c.904-2.007 1.412-4.232 1.412-6.577z" class="B"/><path d="M640 448l9.373 9.373C643.582 463.164 640 471.164 640 480c0 17.673 14.327 32 32 32 8.837 0 16.837-3.582 22.627-9.373L704 512v-64h-64z" class="D"/><path d="M576 288v-32h32z" class="C"/><path d="M768 480h-32v-32z" class="E"/><path d="M704 480h32v32z" class="B"/><path d="M512 480h32v32z" class="C"/><path d="M512 320v-32h32z" class="B"/><path d="M512 320h32v32h-32z" class="E"/><path d="M672 288c-35.346 0-64 28.654-64 64 0 12.243 3.44 23.682 9.403 33.407-2.973-.913-6.131-1.407-9.403-1.407-17.673 0-32 14.327-32 32v32h32c17.673 0 32-14.327 32-32 0-3.272-.494-6.43-1.406-9.403C648.318 412.56 659.757 416 672 416c35.346 0 64-28.654 64-64s-28.654-64-64-64z" class="F"/><path d="M544 448l4.687 4.687C545.791 455.582 544 459.582 544 464c0 8.836 7.163 16 16 16 4.418 0 8.418-1.791 11.313-4.687L576 480v-32h-32z" class="G"/><circle cx="736" cy="288" r="32" class="D"/><path d="M768 448h-64v-64z" class="C"/><path d="M640 320h-64l64-64z" class="H"/><path d="M448 400c0 8.836 7.151 16 15.972 16a15.9 15.9 0 0 0 6.577-1.42 32 32 0 0 0 9.452 1.42c17.673 0 32-14.327 32-32s-14.327-32-32-32-32 14.327-32 32a31.98 31.98 0 0 0 1.413 9.423A15.94 15.94 0 0 0 448 400z" class="B"/><path d="M384 320l-9.373-9.373C380.418 304.836 384 296.836 384 288c0-17.673-14.327-32-32-32-8.836 0-16.836 3.582-22.627 9.373L320 256v64h64z" class="D"/><path d="M448 480v32h-32z" class="C"/><path d="M256 288h32v32z" class="E"/><path d="M320 288h-32v-32z" class="B"/><path d="M512 288h-32v-32z" class="C"/><path d="M512 448v32h-32z" class="B"/><path d="M480 416h32v32h-32z" class="E"/><path d="M352 480c35.346 0 64-28.654 64-64 0-12.243-3.44-23.682-9.403-33.407A31.98 31.98 0 0 0 416 384c17.673 0 32-14.327 32-32v-32h-32c-17.673 0-32 14.327-32 32 0 3.272.494 6.43 1.407 9.403C375.682 355.44 364.243 352 352 352c-35.346 0-64 28.654-64 64s28.654 64 64 64z" class="F"/><path d="M480 320l-4.687-4.687C478.209 312.418 480 308.418 480 304c0-8.836-7.164-16-16-16-4.418 0-8.418 1.791-11.313 4.687L448 288v32h32z" class="G"/><circle cx="288" cy="480" r="32" class="D"/><path d="M256 320h64v64z" class="C"/><path d="M384 448h64l-64 64z" class="H"/><path d="M64 400c0 8.836-7.151 16-15.972 16a15.9 15.9 0 0 1-6.577-1.42A31.99 31.99 0 0 1 32 416c-17.673 0-32-14.327-32-32s14.327-32 32-32 32 14.327 32 32a31.98 31.98 0 0 1-1.413 9.423C63.492 395.43 64 397.655 64 400z" class="B"/><path d="M128 320l9.373-9.373C131.582 304.836 128 296.836 128 288c0-17.673 14.327-32 32-32 8.836 0 16.836 3.582 22.627 9.373L192 256v64h-64z" class="D"/><path d="M64 480v32h32z" class="C"/><path d="M256 288h-32v32z" class="E"/><path d="M192 288h32v-32z" class="B"/><path d="M0 288h32v-32z" class="C"/><path d="M0 448v32h32z" class="B"/><path d="M0 416h32v32H0z" class="E"/><path d="M160 480c-35.346 0-64-28.654-64-64 0-12.243 3.44-23.682 9.403-33.407C102.43 383.506 99.272 384 96 384c-17.673 0-32-14.327-32-32v-32h32c17.673 0 32 14.327 32 32 0 3.272-.494 6.43-1.407 9.403C136.318 355.44 147.757 352 160 352c35.346 0 64 28.654 64 64s-28.654 64-64 64z" class="F"/><path d="M32 320l4.687-4.687C33.791 312.418 32 308.418 32 304c0-8.836 7.164-16 16-16 4.418 0 8.418 1.791 11.313 4.687L64 288v32H32z" class="G"/><circle cx="224" cy="480" r="32" class="D"/><path d="M256 320h-64v64z" class="C"/><path d="M128 448H64l64 64z" class="H"/><path d="M64 912a15.99 15.99 0 0 1-15.972 16 15.9 15.9 0 0 1-6.577-1.42A31.99 31.99 0 0 1 32 928c-17.673 0-32-14.327-32-32s14.327-32 32-32 32 14.327 32 32a31.99 31.99 0 0 1-1.413 9.424A15.95 15.95 0 0 1 64 912z" class="B"/><path d="M128 832l9.373-9.373C131.582 816.837 128 808.837 128 800c0-17.673 14.327-32 32-32 8.836 0 16.836 3.582 22.627 9.373L192 768v64h-64z" class="D"/><path d="M64 992v32h32z" class="C"/><path d="M256 800h-32v32z" class="E"/><path d="M192 800h32v-32z" class="B"/><path d="M0 800h32v-32z" class="C"/><path d="M0 960v32h32z" class="B"/><path d="M0 928h32v32H0z" class="E"/><path d="M160 992c-35.346 0-64-28.654-64-64 0-12.243 3.44-23.682 9.403-33.406C102.43 895.506 99.272 896 96 896c-17.673 0-32-14.327-32-32v-32h32c17.673 0 32 14.327 32 32 0 3.272-.494 6.43-1.407 9.403C136.318 867.44 147.757 864 160 864c35.346 0 64 28.653 64 64s-28.654 64-64 64z" class="F"/><path d="M32 832l4.687-4.687C33.791 824.418 32 820.418 32 816c0-8.837 7.164-16 16-16 4.418 0 8.418 1.791 11.313 4.687L64 800v32H32z" class="G"/><circle cx="224" cy="992" r="32" class="D"/><path d="M256 832h-64v64z" class="C"/><path d="M128 960H64l64 64z" class="H"/><path d="M448 912a15.99 15.99 0 0 0 15.972 16 15.9 15.9 0 0 0 6.577-1.42 32 32 0 0 0 9.452 1.42c17.673 0 32-14.327 32-32s-14.327-32-32-32-32 14.327-32 32a31.99 31.99 0 0 0 1.413 9.424C448.508 907.43 448 909.655 448 912z" class="B"/><path d="M384 832l-9.373-9.373c5.791-5.79 9.373-13.79 9.373-22.627 0-17.673-14.327-32-32-32-8.836 0-16.836 3.582-22.627 9.373L320 768v64h64z" class="D"/><path d="M448 992v32h-32z" class="C"/><path d="M256 800h32v32z" class="E"/><path d="M320 800h-32v-32z" class="B"/><path d="M512 800h-32v-32z" class="C"/><path d="M512 960v32h-32z" class="B"/><path d="M480 928h32v32h-32z" class="E"/><path d="M352 992c35.346 0 64-28.654 64-64 0-12.243-3.44-23.682-9.403-33.406A32.01 32.01 0 0 0 416 896c17.673 0 32-14.327 32-32v-32h-32c-17.673 0-32 14.327-32 32 0 3.272.494 6.43 1.407 9.403C375.682 867.44 364.243 864 352 864c-35.346 0-64 28.653-64 64s28.654 64 64 64z" class="F"/><path d="M480 832l-4.687-4.687C478.209 824.418 480 820.418 480 816c0-8.837-7.164-16-16-16-4.418 0-8.418 1.791-11.313 4.687L448 800v32h32z" class="G"/><circle cx="288" cy="992" r="32" class="D"/><path d="M256 832h64v64z" class="C"/><path d="M384 960h64l-64 64z" class="H"/><path d="M576 880c0-8.837-7.15-16-15.972-16-2.346 0-4.57.511-6.577 1.42-2.987-.922-6.161-1.42-9.451-1.42-17.673 0-32 14.327-32 32s14.327 32 32 32 32-14.327 32-32c0-3.28-.496-6.444-1.412-9.424A15.97 15.97 0 0 0 576 880z" class="B"/><path d="M640 960l9.373 9.373C643.582 975.163 640 983.163 640 992c0 17.673 14.327 32 32 32 8.837 0 16.837-3.582 22.627-9.373L704 1024v-64h-64z" class="D"/><path d="M576 800v-32h32z" class="C"/><path d="M768 992h-32v-32z" class="E"/><path d="M704 992h32v32z" class="B"/><path d="M512 992h32v32z" class="C"/><path d="M512 832v-32h32z" class="B"/><path d="M512 832h32v32h-32z" class="E"/><path d="M672 800c-35.346 0-64 28.654-64 64 0 12.243 3.44 23.682 9.403 33.406-2.973-.912-6.131-1.406-9.403-1.406-17.673 0-32 14.327-32 32v32h32c17.673 0 32-14.327 32-32 0-3.272-.494-6.43-1.406-9.403C648.318 924.56 659.757 928 672 928c35.346 0 64-28.654 64-64s-28.654-64-64-64z" class="F"/><path d="M544 960l4.687 4.687C545.791 967.582 544 971.582 544 976c0 8.837 7.163 16 16 16 4.418 0 8.418-1.791 11.313-4.687L576 992v-32h-32z" class="G"/><circle cx="736" cy="800" r="32" class="D"/><path d="M768 960h-64v-64z" class="C"/><path d="M640 832h-64l64-64z" class="H"/><path d="M960 880c0-8.837 7.15-16 15.972-16 2.346 0 4.57.511 6.577 1.42 2.987-.922 6.161-1.42 9.451-1.42 17.673 0 32 14.327 32 32s-14.327 32-32 32-32-14.327-32-32c0-3.28.496-6.444 1.412-9.424A15.97 15.97 0 0 1 960 880z" class="B"/><path d="M896 960l-9.373 9.373c5.791 5.79 9.373 13.79 9.373 22.627 0 17.673-14.327 32-32 32-8.837 0-16.837-3.582-22.627-9.373L832 1024v-64h64z" class="D"/><path d="M960 800v-32h-32z" class="C"/><path d="M768 992h32v-32z" class="E"/><path d="M832 992h-32v32z" class="B"/><path d="M1024 992h-32v32z" class="C"/><path d="M1024 832v-32h-32z" class="B"/><path d="M992 832h32v32h-32z" class="E"/><path d="M864 800c35.346 0 64 28.654 64 64 0 12.243-3.44 23.682-9.403 33.406 2.973-.912 6.131-1.406 9.403-1.406 17.673 0 32 14.327 32 32v32h-32c-17.673 0-32-14.327-32-32 0-3.272.494-6.43 1.406-9.403C887.682 924.56 876.243 928 864 928c-35.346 0-64-28.654-64-64s28.654-64 64-64z" class="F"/><path d="M992 960l-4.687 4.687C990.209 967.582 992 971.582 992 976c0 8.837-7.163 16-16 16-4.418 0-8.418-1.791-11.313-4.687L960 992v-32h32z" class="G"/><circle cx="800" cy="800" r="32" class="D"/><path d="M768 960h64v-64z" class="C"/><path d="M896 832h64l-64-64z" class="H"/><path d="M960 656c0 8.837 7.15 16 15.972 16 2.346 0 4.57-.511 6.577-1.42 2.987.922 6.161 1.42 9.451 1.42 17.673 0 32-14.327 32-32s-14.327-32-32-32-32 14.327-32 32c0 3.28.496 6.444 1.412 9.424-.904 2.006-1.412 4.231-1.412 6.576z" class="B"/><path d="M896 576l-9.373-9.373c5.791-5.79 9.373-13.79 9.373-22.627 0-17.673-14.327-32-32-32-8.837 0-16.837 3.582-22.627 9.373L832 512v64h64z" class="D"/><path d="M960 736v32h-32z" class="C"/><path d="M768 544h32v32z" class="E"/><path d="M832 544h-32v-32z" class="B"/><path d="M1024 544h-32v-32z" class="C"/><path d="M1024 704v32h-32z" class="B"/><path d="M992 672h32v32h-32z" class="E"/><path d="M864 736c35.346 0 64-28.654 64-64 0-12.243-3.44-23.682-9.403-33.406 2.973.912 6.131 1.406 9.403 1.406 17.673 0 32-14.327 32-32v-32h-32c-17.673 0-32 14.327-32 32 0 3.272.494 6.43 1.406 9.403C887.682 611.44 876.243 608 864 608c-35.346 0-64 28.654-64 64s28.654 64 64 64z" class="F"/><path d="M992 576l-4.687-4.687C990.209 568.418 992 564.418 992 560c0-8.837-7.163-16-16-16-4.418 0-8.418 1.791-11.313 4.687L960 544v32h32z" class="G"/><circle cx="800" cy="736" r="32" class="D"/><path d="M768 576h64v64z" class="C"/><path d="M896 704h64l-64 64z" class="H"/><path d="M576 656c0 8.837-7.15 16-15.972 16-2.346 0-4.57-.511-6.577-1.42-2.987.922-6.161 1.42-9.451 1.42-17.673 0-32-14.327-32-32s14.327-32 32-32 32 14.327 32 32c0 3.28-.496 6.444-1.412 9.424.904 2.006 1.412 4.231 1.412 6.576z" class="B"/><path d="M640 576l9.373-9.373C643.582 560.837 640 552.837 640 544c0-17.673 14.327-32 32-32 8.837 0 16.837 3.582 22.627 9.373L704 512v64h-64z" class="D"/><path d="M576 736v32h32z" class="C"/><path d="M768 544h-32v32z" class="E"/><path d="M704 544h32v-32z" class="B"/><path d="M512 544h32v-32z" class="C"/><path d="M512 704v32h32z" class="B"/><path d="M512 672h32v32h-32z" class="E"/><path d="M672 736c-35.346 0-64-28.654-64-64 0-12.243 3.44-23.682 9.403-33.406-2.973.912-6.131 1.406-9.403 1.406-17.673 0-32-14.327-32-32v-32h32c17.673 0 32 14.327 32 32 0 3.272-.494 6.43-1.406 9.403C648.318 611.44 659.757 608 672 608c35.346 0 64 28.654 64 64s-28.654 64-64 64z" class="F"/><path d="M544 576l4.687-4.687C545.791 568.418 544 564.418 544 560c0-8.837 7.163-16 16-16 4.418 0 8.418 1.791 11.313 4.687L576 544v32h-32z" class="G"/><circle cx="736" cy="736" r="32" class="D"/><path d="M768 576h-64v64z" class="C"/><path d="M640 704h-64l64 64z" class="H"/><path d="M448 624a15.99 15.99 0 0 1 15.972-16 15.9 15.9 0 0 1 6.577 1.42 32 32 0 0 1 9.452-1.42c17.673 0 32 14.327 32 32s-14.327 32-32 32-32-14.327-32-32a31.99 31.99 0 0 1 1.413-9.424c-.906-2.007-1.414-4.231-1.414-6.576z" class="B"/><path d="M384 704l-9.373 9.373c5.791 5.79 9.373 13.79 9.373 22.627 0 17.673-14.327 32-32 32-8.836 0-16.836-3.582-22.627-9.373L320 768v-64h64z" class="D"/><path d="M448 544v-32h-32z" class="C"/><path d="M256 736h32v-32z" class="E"/><path d="M320 736h-32v32z" class="B"/><path d="M512 736h-32v32z" class="C"/><path d="M512 576v-32h-32z" class="B"/><path d="M480 576h32v32h-32z" class="E"/><path d="M352 544c35.346 0 64 28.654 64 64 0 12.243-3.44 23.682-9.403 33.406A32.01 32.01 0 0 1 416 640c17.673 0 32 14.327 32 32v32h-32c-17.673 0-32-14.327-32-32 0-3.272.494-6.43 1.407-9.403C375.682 668.56 364.243 672 352 672c-35.346 0-64-28.654-64-64s28.654-64 64-64z" class="F"/><path d="M480 704l-4.687 4.687C478.209 711.582 480 715.582 480 720c0 8.837-7.164 16-16 16-4.418 0-8.418-1.791-11.313-4.687L448 736v-32h32z" class="G"/><circle cx="288" cy="544" r="32" class="D"/><path d="M256 704h64v-64z" class="C"/><path d="M384 576h64l-64-64z" class="H"/><path d="M64 624a15.99 15.99 0 0 0-15.972-16 15.9 15.9 0 0 0-6.577 1.42A31.99 31.99 0 0 0 32 608c-17.673 0-32 14.327-32 32s14.327 32 32 32 32-14.327 32-32a31.99 31.99 0 0 0-1.413-9.424C63.492 628.569 64 626.345 64 624z" class="B"/><path d="M128 704l9.373 9.373C131.582 719.163 128 727.163 128 736c0 17.673 14.327 32 32 32 8.836 0 16.836-3.582 22.627-9.373L192 768v-64h-64z" class="D"/><path d="M64 544v-32h32z" class="C"/><path d="M256 736h-32v-32z" class="E"/><path d="M192 736h32v32z" class="B"/><path d="M0 736h32v32z" class="C"/><path d="M0 576v-32h32z" class="B"/><path d="M0 576h32v32H0z" class="E"/><path d="M160 544c-35.346 0-64 28.654-64 64 0 12.243 3.44 23.682 9.403 33.406C102.43 640.494 99.272 640 96 640c-17.673 0-32 14.327-32 32v32h32c17.673 0 32-14.327 32-32 0-3.272-.494-6.43-1.407-9.403C136.318 668.56 147.757 672 160 672c35.346 0 64-28.654 64-64s-28.654-64-64-64z" class="F"/><path d="M32 704l4.687 4.687C33.791 711.582 32 715.582 32 720c0 8.837 7.164 16 16 16 4.418 0 8.418-1.791 11.313-4.687L64 736v-32H32z" class="G"/><circle cx="224" cy="544" r="32" class="D"/><path d="M256 704h-64v-64z" class="C"/><path d="M128 576H64l64-64z" class="H"/></svg>