<svg xmlns="http://www.w3.org/2000/svg" xmlns:xlink="http://www.w3.org/1999/xlink" width="1024" height="1024" xmlns:v="https://vecta.io/nano"><style><![CDATA[.B{fill:#b40000}.C{fill:#8c8214}.D{fill:#c87800}.E{fill:#717221}.F{fill:#ffaa50}.G{fill:#d2805f}.H{fill:#a5a0a3}]]></style><path d="M64 112c0-8.836-7.151-16-15.972-16a15.9 15.9 0 0 0-6.577 1.42A31.99 31.99 0 0 0 32 96c-17.673 0-32 14.327-32 32s14.327 32 32 32 32-14.327 32-32a31.98 31.98 0 0 0-1.413-9.423C63.492 116.57 64 114.345 64 112z" class="B"/><path d="M128 192l9.373 9.373C131.582 207.164 128 215.164 128 224c0 17.673 14.327 32 32 32 8.836 0 16.836-3.582 22.627-9.373L192 256v-64h-64z" class="D"/><path d="M64 32V0h32z" class="C"/><path d="M256 224h-32v-32z" class="E"/><path d="M192 224h32v32z" class="B"/><path d="M0 224h32v32z" class="C"/><path d="M0 64V32h32z" class="B"/><path d="M0 64h32v32H0z" class="E"/><path d="M160 32c-35.346 0-64 28.654-64 64 0 12.243 3.44 23.682 9.403 33.407C102.43 128.494 99.272 128 96 128c-17.673 0-32 14.327-32 32v32h32c17.673 0 32-14.327 32-32 0-3.272-.494-6.43-1.407-9.403C136.318 156.56 147.757 160 160 160c35.346 0 64-28.654 64-64s-28.654-64-64-64z" class="F"/><path d="M32 192l4.687 4.687C33.791 199.582 32 203.582 32 208c0 8.836 7.164 16 16 16 4.418 0 8.418-1.791 11.313-4.687L64 224v-32H32z" class="G"/><circle cx="224" cy="32" r="32" class="D"/><path d="M256 192h-64v-64z" class="C"/><path d="M128 64H64l64-64z" class="H"/><path d="M368 192c-8.836 0-16 7.151-16 15.972a15.9 15.9 0 0 0 1.42 6.577 32 32 0 0 0-1.42 9.452c0 17.673 14.327 32 32 32s32-14.327 32-32-14.327-32-32-32a31.98 31.98 0 0 0-9.423 1.413A15.94 15.94 0 0 0 368 192z" class="B"/><path d="M448 128l9.373-9.373C463.164 124.418 471.164 128 480 128c17.673 0 32-14.327 32-32 0-8.836-3.582-16.836-9.373-22.627L512 64h-64v64z" class="D"/><path d="M288 192h-32v-32z" class="C"/><path d="M480 0v32h-32z" class="E"/><path d="M480 64V32h32z" class="B"/><path d="M480 256v-32h32z" class="C"/><path d="M320 256h-32v-32z" class="B"/><path d="M320 224h32v32h-32z" class="E"/><path d="M288 96c0 35.346 28.654 64 64 64 12.243 0 23.682-3.44 33.407-9.403-.913 2.973-1.407 6.131-1.407 9.403 0 17.673 14.327 32 32 32h32v-32c0-17.673-14.327-32-32-32-3.272 0-6.43.494-9.403 1.407C412.56 119.682 416 108.243 416 96c0-35.346-28.654-64-64-64s-64 28.654-64 64z" class="F"/><path d="M448 224l4.687-4.687C455.582 222.209 459.582 224 464 224c8.836 0 16-7.164 16-16 0-4.418-1.791-8.418-4.687-11.313L480 192h-32v32z" class="G"/><circle cx="288" cy="32" r="32" class="D"/><path d="M448 0v64h-64z" class="C"/><path d="M320 128v64l-64-64z" class="H"/><path d="M704 144a15.99 15.99 0 0 0 15.972 16c2.346 0 4.57-.511 6.577-1.42 2.987.922 6.161 1.42 9.451 1.42 17.673 0 32-14.327 32-32s-14.327-32-32-32-32 14.327-32 32a32.01 32.01 0 0 0 1.412 9.423C704.508 139.43 704 141.655 704 144z" class="B"/><path d="M640 64l-9.373-9.373C636.418 48.836 640 40.836 640 32c0-17.673-14.327-32-32-32-8.837 0-16.837 3.582-22.627 9.373L576 0v64h64z" class="D"/><path d="M704 224v32h-32z" class="C"/><path d="M512 32h32v32z" class="E"/><path d="M576 32h-32V0z" class="B"/><path d="M768 32h-32V0z" class="C"/><path d="M768 192v32h-32z" class="B"/><path d="M736 160h32v32h-32z" class="E"/><path d="M608 224c35.346 0 64-28.654 64-64 0-12.243-3.44-23.682-9.403-33.407 2.973.913 6.131 1.407 9.403 1.407 17.673 0 32-14.327 32-32V64h-32c-17.673 0-32 14.327-32 32 0 3.272.494 6.43 1.406 9.403C631.682 99.44 620.243 96 608 96c-35.346 0-64 28.654-64 64s28.654 64 64 64z" class="F"/><path d="M736 64l-4.687-4.687C734.209 56.418 736 52.418 736 48c0-8.836-7.163-16-16-16-4.418 0-8.418 1.791-11.313 4.687L704 32v32h32z" class="G"/><circle cx="544" cy="224" r="32" class="D"/><path d="M512 64h64v64z" class="C"/><path d="M640 192h64l-64 64z" class="H"/><path d="M912 64a15.99 15.99 0 0 0 16-15.972 15.9 15.9 0 0 0-1.42-6.577A31.99 31.99 0 0 0 928 32c0-17.673-14.327-32-32-32s-32 14.327-32 32 14.327 32 32 32a31.99 31.99 0 0 0 9.424-1.413A15.95 15.95 0 0 0 912 64z" class="B"/><path d="M832 128l-9.373 9.373C816.837 131.582 808.837 128 800 128c-17.673 0-32 14.327-32 32 0 8.836 3.582 16.836 9.373 22.627L768 192h64v-64z" class="D"/><path d="M992 64h32v32z" class="C"/><path d="M800 256v-32h32z" class="E"/><path d="M800 192v32h-32z" class="B"/><path d="M800 0v32h-32z" class="C"/><path d="M960 0h32v32z" class="B"/><path d="M928 0h32v32h-32z" class="E"/><path d="M992 160c0-35.346-28.654-64-64-64-12.243 0-23.682 3.44-33.406 9.403C895.506 102.43 896 99.272 896 96c0-17.673-14.327-32-32-32h-32v32c0 17.673 14.327 32 32 32 3.272 0 6.43-.494 9.403-1.407C867.44 136.318 864 147.757 864 160c0 35.346 28.653 64 64 64s64-28.654 64-64z" class="F"/><path d="M832 32l-4.687 4.687C824.418 33.791 820.418 32 816 32c-8.837 0-16 7.164-16 16 0 4.418 1.791 8.418 4.687 11.313L800 64h32V32z" class="G"/><circle cx="992" cy="224" r="32" class="D"/><path d="M832 256v-64h64z" class="C"/><path d="M960 128V64l64 64z" class="H"/><path d="M960 400a15.99 15.99 0 0 0 15.972 16c2.346 0 4.57-.511 6.577-1.42 2.987.922 6.161 1.42 9.451 1.42 17.673 0 32-14.327 32-32s-14.327-32-32-32-32 14.327-32 32a32.01 32.01 0 0 0 1.412 9.423C960.508 395.43 960 397.655 960 400z" class="B"/><path d="M896 320l-9.373-9.373C892.418 304.836 896 296.836 896 288c0-17.673-14.327-32-32-32-8.837 0-16.837 3.582-22.627 9.373L832 256v64h64z" class="D"/><path d="M960 480v32h-32z" class="C"/><path d="M768 288h32v32z" class="E"/><path d="M832 288h-32v-32z" class="B"/><path d="M1024 288h-32v-32z" class="C"/><path d="M1024 448v32h-32z" class="B"/><path d="M992 416h32v32h-32z" class="E"/><path d="M864 480c35.346 0 64-28.654 64-64 0-12.243-3.44-23.682-9.403-33.407 2.973.913 6.131 1.407 9.403 1.407 17.673 0 32-14.327 32-32v-32h-32c-17.673 0-32 14.327-32 32 0 3.272.494 6.43 1.406 9.403C887.682 355.44 876.243 352 864 352c-35.346 0-64 28.654-64 64s28.654 64 64 64z" class="F"/><path d="M992 320l-4.687-4.687C990.209 312.418 992 308.418 992 304c0-8.836-7.163-16-16-16-4.418 0-8.418 1.791-11.313 4.687L960 288v32h32z" class="G"/><circle cx="800" cy="480" r="32" class="D"/><path d="M768 320h64v64z" class="C"/><path d="M896 448h64l-64 64z" class="H"/><path d="M656 320a15.99 15.99 0 0 0 16-15.972 15.9 15.9 0 0 0-1.42-6.577c.922-2.988 1.42-6.162 1.42-9.452 0-17.673-14.327-32-32-32s-32 14.327-32 32 14.327 32 32 32a31.99 31.99 0 0 0 9.424-1.413c2.006.906 4.231 1.414 6.576 1.414z" class="B"/><path d="M576 384l-9.373 9.373C560.837 387.582 552.837 384 544 384c-17.673 0-32 14.327-32 32 0 8.836 3.582 16.836 9.373 22.627L512 448h64v-64z" class="D"/><path d="M736 320h32v32z" class="C"/><path d="M544 512v-32h32z" class="E"/><path d="M544 448v32h-32z" class="B"/><path d="M544 256v32h-32z" class="C"/><path d="M704 256h32v32z" class="B"/><path d="M672 256h32v32h-32z" class="E"/><path d="M736 416c0-35.346-28.654-64-64-64-12.243 0-23.682 3.44-33.406 9.403A32.01 32.01 0 0 0 640 352c0-17.673-14.327-32-32-32h-32v32c0 17.673 14.327 32 32 32 3.272 0 6.43-.494 9.403-1.407C611.44 392.318 608 403.757 608 416c0 35.346 28.654 64 64 64s64-28.654 64-64z" class="F"/><path d="M576 288l-4.687 4.687C568.418 289.791 564.418 288 560 288c-8.837 0-16 7.164-16 16 0 4.418 1.791 8.418 4.687 11.313L544 320h32v-32z" class="G"/><circle cx="736" cy="480" r="32" class="D"/><path d="M576 512v-64h64z" class="C"/><path d="M704 384v-64l64 64z" class="H"/><path d="M320 368c0-8.836-7.151-16-15.972-16a15.9 15.9 0 0 0-6.577 1.42c-2.988-.922-6.162-1.42-9.452-1.42-17.673 0-32 14.327-32 32s14.327 32 32 32 32-14.327 32-32a31.98 31.98 0 0 0-1.413-9.423A15.94 15.94 0 0 0 320 368z" class="B"/><path d="M384 448l9.373 9.373C387.582 463.164 384 471.164 384 480c0 17.673 14.327 32 32 32 8.836 0 16.836-3.582 22.627-9.373L448 512v-64h-64z" class="D"/><path d="M320 288v-32h32z" class="C"/><path d="M512 480h-32v-32z" class="E"/><path d="M448 480h32v32z" class="B"/><path d="M256 480h32v32z" class="C"/><path d="M256 320v-32h32z" class="B"/><path d="M256 320h32v32h-32z" class="E"/><path d="M416 288c-35.346 0-64 28.654-64 64 0 12.243 3.44 23.682 9.403 33.407-2.973-.913-6.131-1.407-9.403-1.407-17.673 0-32 14.327-32 32v32h32c17.673 0 32-14.327 32-32 0-3.272-.494-6.43-1.407-9.403C392.318 412.56 403.757 416 416 416c35.346 0 64-28.654 64-64s-28.654-64-64-64z" class="F"/><path d="M288 448l4.687 4.687C289.791 455.582 288 459.582 288 464c0 8.836 7.164 16 16 16 4.418 0 8.418-1.791 11.313-4.687L320 480v-32h-32z" class="G"/><circle cx="480" cy="288" r="32" class="D"/><path d="M512 448h-64v-64z" class="C"/><path d="M384 320h-64l64-64z" class="H"/><path d="M112 448c-8.836 0-16 7.151-16 15.972a15.9 15.9 0 0 0 1.42 6.577A31.99 31.99 0 0 0 96 480c0 17.673 14.327 32 32 32s32-14.327 32-32-14.327-32-32-32a31.98 31.98 0 0 0-9.423 1.413C116.57 448.508 114.345 448 112 448z" class="B"/><path d="M192 384l9.373-9.373C207.164 380.418 215.164 384 224 384c17.673 0 32-14.327 32-32 0-8.836-3.582-16.836-9.373-22.627L256 320h-64v64z" class="D"/><path d="M32 448H0v-32z" class="C"/><path d="M224 256v32h-32z" class="E"/><path d="M224 320v-32h32z" class="B"/><path d="M224 512v-32h32z" class="C"/><path d="M64 512H32v-32z" class="B"/><path d="M64 480h32v32H64z" class="E"/><path d="M32 352c0 35.346 28.654 64 64 64 12.243 0 23.682-3.44 33.407-9.403-.913 2.973-1.407 6.131-1.407 9.403 0 17.673 14.327 32 32 32h32v-32c0-17.673-14.327-32-32-32-3.272 0-6.43.494-9.403 1.407C156.56 375.682 160 364.243 160 352c0-35.346-28.654-64-64-64s-64 28.654-64 64z" class="F"/><path d="M192 480l4.687-4.687C199.582 478.209 203.582 480 208 480c8.836 0 16-7.164 16-16 0-4.418-1.791-8.418-4.687-11.313L224 448h-32v32z" class="G"/><circle cx="32" cy="288" r="32" class="D"/><path d="M192 256v64h-64z" class="C"/><path d="M64 384v64L0 384z" class="H"/><use xlink:href="#B" class="B"/><path d="M896 832l-9.373-9.373c5.791-5.79 9.373-13.79 9.373-22.627 0-17.673-14.327-32-32-32-8.837 0-16.837 3.582-22.627 9.373L832 768v64h64z" class="D"/><path d="M960 992v32h-32z" class="C"/><path d="M768 800h32v32z" class="E"/><path d="M832 800h-32v-32z" class="B"/><path d="M1024 800h-32v-32z" class="C"/><path d="M1024 960v32h-32z" class="B"/><path d="M992 928h32v32h-32z" class="E"/><path d="M864 992c35.346 0 64-28.654 64-64 0-12.243-3.44-23.682-9.403-33.406 2.973.912 6.131 1.406 9.403 1.406 17.673 0 32-14.327 32-32v-32h-32c-17.673 0-32 14.327-32 32 0 3.272.494 6.43 1.406 9.403C887.682 867.44 876.243 864 864 864c-35.346 0-64 28.653-64 64s28.654 64 64 64z" class="F"/><path d="M992 832l-4.687-4.687C990.209 824.418 992 820.418 992 816c0-8.837-7.163-16-16-16-4.418 0-8.418 1.791-11.313 4.687L960 800v32h32z" class="G"/><circle cx="800" cy="992" r="32" class="D"/><path d="M768 832h64v64z" class="C"/><path d="M896 960h64l-64 64z" class="H"/><use xlink:href="#C" class="B"/><path d="M576 896l-9.373 9.373C560.837 899.582 552.837 896 544 896c-17.673 0-32 14.327-32 32 0 8.837 3.582 16.837 9.373 22.627L512 960h64v-64z" class="D"/><path d="M736 832h32v32z" class="C"/><path d="M544 1024v-32h32z" class="E"/><path d="M544 960v32h-32z" class="B"/><path d="M544 768v32h-32z" class="C"/><path d="M704 768h32v32z" class="B"/><path d="M672 768h32v32h-32z" class="E"/><path d="M736 928c0-35.347-28.654-64-64-64-12.243 0-23.682 3.44-33.406 9.403.912-2.973 1.406-6.131 1.406-9.403 0-17.673-14.327-32-32-32h-32v32c0 17.673 14.327 32 32 32 3.272 0 6.43-.494 9.403-1.406C611.44 904.318 608 915.757 608 928c0 35.346 28.654 64 64 64s64-28.654 64-64z" class="F"/><path d="M576 800l-4.687 4.687C568.418 801.791 564.418 800 560 800c-8.837 0-16 7.163-16 16 0 4.418 1.791 8.418 4.687 11.313L544 832h32v-32z" class="G"/><circle cx="736" cy="992" r="32" class="D"/><path d="M576 1024v-64h64z" class="C"/><path d="M704 896v-64l64 64z" class="H"/><path d="M320 880a15.99 15.99 0 0 0-15.972-16 15.9 15.9 0 0 0-6.577 1.42c-2.988-.922-6.162-1.42-9.452-1.42-17.673 0-32 14.327-32 32s14.327 32 32 32 32-14.327 32-32a31.99 31.99 0 0 0-1.413-9.424c.906-2.007 1.414-4.231 1.414-6.576z" class="B"/><path d="M384 960l9.373 9.373C387.582 975.163 384 983.163 384 992c0 17.673 14.327 32 32 32 8.836 0 16.836-3.582 22.627-9.373L448 1024v-64h-64z" class="D"/><path d="M320 800v-32h32z" class="C"/><path d="M512 992h-32v-32z" class="E"/><path d="M448 992h32v32z" class="B"/><path d="M256 992h32v32z" class="C"/><path d="M256 832v-32h32z" class="B"/><path d="M256 832h32v32h-32z" class="E"/><path d="M416 800c-35.346 0-64 28.654-64 64 0 12.243 3.44 23.682 9.403 33.406-2.973-.912-6.131-1.406-9.403-1.406-17.673 0-32 14.327-32 32v32h32c17.673 0 32-14.327 32-32 0-3.272-.494-6.43-1.407-9.403C392.318 924.56 403.757 928 416 928c35.346 0 64-28.654 64-64s-28.654-64-64-64z" class="F"/><path d="M288 960l4.687 4.687C289.791 967.582 288 971.582 288 976c0 8.837 7.164 16 16 16 4.418 0 8.418-1.791 11.313-4.687L320 992v-32h-32z" class="G"/><circle cx="480" cy="800" r="32" class="D"/><path d="M512 960h-64v-64z" class="C"/><path d="M384 832h-64l64-64z" class="H"/><path d="M112 960a15.99 15.99 0 0 0-16 15.972c0 2.346.511 4.57 1.42 6.577C96.498 985.536 96 988.71 96 992c0 17.673 14.327 32 32 32s32-14.327 32-32-14.327-32-32-32a32.01 32.01 0 0 0-9.423 1.412C116.57 960.508 114.345 960 112 960z" class="B"/><path d="M192 896l9.373-9.373C207.164 892.418 215.164 896 224 896c17.673 0 32-14.327 32-32 0-8.837-3.582-16.837-9.373-22.627L256 832h-64v64z" class="D"/><path d="M32 960H0v-32z" class="C"/><path d="M224 768v32h-32z" class="E"/><path d="M224 832v-32h32z" class="B"/><path d="M224 1024v-32h32z" class="C"/><path d="M64 1024H32v-32z" class="B"/><path d="M64 992h32v32H64z" class="E"/><path d="M32 864c0 35.346 28.654 64 64 64 12.243 0 23.682-3.44 33.407-9.403-.913 2.973-1.407 6.131-1.407 9.403 0 17.673 14.327 32 32 32h32v-32c0-17.673-14.327-32-32-32-3.272 0-6.43.494-9.403 1.406C156.56 887.682 160 876.243 160 864c0-35.346-28.654-64-64-64s-64 28.654-64 64z" class="F"/><path d="M192 992l4.687-4.687C199.582 990.209 203.582 992 208 992c8.836 0 16-7.163 16-16 0-4.418-1.791-8.418-4.687-11.313L224 960h-32v32z" class="G"/><circle cx="32" cy="800" r="32" class="D"/><path d="M192 768v64h-64z" class="C"/><path d="M64 896v64L0 896z" class="H"/><path d="M64 624a15.99 15.99 0 0 0-15.972-16 15.9 15.9 0 0 0-6.577 1.42A31.99 31.99 0 0 0 32 608c-17.673 0-32 14.327-32 32s14.327 32 32 32 32-14.327 32-32a31.99 31.99 0 0 0-1.413-9.424C63.492 628.569 64 626.345 64 624z" class="B"/><path d="M128 704l9.373 9.373C131.582 719.163 128 727.163 128 736c0 17.673 14.327 32 32 32 8.836 0 16.836-3.582 22.627-9.373L192 768v-64h-64z" class="D"/><path d="M64 544v-32h32z" class="C"/><path d="M256 736h-32v-32z" class="E"/><path d="M192 736h32v32z" class="B"/><path d="M0 736h32v32z" class="C"/><path d="M0 576v-32h32z" class="B"/><path d="M0 576h32v32H0z" class="E"/><path d="M160 544c-35.346 0-64 28.654-64 64 0 12.243 3.44 23.682 9.403 33.406C102.43 640.494 99.272 640 96 640c-17.673 0-32 14.327-32 32v32h32c17.673 0 32-14.327 32-32 0-3.272-.494-6.43-1.407-9.403C136.318 668.56 147.757 672 160 672c35.346 0 64-28.654 64-64s-28.654-64-64-64z" class="F"/><path d="M32 704l4.687 4.687C33.791 711.582 32 715.582 32 720c0 8.837 7.164 16 16 16 4.418 0 8.418-1.791 11.313-4.687L64 736v-32H32z" class="G"/><circle cx="224" cy="544" r="32" class="D"/><path d="M256 704h-64v-64z" class="C"/><path d="M128 576H64l64-64z" class="H"/><path d="M368 704a15.99 15.99 0 0 0-16 15.972c0 2.346.511 4.57 1.42 6.577-.922 2.987-1.42 6.161-1.42 9.451 0 17.673 14.327 32 32 32s32-14.327 32-32-14.327-32-32-32a32.01 32.01 0 0 0-9.423 1.412C372.57 704.508 370.345 704 368 704z" class="B"/><path d="M448 640l9.373-9.373C463.164 636.418 471.164 640 480 640c17.673 0 32-14.327 32-32 0-8.837-3.582-16.837-9.373-22.627L512 576h-64v64z" class="D"/><path d="M288 704h-32v-32z" class="C"/><path d="M480 512v32h-32z" class="E"/><path d="M480 576v-32h32z" class="B"/><path d="M480 768v-32h32z" class="C"/><path d="M320 768h-32v-32z" class="B"/><path d="M320 736h32v32h-32z" class="E"/><path d="M288 608c0 35.346 28.654 64 64 64 12.243 0 23.682-3.44 33.407-9.403-.913 2.973-1.407 6.131-1.407 9.403 0 17.673 14.327 32 32 32h32v-32c0-17.673-14.327-32-32-32-3.272 0-6.43.494-9.403 1.406C412.56 631.682 416 620.243 416 608c0-35.346-28.654-64-64-64s-64 28.654-64 64z" class="F"/><path d="M448 736l4.687-4.687C455.582 734.209 459.582 736 464 736c8.836 0 16-7.163 16-16 0-4.418-1.791-8.418-4.687-11.313L480 704h-32v32z" class="G"/><circle cx="288" cy="544" r="32" class="D"/><path d="M448 512v64h-64z" class="C"/><path d="M320 640v64l-64-64z" class="H"/><use xlink:href="#B" x="-256" y="-256" class="B"/><path d="M640 576l-9.373-9.373c5.791-5.79 9.373-13.79 9.373-22.627 0-17.673-14.327-32-32-32-8.837 0-16.837 3.582-22.627 9.373L576 512v64h64z" class="D"/><path d="M704 736v32h-32z" class="C"/><path d="M512 544h32v32z" class="E"/><path d="M576 544h-32v-32z" class="B"/><path d="M768 544h-32v-32z" class="C"/><path d="M768 704v32h-32z" class="B"/><path d="M736 672h32v32h-32z" class="E"/><path d="M608 736c35.346 0 64-28.654 64-64 0-12.243-3.44-23.682-9.403-33.406 2.973.912 6.131 1.406 9.403 1.406 17.673 0 32-14.327 32-32v-32h-32c-17.673 0-32 14.327-32 32 0 3.272.494 6.43 1.406 9.403C631.682 611.44 620.243 608 608 608c-35.346 0-64 28.654-64 64s28.654 64 64 64z" class="F"/><path d="M736 576l-4.687-4.687C734.209 568.418 736 564.418 736 560c0-8.837-7.163-16-16-16-4.418 0-8.418 1.791-11.313 4.687L704 544v32h32z" class="G"/><circle cx="544" cy="736" r="32" class="D"/><path d="M512 576h64v64z" class="C"/><path d="M640 704h64l-64 64z" class="H"/><use xlink:href="#C" x="256" y="-256" class="B"/><path d="M832 640l-9.373 9.373C816.837 643.582 808.837 640 800 640c-17.673 0-32 14.327-32 32 0 8.837 3.582 16.837 9.373 22.627L768 704h64v-64z" class="D"/><path d="M992 576h32v32z" class="C"/><path d="M800 768v-32h32z" class="E"/><path d="M800 704v32h-32z" class="B"/><path d="M800 512v32h-32z" class="C"/><path d="M960 512h32v32z" class="B"/><path d="M928 512h32v32h-32z" class="E"/><path d="M992 672c0-35.346-28.654-64-64-64-12.243 0-23.682 3.44-33.406 9.403.912-2.973 1.406-6.131 1.406-9.403 0-17.673-14.327-32-32-32h-32v32c0 17.673 14.327 32 32 32 3.272 0 6.43-.494 9.403-1.406C867.44 648.318 864 659.757 864 672c0 35.346 28.653 64 64 64s64-28.654 64-64z" class="F"/><path d="M832 544l-4.687 4.687C824.418 545.791 820.418 544 816 544c-8.837 0-16 7.163-16 16 0 4.418 1.791 8.418 4.687 11.313L800 576h32v-32z" class="G"/><circle cx="992" cy="736" r="32" class="D"/><path d="M832 768v-64h64z" class="C"/><path d="M960 640v-64l64 64z" class="H"/><defs ><path id="B" d="M960 912c0 8.837 7.15 16 15.972 16 2.346 0 4.57-.511 6.577-1.42 2.987.922 6.161 1.42 9.451 1.42 17.673 0 32-14.327 32-32s-14.327-32-32-32-32 14.327-32 32c0 3.28.496 6.444 1.412 9.424-.904 2.006-1.412 4.231-1.412 6.576z"/><path id="C" d="M656 832c8.837 0 16-7.15 16-15.972 0-2.346-.511-4.57-1.42-6.577.922-2.987 1.42-6.161 1.42-9.451 0-17.673-14.327-32-32-32s-32 14.327-32 32 14.327 32 32 32c3.28 0 6.444-.496 9.424-1.412 2.006.904 4.231 1.412 6.576 1.412z"/></defs></svg>