<svg xmlns="http://www.w3.org/2000/svg" width="1024" height="1024" xmlns:v="https://vecta.io/nano"><style><![CDATA[.B{fill:#63813a}.C{fill:#875495}.D{fill:#b7c54c}.E{fill:#a0c2e1}.F{fill:#6cc7e2}.G{fill:#8f7e14}.H{fill:#94afc7}.I{fill:#005e2d}.J{fill:#00b4d5}.K{fill:#68934f}.L{fill:#b58500}.M{fill:#6a912d}]]></style><path d="M0 0h64v64H0z" class="B"/><path d="M192 160h64v64h-64z" class="D"/><circle cx="160" cy="96" r="64" class="E"/><g class="F"><circle cx="144" cy="16" r="16"/><circle cx="48" cy="144" r="16"/></g><circle cx="16" cy="176" r="16" class="C"/><circle cx="80" cy="208" r="16" class="G"/><circle cx="80" cy="240" r="16" class="H"/><path d="M192 0h32v32h-32z" class="C"/><path d="M64 64h32v32H64z" class="I"/><path d="M256 32L224 0h32z" class="B"/><path d="M160 192l-32-32h32z" class="J"/><path d="M160 224l-32-32h32z" class="K"/><g class="L"><path d="M160 256l-32-32h32z"/><path d="M160 256l32-32h-32z"/></g><path d="M256 64l-32 32V64z" class="M"/><path d="M0 256v-64h64zm256-64h64v64h-64z" class="B"/><path d="M416 0h64v64h-64z" class="D"/><circle cx="352" cy="96" r="64" class="E"/><g class="F"><circle cx="272" cy="112" r="16"/><circle cx="400" cy="208" r="16"/></g><circle cx="432" cy="240" r="16" class="C"/><circle cx="464" cy="176" r="16" class="G"/><circle cx="496" cy="176" r="16" class="H"/><path d="M256 32h32v32h-32z" class="C"/><path d="M320 160h32v32h-32z" class="I"/><path d="M288 0l-32 32V0z" class="B"/><path d="M448 96l-32 32V96z" class="J"/><path d="M480 96l-32 32V96z" class="K"/><g class="L"><path d="M512 96l-32 32V96z"/><path d="M512 96l-32-32v32z"/></g><path d="M320 0l32 32h-32z" class="M"/><path d="M512 256h-64v-64zm192-64h64v64h-64z" class="B"/><path d="M512 32h64v64h-64z" class="D"/><circle cx="608" cy="160" r="64" class="E"/><g class="F"><circle cx="624" cy="240" r="16"/><circle cx="720" cy="112" r="16"/></g><circle cx="752" cy="80" r="16" class="C"/><circle cx="688" cy="48" r="16" class="G"/><circle cx="688" cy="16" r="16" class="H"/><path d="M544 224h32v32h-32z" class="C"/><path d="M672 160h32v32h-32z" class="I"/><path d="M512 224l32 32h-32z" class="B"/><path d="M608 64l32 32h-32z" class="J"/><path d="M608 32l32 32h-32z" class="K"/><g class="L"><path d="M608 0l32 32h-32z"/><path d="M608 0l-32 32h32z"/></g><path d="M512 192l32-32v32z" class="M"/><path d="M768 0v64h-64zm192 0h64v64h-64z" class="B"/><path d="M800 192h64v64h-64z" class="D"/><circle cx="928" cy="160" r="64" class="E"/><g class="F"><circle cx="1008" cy="144" r="16"/><circle cx="880" cy="48" r="16"/></g><circle cx="848" cy="16" r="16" class="C"/><circle cx="816" cy="80" r="16" class="G"/><circle cx="784" cy="80" r="16" class="H"/><path d="M992 192h32v32h-32z" class="C"/><path d="M928 64h32v32h-32z" class="I"/><path d="M992 256l32-32v32z" class="B"/><path d="M832 160l32-32v32z" class="J"/><path d="M800 160l32-32v32z" class="K"/><g class="L"><path d="M768 160l32-32v32z"/><path d="M768 160l32 32v-32z"/></g><path d="M960 256l-32-32h32z" class="M"/><path d="M768 0h64v64zm192 448h64v64h-64z" class="B"/><path d="M768 288h64v64h-64z" class="D"/><circle cx="864" cy="416" r="64" class="E"/><g class="F"><circle cx="880" cy="496" r="16"/><circle cx="976" cy="368" r="16"/></g><circle cx="1008" cy="336" r="16" class="C"/><circle cx="944" cy="304" r="16" class="G"/><circle cx="944" cy="272" r="16" class="H"/><path d="M800 480h32v32h-32z" class="C"/><path d="M928 416h32v32h-32z" class="I"/><path d="M768 480l32 32h-32z" class="B"/><path d="M864 320l32 32h-32z" class="J"/><path d="M864 288l32 32h-32z" class="K"/><g class="L"><path d="M864 256l32 32h-32z"/><path d="M864 256l-32 32h32z"/></g><path d="M768 448l32-32v32z" class="M"/><path d="M1024 256v64h-64zm-320 0h64v64h-64z" class="B"/><path d="M544 448h64v64h-64z" class="D"/><circle cx="672" cy="416" r="64" class="E"/><g class="F"><circle cx="752" cy="400" r="16"/><circle cx="624" cy="304" r="16"/></g><circle cx="592" cy="272" r="16" class="C"/><circle cx="560" cy="336" r="16" class="G"/><circle cx="528" cy="336" r="16" class="H"/><path d="M736 448h32v32h-32z" class="C"/><path d="M672 320h32v32h-32z" class="I"/><path d="M736 512l32-32v32z" class="B"/><path d="M576 416l32-32v32z" class="J"/><path d="M544 416l32-32v32z" class="K"/><g class="L"><path d="M512 416l32-32v32z"/><path d="M512 416l32 32v-32z"/></g><path d="M704 512l-32-32h32z" class="M"/><path d="M512 256h64v64zm-256 0h64v64h-64z" class="B"/><path d="M448 416h64v64h-64z" class="D"/><circle cx="416" cy="352" r="64" class="E"/><g class="F"><circle cx="400" cy="272" r="16"/><circle cx="304" cy="400" r="16"/></g><circle cx="272" cy="432" r="16" class="C"/><circle cx="336" cy="464" r="16" class="G"/><circle cx="336" cy="496" r="16" class="H"/><path d="M448 256h32v32h-32z" class="C"/><path d="M320 320h32v32h-32z" class="I"/><path d="M512 288l-32-32h32z" class="B"/><path d="M416 448l-32-32h32z" class="J"/><path d="M416 480l-32-32h32z" class="K"/><g class="L"><path d="M416 512l-32-32h32z"/><path d="M416 512l32-32h-32z"/></g><path d="M512 320l-32 32v-32z" class="M"/><path d="M256 512v-64h64zM0 448h64v64H0z" class="B"/><path d="M160 256h64v64h-64z" class="D"/><circle cx="96" cy="352" r="64" class="E"/><g class="F"><circle cx="16" cy="368" r="16"/><circle cx="144" cy="464" r="16"/></g><circle cx="176" cy="496" r="16" class="C"/><circle cx="208" cy="432" r="16" class="G"/><circle cx="240" cy="432" r="16" class="H"/><path d="M0 288h32v32H0z" class="C"/><path d="M64 416h32v32H64z" class="I"/><path d="M32 256L0 288v-32z" class="B"/><path d="M192 352l-32 32v-32z" class="J"/><path d="M224 352l-32 32v-32z" class="K"/><g class="L"><path d="M256 352l-32 32v-32z"/><path d="M256 352l-32-32v32z"/></g><path d="M64 256l32 32H64z" class="M"/><path d="M256 512h-64v-64zm704 448h64v64h-64z" class="B"/><path d="M768 800h64v64h-64z" class="D"/><circle cx="864" cy="928" r="64" class="E"/><g class="F"><circle cx="880" cy="1008" r="16"/><circle cx="976" cy="880" r="16"/></g><circle cx="1008" cy="848" r="16" class="C"/><circle cx="944" cy="816" r="16" class="G"/><circle cx="944" cy="784" r="16" class="H"/><path d="M800 992h32v32h-32z" class="C"/><path d="M928 928h32v32h-32z" class="I"/><path d="M768 992l32 32h-32z" class="B"/><path d="M864 832l32 32h-32z" class="J"/><path d="M864 800l32 32h-32z" class="K"/><g class="L"><path d="M864 768l32 32h-32z"/><path d="M864 768l-32 32h32z"/></g><path d="M768 960l32-32v32z" class="M"/><path d="M1024 768v64h-64zm-320 0h64v64h-64z" class="B"/><path d="M544 960h64v64h-64z" class="D"/><circle cx="672" cy="928" r="64" class="E"/><g class="F"><circle cx="752" cy="912" r="16"/><circle cx="624" cy="816" r="16"/></g><circle cx="592" cy="784" r="16" class="C"/><circle cx="560" cy="848" r="16" class="G"/><circle cx="528" cy="848" r="16" class="H"/><path d="M736 960h32v32h-32z" class="C"/><path d="M672 832h32v32h-32z" class="I"/><path d="M736 1024l32-32v32z" class="B"/><path d="M576 928l32-32v32z" class="J"/><path d="M544 928l32-32v32z" class="K"/><g class="L"><path d="M512 928l32-32v32z"/><path d="M512 928l32 32v-32z"/></g><path d="M704 1024l-32-32h32z" class="M"/><path d="M512 768h64v64zm-256 0h64v64h-64z" class="B"/><path d="M448 928h64v64h-64z" class="D"/><circle cx="416" cy="864" r="64" class="E"/><g class="F"><circle cx="400" cy="784" r="16"/><circle cx="304" cy="912" r="16"/></g><circle cx="272" cy="944" r="16" class="C"/><circle cx="336" cy="976" r="16" class="G"/><circle cx="336" cy="1008" r="16" class="H"/><path d="M448 768h32v32h-32z" class="C"/><path d="M320 832h32v32h-32z" class="I"/><path d="M512 800l-32-32h32z" class="B"/><path d="M416 960l-32-32h32z" class="J"/><path d="M416 992l-32-32h32z" class="K"/><g class="L"><path d="M416 1024l-32-32h32z"/><path d="M416 1024l32-32h-32z"/></g><path d="M512 832l-32 32v-32z" class="M"/><path d="M256 1024v-64h64zM0 960h64v64H0z" class="B"/><path d="M160 768h64v64h-64z" class="D"/><circle cx="96" cy="864" r="64" class="E"/><g class="F"><circle cx="16" cy="880" r="16"/><circle cx="144" cy="976" r="16"/></g><circle cx="176" cy="1008" r="16" class="C"/><circle cx="208" cy="944" r="16" class="G"/><circle cx="240" cy="944" r="16" class="H"/><path d="M0 800h32v32H0z" class="C"/><path d="M64 928h32v32H64z" class="I"/><path d="M32 768L0 800v-32z" class="B"/><path d="M192 864l-32 32v-32z" class="J"/><path d="M224 864l-32 32v-32z" class="K"/><g class="L"><path d="M256 864l-32 32v-32z"/><path d="M256 864l-32-32v32z"/></g><path d="M64 768l32 32H64z" class="M"/><path d="M256 1024h-64v-64zM0 512h64v64H0z" class="B"/><path d="M192 672h64v64h-64z" class="D"/><circle cx="160" cy="608" r="64" class="E"/><g class="F"><circle cx="144" cy="528" r="16"/><circle cx="48" cy="656" r="16"/></g><circle cx="16" cy="688" r="16" class="C"/><circle cx="80" cy="720" r="16" class="G"/><circle cx="80" cy="752" r="16" class="H"/><path d="M192 512h32v32h-32z" class="C"/><path d="M64 576h32v32H64z" class="I"/><path d="M256 544l-32-32h32z" class="B"/><path d="M160 704l-32-32h32z" class="J"/><path d="M160 736l-32-32h32z" class="K"/><g class="L"><path d="M160 768l-32-32h32z"/><path d="M160 768l32-32h-32z"/></g><path d="M256 576l-32 32v-32z" class="M"/><path d="M0 768v-64h64zm256-64h64v64h-64z" class="B"/><path d="M416 512h64v64h-64z" class="D"/><circle cx="352" cy="608" r="64" class="E"/><g class="F"><circle cx="272" cy="624" r="16"/><circle cx="400" cy="720" r="16"/></g><circle cx="432" cy="752" r="16" class="C"/><circle cx="464" cy="688" r="16" class="G"/><circle cx="496" cy="688" r="16" class="H"/><path d="M256 544h32v32h-32z" class="C"/><path d="M320 672h32v32h-32z" class="I"/><path d="M288 512l-32 32v-32z" class="B"/><path d="M448 608l-32 32v-32z" class="J"/><path d="M480 608l-32 32v-32z" class="K"/><g class="L"><path d="M512 608l-32 32v-32z"/><path d="M512 608l-32-32v32z"/></g><path d="M320 512l32 32h-32z" class="M"/><path d="M512 768h-64v-64zm192-64h64v64h-64z" class="B"/><path d="M512 544h64v64h-64z" class="D"/><circle cx="608" cy="672" r="64" class="E"/><g class="F"><circle cx="624" cy="752" r="16"/><circle cx="720" cy="624" r="16"/></g><circle cx="752" cy="592" r="16" class="C"/><circle cx="688" cy="560" r="16" class="G"/><circle cx="688" cy="528" r="16" class="H"/><path d="M544 736h32v32h-32z" class="C"/><path d="M672 672h32v32h-32z" class="I"/><path d="M512 736l32 32h-32z" class="B"/><path d="M608 576l32 32h-32z" class="J"/><path d="M608 544l32 32h-32z" class="K"/><g class="L"><path d="M608 512l32 32h-32z"/><path d="M608 512l-32 32h32z"/></g><path d="M512 704l32-32v32z" class="M"/><path d="M768 512v64h-64zm192 0h64v64h-64z" class="B"/><path d="M800 704h64v64h-64z" class="D"/><circle cx="928" cy="672" r="64" class="E"/><g class="F"><circle cx="1008" cy="656" r="16"/><circle cx="880" cy="560" r="16"/></g><circle cx="848" cy="528" r="16" class="C"/><circle cx="816" cy="592" r="16" class="G"/><circle cx="784" cy="592" r="16" class="H"/><path d="M992 704h32v32h-32z" class="C"/><path d="M928 576h32v32h-32z" class="I"/><path d="M992 768l32-32v32z" class="B"/><path d="M832 672l32-32v32z" class="J"/><path d="M800 672l32-32v32z" class="K"/><g class="L"><path d="M768 672l32-32v32z"/><path d="M768 672l32 32v-32z"/></g><path d="M960 768l-32-32h32z" class="M"/><path d="M768 512h64v64z" class="B"/></svg>