<svg xmlns="http://www.w3.org/2000/svg" width="1024" height="1024" xmlns:v="https://vecta.io/nano"><style><![CDATA[.B{fill:#ffeea2}.C{fill:#f49c68}.D{fill:#d4524c}.E{fill:#8c6ec8}]]></style><circle cx="144" cy="128" r="48" class="B"/><path d="M128,0v48c44.183,0,80,35.817,80,80s-35.817,80-80,80v48l128-128L128,0z" class="C"/><path d="M32 64v32l32 32-32 32v32l64-64z" class="D"/><path d="M32 160L0 128l32-32z" class="E"/><circle cx="384" cy="112" r="48" class="B"/><path d="M256,128h48c0-44.183,35.817-80,80-80s80,35.817,80,80h48L384,0L256,128z" class="C"/><path d="M320 224h32l32-32 32 32h32l-64-64z" class="D"/><path d="M416 224l-32 32-32-32z" class="E"/><circle cx="624" cy="128" r="48" class="B"/><path d="M640,256v-48c-44.183,0-80-35.817-80-80s35.817-80,80-80V0L512,128L640,256z" class="C"/><path d="M736 192v-32l-32-32 32-32V64l-64 64z" class="D"/><path d="M736 96l32 32-32 32z" class="E"/><circle cx="896" cy="144" r="48" class="B"/><path d="M1024 128h-48c0 44.183-35.817 80-80 80s-80-35.817-80-80h-48l128 128 128-128z" class="C"/><path d="M960 32h-32l-32 32-32-32h-32l64 64z" class="D"/><path d="M864 32l32-32 32 32z" class="E"/><circle cx="880" cy="384" r="48" class="B"/><path d="M896,512v-48c-44.183,0-80-35.817-80-80s35.817-80,80-80v-48L768,384L896,512z" class="C"/><path d="M992 448v-32l-32-32 32-32v-32l-64 64z" class="D"/><path d="M992 352l32 32-32 32z" class="E"/><circle cx="640" cy="400" r="48" class="B"/><path d="M768,384h-48c0,44.183-35.817,80-80,80s-80-35.817-80-80h-48l128,128L768,384z" class="C"/><path d="M704 288h-32l-32 32-32-32h-32l64 64z" class="D"/><path d="M608 288l32-32 32 32z" class="E"/><circle cx="400" cy="384" r="48" class="B"/><path d="M384,256v48c44.183,0,80,35.817,80,80s-35.817,80-80,80v48l128-128L384,256z" class="C"/><path d="M288 320v32l32 32-32 32v32l64-64z" class="D"/><path d="M288 416l-32-32 32-32z" class="E"/><circle cx="128" cy="368" r="48" class="B"/><path d="M0,384h48c0-44.183,35.817-80,80-80s80,35.817,80,80h48L128,256L0,384z" class="C"/><path d="M64 480h32l32-32 32 32h32l-64-64z" class="D"/><path d="M160 480l-32 32-32-32z" class="E"/><circle cx="880" cy="896" r="48" class="B"/><path d="M896 1024v-48c-44.183 0-80-35.817-80-80s35.817-80 80-80v-48L768 896l128 128z" class="C"/><path d="M992 960v-32l-32-32 32-32v-32l-64 64z" class="D"/><path d="M992 864l32 32-32 32z" class="E"/><circle cx="640" cy="912" r="48" class="B"/><path d="M768,896h-48c0,44.183-35.817,80-80,80s-80-35.817-80-80h-48l128,128L768,896z" class="C"/><path d="M704 800h-32l-32 32-32-32h-32l64 64z" class="D"/><path d="M608 800l32-32 32 32z" class="E"/><circle cx="400" cy="896" r="48" class="B"/><path d="M384,768v48c44.183,0,80,35.817,80,80s-35.817,80-80,80v48l128-128L384,768z" class="C"/><path d="M288 832v32l32 32-32 32v32l64-64z" class="D"/><path d="M288 928l-32-32 32-32z" class="E"/><circle cx="128" cy="880" r="48" class="B"/><path d="M0,896h48c0-44.183,35.817-80,80-80s80,35.817,80,80h48L128,768L0,896z" class="C"/><path d="M64 992h32l32-32 32 32h32l-64-64z" class="D"/><path d="M160 992l-32 32-32-32z" class="E"/><circle cx="144" cy="640" r="48" class="B"/><path d="M128,512v48c44.183,0,80,35.817,80,80s-35.817,80-80,80v48l128-128L128,512z" class="C"/><path d="M32 576v32l32 32-32 32v32l64-64z" class="D"/><path d="M32 672L0 640l32-32z" class="E"/><circle cx="384" cy="624" r="48" class="B"/><path d="M256,640h48c0-44.183,35.817-80,80-80s80,35.817,80,80h48L384,512L256,640z" class="C"/><path d="M320 736h32l32-32 32 32h32l-64-64z" class="D"/><path d="M416 736l-32 32-32-32z" class="E"/><circle cx="624" cy="640" r="48" class="B"/><path d="M640,768v-48c-44.183,0-80-35.817-80-80s35.817-80,80-80v-48L512,640L640,768z" class="C"/><path d="M736 704v-32l-32-32 32-32v-32l-64 64z" class="D"/><path d="M736 608l32 32-32 32z" class="E"/><circle cx="896" cy="656" r="48" class="B"/><path d="M1024 640h-48c0 44.183-35.817 80-80 80s-80-35.817-80-80h-48l128 128 128-128z" class="C"/><path d="M960 544h-32l-32 32-32-32h-32l64 64z" class="D"/><path d="M864 544l32-32 32 32z" class="E"/></svg>