<svg xmlns="http://www.w3.org/2000/svg" xmlns:xlink="http://www.w3.org/1999/xlink" width="1024" height="1024" xmlns:v="https://vecta.io/nano"><style><![CDATA[.B{fill:#a16ba3}.C{fill:#d14a95}.D{fill:#6a528c}.E{fill:#927fba}.F{fill:#a3add8}]]></style><path d="M0 64L64 0H0z" class="B"/><path d="M224 224H32V32z" class="C"/><path d="M256 64h-64V0z" class="D"/><path d="M192 256l64-64h-64z" class="B"/><ellipse cx="32" cy="224.25" rx="32" ry="31.75" class="E"/><path d="M256,64L192,0h-32v32c-35.346,0-64,28.654-64,64s28.654,64,64,64s64-28.654,64-64h32V64z" class="F"/><path d="M512 64L448 0h64z" class="B"/><path d="M288 224h192V32z" class="C"/><path d="M256 64h64V0z" class="D"/><path d="M320 256l-64-64h64z" class="B"/><ellipse cx="480" cy="224.25" rx="32" ry="31.75" class="E"/><path d="M256 64l64-64h32v32c35.346 0 64 28.654 64 64s-28.654 64-64 64-64-28.654-64-64h-32V64z" class="F"/><path d="M512 192l64 64h-64z" class="B"/><path d="M736 32H544v192z" class="C"/><path d="M768 192h-64v64z" class="D"/><path d="M704 0l64 64h-64z" class="B"/><ellipse cx="544" cy="31.75" rx="32" ry="31.75" class="E"/><use xlink:href="#B" class="F"/><path d="M1024 192l-64 64h64z" class="B"/><path d="M800 32h192v192z" class="C"/><path d="M768 192h64v64z" class="D"/><path d="M832 0l-64 64h64z" class="B"/><ellipse cx="992" cy="31.75" rx="32" ry="31.75" class="E"/><use xlink:href="#C" class="F"/><path d="M1024 320l-64-64h64z" class="B"/><path d="M800 480h192V288z" class="C"/><path d="M768 320h64v-64z" class="D"/><path d="M832 512l-64-64h64z" class="B"/><ellipse cx="992" cy="480.25" rx="32" ry="31.75" class="E"/><use xlink:href="#D" class="F"/><path d="M512 320l64-64h-64z" class="B"/><path d="M736 480H544V288z" class="C"/><path d="M768 320h-64v-64z" class="D"/><path d="M704 512l64-64h-64z" class="B"/><ellipse cx="544" cy="480.25" rx="32" ry="31.75" class="E"/><path d="M768,320l-64-64h-32v32c-35.346,0-64,28.654-64,64s28.654,64,64,64s64-28.654,64-64h32V320z" class="F"/><path d="M512 448l-64 64h64z" class="B"/><path d="M288 288h192v192z" class="C"/><path d="M256 448h64v64z" class="D"/><path d="M320 256l-64 64h64z" class="B"/><ellipse cx="480" cy="287.75" rx="32" ry="31.75" class="E"/><use xlink:href="#C" x="-512" y="256" class="F"/><path d="M0 448l64 64H0z" class="B"/><path d="M224 288H32v192z" class="C"/><path d="M256 448h-64v64z" class="D"/><path d="M192 256l64 64h-64z" class="B"/><ellipse cx="32" cy="287.75" rx="32" ry="31.75" class="E"/><use xlink:href="#B" x="-512" y="256" class="F"/><path d="M0 960l64 64H0z" class="B"/><path d="M224 800H32v192z" class="C"/><path d="M256 960h-64v64z" class="D"/><path d="M192 768l64 64h-64z" class="B"/><ellipse cx="32" cy="799.75" rx="32" ry="31.75" class="E"/><path d="M256 960l-64 64h-32v-32c-35.346 0-64-28.654-64-64s28.654-64 64-64 64 28.653 64 64h32v32z" class="F"/><path d="M512 960l-64 64h64z" class="B"/><path d="M288 800h192v192z" class="C"/><path d="M256 960h64v64z" class="D"/><path d="M320 768l-64 64h64z" class="B"/><ellipse cx="480" cy="799.75" rx="32" ry="31.75" class="E"/><path d="M256 960l64 64h32v-32c35.346 0 64-28.654 64-64s-28.654-64-64-64-64 28.653-64 64h-32v32z" class="F"/><path d="M512 832l64-64h-64z" class="B"/><path d="M736 992H544V800z" class="C"/><path d="M768 832h-64v-64z" class="D"/><path d="M704 1024l64-64h-64z" class="B"/><ellipse cx="544" cy="992.25" rx="32" ry="31.75" class="E"/><path d="M768,832l-64-64h-32v32c-35.346,0-64,28.654-64,64s28.654,64,64,64s64-28.654,64-64h32V832z" class="F"/><path d="M1024 832l-64-64h64z" class="B"/><path d="M800 992h192V800z" class="C"/><path d="M768 832h64v-64z" class="D"/><path d="M832 1024l-64-64h64z" class="B"/><ellipse cx="992" cy="992.25" rx="32" ry="31.75" class="E"/><use xlink:href="#D" y="512" class="F"/><path d="M1024 704l-64 64h64z" class="B"/><path d="M800 544h192v192z" class="C"/><path d="M768 704h64v64z" class="D"/><path d="M832 512l-64 64h64z" class="B"/><ellipse cx="992" cy="543.75" rx="32" ry="31.75" class="E"/><use xlink:href="#C" y="512" class="F"/><path d="M512 704l64 64h-64z" class="B"/><path d="M736 544H544v192z" class="C"/><path d="M768 704h-64v64z" class="D"/><path d="M704 512l64 64h-64z" class="B"/><ellipse cx="544" cy="543.75" rx="32" ry="31.75" class="E"/><use xlink:href="#B" y="512" class="F"/><path d="M512 576l-64-64h64z" class="B"/><path d="M288 736h192V544z" class="C"/><path d="M256 576h64v-64z" class="D"/><path d="M320 768l-64-64h64z" class="B"/><ellipse cx="480" cy="736.25" rx="32" ry="31.75" class="E"/><use xlink:href="#D" x="-512" y="256" class="F"/><path d="M0 576l64-64H0z" class="B"/><path d="M224 736H32V544z" class="C"/><path d="M256 576h-64v-64z" class="D"/><path d="M192 768l64-64h-64z" class="B"/><ellipse cx="32" cy="736.25" rx="32" ry="31.75" class="E"/><path d="M256,576l-64-64h-32v32c-35.346,0-64,28.654-64,64s28.654,64,64,64s64-28.654,64-64h32V576z" class="F"/><defs ><path id="B" d="M768 192l-64 64h-32v-32c-35.346 0-64-28.654-64-64s28.654-64 64-64 64 28.654 64 64h32v32z"/><path id="C" d="M768 192l64 64h32v-32c35.346 0 64-28.654 64-64s-28.654-64-64-64-64 28.654-64 64h-32v32z"/><path id="D" d="M768 320l64-64h32v32c35.346 0 64 28.654 64 64s-28.654 64-64 64-64-28.654-64-64h-32v-32z"/></defs></svg>