<svg xmlns="http://www.w3.org/2000/svg" xmlns:xlink="http://www.w3.org/1999/xlink" width="1024" height="1024" xmlns:v="https://vecta.io/nano"><style><![CDATA[.B{fill:#e6b7af}.C{fill:#d4a87f}.D{fill:#b38e5d}.E{fill:#d2948b}]]></style><ellipse cx="239.898" cy="16" rx="16.102" ry="16" class="C"/><path d="M64,0H0v64C0,28.654,28.654,0,64,0z" class="B"/><path d="M32 32h32v32H32z" class="D"/><path d="M64 96V64h32z" class="B"/><g class="C"><ellipse cx="208.102" cy="208" rx="16.102" ry="16"/><ellipse cx="48.102" cy="144" rx="16.102" ry="16"/><ellipse cx="112.102" cy="144" rx="16.102" ry="16"/></g><path d="M64 224h32v32H64z" class="D"/><path d="M32 256H0v-32z" class="B"/><path d="M64 192h32v32z"/><g class="B"><path d="M64 192h32v32z"/><use xlink:href="#B"/></g><path d="M96 32c70.692 0 128 57.308 128 128V32H96zM80 96c61.856 0 112 50.308 112 112.365V96H80zm80 160v-96H48c56.314 0 102.915 41.7 110.813 96H160z" class="E"/><ellipse cx="272.102" cy="16" rx="16.102" ry="16" class="C"/><use xlink:href="#C" class="B"/><path d="M448 32h32v32h-32z" class="D"/><path d="M448 96V64h-32z" class="B"/><g class="C"><ellipse cx="303.898" cy="208" rx="16.102" ry="16"/><ellipse cx="463.898" cy="144" rx="16.102" ry="16"/><ellipse cx="399.898" cy="144" rx="16.102" ry="16"/></g><path d="M416 224h32v32h-32z" class="D"/><path d="M480 256h32v-32z" class="B"/><path d="M448 192h-32v32z"/><g class="B"><path d="M448 192h-32v32z"/><use xlink:href="#D"/></g><path d="M416 32c-70.692 0-128 57.308-128 128V32h128zm16 64c-61.856 0-112 50.308-112 112.365V96h112zm-80 160v-96h112c-56.314 0-102.915 41.7-110.813 96H352z" class="E"/><ellipse cx="751.898" cy="240" rx="16.102" ry="16" class="C"/><use xlink:href="#D" x="256" class="B"/><path d="M544 192h32v32h-32z" class="D"/><path d="M576 160v32h32z" class="B"/><g class="C"><ellipse cx="720.102" cy="48" rx="16.102" ry="16"/><ellipse cx="560.102" cy="112" rx="16.102" ry="16"/><ellipse cx="624.102" cy="112" rx="16.102" ry="16"/></g><path d="M576 0h32v32h-32z" class="D"/><path d="M544 0h-32v32z" class="B"/><path d="M576 64h32V32z"/><g class="B"><path d="M576 64h32V32z"/><use xlink:href="#C" x="256"/></g><path d="M608 224c70.692 0 128-57.308 128-128v128H608zm-16-64c61.855 0 112-50.308 112-112.365V160H592zM672 0v96H560c56.314 0 102.915-41.7 110.813-96H672z" class="E"/><ellipse cx="784.102" cy="240" rx="16.102" ry="16" class="C"/><use xlink:href="#B" x="768" class="B"/><path d="M960 192h32v32h-32z" class="D"/><path d="M960 160v32h-32z" class="B"/><g class="C"><ellipse cx="815.898" cy="48" rx="16.102" ry="16"/><ellipse cx="975.898" cy="112" rx="16.102" ry="16"/><ellipse cx="911.898" cy="112" rx="16.102" ry="16"/></g><path d="M928 0h32v32h-32z" class="D"/><path d="M992 0h32v32z" class="B"/><path d="M960 64h-32V32z"/><g class="B"><path d="M960 64h-32V32z"/><use xlink:href="#E"/></g><path d="M928 224c-70.692 0-128-57.308-128-128v128h128zm16-64c-61.855 0-112-50.308-112-112.365V160h112zM864 0v96h112c-56.314 0-102.915-41.7-110.813-96H864z" class="E"/><ellipse cx="784.102" cy="272" rx="16.102" ry="16" class="C"/><use xlink:href="#C" x="512" y="256" class="B"/><path d="M960 288h32v32h-32z" class="D"/><path d="M960 352v-32h-32z" class="B"/><g class="C"><ellipse cx="815.898" cy="464" rx="16.102" ry="16"/><ellipse cx="975.898" cy="400" rx="16.102" ry="16"/><ellipse cx="911.898" cy="400" rx="16.102" ry="16"/></g><path d="M928 480h32v32h-32z" class="D"/><path d="M992 512h32v-32z" class="B"/><path d="M960 448h-32v32z"/><g class="B"><path d="M960 448h-32v32z"/><use xlink:href="#D" x="512" y="256"/></g><path d="M928 288c-70.692 0-128 57.308-128 128V288h128zm16 64c-61.855 0-112 50.308-112 112.365V352h112zm-80 160v-96h112c-56.314 0-102.915 41.7-110.813 96H864z" class="E"/><ellipse cx="751.898" cy="272" rx="16.102" ry="16" class="C"/><use xlink:href="#E" x="-256" y="256" class="B"/><path d="M544 288h32v32h-32z" class="D"/><path d="M576 352v-32h32z" class="B"/><g class="C"><ellipse cx="720.102" cy="464" rx="16.102" ry="16"/><ellipse cx="560.102" cy="400" rx="16.102" ry="16"/><ellipse cx="624.102" cy="400" rx="16.102" ry="16"/></g><path d="M576 480h32v32h-32z" class="D"/><path d="M544 512h-32v-32z" class="B"/><path d="M576 448h32v32z"/><g class="B"><path d="M576 448h32v32z"/><use xlink:href="#B" x="512" y="256"/></g><path d="M608 288c70.692 0 128 57.308 128 128V288H608zm-16 64c61.855 0 112 50.308 112 112.365V352H592zm80 160v-96H560c56.314 0 102.915 41.7 110.813 96H672z" class="E"/><ellipse cx="272.102" cy="496" rx="16.102" ry="16" class="C"/><use xlink:href="#B" x="256" y="256" class="B"/><path d="M448 448h32v32h-32z" class="D"/><path d="M448 416v32h-32z" class="B"/><g class="C"><ellipse cx="303.898" cy="304" rx="16.102" ry="16"/><ellipse cx="463.898" cy="368" rx="16.102" ry="16"/><ellipse cx="399.898" cy="368" rx="16.102" ry="16"/></g><path d="M416 256h32v32h-32z" class="D"/><path d="M480 256h32v32z" class="B"/><path d="M448 320h-32v-32z"/><g class="B"><path d="M448 320h-32v-32z"/><use xlink:href="#E" x="-512" y="256"/></g><path d="M416 480c-70.692 0-128-57.308-128-128v128h128zm16-64c-61.856 0-112-50.308-112-112.365V416h112zm-80-160v96h112c-56.314 0-102.915-41.7-110.813-96H352z" class="E"/><ellipse cx="239.898" cy="496" rx="16.102" ry="16" class="C"/><path d="M64 512H0v-64c0 35.346 28.654 64 64 64z" class="B"/><path d="M32 448h32v32H32z" class="D"/><path d="M64 416v32h32z" class="B"/><g class="C"><ellipse cx="208.102" cy="304" rx="16.102" ry="16"/><ellipse cx="48.102" cy="368" rx="16.102" ry="16"/><ellipse cx="112.102" cy="368" rx="16.102" ry="16"/></g><path d="M64 256h32v32H64z" class="D"/><path d="M32 256H0v32z" class="B"/><path d="M64 320h32v-32z"/><g class="B"><path d="M64 320h32v-32z"/><use xlink:href="#C" x="-256" y="256"/></g><path d="M96 480c70.692 0 128-57.308 128-128v128H96zm-16-64c61.856 0 112-50.308 112-112.365V416H80zm80-160v96H48c56.314 0 102.915-41.7 110.813-96H160z" class="E"/><ellipse cx="239.898" cy="1008" rx="16.102" ry="16" class="C"/><path d="M64 1024H0v-64c0 35.346 28.654 64 64 64z" class="B"/><path d="M32 960h32v32H32z" class="D"/><path d="M64 928v32h32z" class="B"/><g class="C"><ellipse cx="208.102" cy="816" rx="16.102" ry="16"/><ellipse cx="48.102" cy="880" rx="16.102" ry="16"/><ellipse cx="112.102" cy="880" rx="16.102" ry="16"/></g><path d="M64 768h32v32H64z" class="D"/><path d="M32 768H0v32z" class="B"/><path d="M64 832h32v-32z"/><g class="B"><path d="M64 832h32v-32z"/><use xlink:href="#C" x="-256" y="768"/></g><path d="M96 992c70.692 0 128-57.308 128-128v128H96zm-16-64c61.856 0 112-50.308 112-112.365V928H80zm80-160v96H48c56.314 0 102.915-41.7 110.813-96H160z" class="E"/><ellipse cx="272.102" cy="1008" rx="16.102" ry="16" class="C"/><use xlink:href="#B" x="256" y="768" class="B"/><path d="M448 960h32v32h-32z" class="D"/><path d="M448 928v32h-32z" class="B"/><g class="C"><ellipse cx="303.898" cy="816" rx="16.102" ry="16"/><ellipse cx="463.898" cy="880" rx="16.102" ry="16"/><ellipse cx="399.898" cy="880" rx="16.102" ry="16"/></g><path d="M416 768h32v32h-32z" class="D"/><path d="M480 768h32v32z" class="B"/><path d="M448 832h-32v-32z"/><g class="B"><path d="M448 832h-32v-32z"/><use xlink:href="#E" x="-512" y="768"/></g><path d="M416 992c-70.692 0-128-57.308-128-128v128h128zm16-64c-61.856 0-112-50.308-112-112.365V928h112zm-80-160v96h112c-56.314 0-102.915-41.7-110.813-96H352z" class="E"/><ellipse cx="751.898" cy="784" rx="16.102" ry="16" class="C"/><use xlink:href="#E" x="-256" y="768" class="B"/><path d="M544 800h32v32h-32z" class="D"/><path d="M576 864v-32h32z" class="B"/><g class="C"><ellipse cx="720.102" cy="976" rx="16.102" ry="16"/><ellipse cx="560.102" cy="912" rx="16.102" ry="16"/><ellipse cx="624.102" cy="912" rx="16.102" ry="16"/></g><path d="M576 992h32v32h-32z" class="D"/><path d="M544 1024h-32v-32z" class="B"/><path d="M576 960h32v32z"/><g class="B"><path d="M576 960h32v32z"/><use xlink:href="#B" x="512" y="768"/></g><path d="M608 800c70.692 0 128 57.308 128 128V800H608zm-16 64c61.855 0 112 50.308 112 112.365V864H592zm80 160v-96H560c56.314 0 102.915 41.7 110.813 96H672z" class="E"/><ellipse cx="784.102" cy="784" rx="16.102" ry="16" class="C"/><use xlink:href="#C" x="512" y="768" class="B"/><path d="M960 800h32v32h-32z" class="D"/><path d="M960 864v-32h-32z" class="B"/><g class="C"><ellipse cx="815.898" cy="976" rx="16.102" ry="16"/><ellipse cx="975.898" cy="912" rx="16.102" ry="16"/><ellipse cx="911.898" cy="912" rx="16.102" ry="16"/></g><path d="M928 992h32v32h-32z" class="D"/><path d="M992 1024h32v-32z" class="B"/><path d="M960 960h-32v32z"/><g class="B"><path d="M960 960h-32v32z"/><use xlink:href="#D" x="512" y="768"/></g><path d="M928 800c-70.692 0-128 57.308-128 128V800h128zm16 64c-61.855 0-112 50.308-112 112.365V864h112zm-80 160v-96h112c-56.314 0-102.915 41.7-110.813 96H864z" class="E"/><ellipse cx="784.102" cy="752" rx="16.102" ry="16" class="C"/><use xlink:href="#B" x="768" y="512" class="B"/><path d="M960 704h32v32h-32z" class="D"/><path d="M960 672v32h-32z" class="B"/><g class="C"><ellipse cx="815.898" cy="560" rx="16.102" ry="16"/><ellipse cx="975.898" cy="624" rx="16.102" ry="16"/><ellipse cx="911.898" cy="624" rx="16.102" ry="16"/></g><path d="M928 512h32v32h-32z" class="D"/><path d="M992 512h32v32z" class="B"/><path d="M960 576h-32v-32z"/><g class="B"><path d="M960 576h-32v-32z"/><use xlink:href="#E" y="512"/></g><path d="M928 736c-70.692 0-128-57.308-128-128v128h128zm16-64c-61.855 0-112-50.308-112-112.365V672h112zm-80-160v96h112c-56.314 0-102.915-41.7-110.813-96H864z" class="E"/><ellipse cx="751.898" cy="752" rx="16.102" ry="16" class="C"/><use xlink:href="#D" x="256" y="512" class="B"/><path d="M544 704h32v32h-32z" class="D"/><path d="M576 672v32h32z" class="B"/><g class="C"><ellipse cx="720.102" cy="560" rx="16.102" ry="16"/><ellipse cx="560.102" cy="624" rx="16.102" ry="16"/><ellipse cx="624.102" cy="624" rx="16.102" ry="16"/></g><path d="M576 512h32v32h-32z" class="D"/><path d="M544 512h-32v32z" class="B"/><path d="M576 576h32v-32z"/><g class="B"><path d="M576 576h32v-32z"/><use xlink:href="#C" x="256" y="512"/></g><path d="M608 736c70.692 0 128-57.308 128-128v128H608zm-16-64c61.855 0 112-50.308 112-112.365V672H592zm80-160v96H560c56.314 0 102.915-41.7 110.813-96H672z" class="E"/><ellipse cx="272.102" cy="528" rx="16.102" ry="16" class="C"/><use xlink:href="#C" y="512" class="B"/><path d="M448 544h32v32h-32z" class="D"/><path d="M448 608v-32h-32z" class="B"/><g class="C"><ellipse cx="303.898" cy="720" rx="16.102" ry="16"/><ellipse cx="463.898" cy="656" rx="16.102" ry="16"/><ellipse cx="399.898" cy="656" rx="16.102" ry="16"/></g><path d="M416 736h32v32h-32z" class="D"/><path d="M480 768h32v-32z" class="B"/><path d="M448 704h-32v32z"/><g class="B"><path d="M448 704h-32v32z"/><use xlink:href="#D" y="512"/></g><path d="M416 544c-70.692 0-128 57.308-128 128V544h128zm16 64c-61.856 0-112 50.308-112 112.365V608h112zm-80 160v-96h112c-56.314 0-102.915 41.7-110.813 96H352z" class="E"/><ellipse cx="239.898" cy="528" rx="16.102" ry="16" class="C"/><path d="M64 512H0v64c0-35.346 28.654-64 64-64z" class="B"/><path d="M32 544h32v32H32z" class="D"/><path d="M64 608v-32h32z" class="B"/><g class="C"><ellipse cx="208.102" cy="720" rx="16.102" ry="16"/><ellipse cx="48.102" cy="656" rx="16.102" ry="16"/><ellipse cx="112.102" cy="656" rx="16.102" ry="16"/></g><path d="M64 736h32v32H64z" class="D"/><path d="M32 768H0v-32z" class="B"/><path d="M64 704h32v32z"/><g class="B"><path d="M64 704h32v32z"/><use xlink:href="#B" y="512"/></g><path d="M96 544c70.692 0 128 57.308 128 128V544H96zm-16 64c61.856 0 112 50.308 112 112.365V608H80zm80 160v-96H48c56.314 0 102.915 41.7 110.813 96H160z" class="E"/><defs ><path id="B" d="M192 256h64v-64c0 35.346-28.654 64-64 64z"/><path id="C" d="M448 0h64v64c0-35.346-28.654-64-64-64z"/><path id="D" d="M320 256h-64v-64c0 35.346 28.654 64 64 64z"/><path id="E" d="M832 0h-64v64c0-35.346 28.654-64 64-64z"/></defs></svg>