<svg xmlns="http://www.w3.org/2000/svg" width="1024" height="1024" xmlns:v="https://vecta.io/nano"><style><![CDATA[.B{fill:#b9a794}.C{fill:#a3d9ea}.D{fill:#fbe098}.E{fill:#c2ca9a}.F{fill:#808634}]]></style><g class="B"><path d="M48 64h16V48c0 8.836-7.164 16-16 16z"/><path d="M0,64h48c-8.836,0-16-7.164-16-16s7.164-16,16-16s16,7.164,16,16V0L0,64z"/></g><path d="M246.68 54.694C240.97 60.445 233.103 64 224.415 64c-17.444 0-31.585-14.327-31.585-32 0-8.727 3.453-16.634 9.044-22.407C189.219 3.449 175.013 0 160 0c-43.972 0-81.038 29.564-92.407 69.9C70.527 66.3 74.994 64 80 64c6.487 0 12.068 3.863 14.58 9.412C104.307 67.443 115.751 64 128 64c35.346 0 64 28.654 64 64 0 12.249-3.443 23.693-9.412 33.42 5.549 2.512 9.412 8.093 9.412 14.58 0 5.006-2.3 9.473-5.9 12.407C226.436 177.038 256 139.972 256 96c0-14.789-3.347-28.794-9.32-41.306zM144 64c-8.836 0-16-7.164-16-16s7.164-16 16-16 16 7.164 16 16-7.164 16-16 16zm64 64c-8.836 0-16-7.164-16-16s7.164-16 16-16 16 7.164 16 16-7.164 16-16 16zm-46.58 54.587c-5.804 3.56-12.216 6.224-19.048 7.792A96.5 96.5 0 0 0 160 192c3.856 0 7.657-.234 11.395-.676-4.452-1.336-8.084-4.557-9.975-8.737z" class="C"/><g class="D"><path d="M208 192c8.836 0 16 7.164 16 16s-7.164 16-16 16-16-7.164-16-16v48l64-64h-48z"/><path d="M208 192h-16v16c0-8.836 7.164-16 16-16z"/></g><path d="M64 128.58c-35.346 0-64 28.524-64 63.71a63.39 63.39 0 0 0 3.13 19.721C7.814 200.28 19.157 192 32.415 192a31.17 31.17 0 0 1 9.125 1.362A15.95 15.95 0 0 1 48 192c8.836 0 16 7.164 16 16 0 2.334-.504 4.549-1.402 6.548A32.39 32.39 0 0 1 64 224c0 13.032-7.693 24.236-18.726 29.226C51.198 255.028 57.484 256 64 256c35.346 0 64-28.524 64-63.71s-28.654-63.71-64-63.71z" class="E"/><path d="M158.586 118.573C156.078 124.13 150.493 128 144 128c-8.836 0-16-7.164-16-16 0-6.493 3.87-12.079 9.427-14.586A31.98 31.98 0 0 0 128 96c-17.673 0-32 14.327-32 32 17.673 0 32 14.327 32 32 17.673 0 32-14.327 32-32 0-3.281-.496-6.447-1.414-9.427z" class="F"/><g class="B"><path d="M320 208v-16h-16c8.836 0 16 7.164 16 16z"/><path d="M320 256v-48c0 8.836-7.164 16-16 16s-16-7.164-16-16 7.164-16 16-16h-48l64 64z"/></g><path d="M310.694 9.32C316.445 15.03 320 22.897 320 31.585c0 17.444-14.327 31.585-32 31.585-8.727 0-16.634-3.453-22.407-9.044C259.449 66.781 256 80.987 256 96c0 43.972 29.564 81.038 69.9 92.407-3.6-2.934-5.9-7.401-5.9-12.407 0-6.487 3.863-12.068 9.412-14.58C323.443 151.693 320 140.249 320 128c0-35.346 28.654-64 64-64 12.249 0 23.693 3.443 33.42 9.412C419.932 67.863 425.513 64 432 64c5.006 0 9.473 2.3 12.407 5.9C433.038 29.564 395.972 0 352 0c-14.789 0-28.794 3.347-41.306 9.32zM320 112c0 8.836-7.164 16-16 16s-16-7.164-16-16 7.164-16 16-16 16 7.164 16 16zm64-64c0 8.836-7.164 16-16 16s-16-7.164-16-16 7.164-16 16-16 16 7.164 16 16zm54.587 46.58c3.56 5.804 6.224 12.216 7.792 19.048A96.5 96.5 0 0 0 448 96c0-3.856-.234-7.657-.676-11.395-1.336 4.452-4.557 8.084-8.737 9.975z" class="C"/><g class="D"><path d="M448 48c0-8.836 7.164-16 16-16s16 7.164 16 16-7.164 16-16 16h48L448 0v48z"/><path d="M448 48v16h16c-8.836 0-16-7.164-16-16z"/></g><path d="M384.58 192c0 35.346 28.524 64 63.71 64a63.39 63.39 0 0 0 19.721-3.13C456.28 248.186 448 236.843 448 223.585a31.17 31.17 0 0 1 1.362-9.125 15.94 15.94 0 0 1-1.362-6.459c0-8.836 7.164-16 16-16 2.334 0 4.549.504 6.548 1.402 2.988-.911 6.162-1.402 9.452-1.402 13.032 0 24.236 7.693 29.226 18.726C511.028 204.802 512 198.516 512 192c0-35.346-28.524-64-63.71-64s-63.71 28.654-63.71 64z" class="E"/><path d="M374.573 97.414C380.13 99.922 384 105.507 384 112c0 8.836-7.164 16-16 16-6.493 0-12.079-3.87-14.586-9.427-.917 2.98-1.414 6.146-1.414 9.427 0 17.673 14.327 32 32 32 0-17.673 14.327-32 32-32 0-17.673-14.327-32-32-32-3.281 0-6.447.496-9.427 1.414z" class="F"/><g class="B"><path d="M720 192h-16v16c0-8.836 7.163-16 16-16z"/><path d="M768 192h-48c8.837 0 16 7.164 16 16s-7.163 16-16 16-16-7.164-16-16v48l64-64z"/></g><path d="M521.32 201.306c5.71-5.751 13.577-9.306 22.265-9.306 17.444 0 31.585 14.327 31.585 32 0 8.727-3.452 16.634-9.044 22.407C578.781 252.551 592.987 256 608 256c43.973 0 81.037-29.564 92.407-69.9-2.934 3.6-7.401 5.9-12.407 5.9-6.487 0-12.068-3.863-14.58-9.412C663.692 188.557 652.249 192 640 192c-35.346 0-64-28.654-64-64 0-12.249 3.443-23.693 9.411-33.42C579.862 92.068 576 86.487 576 80c0-5.006 2.3-9.473 5.9-12.407C541.564 78.962 512 116.028 512 160c0 14.789 3.347 28.794 9.32 41.306zM624 192c8.837 0 16 7.164 16 16s-7.163 16-16 16-16-7.164-16-16 7.163-16 16-16zm-64-64c8.837 0 16 7.164 16 16s-7.163 16-16 16-16-7.164-16-16 7.163-16 16-16zm46.58-54.587c5.804-3.56 12.217-6.224 19.048-7.792A96.5 96.5 0 0 0 608 64c-3.856 0-7.657.234-11.395.676 4.452 1.336 8.083 4.557 9.975 8.737z" class="C"/><g class="D"><path d="M560 64c-8.837 0-16-7.164-16-16s7.163-16 16-16 16 7.164 16 16V0l-64 64h48z"/><path d="M560 64h16V48c0 8.836-7.163 16-16 16z"/></g><path d="M704 127.42c35.346 0 64-28.524 64-63.71a63.42 63.42 0 0 0-3.13-19.721C760.186 55.72 748.843 64 735.585 64a31.18 31.18 0 0 1-9.126-1.362A15.94 15.94 0 0 1 720 64c-8.837 0-16-7.164-16-16 0-2.334.504-4.549 1.402-6.548C704.491 38.464 704 35.291 704 32c0-13.032 7.693-24.236 18.726-29.227A64.27 64.27 0 0 0 704 0c-35.346 0-64 28.524-64 63.71s28.654 63.71 64 63.71z" class="E"/><path d="M609.413 137.427C611.922 131.87 617.507 128 624 128c8.837 0 16 7.164 16 16 0 6.493-3.87 12.079-9.427 14.586 2.98.917 6.146 1.414 9.427 1.414 17.673 0 32-14.327 32-32-17.673 0-32-14.327-32-32-17.673 0-32 14.327-32 32 0 3.281.496 6.447 1.413 9.427z" class="F"/><g class="B"><path d="M960 48v16h16c-8.837 0-16-7.164-16-16z"/><path d="M960 0v48c0-8.836 7.163-16 16-16s16 7.164 16 16-7.163 16-16 16h48L960 0z"/></g><path d="M969.306 246.68c-5.751-5.71-9.306-13.578-9.306-22.265 0-17.444 14.327-31.585 32-31.585 8.728 0 16.635 3.453 22.407 9.044 6.145-12.655 9.593-26.861 9.593-41.874 0-43.972-29.564-81.038-69.9-92.407 3.6 2.934 5.9 7.401 5.9 12.407 0 6.487-3.862 12.068-9.412 14.58C956.557 104.307 960 115.751 960 128c0 35.346-28.654 64-64 64-12.249 0-23.693-3.443-33.42-9.412-2.512 5.549-8.093 9.412-14.58 9.412-5.006 0-9.474-2.3-12.407-5.9C846.963 226.436 884.028 256 928 256c14.789 0 28.794-3.347 41.306-9.32zM960 144c0-8.836 7.163-16 16-16s16 7.164 16 16-7.163 16-16 16-16-7.164-16-16zm-64 64c0-8.836 7.163-16 16-16s16 7.164 16 16-7.163 16-16 16-16-7.164-16-16zm-54.587-46.58a63.59 63.59 0 0 1-7.792-19.048A96.59 96.59 0 0 0 832 160c0 3.856.234 7.657.676 11.395 1.336-4.452 4.557-8.084 8.737-9.975z" class="C"/><g class="D"><path d="M832,208c0,8.836-7.163,16-16,16s-16-7.164-16-16s7.163-16,16-16h-48l64,64V208z"/><path d="M832 208v-16h-16c8.837 0 16 7.164 16 16z"/></g><path d="M895.421 64c0-35.346-28.524-64-63.711-64-6.884 0-13.511 1.101-19.721 3.13C823.721 7.814 832 19.157 832 32.415a31.17 31.17 0 0 1-1.362 9.125C831.512 43.517 832 45.701 832 48c0 8.836-7.163 16-16 16-2.334 0-4.549-.504-6.548-1.402C806.464 63.508 803.29 64 800 64c-13.031 0-24.236-7.693-29.227-18.726C768.972 51.198 768 57.484 768 64c0 35.346 28.524 64 63.71 64s63.711-28.654 63.711-64z" class="E"/><path d="M905.427 158.586C899.87 156.078 896 150.493 896 144c0-8.836 7.163-16 16-16 6.493 0 12.078 3.87 14.587 9.427.917-2.98 1.413-6.146 1.413-9.427 0-17.673-14.327-32-32-32 0 17.673-14.327 32-32 32 0 17.673 14.327 32 32 32a31.98 31.98 0 0 0 9.427-1.414z" class="F"/><g class="B"><path d="M976 448h-16v16c0-8.836 7.163-16 16-16z"/><path d="M1024 448h-48c8.837 0 16 7.164 16 16s-7.163 16-16 16-16-7.164-16-16v48l64-64z"/></g><path d="M777.32 457.306c5.71-5.751 13.577-9.306 22.265-9.306 17.444 0 31.585 14.327 31.585 32 0 8.727-3.452 16.634-9.044 22.407C834.781 508.551 848.987 512 864 512c43.973 0 81.037-29.564 92.407-69.9-2.934 3.6-7.401 5.9-12.407 5.9-6.487 0-12.068-3.863-14.58-9.412C919.692 444.557 908.249 448 896 448c-35.346 0-64-28.654-64-64 0-12.249 3.443-23.693 9.411-33.42-5.549-2.512-9.411-8.093-9.411-14.58 0-5.006 2.3-9.473 5.9-12.407C797.564 334.962 768 372.028 768 416c0 14.789 3.347 28.794 9.32 41.306zM880 448c8.837 0 16 7.164 16 16s-7.163 16-16 16-16-7.164-16-16 7.163-16 16-16zm-64-64c8.837 0 16 7.164 16 16s-7.163 16-16 16-16-7.164-16-16 7.163-16 16-16zm46.58-54.587c5.804-3.56 12.217-6.224 19.048-7.792A96.5 96.5 0 0 0 864 320c-3.856 0-7.657.234-11.395.676 4.452 1.336 8.083 4.557 9.975 8.737z" class="C"/><g class="D"><path d="M816 320c-8.837 0-16-7.164-16-16s7.163-16 16-16 16 7.164 16 16v-48l-64 64h48z"/><path d="M816 320h16v-16c0 8.836-7.163 16-16 16z"/></g><path d="M960 383.42c35.346 0 64-28.524 64-63.71a63.42 63.42 0 0 0-3.13-19.721C1016.186 311.72 1004.843 320 991.585 320a31.18 31.18 0 0 1-9.126-1.362A15.94 15.94 0 0 1 976 320c-8.837 0-16-7.164-16-16 0-2.334.504-4.549 1.402-6.548-.911-2.988-1.402-6.161-1.402-9.452 0-13.032 7.693-24.236 18.726-29.227A64.27 64.27 0 0 0 960 256c-35.347 0-64 28.524-64 63.71s28.653 63.71 64 63.71z" class="E"/><path d="M865.413 393.427C867.922 387.87 873.507 384 880 384c8.837 0 16 7.164 16 16 0 6.493-3.87 12.079-9.427 14.586 2.98.917 6.146 1.414 9.427 1.414 17.673 0 32-14.327 32-32-17.673 0-32-14.327-32-32-17.673 0-32 14.327-32 32 0 3.281.496 6.447 1.413 9.427z" class="F"/><g class="B"><path d="M704 304v16h16c-8.837 0-16-7.164-16-16z"/><path d="M704 256v48c0-8.836 7.163-16 16-16s16 7.164 16 16-7.163 16-16 16h48l-64-64z"/></g><path d="M713.306 502.68c-5.751-5.71-9.306-13.578-9.306-22.265 0-17.444 14.327-31.585 32-31.585 8.728 0 16.635 3.453 22.407 9.044C764.552 445.219 768 431.013 768 416c0-43.972-29.564-81.038-69.9-92.407 3.601 2.934 5.9 7.401 5.9 12.407 0 6.487-3.862 12.068-9.412 14.58C700.557 360.307 704 371.751 704 384c0 35.346-28.654 64-64 64-12.249 0-23.693-3.443-33.42-9.412-2.512 5.549-8.093 9.412-14.58 9.412-5.006 0-9.474-2.3-12.407-5.9C590.963 482.436 628.028 512 672 512c14.789 0 28.794-3.347 41.306-9.32zM704 400c0-8.836 7.163-16 16-16s16 7.164 16 16-7.163 16-16 16-16-7.164-16-16zm-64 64c0-8.836 7.163-16 16-16s16 7.164 16 16-7.163 16-16 16-16-7.164-16-16zm-54.587-46.58a63.59 63.59 0 0 1-7.792-19.048A96.59 96.59 0 0 0 576 416c0 3.856.234 7.657.676 11.395 1.336-4.452 4.557-8.084 8.737-9.975z" class="C"/><g class="D"><path d="M576,464c0,8.836-7.163,16-16,16s-16-7.164-16-16s7.163-16,16-16h-48l64,64V464z"/><path d="M576 464v-16h-16c8.837 0 16 7.164 16 16z"/></g><path d="M639.421 320c0-35.346-28.524-64-63.711-64-6.884 0-13.511 1.101-19.721 3.13C567.721 263.814 576 275.157 576 288.415a31.17 31.17 0 0 1-1.362 9.125c.874 1.976 1.362 4.16 1.362 6.459 0 8.836-7.163 16-16 16-2.334 0-4.549-.504-6.548-1.402-2.988.911-6.162 1.403-9.452 1.403-13.031 0-24.236-7.693-29.227-18.726C512.972 307.198 512 313.484 512 320c0 35.346 28.524 64 63.71 64s63.711-28.654 63.711-64z" class="E"/><path d="M649.427 414.586C643.87 412.078 640 406.493 640 400c0-8.836 7.163-16 16-16 6.493 0 12.078 3.87 14.587 9.427.917-2.98 1.413-6.146 1.413-9.427 0-17.673-14.327-32-32-32 0 17.673-14.327 32-32 32 0 17.673 14.327 32 32 32a31.98 31.98 0 0 0 9.427-1.414z" class="F"/><g class="B"><path d="M304 320h16v-16c0 8.836-7.164 16-16 16z"/><path d="M256 320h48c-8.836 0-16-7.164-16-16s7.164-16 16-16 16 7.164 16 16v-48l-64 64z"/></g><path d="M502.68 310.694c-5.71 5.751-13.578 9.306-22.265 9.306-17.444 0-31.585-14.327-31.585-32 0-8.727 3.453-16.634 9.044-22.407C445.219 259.449 431.013 256 416 256c-43.972 0-81.038 29.564-92.407 69.9 2.934-3.6 7.401-5.9 12.407-5.9 6.487 0 12.068 3.863 14.58 9.412C360.307 323.443 371.751 320 384 320c35.346 0 64 28.654 64 64 0 12.249-3.443 23.693-9.412 33.42 5.549 2.512 9.412 8.093 9.412 14.58 0 5.006-2.3 9.473-5.9 12.407C482.436 433.038 512 395.972 512 352c0-14.789-3.347-28.794-9.32-41.306zM400 320c-8.836 0-16-7.164-16-16s7.164-16 16-16 16 7.164 16 16-7.164 16-16 16zm64 64c-8.836 0-16-7.164-16-16s7.164-16 16-16 16 7.164 16 16-7.164 16-16 16zm-46.58 54.587c-5.804 3.56-12.216 6.224-19.048 7.792A96.5 96.5 0 0 0 416 448c3.856 0 7.657-.234 11.395-.676-4.452-1.336-8.084-4.557-9.975-8.737z" class="C"/><g class="D"><path d="M464 448c8.836 0 16 7.164 16 16s-7.164 16-16 16-16-7.164-16-16v48l64-64h-48z"/><path d="M464 448h-16v16c0-8.836 7.164-16 16-16z"/></g><path d="M320 384.58c-35.346 0-64 28.524-64 63.71a63.39 63.39 0 0 0 3.13 19.721C263.814 456.28 275.157 448 288.415 448a31.17 31.17 0 0 1 9.125 1.362 15.94 15.94 0 0 1 6.459-1.362c8.836 0 16 7.164 16 16 0 2.334-.504 4.549-1.402 6.548.911 2.988 1.402 6.162 1.402 9.452 0 13.032-7.693 24.236-18.726 29.226C307.198 511.028 313.484 512 320 512c35.346 0 64-28.524 64-63.71s-28.654-63.71-64-63.71z" class="E"/><path d="M414.586 374.573C412.078 380.13 406.493 384 400 384c-8.836 0-16-7.164-16-16 0-6.493 3.87-12.079 9.427-14.586-2.98-.917-6.146-1.414-9.427-1.414-17.673 0-32 14.327-32 32 17.673 0 32 14.327 32 32 17.673 0 32-14.327 32-32 0-3.281-.496-6.447-1.414-9.427z" class="F"/><g class="B"><path d="M64 464v-16H48c8.836 0 16 7.164 16 16z"/><path d="M64 512v-48c0 8.836-7.164 16-16 16s-16-7.164-16-16 7.164-16 16-16H0l64 64z"/></g><path d="M54.694 265.32C60.445 271.03 64 278.897 64 287.585c0 17.444-14.327 31.585-32 31.585-8.727 0-16.634-3.453-22.407-9.044C3.449 322.781 0 336.987 0 352c0 43.972 29.564 81.038 69.9 92.407-3.6-2.934-5.9-7.401-5.9-12.407 0-6.487 3.863-12.068 9.412-14.58C67.443 407.693 64 396.249 64 384c0-35.346 28.654-64 64-64 12.249 0 23.693 3.443 33.42 9.412 2.512-5.549 8.093-9.412 14.58-9.412 5.006 0 9.473 2.3 12.407 5.9C177.038 285.564 139.972 256 96 256c-14.789 0-28.794 3.347-41.306 9.32zM64 368c0 8.836-7.164 16-16 16s-16-7.164-16-16 7.164-16 16-16 16 7.164 16 16zm64-64c0 8.836-7.164 16-16 16s-16-7.164-16-16 7.164-16 16-16 16 7.164 16 16zm54.587 46.58c3.56 5.804 6.224 12.216 7.792 19.048A96.5 96.5 0 0 0 192 352c0-3.856-.234-7.657-.676-11.395-1.336 4.452-4.557 8.084-8.737 9.975z" class="C"/><g class="D"><path d="M192 304c0-8.836 7.164-16 16-16s16 7.164 16 16-7.164 16-16 16h48l-64-64v48z"/><path d="M192 304v16h16c-8.836 0-16-7.164-16-16z"/></g><path d="M128.58 448c0 35.346 28.524 64 63.71 64a63.39 63.39 0 0 0 19.721-3.13C200.28 504.186 192 492.843 192 479.585c0-3.174.479-6.236 1.362-9.125a15.94 15.94 0 0 1-1.362-6.459c0-8.836 7.164-16 16-16 2.334 0 4.549.504 6.548 1.402 2.988-.911 6.162-1.402 9.452-1.402 13.032 0 24.236 7.693 29.226 18.726C255.028 460.802 256 454.516 256 448c0-35.346-28.524-64-63.71-64s-63.71 28.654-63.71 64z" class="E"/><path d="M118.573 353.414C124.13 355.922 128 361.507 128 368c0 8.836-7.164 16-16 16-6.493 0-12.079-3.87-14.586-9.427A31.98 31.98 0 0 0 96 384c0 17.673 14.327 32 32 32 0-17.673 14.327-32 32-32 0-17.673-14.327-32-32-32-3.281 0-6.447.496-9.427 1.414z" class="F"/><g class="B"><path d="M976 960h-16v16c0-8.837 7.163-16 16-16z"/><path d="M1024 960h-48c8.837 0 16 7.163 16 16s-7.163 16-16 16-16-7.163-16-16v48l64-64z"/></g><path d="M777.32 969.306c5.71-5.751 13.577-9.306 22.265-9.306 17.444 0 31.585 14.327 31.585 32a32.1 32.1 0 0 1-9.044 22.407c12.655 6.145 26.861 9.593 41.874 9.593 43.973 0 81.037-29.564 92.407-69.9-2.934 3.601-7.401 5.9-12.407 5.9-6.487 0-12.068-3.862-14.58-9.412C919.692 956.557 908.249 960 896 960c-35.346 0-64-28.654-64-64 0-12.249 3.443-23.693 9.411-33.42-5.549-2.512-9.411-8.093-9.411-14.58 0-5.006 2.3-9.474 5.9-12.407C797.564 846.963 768 884.028 768 928c0 14.789 3.347 28.794 9.32 41.306zM880 960c8.837 0 16 7.163 16 16s-7.163 16-16 16-16-7.163-16-16 7.163-16 16-16zm-64-64c8.837 0 16 7.163 16 16s-7.163 16-16 16-16-7.163-16-16 7.163-16 16-16zm46.58-54.587a63.6 63.6 0 0 1 19.048-7.792A96.59 96.59 0 0 0 864 832c-3.856 0-7.657.234-11.395.676 4.452 1.336 8.083 4.557 9.975 8.737z" class="C"/><g class="D"><path d="M816 832c-8.837 0-16-7.163-16-16s7.163-16 16-16 16 7.163 16 16v-48l-64 64h48z"/><path d="M816 832h16v-16c0 8.837-7.163 16-16 16z"/></g><path d="M960 895.421c35.346 0 64-28.524 64-63.711 0-6.884-1.102-13.511-3.13-19.721-4.685 11.731-16.027 20.011-29.285 20.011a31.18 31.18 0 0 1-9.126-1.362c-1.976.874-4.16 1.362-6.459 1.362-8.837 0-16-7.163-16-16 0-2.334.504-4.549 1.402-6.548-.911-2.988-1.402-6.162-1.402-9.452 0-13.031 7.693-24.236 18.726-29.227A64.27 64.27 0 0 0 960 768c-35.347 0-64 28.524-64 63.71s28.653 63.711 64 63.711z" class="E"/><path d="M865.413 905.427C867.922 899.87 873.507 896 880 896c8.837 0 16 7.163 16 16 0 6.493-3.87 12.078-9.427 14.587 2.98.917 6.146 1.413 9.427 1.413 17.673 0 32-14.327 32-32-17.673 0-32-14.327-32-32-17.673 0-32 14.327-32 32a32.01 32.01 0 0 0 1.413 9.427z" class="F"/><g class="B"><path d="M704 816v16h16c-8.837 0-16-7.163-16-16z"/><path d="M704 768v48c0-8.837 7.163-16 16-16s16 7.163 16 16-7.163 16-16 16h48l-64-64z"/></g><path d="M713.306 1014.68c-5.751-5.71-9.306-13.577-9.306-22.265 0-17.444 14.327-31.585 32-31.585a32.1 32.1 0 0 1 22.407 9.044C764.552 957.219 768 943.013 768 928c0-43.973-29.564-81.037-69.9-92.407 3.601 2.934 5.9 7.401 5.9 12.407 0 6.487-3.862 12.068-9.412 14.58C700.557 872.308 704 883.751 704 896c0 35.346-28.654 64-64 64-12.249 0-23.693-3.443-33.42-9.411-2.512 5.549-8.093 9.411-14.58 9.411-5.006 0-9.474-2.3-12.407-5.9 11.37 40.336 48.436 69.9 92.407 69.9 14.789 0 28.794-3.347 41.306-9.32zM704 912c0-8.837 7.163-16 16-16s16 7.163 16 16-7.163 16-16 16-16-7.163-16-16zm-64 64c0-8.837 7.163-16 16-16s16 7.163 16 16-7.163 16-16 16-16-7.163-16-16zm-54.587-46.58a63.6 63.6 0 0 1-7.792-19.048A96.59 96.59 0 0 0 576 928c0 3.856.234 7.657.676 11.395 1.336-4.452 4.557-8.083 8.737-9.975z" class="C"/><g class="D"><path d="M576,976c0,8.837-7.163,16-16,16s-16-7.163-16-16s7.163-16,16-16h-48l64,64V976z"/><path d="M576 976v-16h-16c8.837 0 16 7.163 16 16z"/></g><path d="M639.421 832c0-35.346-28.524-64-63.711-64-6.884 0-13.511 1.102-19.721 3.13C567.721 775.814 576 787.157 576 800.415a31.18 31.18 0 0 1-1.362 9.126c.874 1.976 1.362 4.16 1.362 6.459 0 8.837-7.163 16-16 16-2.334 0-4.549-.504-6.548-1.402-2.988.911-6.162 1.402-9.452 1.402-13.031 0-24.236-7.693-29.227-18.726A64.27 64.27 0 0 0 512 832c0 35.346 28.524 64 63.71 64s63.711-28.654 63.711-64z" class="E"/><path d="M649.427 926.587C643.87 924.078 640 918.493 640 912c0-8.837 7.163-16 16-16 6.493 0 12.078 3.87 14.587 9.427.917-2.98 1.413-6.146 1.413-9.427 0-17.673-14.327-32-32-32 0 17.673-14.327 32-32 32 0 17.673 14.327 32 32 32a32.01 32.01 0 0 0 9.427-1.413z" class="F"/><g class="B"><path d="M304 832h16v-16c0 8.837-7.164 16-16 16z"/><path d="M256 832h48c-8.836 0-16-7.163-16-16s7.164-16 16-16 16 7.163 16 16v-48l-64 64z"/></g><path d="M502.68 822.694c-5.71 5.75-13.578 9.306-22.265 9.306-17.444 0-31.585-14.327-31.585-32 0-8.728 3.453-16.635 9.044-22.407C445.219 771.448 431.013 768 416 768c-43.972 0-81.038 29.564-92.407 69.9 2.934-3.601 7.401-5.9 12.407-5.9 6.487 0 12.068 3.862 14.58 9.411C360.307 835.443 371.751 832 384 832c35.346 0 64 28.654 64 64 0 12.249-3.443 23.693-9.412 33.42 5.549 2.512 9.412 8.093 9.412 14.58 0 5.006-2.3 9.474-5.9 12.407C482.436 945.037 512 907.972 512 864c0-14.789-3.347-28.794-9.32-41.306zM400 832c-8.836 0-16-7.163-16-16s7.164-16 16-16 16 7.163 16 16-7.164 16-16 16zm64 64c-8.836 0-16-7.163-16-16s7.164-16 16-16 16 7.163 16 16-7.164 16-16 16zm-46.58 54.587a63.59 63.59 0 0 1-19.048 7.792A96.59 96.59 0 0 0 416 960c3.856 0 7.657-.234 11.395-.676-4.452-1.336-8.084-4.557-9.975-8.737z" class="C"/><g class="D"><path d="M464 960c8.836 0 16 7.163 16 16s-7.164 16-16 16-16-7.163-16-16v48l64-64h-48z"/><path d="M464 960h-16v16c0-8.837 7.164-16 16-16z"/></g><path d="M320 896.579c-35.346 0-64 28.524-64 63.711 0 6.884 1.101 13.511 3.13 19.721C263.814 968.279 275.157 960 288.415 960a31.17 31.17 0 0 1 9.125 1.362c1.976-.874 4.16-1.362 6.459-1.362 8.836 0 16 7.163 16 16 0 2.334-.504 4.549-1.402 6.548.911 2.988 1.402 6.161 1.402 9.452 0 13.031-7.693 24.236-18.726 29.227 5.923 1.802 12.21 2.773 18.726 2.773 35.346 0 64-28.523 64-63.71S355.346 896.579 320 896.579z" class="E"/><path d="M414.586 886.573C412.078 892.13 406.493 896 400 896c-8.836 0-16-7.163-16-16 0-6.493 3.87-12.078 9.427-14.587-2.98-.917-6.146-1.413-9.427-1.413-17.673 0-32 14.327-32 32 17.673 0 32 14.327 32 32 17.673 0 32-14.327 32-32a31.98 31.98 0 0 0-1.414-9.427z" class="F"/><g class="B"><path d="M64 976v-16H48c8.836 0 16 7.163 16 16z"/><path d="M64 1024v-48c0 8.837-7.164 16-16 16s-16-7.163-16-16 7.164-16 16-16H0l64 64z"/></g><path d="M54.694 777.32C60.445 783.03 64 790.897 64 799.585c0 17.444-14.327 31.585-32 31.585-8.727 0-16.634-3.452-22.407-9.044C3.449 834.781 0 848.987 0 864c0 43.973 29.564 81.037 69.9 92.407-3.6-2.933-5.9-7.401-5.9-12.407 0-6.487 3.863-12.068 9.412-14.58C67.443 919.692 64 908.249 64 896c0-35.346 28.654-64 64-64 12.249 0 23.693 3.443 33.42 9.411 2.512-5.549 8.093-9.411 14.58-9.411 5.006 0 9.473 2.3 12.407 5.9C177.038 797.564 139.972 768 96 768c-14.789 0-28.794 3.347-41.306 9.32zM64 880c0 8.837-7.164 16-16 16s-16-7.163-16-16 7.164-16 16-16 16 7.163 16 16zm64-64c0 8.837-7.164 16-16 16s-16-7.163-16-16 7.164-16 16-16 16 7.163 16 16zm54.587 46.58c3.56 5.804 6.224 12.217 7.792 19.048A96.5 96.5 0 0 0 192 864c0-3.856-.234-7.657-.676-11.395-1.336 4.452-4.557 8.083-8.737 9.975z" class="C"/><g class="D"><path d="M192 816c0-8.837 7.164-16 16-16s16 7.163 16 16-7.164 16-16 16h48l-64-64v48z"/><path d="M192 816v16h16c-8.836 0-16-7.163-16-16z"/></g><path d="M128.58 960c0 35.346 28.524 64 63.71 64a63.42 63.42 0 0 0 19.721-3.13C200.28 1016.186 192 1004.843 192 991.585a31.18 31.18 0 0 1 1.362-9.126A15.94 15.94 0 0 1 192 976c0-8.837 7.164-16 16-16 2.334 0 4.549.504 6.548 1.402 2.988-.911 6.162-1.402 9.452-1.402 13.032 0 24.236 7.693 29.226 18.726C255.028 972.803 256 966.516 256 960c0-35.347-28.524-64-63.71-64s-63.71 28.653-63.71 64z" class="E"/><path d="M118.573 865.413C124.13 867.922 128 873.507 128 880c0 8.837-7.164 16-16 16-6.493 0-12.079-3.87-14.586-9.427A31.98 31.98 0 0 0 96 896c0 17.673 14.327 32 32 32 0-17.673 14.327-32 32-32 0-17.673-14.327-32-32-32-3.281 0-6.447.496-9.427 1.413z" class="F"/><g class="B"><path d="M48 576h16v-16c0 8.837-7.164 16-16 16z"/><path d="M0,576h48c-8.836,0-16-7.163-16-16s7.164-16,16-16s16,7.163,16,16v-48L0,576z"/></g><path d="M246.68 566.694c-5.71 5.75-13.578 9.306-22.265 9.306-17.444 0-31.585-14.327-31.585-32 0-8.728 3.453-16.635 9.044-22.407C189.219 515.448 175.013 512 160 512c-43.972 0-81.038 29.564-92.407 69.9 2.934-3.6 7.401-5.9 12.407-5.9 6.487 0 12.068 3.862 14.58 9.411C104.307 579.443 115.751 576 128 576c35.346 0 64 28.654 64 64 0 12.249-3.443 23.693-9.412 33.42 5.549 2.512 9.412 8.093 9.412 14.58 0 5.006-2.3 9.474-5.9 12.407C226.436 689.037 256 651.972 256 608c0-14.789-3.347-28.794-9.32-41.306zM144 576c-8.836 0-16-7.163-16-16s7.164-16 16-16 16 7.163 16 16-7.164 16-16 16zm64 64c-8.836 0-16-7.163-16-16s7.164-16 16-16 16 7.163 16 16-7.164 16-16 16zm-46.58 54.587a63.59 63.59 0 0 1-19.048 7.792A96.59 96.59 0 0 0 160 704c3.856 0 7.657-.234 11.395-.676-4.452-1.336-8.084-4.557-9.975-8.737z" class="C"/><g class="D"><path d="M208 704c8.836 0 16 7.163 16 16s-7.164 16-16 16-16-7.163-16-16v48l64-64h-48z"/><path d="M208 704h-16v16c0-8.837 7.164-16 16-16z"/></g><path d="M64 640.579c-35.346 0-64 28.524-64 63.711 0 6.884 1.101 13.511 3.13 19.721C7.814 712.279 19.157 704 32.415 704a31.17 31.17 0 0 1 9.125 1.362C43.517 704.488 45.701 704 48 704c8.836 0 16 7.163 16 16 0 2.334-.504 4.549-1.402 6.548A32.39 32.39 0 0 1 64 736c0 13.031-7.693 24.236-18.726 29.227C51.198 767.028 57.484 768 64 768c35.346 0 64-28.524 64-63.71s-28.654-63.711-64-63.711z" class="E"/><path d="M158.586 630.573C156.078 636.13 150.493 640 144 640c-8.836 0-16-7.163-16-16 0-6.493 3.87-12.078 9.427-14.587-2.98-.917-6.146-1.413-9.427-1.413-17.673 0-32 14.327-32 32 17.673 0 32 14.327 32 32 17.673 0 32-14.327 32-32a31.98 31.98 0 0 0-1.414-9.427z" class="F"/><g class="B"><path d="M320 720v-16h-16c8.836 0 16 7.163 16 16z"/><path d="M320 768v-48c0 8.837-7.164 16-16 16s-16-7.163-16-16 7.164-16 16-16h-48l64 64z"/></g><path d="M310.694 521.32c5.751 5.71 9.306 13.577 9.306 22.265 0 17.444-14.327 31.585-32 31.585-8.727 0-16.634-3.452-22.407-9.044C259.449 578.781 256 592.987 256 608c0 43.973 29.564 81.037 69.9 92.407-3.6-2.934-5.9-7.401-5.9-12.407 0-6.487 3.863-12.068 9.412-14.58C323.443 663.692 320 652.249 320 640c0-35.346 28.654-64 64-64 12.249 0 23.693 3.443 33.42 9.411 2.512-5.549 8.093-9.411 14.58-9.411 5.006 0 9.473 2.3 12.407 5.9C433.038 541.564 395.972 512 352 512c-14.789 0-28.794 3.347-41.306 9.32zM320 624c0 8.837-7.164 16-16 16s-16-7.163-16-16 7.164-16 16-16 16 7.163 16 16zm64-64c0 8.837-7.164 16-16 16s-16-7.163-16-16 7.164-16 16-16 16 7.163 16 16zm54.587 46.58c3.56 5.804 6.224 12.217 7.792 19.048A96.5 96.5 0 0 0 448 608c0-3.856-.234-7.657-.676-11.395-1.336 4.452-4.557 8.083-8.737 9.975z" class="C"/><g class="D"><path d="M448 560c0-8.837 7.164-16 16-16s16 7.163 16 16-7.164 16-16 16h48l-64-64v48z"/><path d="M448 560v16h16c-8.836 0-16-7.163-16-16z"/></g><path d="M384.58 704c0 35.346 28.524 64 63.71 64a63.42 63.42 0 0 0 19.721-3.13C456.28 760.186 448 748.843 448 735.585a31.18 31.18 0 0 1 1.362-9.126A15.94 15.94 0 0 1 448 720c0-8.837 7.164-16 16-16 2.334 0 4.549.504 6.548 1.402 2.988-.911 6.162-1.402 9.452-1.402 13.032 0 24.236 7.693 29.226 18.726C511.028 716.803 512 710.516 512 704c0-35.346-28.524-64-63.71-64s-63.71 28.654-63.71 64z" class="E"/><path d="M374.573 609.413C380.13 611.922 384 617.507 384 624c0 8.837-7.164 16-16 16-6.493 0-12.079-3.87-14.586-9.427-.917 2.98-1.414 6.146-1.414 9.427 0 17.673 14.327 32 32 32 0-17.673 14.327-32 32-32 0-17.673-14.327-32-32-32-3.281 0-6.447.496-9.427 1.413z" class="F"/><g class="B"><path d="M720 704h-16v16c0-8.837 7.163-16 16-16z"/><path d="M768 704h-48c8.837 0 16 7.163 16 16s-7.163 16-16 16-16-7.163-16-16v48l64-64z"/></g><path d="M521.32 713.306c5.71-5.751 13.577-9.306 22.265-9.306 17.444 0 31.585 14.327 31.585 32a32.1 32.1 0 0 1-9.044 22.407C578.781 764.552 592.987 768 608 768c43.973 0 81.037-29.564 92.407-69.9-2.934 3.601-7.401 5.9-12.407 5.9-6.487 0-12.068-3.862-14.58-9.412C663.692 700.557 652.249 704 640 704c-35.346 0-64-28.654-64-64 0-12.249 3.443-23.693 9.411-33.42-5.549-2.512-9.411-8.093-9.411-14.58 0-5.006 2.3-9.474 5.9-12.407C541.564 590.963 512 628.028 512 672c0 14.789 3.347 28.794 9.32 41.306zM624 704c8.837 0 16 7.163 16 16s-7.163 16-16 16-16-7.163-16-16 7.163-16 16-16zm-64-64c8.837 0 16 7.163 16 16s-7.163 16-16 16-16-7.163-16-16 7.163-16 16-16zm46.58-54.587a63.6 63.6 0 0 1 19.048-7.792A96.59 96.59 0 0 0 608 576c-3.856 0-7.657.234-11.395.676 4.452 1.336 8.083 4.557 9.975 8.737z" class="C"/><g class="D"><path d="M560 576c-8.837 0-16-7.163-16-16s7.163-16 16-16 16 7.163 16 16v-48l-64 64h48z"/><path d="M560 576h16v-16c0 8.837-7.163 16-16 16z"/></g><path d="M704 639.421c35.346 0 64-28.524 64-63.711 0-6.884-1.102-13.511-3.13-19.721C760.186 567.721 748.843 576 735.585 576a31.18 31.18 0 0 1-9.126-1.362c-1.976.874-4.16 1.362-6.459 1.362-8.837 0-16-7.163-16-16 0-2.334.504-4.549 1.402-6.548-.911-2.988-1.402-6.162-1.402-9.452 0-13.031 7.693-24.236 18.726-29.227A64.27 64.27 0 0 0 704 512c-35.346 0-64 28.524-64 63.71s28.654 63.711 64 63.711z" class="E"/><path d="M609.413 649.427C611.922 643.87 617.507 640 624 640c8.837 0 16 7.163 16 16 0 6.493-3.87 12.078-9.427 14.587 2.98.917 6.146 1.413 9.427 1.413 17.673 0 32-14.327 32-32-17.673 0-32-14.327-32-32-17.673 0-32 14.327-32 32a32.01 32.01 0 0 0 1.413 9.427z" class="F"/><g class="B"><path d="M960 560v16h16c-8.837 0-16-7.163-16-16z"/><path d="M960 512v48c0-8.837 7.163-16 16-16s16 7.163 16 16-7.163 16-16 16h48l-64-64z"/></g><path d="M969.306 758.68c-5.751-5.71-9.306-13.577-9.306-22.265 0-17.444 14.327-31.585 32-31.585a32.1 32.1 0 0 1 22.407 9.044c6.145-12.655 9.593-26.861 9.593-41.874 0-43.973-29.564-81.037-69.9-92.407 3.601 2.934 5.9 7.401 5.9 12.407 0 6.487-3.862 12.068-9.412 14.58C956.557 616.308 960 627.751 960 640c0 35.346-28.654 64-64 64-12.249 0-23.693-3.443-33.42-9.411-2.512 5.549-8.093 9.411-14.58 9.411-5.006 0-9.474-2.3-12.407-5.9C846.963 738.436 884.028 768 928 768c14.789 0 28.794-3.347 41.306-9.32zM960 656c0-8.837 7.163-16 16-16s16 7.163 16 16-7.163 16-16 16-16-7.163-16-16zm-64 64c0-8.837 7.163-16 16-16s16 7.163 16 16-7.163 16-16 16-16-7.163-16-16zm-54.587-46.58a63.6 63.6 0 0 1-7.792-19.048A96.59 96.59 0 0 0 832 672c0 3.856.234 7.657.676 11.395 1.336-4.452 4.557-8.083 8.737-9.975z" class="C"/><g class="D"><path d="M832,720c0,8.837-7.163,16-16,16s-16-7.163-16-16s7.163-16,16-16h-48l64,64V720z"/><path d="M832 720v-16h-16c8.837 0 16 7.163 16 16z"/></g><path d="M895.421 576c0-35.346-28.524-64-63.711-64-6.884 0-13.511 1.102-19.721 3.13C823.721 519.814 832 531.157 832 544.415a31.18 31.18 0 0 1-1.362 9.126c.874 1.976 1.362 4.16 1.362 6.459 0 8.837-7.163 16-16 16-2.334 0-4.549-.504-6.548-1.402-2.988.911-6.162 1.402-9.452 1.402-13.031 0-24.236-7.693-29.227-18.726A64.27 64.27 0 0 0 768 576c0 35.346 28.524 64 63.71 64s63.711-28.654 63.711-64z" class="E"/><path d="M905.427 670.587C899.87 668.078 896 662.493 896 656c0-8.837 7.163-16 16-16 6.493 0 12.078 3.87 14.587 9.427.917-2.98 1.413-6.146 1.413-9.427 0-17.673-14.327-32-32-32 0 17.673-14.327 32-32 32 0 17.673 14.327 32 32 32a32.01 32.01 0 0 0 9.427-1.413z" class="F"/></svg>