# Blender v2.79 (sub 0) OBJ File: ''
# www.blender.org
mtllib stepstone.mtl
o stepstone_02.001
v -0.328393 -0.099318 0.001085
v -0.228392 -0.099318 0.001085
v -0.228392 -0.099318 -0.398915
v -0.128392 -0.099318 -0.398915
v -0.228392 -0.099318 -0.198915
v -0.128392 -0.099318 -0.198915
v -0.228392 -0.199318 0.001085
v -0.128392 -0.199318 0.001085
v -0.128392 -0.099318 0.001085
v -0.128392 -0.299318 0.001085
v -0.028392 -0.299318 0.001085
v -0.028392 -0.199318 0.001085
v -0.128392 -0.099318 -0.098915
v 0.071607 -0.099318 -0.098915
v 0.071607 -0.099318 0.001085
v -0.228392 -0.099318 0.201085
v -0.228392 -0.099318 0.301085
v -0.228392 -0.199318 0.201085
v -0.128392 -0.199318 0.201085
v -0.128392 -0.099318 0.201085
v -0.128392 -0.299318 0.101085
v -0.128392 -0.199318 0.101085
v -0.028392 -0.299318 0.101085
v -0.028392 -0.199318 0.101085
v -0.128392 -0.099318 0.101085
v 0.071607 -0.099318 0.101085
v -0.028392 -0.099318 0.201085
v -0.228392 -0.099318 0.401085
v -0.028392 -0.099318 0.401085
v -0.428393 0.000682 -0.098915
v -0.428393 0.000682 0.101085
v -0.428393 0.100682 -0.098915
v -0.428393 0.100682 0.101085
v -0.328393 0.000682 -0.198915
v -0.328393 0.000682 -0.098915
v -0.328393 0.000682 0.001085
v -0.278392 0.000682 0.001085
v -0.328393 0.100682 -0.198915
v -0.328393 0.100682 -0.098915
v -0.328393 0.100682 0.001085
v -0.228392 0.100682 0.001085
v -0.228392 0.000682 -0.398915
v -0.228392 0.000682 -0.298915
v -0.228392 0.100682 -0.198915
v -0.228392 0.100682 -0.298915
v -0.128392 0.100682 -0.198915
v -0.128392 0.000682 -0.398915
v -0.128392 0.000682 -0.360026
v -0.014503 0.000682 -0.398915
v -0.028392 0.000682 -0.298915
v -0.128392 0.000682 -0.298915
v -0.128392 0.000682 -0.198915
v -0.128392 0.100682 -0.398915
v -0.028392 0.100682 -0.298915
v -0.128392 0.100682 -0.298915
v -0.228392 0.000682 -0.198915
v -0.128392 0.000682 -0.098915
v -0.228392 0.000682 0.001085
v -0.128392 0.000682 0.001085
v -0.128392 0.100682 -0.098915
v -0.028392 0.000682 -0.198915
v -0.028392 0.000682 -0.098915
v -0.028392 0.039571 -0.198915
v -0.028392 0.100682 -0.198915
v -0.028392 0.100682 -0.098915
v -0.328393 0.000682 0.028863
v -0.328393 0.000682 0.101085
v -0.278392 0.000682 0.056641
v -0.328393 -0.099318 0.301085
v -0.328393 0.000682 0.301085
v -0.328393 0.100682 0.101085
v -0.228392 0.000682 0.301085
v -0.228392 0.000682 0.201085
v -0.128392 0.000682 0.201085
v -0.228392 0.100682 0.201085
v -0.128392 0.100682 0.201085
v -0.028392 0.000682 0.201085
v -0.228392 0.000682 0.401085
v -0.128392 0.000682 0.401085
v -0.028392 0.000682 0.301085
v -0.028392 0.100682 0.401085
v -0.128392 0.100682 0.401085
v -0.028392 0.100682 0.301085
v 0.071607 -0.099318 -0.198915
v 0.071607 -0.199318 0.001085
v 0.171607 -0.199318 -0.198915
v 0.171607 -0.199318 -0.098915
v 0.171607 -0.099318 -0.198915
v 0.171607 -0.099318 -0.098915
v 0.271608 -0.199318 -0.198915
v 0.271608 -0.199318 -0.098915
v 0.271608 0.000682 -0.098915
v 0.071607 -0.199318 0.101085
v 0.171607 -0.099318 0.101085
v 0.071607 -0.099318 0.201085
v 0.271608 -0.099318 0.101085
v 0.071607 0.000682 -0.298915
v 0.027163 0.100682 -0.398915
v 0.071607 0.100682 -0.298915
v 0.171607 0.000682 -0.398915
v 0.171607 0.000682 -0.298915
v 0.171607 0.100682 -0.398915
v 0.171607 0.100682 -0.298915
v 0.071607 0.000682 -0.198915
v 0.071607 0.000682 -0.098915
v 0.071607 0.100682 -0.198915
v 0.171607 0.100682 0.101085
v 0.271608 0.000682 -0.198915
v 0.171607 -0.071540 0.001085
v 0.171607 0.000682 -0.098915
v 0.271608 0.100682 -0.098915
v 0.371608 0.000682 -0.298915
v 0.271608 0.100682 -0.198915
v 0.371608 0.100682 -0.298915
v 0.371608 0.000682 -0.198915
v 0.371608 0.100682 -0.198915
v 0.271608 0.000682 0.001085
v 0.271608 0.100682 0.001085
v 0.371608 0.000682 -0.098915
v 0.371608 0.000682 0.001085
v 0.371608 0.100682 -0.098915
v 0.371608 0.100682 0.001085
v 0.071607 0.000682 0.201085
v 0.071607 0.100682 0.201085
v 0.171607 0.000682 0.101085
v 0.110497 0.000682 0.201085
v 0.171607 0.000682 0.139974
v 0.171607 0.000682 0.201085
v 0.171607 0.039571 0.201085
v 0.171607 0.100682 0.201085
v 0.071607 -0.099318 0.301085
v 0.071607 0.000682 0.251085
v 0.071607 0.000682 0.301085
v 0.071607 0.100682 0.301085
v 0.171607 0.000682 0.301085
v 0.110497 0.000682 0.251085
v 0.171607 0.000682 0.401085
v 0.171607 0.100682 0.401085
v 0.221608 0.000682 0.101085
v 0.271608 0.000682 0.101085
v 0.271608 0.000682 0.201085
v 0.271608 0.100682 0.101085
v 0.271608 0.100682 0.201085
v 0.271608 -0.099318 0.301085
v 0.271608 0.000682 0.301085
v 0.271608 0.000682 0.401085
v 0.271608 0.100682 0.401085
vt 0.636676 0.566196
vt 0.654842 0.566196
vt 0.654842 0.602347
vt 0.287798 0.093309
vt 0.282053 0.110457
vt 0.264819 0.104741
vt 0.322266 0.104741
vt 0.310776 0.139036
vt 0.293542 0.133320
vt 0.276308 0.127604
vt 0.126251 0.163961
vt 0.151942 0.163961
vt 0.126251 0.189523
vt 0.139096 0.125618
vt 0.151942 0.138399
vt 0.139096 0.151180
vt 0.909169 0.584271
vt 0.927335 0.566196
vt 0.927335 0.584271
vt 0.364183 0.609376
vt 0.346016 0.602347
vt 0.364183 0.602347
vt 0.054499 0.334124
vt 0.072665 0.352200
vt 0.054499 0.352200
vt 0.126251 0.112837
vt 0.126251 0.087275
vt 0.139096 0.100056
vt 0.787523 0.054225
vt 0.794588 0.036150
vt 0.794588 0.054225
vt 0.036332 0.587177
vt 0.054499 0.566591
vt 0.054499 0.587177
vt 0.473180 0.367370
vt 0.473180 0.349294
vt 0.491346 0.349294
vt 0.043397 0.352200
vt 0.151942 0.087275
vt 0.491346 0.258919
vt 0.491346 0.240843
vt 0.509512 0.258919
vt 0.346016 0.728873
vt 0.364183 0.721843
vt 0.364183 0.728873
vt 0.462078 0.765023
vt 0.455014 0.783098
vt 0.455014 0.765023
vt 0.400515 0.258919
vt 0.382349 0.240843
vt 0.400515 0.240843
vt 0.364183 0.258919
vt 0.364183 0.249881
vt 0.782006 0.222768
vt 0.763839 0.240843
vt 0.763839 0.222768
vt 0.854671 0.439670
vt 0.845587 0.421595
vt 0.854671 0.421595
vt 0.355099 0.411553
vt 0.346016 0.416574
vt 0.346016 0.403520
vt 0.503928 0.036150
vt 0.522094 0.036150
vt 0.503928 0.090376
vt 0.113405 0.176742
vt 0.127164 0.858304
vt 0.145330 0.840229
vt 0.145330 0.858304
vt 0.036332 0.460651
vt 0.054499 0.442575
vt 0.072665 0.460651
vt 0.049178 0.189523
vt 0.049178 0.163961
vt 0.074869 0.163961
vt 0.127164 0.532951
vt 0.145330 0.532951
vt 0.127164 0.569102
vt 0.872837 0.222768
vt 0.854670 0.240844
vt 0.854670 0.222768
vt 0.242773 0.393979
vt 0.260939 0.375903
vt 0.260939 0.393979
vt 0.145330 0.569102
vt 0.273351 0.295519
vt 0.257103 0.303603
vt 0.248979 0.287436
vt 0.473180 0.493896
vt 0.473180 0.475821
vt 0.491346 0.493896
vt 0.691174 0.240843
vt 0.691174 0.258919
vt 0.673008 0.258919
vt 0.382349 0.493896
vt 0.364183 0.511971
vt 0.364183 0.493896
vt 0.282053 0.053298
vt 0.276308 0.070446
vt 0.259074 0.064730
vt 0.293542 0.076161
vt 0.310776 0.081877
vt 0.036332 0.297974
vt 0.054499 0.316049
vt 0.036332 0.331614
vt 0.100560 0.061712
vt 0.113405 0.074494
vt 0.100560 0.087275
vt 0.054499 0.261824
vt 0.072665 0.279899
vt 0.054499 0.297974
vt 0.062023 0.048931
vt 0.074869 0.036150
vt 0.074869 0.061712
vt 0.257103 0.263186
vt 0.240855 0.271269
vt 0.232731 0.255102
vt 0.248979 0.247019
vt 0.582177 0.349295
vt 0.564011 0.385445
vt 0.564011 0.349295
vt 0.491346 0.457745
vt 0.242773 0.484354
vt 0.242773 0.502429
vt 0.224606 0.484354
vt 0.145330 0.749853
vt 0.145330 0.767928
vt 0.134228 0.749853
vt 0.127164 0.767928
vt 0.127164 0.760899
vt 0.127164 0.930605
vt 0.145330 0.948680
vt 0.127164 0.948680
vt 0.224606 0.592805
vt 0.242773 0.592805
vt 0.224606 0.610880
vt 0.854671 0.331219
vt 0.836504 0.349295
vt 0.836504 0.331219
vt 0.036333 0.100056
vt 0.049178 0.087275
vt 0.049178 0.112837
vt 0.727507 0.746948
vt 0.736590 0.765023
vt 0.727507 0.765023
vt 0.413097 0.054225
vt 0.394931 0.036150
vt 0.413097 0.036150
vt 0.431263 0.090376
vt 0.413097 0.072301
vt 0.431263 0.054225
vt 0.745673 0.439670
vt 0.763839 0.428625
vt 0.763839 0.439670
vt 0.745673 0.349295
vt 0.745673 0.331219
vt 0.756775 0.349295
vt 0.231671 0.628956
vt 0.224606 0.628956
vt 0.727507 0.945774
vt 0.745673 0.927699
vt 0.745673 0.945774
vt 0.938437 0.439670
vt 0.945502 0.421595
vt 0.945502 0.439670
vt 0.491346 0.385445
vt 0.394931 0.072301
vt 0.636676 0.602347
vt 0.232731 0.295520
vt 0.224606 0.279353
vt 0.247585 0.099025
vt 0.230351 0.093309
vt 0.241840 0.059014
vt 0.054499 0.695628
vt 0.036332 0.695628
vt 0.036332 0.659477
vt 0.054499 0.659477
vt 0.673008 0.331219
vt 0.673008 0.367370
vt 0.654842 0.367370
vt 0.654842 0.349295
vt 0.927335 0.927699
vt 0.927335 0.945774
vt 0.909169 0.945774
vt 0.909169 0.927699
vt 0.654842 0.331219
vt 0.654842 0.765023
vt 0.654842 0.783098
vt 0.636676 0.783098
vt 0.636676 0.765023
vt 0.636676 0.855399
vt 0.654842 0.855399
vt 0.654842 0.873474
vt 0.636676 0.873474
vt 0.473180 0.855399
vt 0.473180 0.873474
vt 0.455014 0.873474
vt 0.455014 0.855399
vt 0.346016 0.530046
vt 0.346016 0.511971
vt 0.364183 0.530046
vt 0.382349 0.530046
vt 0.927335 0.331219
vt 0.945501 0.331219
vt 0.945501 0.349295
vt 0.927335 0.349295
vt 0.287798 0.150468
vt 0.236096 0.133320
vt 0.241840 0.116172
vt 0.145330 0.677552
vt 0.127164 0.677552
vt 0.127164 0.641402
vt 0.145330 0.641402
vt 0.240855 0.230852
vt 0.257103 0.222768
vt 0.261165 0.230852
vt 0.364183 0.240843
vt 0.346016 0.222768
vt 0.382349 0.222768
vt 0.867252 0.126526
vt 0.885419 0.144601
vt 0.867252 0.144601
vt 0.782006 0.240843
vt 0.113405 0.151180
vt 0.836504 0.656572
vt 0.836504 0.674647
vt 0.818338 0.674647
vt 0.818338 0.656572
vt 0.836504 0.421595
vt 0.836504 0.439670
vt 0.151942 0.112837
vt 0.885419 0.126526
vt 0.455014 0.385445
vt 0.455014 0.367370
vt 0.036332 0.352200
vt 0.346016 0.638497
vt 0.364183 0.620422
vt 0.364183 0.638497
vt 0.654842 0.685693
vt 0.654842 0.692722
vt 0.636676 0.692722
vt 0.909169 0.566196
vt 0.776421 0.054225
vt 0.776421 0.036150
vt 0.636676 0.674647
vt 0.654842 0.674647
vt 0.564011 0.783098
vt 0.545845 0.783098
vt 0.545845 0.765023
vt 0.564011 0.765023
vt 0.400515 0.276994
vt 0.382349 0.276994
vt 0.927335 0.656572
vt 0.927335 0.674647
vt 0.909169 0.674647
vt 0.909169 0.656572
vt 0.364183 0.276994
vt 0.273351 0.255102
vt 0.265227 0.238935
vt 0.473180 0.945775
vt 0.473180 0.963850
vt 0.455014 0.963850
vt 0.455014 0.945775
vt 0.113405 0.125618
vt 0.364183 0.710798
vt 0.346016 0.710798
vt 0.727507 0.837324
vt 0.745673 0.837324
vt 0.727507 0.855399
vt 0.473180 0.765023
vt 0.473180 0.783098
vt 0.473180 0.258919
vt 0.473180 0.240843
vt 0.054499 0.786003
vt 0.036332 0.786003
vt 0.036332 0.767928
vt 0.047434 0.767928
vt 0.745673 0.855399
vt 0.473180 0.385445
vt 0.072665 0.334124
vt 0.789541 0.126526
vt 0.794588 0.144601
vt 0.776421 0.144601
vt 0.776421 0.126526
vt 0.113405 0.100056
vt 0.054499 0.767928
vt 0.522094 0.072301
vt 0.522094 0.085355
vt 0.359136 0.240843
vt 0.346016 0.240843
vt 0.127164 0.840229
vt 0.346016 0.367370
vt 0.364183 0.385445
vt 0.727507 0.674647
vt 0.727507 0.656572
vt 0.745673 0.656572
vt 0.745673 0.674647
vt 0.872837 0.240844
vt 0.364183 0.891549
vt 0.364183 0.909624
vt 0.346016 0.909624
vt 0.346016 0.891549
vt 0.087714 0.176742
vt 0.382349 0.349294
vt 0.364183 0.367370
vt 0.364183 0.349294
vt 0.054499 0.424500
vt 0.072665 0.424500
vt 0.224606 0.412054
vt 0.224606 0.375903
vt 0.036332 0.442575
vt 0.382349 0.385445
vt 0.927335 0.837324
vt 0.927335 0.855399
vt 0.909169 0.855399
vt 0.909169 0.837324
vt 0.242773 0.412054
vt 0.036332 0.176742
vt 0.049178 0.138399
vt 0.224606 0.053298
vt 0.230351 0.036150
vt 0.247585 0.041866
vt 0.703756 0.036150
vt 0.703756 0.054225
vt 0.685590 0.054225
vt 0.685590 0.036150
vt 0.582177 0.385445
vt 0.927335 0.746948
vt 0.927335 0.765023
vt 0.909169 0.765023
vt 0.909169 0.746948
vt 0.963668 0.222768
vt 0.963668 0.240843
vt 0.945501 0.240843
vt 0.945501 0.222768
vt 0.818338 0.855399
vt 0.818338 0.837324
vt 0.836504 0.837324
vt 0.836504 0.855399
vt 0.322266 0.047582
vt 0.287798 0.036150
vt 0.564011 0.945775
vt 0.564011 0.963850
vt 0.545845 0.963850
vt 0.545845 0.945775
vt 0.703756 0.126526
vt 0.703756 0.144601
vt 0.685590 0.144601
vt 0.685590 0.126526
vt 0.113405 0.048931
vt 0.131960 0.067393
vt 0.036332 0.559060
vt 0.036332 0.532951
vt 0.054499 0.532951
vt 0.564011 0.855399
vt 0.564011 0.873474
vt 0.545845 0.873474
vt 0.545845 0.855399
vt 0.455014 0.475821
vt 0.455014 0.457745
vt 0.727507 0.927699
vt 0.491346 0.222768
vt 0.509512 0.222768
vt 0.745673 0.584271
vt 0.727507 0.584271
vt 0.727507 0.566196
vt 0.745673 0.566196
vt 0.654842 0.475821
vt 0.667962 0.457745
vt 0.673008 0.475821
vt 0.062023 0.074494
vt 0.100560 0.112837
vt 0.564011 0.566196
vt 0.564011 0.602347
vt 0.545845 0.602347
vt 0.545845 0.566196
vt 0.072665 0.261824
vt 0.673008 0.222768
vt 0.691174 0.222768
vt 0.564011 0.331219
vt 0.582177 0.331219
vt 0.582177 0.475820
vt 0.582177 0.493896
vt 0.564011 0.493896
vt 0.564011 0.475820
vt 0.260939 0.484354
vt 0.260939 0.502429
vt 0.224606 0.900083
vt 0.224606 0.882008
vt 0.242773 0.882008
vt 0.242773 0.900083
vt 0.036333 0.074493
vt 0.049178 0.061712
vt 0.836504 0.566196
vt 0.836504 0.584271
vt 0.818338 0.584271
vt 0.818338 0.566196
vt 0.036332 0.876379
vt 0.036332 0.858304
vt 0.054499 0.858304
vt 0.054499 0.876379
vt 0.072665 0.316049
vt 0.636676 0.963850
vt 0.636676 0.945775
vt 0.654842 0.945775
vt 0.654842 0.963850
vt 0.654842 0.439670
vt 0.673008 0.439670
vt 0.357118 0.801174
vt 0.364183 0.819249
vt 0.346016 0.808203
vt 0.346016 0.801174
vt 0.346016 0.819249
vt 0.036333 0.125618
vt 0.127164 0.749853
vt 0.836504 0.927699
vt 0.836504 0.945775
vt 0.818338 0.936737
vt 0.818338 0.927699
vt 0.364183 0.801174
vt 0.224606 0.719331
vt 0.224606 0.701256
vt 0.233690 0.701256
vt 0.554928 0.692722
vt 0.545845 0.692722
vt 0.545845 0.674647
vt 0.554928 0.685693
vt 0.036333 0.151180
vt 0.145330 0.930605
vt 0.224606 0.520505
vt 0.233690 0.520505
vt 0.594759 0.054225
vt 0.594759 0.036150
vt 0.612925 0.036150
vt 0.473180 0.692722
vt 0.455014 0.692722
vt 0.455014 0.683685
vt 0.242773 0.520505
vt 0.827421 0.765023
vt 0.818338 0.765023
vt 0.818338 0.746948
vt 0.854671 0.349295
vt 0.745673 0.421595
vt 0.754756 0.421595
vt 0.612925 0.072301
vt 0.594759 0.072301
vt 0.885419 0.054225
vt 0.867252 0.054225
vt 0.867252 0.036150
vt 0.413097 0.090376
vt 0.836504 0.746948
vt 0.836504 0.765023
vt 0.763839 0.421595
vt 0.745673 0.765023
vt 0.745673 0.746948
vt 0.763839 0.331219
vt 0.763839 0.349295
vt 0.242773 0.809707
vt 0.224606 0.809707
vt 0.224606 0.791632
vt 0.242773 0.791632
vt 0.242773 0.701256
vt 0.242773 0.719331
vt 0.885419 0.036150
vt 0.564011 0.685693
vt 0.564011 0.674647
vt 0.818338 0.945775
vt 0.242773 0.628956
vt 0.455014 0.674647
vt 0.473180 0.674647
vt 0.564011 0.692722
vt 0.582177 0.258919
vt 0.582177 0.222768
vt 0.600343 0.222768
vt 0.600343 0.258919
vt 0.927335 0.439670
vt 0.927335 0.421595
vt 0.346016 0.421595
vt 0.355099 0.421595
vt 0.522094 0.090376
vt 0.473180 0.602347
vt 0.455014 0.602347
vt 0.455014 0.566196
vt 0.473180 0.566196
vt 0.794587 0.126526
vt 0.364183 0.421595
vn 0.0000 -1.0000 -0.0000
vn 0.0000 1.0000 0.0000
vn 0.0000 0.0000 -1.0000
vn 1.0000 0.0000 0.0000
vn -1.0000 -0.0000 0.0000
vn 0.0000 -0.0000 1.0000
usemtl palette
s off
f 6/1/1 5/2/1 3/3/1
f 27/4/1 20/5/1 25/6/1
f 29/7/1 28/8/1 17/9/1
f 20/5/1 17/9/1 16/10/1
f 40/11/2 32/12/2 33/13/2
f 44/14/2 38/15/2 39/16/2
f 40/11/2 39/16/2 32/12/2
f 42/17/3 4/18/3 3/19/3
f 48/20/4 4/21/4 47/22/4
f 50/23/1 52/24/1 51/25/1
f 46/26/2 54/27/2 55/28/2
f 48/29/5 53/30/5 47/31/5
f 53/32/3 49/33/3 47/34/3
f 43/35/5 42/36/5 3/37/5
f 50/23/1 51/25/1 48/38/1
f 55/28/2 54/27/2 53/39/2
f 57/40/3 62/41/3 13/42/3
f 62/43/5 63/44/5 61/45/5
f 63/46/6 52/47/6 61/48/6
f 56/49/1 35/50/1 34/51/1
f 35/50/1 58/52/1 37/53/1
f 34/54/3 44/55/3 56/56/3
f 41/57/6 37/58/6 58/59/6
f 68/60/2 66/61/2 67/62/2
f 69/63/5 70/64/5 1/65/5
f 71/66/2 40/11/2 33/13/2
f 71/67/6 31/68/6 67/69/6
f 81/70/6 79/71/6 29/72/6
f 82/73/2 83/74/2 76/75/2
f 79/76/5 82/77/5 74/78/5
f 72/79/6 69/80/6 17/81/6
f 80/82/4 27/83/4 77/84/4
f 82/77/5 76/85/5 74/78/5
f 15/86/3 85/87/3 12/88/3
f 86/89/3 88/90/3 90/91/3
f 89/92/6 87/93/6 91/94/6
f 26/95/6 24/96/6 93/97/6
f 94/98/1 26/99/1 15/100/1
f 94/98/1 95/101/1 26/99/1
f 94/98/1 131/102/1 95/101/1
f 100/103/1 97/104/1 49/105/1
f 103/106/2 99/107/2 106/108/2
f 112/109/1 108/110/1 101/111/1
f 116/112/2 114/113/2 113/114/2
f 9/115/3 8/116/3 7/117/3 2/118/3
f 92/119/4 90/120/4 108/121/4
f 108/122/3 90/91/3 88/90/3
f 92/123/1 117/124/1 110/125/1
f 130/126/6 124/127/6 129/128/6
f 124/127/6 123/129/6 126/130/6
f 134/131/6 80/132/6 133/133/6
f 137/134/5 138/135/5 135/136/5
f 142/137/4 117/138/4 118/139/4
f 142/140/2 118/141/2 107/142/2
f 142/143/6 139/144/6 140/145/6
f 141/146/4 96/147/4 140/148/4
f 147/149/4 145/150/4 143/151/4
f 141/152/2 127/153/2 128/154/2
f 130/155/3 143/156/3 129/157/3
f 135/136/5 129/158/5 128/159/5
f 104/160/1 62/161/1 61/162/1
f 63/163/3 104/164/3 61/165/3
f 5/166/5 43/35/5 3/37/5
f 144/167/4 96/147/4 141/146/4
f 4/168/1 6/1/1 3/3/1
f 11/169/3 10/170/3 8/116/3 12/88/3
f 9/171/1 13/172/1 14/173/1 15/100/1
f 15/86/3 12/88/3 8/116/3 9/115/3
f 2/174/5 7/175/5 18/176/5 16/177/5
f 18/178/1 7/179/1 8/180/1 22/181/1
f 18/182/6 19/183/6 20/184/6 16/185/6
f 22/181/1 19/186/1 18/178/1
f 8/187/5 10/188/5 21/189/5 22/190/5
f 11/191/4 12/192/4 24/193/4 23/194/4
f 21/195/1 10/196/1 11/197/1 23/198/1
f 21/199/6 23/200/6 24/96/6 22/201/6
f 22/201/6 24/96/6 26/95/6 25/202/6
f 22/203/4 25/204/4 20/205/4 19/206/4
f 17/9/1 20/5/1 27/4/1 29/7/1
f 26/99/1 27/4/1 25/6/1
f 69/207/1 1/208/1 16/10/1 17/9/1
f 2/209/1 16/10/1 1/208/1
f 32/210/5 30/211/5 31/212/5 33/213/5
f 2/118/3 1/214/3 36/215/3 37/216/3
f 35/50/1 37/53/1 36/217/1
f 31/218/1 30/219/1 35/50/1 36/217/1
f 34/220/5 39/221/5 38/222/5
f 38/223/3 44/55/3 34/54/3
f 40/11/2 41/224/2 39/16/2
f 35/225/3 30/226/3 32/227/3 39/228/3
f 36/229/6 37/58/6 41/57/6 40/230/6
f 45/231/2 44/14/2 46/26/2 55/28/2
f 34/220/5 35/232/5 39/221/5
f 43/35/5 44/233/5 45/234/5
f 48/38/1 47/235/1 49/105/1 50/23/1
f 6/236/4 4/21/4 48/20/4 51/237/4
f 51/237/4 52/238/4 6/236/4
f 48/239/2 47/240/2 42/241/2
f 42/17/3 47/242/3 4/18/3
f 53/30/5 48/29/5 51/243/5 55/244/5
f 42/241/2 43/245/2 51/246/2 48/239/2
f 51/247/3 43/248/3 45/249/3 55/250/3
f 35/50/1 56/49/1 52/251/1 57/252/1
f 5/253/6 6/254/6 52/255/6 56/256/6
f 59/257/1 58/52/1 35/50/1 57/252/1
f 59/258/3 9/115/3 2/118/3 58/259/3
f 57/260/5 13/261/5 9/262/5 59/263/5
f 44/14/2 60/264/2 46/26/2
f 41/224/2 60/264/2 44/14/2
f 64/265/5 63/44/5 62/43/5 65/266/5
f 46/267/4 60/268/4 52/269/4
f 52/47/6 63/46/6 64/270/6 46/271/6
f 62/41/3 57/40/3 60/272/3 65/273/3
f 50/274/4 54/275/4 64/276/4 63/277/4
f 60/268/4 57/278/4 52/269/4
f 2/118/3 37/216/3 58/259/3
f 41/224/2 44/14/2 39/16/2
f 5/166/5 56/279/5 43/35/5
f 43/35/5 56/279/5 44/233/5
f 50/23/1 61/280/1 52/24/1
f 66/281/4 40/282/4 71/283/4 67/284/4
f 64/285/2 54/27/2 46/26/2
f 63/277/4 61/286/4 50/274/4
f 1/65/5 67/287/5 66/288/5
f 66/289/1 67/290/1 31/218/1
f 71/67/6 33/291/6 31/68/6
f 67/62/2 70/292/2 73/293/2 68/60/2
f 1/65/5 70/64/5 67/287/5
f 73/294/6 74/295/6 76/296/6 75/297/6
f 72/79/6 70/298/6 69/80/6
f 72/299/5 17/300/5 28/301/5 78/302/5
f 76/75/2 41/224/2 75/303/2
f 79/304/2 72/305/2 78/306/2
f 79/71/6 78/307/6 28/308/6
f 81/309/4 29/310/4 80/82/4
f 81/70/6 82/311/6 79/71/6
f 79/304/2 74/312/2 72/305/2
f 88/313/5 86/314/5 87/315/5 89/316/5
f 83/317/4 81/309/4 80/82/4
f 81/318/2 83/74/2 82/73/2
f 72/305/2 73/293/2 70/292/2
f 73/293/2 72/305/2 74/312/2
f 83/74/2 124/319/2 76/75/2
f 14/173/1 84/320/1 88/321/1 89/322/1
f 94/98/1 15/100/1 14/173/1 89/322/1
f 87/323/1 86/324/1 90/325/1 91/326/1
f 92/119/4 91/327/4 90/120/4
f 85/328/4 15/329/4 26/330/4 93/331/4
f 24/332/1 12/333/1 85/334/1 93/335/1
f 99/336/5 97/337/5 104/338/5 106/339/5
f 26/99/1 95/101/1 27/4/1
f 94/98/1 144/340/1 131/102/1
f 96/341/1 144/340/1 94/98/1
f 50/342/6 97/343/6 99/344/6 54/345/6
f 100/346/4 102/347/4 103/348/4 101/349/4
f 99/107/2 102/350/2 98/351/2
f 98/352/3 102/353/3 100/354/3
f 100/103/1 101/111/1 97/104/1
f 104/355/5 84/356/5 14/357/5 105/358/5
f 99/107/2 103/106/2 102/350/2
f 88/90/3 84/359/3 104/360/3 108/122/3
f 104/160/1 105/361/1 62/161/1
f 62/41/3 105/362/3 14/363/3
f 112/364/4 114/365/4 116/366/4 115/367/4
f 110/368/4 109/369/4 89/370/4
f 111/371/2 103/106/2 106/108/2
f 107/142/2 106/108/2 65/372/2
f 107/142/2 111/371/2 106/108/2
f 112/373/3 101/374/3 103/375/3 114/376/3
f 112/109/1 115/377/1 108/110/1
f 113/114/2 114/113/2 103/106/2
f 89/92/6 91/94/6 92/378/6 110/379/6
f 92/119/4 108/121/4 113/380/4 111/381/4
f 119/382/4 121/383/4 122/384/4 120/385/4
f 117/124/1 92/123/1 119/386/1 120/387/1
f 113/388/6 108/389/6 115/390/6 116/391/6
f 111/371/2 118/141/2 122/392/2 121/393/2
f 119/394/3 92/395/3 111/396/3 121/397/3
f 118/398/6 117/399/6 120/400/6 122/401/6
f 104/402/1 97/104/1 101/111/1 108/110/1
f 111/371/2 113/114/2 103/106/2
f 118/141/2 111/371/2 107/142/2
f 27/403/6 95/404/6 123/405/6 77/406/6
f 109/369/4 110/368/4 125/407/4 94/408/4
f 127/409/4 107/410/4 129/411/4 128/412/4
f 130/413/4 129/411/4 107/410/4
f 130/414/2 107/142/2 124/319/2
f 126/130/6 128/415/6 129/128/6 124/127/6
f 80/416/1 77/417/1 132/418/1 133/419/1
f 107/410/4 127/409/4 125/420/4
f 131/421/5 133/422/5 132/423/5
f 132/424/2 133/425/2 135/426/2 136/427/2
f 134/428/2 124/319/2 83/74/2
f 134/131/6 83/429/6 80/132/6
f 125/430/1 110/125/1 117/124/1 139/431/1
f 135/432/6 133/433/6 131/434/6
f 134/435/4 133/436/4 132/437/4
f 117/124/1 140/438/1 139/431/1
f 139/439/3 140/440/3 96/441/3
f 142/137/4 140/442/4 117/138/4
f 141/152/2 140/443/2 139/444/2
f 144/445/6 145/446/6 135/432/6
f 135/447/1 145/448/1 146/449/1
f 147/149/4 146/450/4 145/150/4
f 96/441/3 94/451/3 125/452/3 139/439/3
f 125/453/2 127/153/2 141/152/2 139/444/2
f 125/454/6 139/144/6 142/143/6 107/455/6
f 141/456/3 128/457/3 129/157/3 143/156/3
f 137/458/6 146/459/6 147/460/6 138/461/6
f 123/462/5 95/463/5 131/421/5 132/423/5
f 135/447/1 146/449/1 137/464/1
f 126/465/2 136/427/2 135/426/2 128/466/2
f 123/467/1 132/418/1 77/417/1
f 130/468/5 129/158/5 135/136/5 138/135/5
f 123/469/4 124/470/4 134/435/4 132/437/4
f 123/471/2 132/424/2 136/427/2 126/465/2
f 130/472/2 138/473/2 147/474/2 143/475/2
f 145/150/4 144/167/4 141/146/4
f 143/151/4 145/150/4 141/146/4
f 53/39/2 54/27/2 99/107/2 98/351/2
f 49/105/1 97/104/1 50/23/1
f 104/164/3 63/163/3 64/476/3 106/477/3
f 53/32/3 98/352/3 100/354/3
f 53/32/3 100/354/3 49/33/3
f 65/372/2 106/108/2 64/285/2
f 41/224/2 76/75/2 124/319/2 107/142/2
f 36/478/2 66/61/2 68/60/2 37/479/2
f 13/42/3 62/41/3 14/363/3
f 109/369/4 94/408/4 89/370/4
f 80/82/4 29/310/4 27/83/4
f 29/72/6 79/71/6 28/308/6
f 144/445/6 135/432/6 131/434/6
f 1/65/5 66/288/5 36/480/5
f 41/481/5 58/482/5 73/483/5 75/484/5
f 40/282/4 66/281/4 36/485/4
f 36/217/1 66/289/1 31/218/1
f 37/479/2 68/60/2 73/293/2 58/486/2
f 60/264/2 41/224/2 107/142/2 65/372/2
