<svg xmlns="http://www.w3.org/2000/svg" width="512" height="512" xmlns:v="https://vecta.io/nano"><path fill="#bebebe" d="M0 0h256v512H0z"/><path fill="#6e6e6e" d="M256 64V0l-64 64z"/><path fill="#323232" d="M.898 64.022C35.829 64.505 64 92.955 64 128V64.022H.898z"/><path fill="#505050" d="M192 64c0 35.346-28.654 64-64 64h64v63.977h-.9l.9.023c35.346 0 64-28.654 64-64s-28.654-64-64-64z"/><path fill="#6e6e6e" d="M256 448h-64l64 64z"/><path fill="#969696" d="M64 64V0l64 64z"/><path fill="#fff" d="M64 128v64l64-64z"/><path fill="#505050" d="M0 192h64v64H0z"/><path fill="#6e6e6e" d="M0 448h64v64H0z"/><circle fill="#fff" cx="96" cy="416" r="32"/><path fill="#828282" d="M256 209.128C237.172 198.237 215.315 192 192 192c-70.692 0-128 57.308-128 128 0 13.127 1.98 25.791 5.651 37.714C79.682 335.482 102.026 320 128 320c35.346 0 64 28.653 64 64 0 25.975-15.482 48.317-37.714 58.35C166.209 446.021 178.873 448 192 448c23.315 0 45.172-6.236 64-17.128V209.128zM160 320c-17.673 0-32-14.327-32-32s14.327-32 32-32 32 14.327 32 32-14.327 32-32 32z"/><path fill="#fff" d="M256 0h256v512H256z"/><path fill="#bebebe" d="M256 448v64l64-64z"/><path fill="#505050" d="M511.102 447.978C476.172 447.494 448 419.045 448 384v63.978h63.102z"/><path fill="#6e6e6e" d="M320 448c0-35.347 28.653-64 64-64h-64v-63.978h.9c-.3-.003-.598-.022-.9-.022-35.347 0-64 28.653-64 64s28.653 64 64 64z"/><path fill="#bebebe" d="M256 64h64L256 0z"/><path fill="#969696" d="M448 448v64l-64-64z"/><path fill="#bebebe" d="M448 384v-64l-64 64z"/><path fill="#828282" d="M448 256h64v64h-64z"/><path fill="#6e6e6e" d="M448 0h64v64h-64z"/><circle fill="#505050" cx="416" cy="96" r="32"/><path fill="#969696" d="M256 302.872C274.827 313.764 296.685 320 320 320c70.692 0 128-57.308 128-128 0-13.127-1.979-25.791-5.65-37.714C432.317 176.518 409.975 192 384 192c-35.347 0-64-28.654-64-64 0-25.974 15.482-48.318 37.714-58.349C345.791 65.98 333.127 64 320 64c-23.315 0-45.173 6.237-64 17.128v221.744zM352 192c17.673 0 32 14.327 32 32s-14.327 32-32 32-32-14.327-32-32 14.327-32 32-32z"/></svg>