<svg xmlns="http://www.w3.org/2000/svg" width="256" height="512" xmlns:v="https://vecta.io/nano"><path fill="#c2ca9a" d="M0 0h256v512H0z"/><g fill="#59bfc7"><path d="M256 64V0l-64 64zM.898 64.022C35.829 64.505 64 92.955 64 128V64.022H.898z"/><path d="M192 64c0 35.346-28.653 64-64 64h64v63.977h-.9l.9.023c35.347 0 64-28.654 64-64s-28.653-64-64-64zm64 384h-64l64 64zM64 64V0l64 64z"/><path d="M64 128v64l64-64z"/><path d="M0 192h64v64H0zm0 256h64v64H0z"/><circle cx="96" cy="416" r="32"/><path d="M256 209.128C237.173 198.237 215.315 192 192 192c-70.692 0-128 57.308-128 128 0 13.127 1.98 25.791 5.651 37.714C79.682 335.482 102.026 320 128 320c35.347 0 64 28.653 64 64 0 25.975-15.482 48.317-37.714 58.35C166.209 446.021 178.873 448 192 448c23.315 0 45.173-6.236 64-17.128V209.128zM160 320c-17.673 0-32-14.327-32-32s14.327-32 32-32 32 14.327 32 32-14.327 32-32 32z"/></g></svg>