<svg xmlns="http://www.w3.org/2000/svg" width="256" height="512" xmlns:v="https://vecta.io/nano"><path fill="#fac9a9" d="M0 0h256v512H0z"/><g fill="#59bfc7"><path d="M0 448v64l64-64zm255.102-.022C220.172 447.494 192 419.045 192 384v63.978h63.102z"/><path d="M64 448c0-35.347 28.654-64 64-64H64v-63.978h.9c-.3-.003-.598-.022-.9-.022-35.346 0-64 28.653-64 64s28.654 64 64 64zM0 64h64L0 0zm192 384v64l-64-64z"/><path d="M192 384v-64l-64 64z"/><path d="M192 256h64v64h-64zm0-256h64v64h-64z"/><circle cx="160" cy="96" r="32"/><path d="M0 302.872C18.828 313.764 40.685 320 64 320c70.692 0 128-57.308 128-128 0-13.127-1.979-25.791-5.65-37.714C176.317 176.518 153.975 192 128 192c-35.346 0-64-28.654-64-64 0-25.974 15.482-48.318 37.714-58.349C89.791 65.98 77.127 64 64 64c-23.315 0-45.172 6.237-64 17.128v221.744zM96 192c17.673 0 32 14.327 32 32s-14.327 32-32 32-32-14.327-32-32 14.327-32 32-32z"/></g></svg>