<svg xmlns="http://www.w3.org/2000/svg" width="512" height="512" xmlns:v="https://vecta.io/nano"><path fill="#fff" d="M0 0h512v512H0z"/><path d="M128 224c0-17.673-14.301-32-31.943-32a31.75 31.75 0 0 0-13.153 2.841C76.928 192.996 70.581 192 64 192c-35.346 0-64 28.654-64 64s28.654 64 64 64 64-28.654 64-64a63.97 63.97 0 0 0-2.825-18.847A31.92 31.92 0 0 0 128 224zm128 160l18.745 18.745C263.163 414.327 256 430.327 256 448c0 35.346 28.653 64 64 64 17.673 0 33.673-7.163 45.255-18.745L384 512V384H256z" fill="#969696"/><path fill="#323232" d="M128 64V0h64z"/><path fill="#787878" d="M512 448h-64v-64z"/><path fill="#bebebe" d="M384 448h64v64z"/><path d="M0 448h64v64zm0-320V64h64z" fill="#6e6e6e"/><path d="M0 128h64v64H0zm320-64c-70.692 0-128 57.308-128 128 0 24.486 6.88 47.364 18.806 66.813C204.859 256.987 198.545 256 192 256c-35.346 0-64 28.653-64 64v64h64c35.346 0 64-28.654 64-64 0-6.545-.987-12.859-2.813-18.806C272.636 313.12 295.514 320 320 320c70.692 0 128-57.308 128-128S390.692 64 320 64z" fill="#bebebe"/><path fill="#969696" d="M64 384l9.373 9.373C67.582 399.163 64 407.163 64 416c0 17.673 14.327 32 32 32 8.836 0 16.836-3.582 22.627-9.373L128 448v-64H64z"/><g fill="#6e6e6e"><circle cx="448" cy="64" r="64"/><path d="M512 384H384V256z"/></g><path fill="#969696" d="M256 128H128L256 0z"/></svg>