<svg xmlns="http://www.w3.org/2000/svg" width="512" height="512" xmlns:v="https://vecta.io/nano"><path fill="#fff" d="M0 0h512v512H0z"/><path d="M64 64H0L64 0zM0 512v-64l64 64z" fill="#505050"/><path fill="#323232" d="M512 512v-64l-64 64z"/><path fill="#828282" d="M0 256.022h64V320H0z"/><path fill="#969696" d="M192 448h64v63.978h-64z"/><g fill="#bebebe"><path d="M320 0C213.961 0 128 85.961 128 192c0 29.641 6.722 57.711 18.716 82.775C135.152 286.354 128 302.342 128 320c0 6.563.992 12.894 2.827 18.854A31.86 31.86 0 0 0 128 352c0 17.673 14.327 32 32 32a31.88 31.88 0 0 0 13.146-2.827C179.107 383.008 185.438 384 192 384c17.658 0 33.645-7.152 45.225-18.717C262.289 377.278 290.358 384 320 384c106.039 0 192-85.961 192-192S426.039 0 320 0z"/><circle cx="96" cy="416" r="32"/></g><path fill="#828282" d="M448 320L320 448h128z"/><path fill="#969696" d="M320 192L192 320h128z"/><path fill="#6e6e6e" d="M512 0v174.875C493.173 185.767 471.314 192 448 192c-70.692 0-128-57.308-128-128 0-23.314 6.233-45.173 17.124-64H512z"/><path fill="#828282" d="M128.147 0L0 128.443V192l192 .591V0z"/></svg>