<svg xmlns="http://www.w3.org/2000/svg" width="512" height="512" xmlns:v="https://vecta.io/nano"><path fill="#fff" d="M0 0h512v512H0z"/><circle fill="#969696" cx="64" cy="64" r="64"/><circle fill="#323232" cx="192" cy="320" r="64"/><circle fill="#505050" cx="448" cy="448" r="64"/><path fill="#6e6e6e" d="M384 128H255.341V0z"/><path fill="#505050" d="M256.33 512H127.67V384z"/><path fill="#969696" d="M384 256H255.341V128z"/><path fill="#6e6e6e" d="M128.659 256H0V128z"/><path fill="#969696" d="M255.341 384H384v128z"/><path fill="#6e6e6e" d="M383.341 256H512V128z"/><path fill="#828282" d="M128 128h128v128H128z"/><path fill="#bebebe" d="M256 256h128v128H256z"/><path d="M512 128L384 0h128zM128 384L0 256h128z" fill="#969696"/><path fill="#bebebe" d="M0 384l128 128H0z"/></svg>