<svg xmlns="http://www.w3.org/2000/svg" width="512" height="512" xmlns:v="https://vecta.io/nano"><path fill="#fff" d="M0 0h512v512H0z"/><g fill="#6e6e6e"><path d="M96 128h32V96c0 17.673-14.327 32-32 32z"/><path d="M0 128h96c-17.673 0-32-14.327-32-32s14.327-32 32-32 32 14.327 32 32V0L0 128z"/></g><path d="M493.36 109.388C481.939 120.89 466.205 128 448.829 128c-34.888 0-63.17-28.654-63.17-64 0-17.455 6.905-33.269 18.088-44.815C378.438 6.897 350.025 0 320 0c-87.944 0-162.075 59.129-184.814 139.8 5.868-7.199 14.803-11.8 24.814-11.8 12.974 0 24.136 7.726 29.159 18.823C208.614 134.887 231.502 128 256 128c70.692 0 128 57.308 128 128 0 24.498-6.887 47.386-18.823 66.841C376.274 327.864 384 339.026 384 352c0 10.012-4.601 18.946-11.8 24.814C452.871 354.074 512 279.944 512 192c0-29.577-6.694-57.589-18.64-82.612zM288 128c-17.673 0-32-14.327-32-32s14.327-32 32-32 32 14.327 32 32-14.327 32-32 32zm128 128c-17.673 0-32-14.327-32-32s14.327-32 32-32 32 14.327 32 32-14.327 32-32 32zm-93.16 109.174c-11.607 7.121-24.433 12.449-38.097 15.584C296.174 382.88 307.955 384 320 384c7.712 0 15.314-.468 22.788-1.353-8.901-2.671-16.166-9.114-19.948-17.473z" fill="#bebebe"/><g fill="#828282"><path d="M416 384c17.673 0 32 14.327 32 32s-14.327 32-32 32-32-14.327-32-32v96l128-128h-96z"/><path d="M416 384h-32v32c0-17.673 14.327-32 32-32z"/></g><path fill="#969696" d="M128 257.159c-70.692 0-128 57.048-128 127.42 0 13.769 2.202 27.021 6.26 39.442C15.628 400.56 38.313 384 64.83 384a62.38 62.38 0 0 1 18.252 2.724C87.033 384.978 91.401 384 96 384c17.673 0 32 14.327 32 32 0 4.668-1.008 9.098-2.804 13.096A64.75 64.75 0 0 1 128 448c0 26.063-15.386 48.472-37.451 58.453C102.396 510.056 114.969 512 128 512c70.692 0 128-57.048 128-127.421s-57.308-127.42-128-127.42z"/><path fill="#323232" d="M317.173 237.146C312.156 248.26 300.985 256 288 256c-17.673 0-32-14.327-32-32 0-12.986 7.739-24.157 18.854-29.173C268.894 192.992 262.563 192 256 192c-35.346 0-64 28.654-64 64 35.346 0 64 28.653 64 64 35.347 0 64-28.654 64-64 0-6.562-.992-12.893-2.827-18.854z"/></svg>