<svg xmlns="http://www.w3.org/2000/svg" width="512" height="512" xmlns:v="https://vecta.io/nano"><path fill="#fff" d="M0 0h512v512H0z"/><circle fill="#969696" cx="64" cy="64" r="64"/><g fill="#828282"><circle cx="192" cy="320" r="64"/><circle cx="448" cy="448" r="64"/></g><path fill="#323232" d="M384 256H255.341V128z"/><path fill="#6e6e6e" d="M512 128L384 0h128z"/><path fill="#bebebe" d="M384 128L256 0v128z"/><path d="M512 128L384 256h128zM128 384l128 128H128z" fill="#969696"/><path fill="#505050" d="M0 384l128 128H0z"/><path fill="#828282" d="M0 128l128 128H0z"/><path fill="#505050" d="M128 384L0 256h128z"/><path fill="#5d5d5c" d="M384 512L256 384h128z"/><g fill="#bebebe"><path d="M256 256h128v128H256z"/><path d="M128 128h128v128H128z"/></g></svg>