<svg xmlns="http://www.w3.org/2000/svg" width="512" height="512" xmlns:v="https://vecta.io/nano"><path fill="#fff" d="M0 0h512v512H0z"/><path fill="#323232" d="M128 128H64l64-64z"/><path fill="#969696" d="M192 64v128H64z"/><path fill="#828282" d="M256 0l64 64-64 64z"/><path fill="#323232" d="M448 384v64h-64l64 64 64-64z"/><path fill="#828282" d="M448 64v64h-64l-64 64 64 64v-64h64l64-64z"/><path fill="#bebebe" d="M192,192c-70.692,0-128,57.308-128,128v128h128c70.692,0,128-57.308,128-128V192H192z"/><g fill="#6e6e6e"><circle cx="384" cy="384" r="64"/><path d="M256 128v128H128z"/></g><circle fill="#323232" cx="32" cy="480" r="32"/></svg>