<svg xmlns="http://www.w3.org/2000/svg" width="512" height="512" xmlns:v="https://vecta.io/nano"><path fill="#fff" d="M0 0h512v512H0z"/><path fill="#505050" d="M512,384c-70.692,0-128,57.308-128,128h128V384z"/><path fill="#969696" d="M0,128c70.692,0,128-57.308,128-128H0V128z"/><path fill="#323232" d="M128 512V352c0 17.673-14.327 32-32 32s-32-14.327-32-32 14.327-32 32-32 32 14.327 32 32V192L0 320v128.37L63.264 512H128z"/><path fill="#969696" d="M384 128v128l128 128V160c0 17.673-14.327 32-32 32s-32-14.327-32-32 14.327-32 32-32 32 14.327 32 32V0L384 128z"/><path fill="#6e6e6e" d="M256 192v128l128 128V224c0 17.673-14.327 32-32 32s-32-14.327-32-32 14.327-32 32-32 32 14.327 32 32V64L256 192z"/><path fill="#bebebe" d="M128 256v128l128 128V288c0 17.673-14.327 32-32 32s-32-14.327-32-32 14.327-32 32-32 32 14.327 32 32V128L128 256z"/></svg>