<svg xmlns="http://www.w3.org/2000/svg" width="512" height="512" xmlns:v="https://vecta.io/nano"><path fill="#fff" d="M0 0h512v512H0z"/><path fill="#6e6e6e" d="M64 192V64h128z"/><path fill="#969696" d="M448 320v128H320z"/><path fill="#6e6e6e" d="M352 64c-53.02 0-96 42.98-96 96a96.45 96.45 0 0 0 1.63 17.674C264.138 149.229 289.581 128 320 128c35.347 0 64 28.654 64 64 0 30.418-21.229 55.862-49.674 62.37 5.729 1.066 11.636 1.63 17.674 1.63 53.02 0 96-42.98 96-96s-42.98-96-96-96z"/><circle fill="#323232" cx="288" cy="224" r="32"/><path fill="#bebebe" d="M128 256H0v128c70.692 0 128 57.308 128 128h128V384c-70.692 0-128-57.308-128-128zM96 384c-17.673 0-32-14.327-32-32s14.327-32 32-32 32 14.327 32 32-14.327 32-32 32zm64 64c-17.673 0-32-14.327-32-32s14.327-32 32-32 32 14.327 32 32-14.327 32-32 32z"/></svg>