<svg xmlns="http://www.w3.org/2000/svg" width="512" height="512" xmlns:v="https://vecta.io/nano"><path fill="#fff" d="M0 0h512v512H0z"/><path fill="#969696" d="M512 512L384 384l128-128z"/><path fill="#323232" d="M320 448V320l64 64z"/><path fill="#bebebe" d="M320 320L128 128v64c-35.346 0-64 28.654-64 64s28.654 64 64 64c-35.346 0-64 28.653-64 64s28.654 64 64 64v64l192-192z"/><path fill="#6e6e6e" d="M384 64L320 0l-64 64c-35.346 0-64 28.654-64 64s28.654 64 64 64 64-28.654 64-64c0 35.346 28.653 64 64 64s64-28.654 64-64-28.653-64-64-64z"/></svg>