<svg xmlns="http://www.w3.org/2000/svg" width="512" height="512" xmlns:v="https://vecta.io/nano"><path fill="#918675" d="M128 512h162.257C268.474 474.345 256 430.631 256 384c0-141.385 114.615-256 256-256-212.077 0-384 171.923-384 384z"/><path fill="#fccf97" d="M384 192v64c35.347 0 64 28.653 64 64s-28.653 64-64 64v64l128-128-128-128z"/><g fill="#ae8a4f"><path d="M0 480v32h32c-17.673 0-32-14.327-32-32z"/><path d="M109.177 445.159A31.86 31.86 0 0 1 96 448c-17.673 0-32-14.327-32-32a31.86 31.86 0 0 1 2.841-13.177C47.386 390.887 24.498 384 0 384v96c0-17.673 14.327-32 32-32s32 14.327 32 32-14.327 32-32 32h96c0-24.498-6.887-47.386-18.823-66.841z"/></g><g fill="#9e7745"><path d="M480 0c17.673 0 32 14.327 32 32V0h-32zm-96 96v32h32c-17.673 0-32-14.327-32-32z"/><path d="M480 64c-17.673 0-32-14.327-32-32s14.327-32 32-32h-96v96c0-17.673 14.327-32 32-32s32 14.327 32 32-14.327 32-32 32h96V32c0 17.673-14.327 32-32 32z"/></g><path fill="#aea497" d="M256 64c0-35.346 28.653-64 64-64h-74.94c-14.813 41.904-43.756 77.132-81.104 99.955L192 128 64 256V128c-22.442 0-43.982-3.856-64-10.933V320c133.102 0 247.21-81.27 295.444-196.889C272.286 113.479 256 90.645 256 64z"/></svg>