<svg xmlns="http://www.w3.org/2000/svg" width="512" height="512" xmlns:v="https://vecta.io/nano"><path fill="#fff" d="M0 0h512v512H0z"/><path fill="#969696" d="M384 384h128v128H384z"/><path fill="#323232" d="M448 128V0l64 64z"/><path fill="#bebebe" d="M512 320V192l-64 64z"/><path fill="#6e6e6e" d="M64 512V384L0 448z"/><path fill="#505050" d="M128 384V128l128 128z"/><path fill="#828282" d="M0,128c70.692,0,128-57.308,128-128H0V128z"/><path fill="#6e6e6e" d="M303.913 70.027C353.228 116.69 384 182.749 384 256s-30.772 139.31-80.087 185.973C386.769 420.688 448 345.495 448 256S386.769 91.312 303.913 70.027z"/><path fill="#d0d0d0" d="M239.914 70.027C289.228 116.69 320 182.749 320 256s-30.772 139.31-80.086 185.973C322.769 420.688 384 345.495 384 256S322.769 91.312 239.914 70.027z"/></svg>