<svg xmlns="http://www.w3.org/2000/svg" width="512" height="512" xmlns:v="https://vecta.io/nano"><path fill="#fff" d="M0 0h512v512H0z"/><path fill="#505050" d="M0 128V0h128z"/><path d="M0 448V320h128zm384-320L256 0h256z" fill="#6e6e6e"/><path fill="#828282" d="M128 512V384l-64 64z"/><path fill="#969696" d="M256 512V384l-64 64z"/><path fill="#505050" d="M512 512V384l-64 64z"/><circle fill="#323232" cx="480" cy="96" r="32"/><circle fill="#bebebe" cx="96" cy="96" r="32"/><circle fill="#6e6e6e" cx="32" cy="160" r="32"/><circle fill="#bebebe" cx="256" cy="256" r="128"/><ellipse fill="#828282" cx="448" cy="320.291" rx="64" ry="63.709"/><path fill="#969696" d="M128 0v64l32 32 32-32V0z"/><path fill="#323232" d="M255.996 447.999l32-32 32 32-32 32z"/></svg>