<svg xmlns="http://www.w3.org/2000/svg" width="512" height="512" xmlns:v="https://vecta.io/nano"><path fill="#fff" d="M0 0h512v512H0z"/><path fill="#828282" d="M0 0h64v64H0z"/><g fill="#969696"><path d="M384 384V256c0 35.346-14.327 67.346-37.49 90.51L384 384zM165.49 165.49C188.654 142.327 220.654 128 256 128H128l37.49 37.49z"/><path d="M256,128c70.692,0,128,57.308,128,128V128H256z"/></g><path fill="#6e6e6e" d="M128 256v128h128z"/><path fill="#969696" d="M0 384v128h128z"/><path fill="#323232" d="M256 192c-35.346 0-64 28.654-64 64l64 64c35.347 0 64-28.654 64-64s-28.653-64-64-64z"/><path fill="#bebebe" d="M384 384v64h64z"/><path fill="#6e6e6e" d="M384 512v-64h-64z"/><path fill="#bebebe" d="M64 192v-64H0z"/><path fill="#6e6e6e" d="M64 64v64h64z"/><path fill="#828282" d="M448 448h64v64h-64z"/><path fill="#bebebe" d="M128 0l101.49 101.49C252.654 78.327 284.654 64 320 64c70.692 0 128 57.308 128 128 0 35.346-14.327 67.346-37.49 90.51L512 384V0H128z"/></svg>