<svg xmlns="http://www.w3.org/2000/svg" width="512" height="256" xmlns:v="https://vecta.io/nano"><path fill="#fbcda9" d="M0 0h512v256H0z"/><g fill="#a478c9"><path d="M64 256H0l64-64zM64.022.898C64.505 35.829 92.955 64 128 64H64.022V.898z"/><path d="M64 192c35.346 0 64-28.653 64-64v64h63.977v-.9l.023.9c0 35.347-28.654 64-64 64s-64-28.653-64-64zm384 64v-64l64 64zM64 64H0l64 64z"/><path d="M128 64h64l-64 64z"/><path d="M192 0h64v64h-64zm256 0h64v64h-64z"/><circle cx="416" cy="96" r="32"/><path d="M430.872 256C441.764 237.173 448 215.315 448 192c0-13.127-1.979-25.791-5.65-37.714C432.317 176.518 409.975 192 384 192c-35.347 0-64-28.653-64-64 0-25.974 15.482-48.318 37.714-58.349C345.791 65.98 333.127 64 320 64c-70.692 0-128 57.308-128 128 0 23.315 6.237 45.173 17.128 64h221.744zM288 192c-17.673 0-32-14.327-32-32s14.327-32 32-32 32 14.327 32 32-14.327 32-32 32z"/></g></svg>