<svg xmlns="http://www.w3.org/2000/svg" width="512" height="256" xmlns:v="https://vecta.io/nano"><path fill="#e19ba3" d="M0 0h512v256H0z"/><g fill="#b64558"><path d="M64 0H0l64 64zm.022 255.102C64.505 220.172 92.955 192 128 192H64.022v63.102z"/><path d="M64 64c35.346 0 64 28.654 64 64V64h63.977v.9L192 64c0-35.346-28.654-64-64-64S64 28.654 64 64zM448 0v64l64-64zM64 192H0l64-64z"/><path d="M128 192h64l-64-64z"/><path d="M192 192h64v64h-64zm256 0h64v64h-64z"/><circle cx="416" cy="160" r="32"/><path d="M209.128 0C198.237 18.828 192 40.685 192 64c0 70.692 57.308 128 128 128 13.127 0 25.791-1.979 37.714-5.65C335.482 176.317 320 153.975 320 128c0-35.346 28.653-64 64-64 25.975 0 48.317 15.482 58.35 37.714C446.021 89.791 448 77.127 448 64c0-23.315-6.236-45.172-17.128-64H209.128zM320 96c0 17.673-14.327 32-32 32s-32-14.327-32-32 14.327-32 32-32 32 14.327 32 32z"/></g></svg>