<svg xmlns="http://www.w3.org/2000/svg" width="512" height="512" xmlns:v="https://vecta.io/nano"><path fill="#fff" d="M0 0h512v512H0z"/><ellipse fill="#323232" cx="479.795" cy="32" rx="32.205" ry="32"/><path fill="#bebebe" d="M128,0H0v128C0,57.308,57.308,0,128,0z"/><path fill="#828282" d="M64 64h64v64H64z"/><path fill="#969696" d="M128 192v-64h64z"/><g fill="#828282"><ellipse cx="416.205" cy="416" rx="32.205" ry="32"/><ellipse cx="96.205" cy="288" rx="32.205" ry="32"/></g><ellipse fill="#bebebe" cx="224.205" cy="288" rx="32.205" ry="32"/><path fill="#505050" d="M128 448h64v64h-64z"/><path fill="#6e6e6e" d="M64 512H0v-64z"/><path d="M128 384h64v64z"/><path fill="#bebebe" d="M128 384h64v64z"/><path fill="#969696" d="M384 512h128V384c0 70.692-57.308 128-128 128z"/><path fill="#505050" d="M192,64c141.385,0,256,114.615,256,256V64H192z"/><path fill="#6e6e6e" d="M160,192c123.712,0,224,100.615,224,224.73V192H160z"/><path fill="#828282" d="M320,512V320H96c112.629,0,205.83,83.4,221.627,192H320z"/></svg>