<svg xmlns="http://www.w3.org/2000/svg" width="512" height="512" xmlns:v="https://vecta.io/nano"><style><![CDATA[.B{fill:#a5a082}.C{fill:#bcb996}.D{fill:#ffeba0}.E{fill:#d2d2b4}.F{fill:#eace76}.G{fill:#f2d78f}.H{fill:#d5a940}]]></style><path d="M411.802 52.955c-21.111 18.072-35.227 33.471-50.178 50.192-11.475-2.722-28.391-6.707-40.021-8.23 2.095-10.67 6.277-23.524 10.398-33.601 25.363-3.84 58.204-7.488 79.801-8.361z" class="B"/><path d="M459.046 100.198c-12.981 6.1-30.039 15.587-39.439 21.413-7.486-2.849-16.933-6.555-25.119-8.996 2.963-8.378 5.306-16.565 8.162-25.994 17.962 3.268 42.579 9.216 56.396 13.577z" class="C"/><path d="M459.046 100.198c-12.876 33.636-23.487 57.538-31.187 74.905 28.727-9.461 49.823-14.231 64.592-17.044-31.071 20.128-83.401 41.736-125.353 28.757l13.708-35.434c21.666-2.542 52.061-22.867 78.24-51.184z" class="D"/><path fill="#d29d46" d="M509.743 222.595c-56.294 16.995-103.301 17.026-136.339 7.346 54.25-8.455 103.706-10.04 136.339-7.346z"/><path d="M509.743 289.406c-50.203 2.08-107.518-6.535-156.762-30.431 46.065 3.554 108.542 13.26 156.762 30.431z" class="D"/><path d="M373.404 229.94c-18.392 2.933-33.621 5.631-53.859 9.952-4.107-2.822-8.029-5.634-15.357-11.207l31.215-15.71c11.342 7.246 22.312 12.456 38.001 16.965z" class="C"/><path d="M352.981 258.976c-25.52-2.379-72.781-3.88-96.981-2.976a933.59 933.59 0 0 1 63.545-16.107c10.591 7.03 24.313 14.933 33.436 19.083z" class="B"/><path d="M462.95 335.4c8.353 4.781 20.514 12.165 29.501 18.542-10.95-2.132-29.371-6.577-40.308-9.782l10.807-8.76z" class="F"/><path d="M437.908 321.921c-4.025 4.216-9.147 9.541-13.383 13.584-7.6-2.531-24.471-8.886-33.684-13.06l13.469-16.39c10.19 4.446 22.914 10.478 33.598 15.866z" class="C"/><path d="M368.963 291.454l-9.158 16.092c-17.464-9.287-39.182-22.422-61.347-40.097 23.301 6.778 55.911 18.194 70.505 24.005zm48.016 77.398c7.127 6.565 12.861 12.013 18.634 17.669-15.518 7.317-35.905 15.045-53.388 20.062l-9.157-13.782c13.438-6.217 29.078-14.578 43.911-23.949z" class="B"/><path d="M365.909 382.518l7.158 10.282c-13.997 6.583-28.735 12.465-42.445 17.123l-2.111-5.704c11.667-6.001 21.007-11.17 37.398-21.701z" class="E"/><path d="M289.615 419.731c15.19-1.926 28.179-5.395 41.007-9.809l2.771 7.72c-8.995 1.531-24.31 2.593-43.778 2.089z" class="D"/><path d="M289.615 419.731c5.064 30.686 4.46 61.464-.209 90.012-4.092-27.99-3.822-60.335.209-90.012z" class="E"/><path d="M222.594 509.743c17.33-48.092 27.968-112.894 31.886-176.719 17.267 25.621 28.625 52.667 35.136 86.707-16.62 23.893-44.556 61.678-67.022 90.012z" class="G"/><path d="M353.775 317.908l24.764 18.666c-19.069 21.387-41.368 43.068-54.937 54.903l-6.017-14.781c10.564-16.154 24.676-39.475 36.19-58.788zM256 256c18.788 10.171 47.63 27.508 67.073 40.583l-7.831 21.65C296.774 296.841 274.189 273.279 256 256z" class="F"/><path d="M266.928 296.889c14.028 16.706 29.05 39.007 37.597 54.649-5.938 19.398-12.199 46.914-14.909 68.193-3.005-36.682-13.37-85.349-22.688-122.842z" class="B"/><path d="M256 256c-12.539 53.956-48.302 165.096-97.941 236.451 21.292-35.532 45.853-84.72 29.219-129.419C206.29 338.445 235.906 293.129 256 256z" class="H"/><path d="M167.825 336.896c8.273 6.612 14.768 14.819 19.454 26.137-17.827 24.083-52.784 67.442-87.081 96.013 71.401-62.415 62.686-98.561 37.073-98.734 13.332-9.607 21.219-16.021 30.554-23.416z" class="C"/><path d="M137.271 360.311c-26.608 19.451-59.814 40.134-84.316 51.491 31.029-32.627 61.488-51.5 84.316-51.491zm101.237-93.935l3.781 3.676c-10.752 11.119-45.119 43.562-74.464 66.844-12.984-9.739-26.208-13.947-42.328-15.282 42.642-16.919 89.775-41.599 113.011-55.238z" class="E"/><path d="M108.25 286.164l-18.296 38.023c13.944-2.658 24.246-3.338 35.543-2.574-30.236 12.193-70.265 26.15-105.948 32.329 10.865-25.877 20.217-45.088 30.799-63.441 13.704-.316 37.444-1.899 57.902-4.337z" class="G"/><path d="M138.599 282.062l-30.349 4.103 4.62-9.172c7.458.892 17.781 2.837 25.729 5.069z" class="B"/><path d="M227.431 256.202l6.573 5.938a822.49 822.49 0 0 1-41.548 9.969c-10.544-7.054-23.27-14.228-33.437-19.084 25.174 2.273 58.328 3.306 68.412 3.177z" class="F"/><path d="M131.468 241.533c9.707 3.476 18.361 7.157 27.551 11.491l-31.981-3.249 4.43-8.242z" class="B"/><path d="M143.038 220.545l-11.57 20.988c-11.154-4.037-28.279-9.087-41.9-11.791 5.956-8.062 12.398-16.733 18.122-23.795 8.043 3.679 24.827 10.585 35.348 14.598z" class="C"/><path d="M89.567 229.742c-12.041 16.429-28.207 41.063-39.219 60.759-16.392.535-33.701.214-48.091-1.095 12.214-21.916 28.56-46.982 43.38-65.935 14.645 1.096 28.95 3.154 43.93 6.271z" class="F"/><path fill="#d29d46" d="M87.479 176.495c-16.019 15.65-29.359 30.862-41.842 46.977-11.432-1.096-28.436-1.385-43.38-.877 17.324-20.26 39.483-40.572 57.6-54.754 7.16 1.963 18.747 5.684 27.622 8.654z"/><path d="M143.038 220.545l9.157-16.089c19.832 10.51 41.39 24.149 61.35 40.098-20.629-5.953-50.529-16.103-70.507-24.009z" class="H"/><path d="M174.463 167.028C198.075 196.596 228.549 229.896 256 256c-28.64-15.118-75.388-45.263-97.774-61.91l16.237-27.062z" class="C"/><path d="M121.16 189.554c-9.497-4.206-21.19-8.559-33.681-13.059 19.739-19.308 40.354-34.932 58.612-47.011l13.435 18.346c-14.526 14.606-27.19 28.641-38.366 41.724z" class="B"/><path d="M188.397 120.522l6.018 14.782-19.952 31.724-14.938-19.198c8.901-9.033 19.484-18.967 28.872-27.308z" class="H"/><path d="M321.603 94.917c-4.665 24.328-2.07 40.878 3.119 54.05-13.816 18.452-30.77 43.299-41.646 60.874l-5.552-5.802 44.079-109.122z" class="E"/><path d="M255.797 227.462L256 256c-24.585-39.759-48.585-89.147-61.585-120.696 13.762 29.481 31.838 57.268 50.656 79.808-6.36-26.321-14.657-66.003-19.29-107.326 7.489 28.491 16.795 48.897 31.743 71.195 1.676-26.446 5.288-61.354 10.131-89.641l8.338.451c.172 24.996 4.183 44.098 11.515 63.647-6.986 18.202-18.27 52.024-25.808 80.368-1.774-1.797-4.136-4.443-5.903-6.344z" class="D"/><path d="M222.149 90.44c-42.264 10.171-83.633 25.598-127.125 52.707-6.32-5.646-13.79-12.906-18.636-17.667 51.4-23.732 102.21-33.746 145.761-35.04z" class="G"/><path d="M270.323 74.543l-1.441 7.756c-10.997 1.292-30.592 4.273-46.732 8.141 15.521-6.219 35.281-12.334 48.173-15.897z" class="D"/><path d="M222.149 90.44c-5.008-30.782-3.895-61.222.444-88.184 4.078 27.467 3.963 65.678-.444 88.184z" class="C"/><path d="M270.323 74.543c4.459-23.591 11.533-51.293 19.083-72.287-6.101 20.309-11.656 46.927-12.976 70.653l-6.107 1.634z" class="E"/></svg>