<svg xmlns="http://www.w3.org/2000/svg" width="512" height="512" xmlns:v="https://vecta.io/nano"><path fill="#d4cce7" d="M156.353 20.118c4.317 10.241 11.569 27.509 15.483 38.417C203.878 47.011 241.416 27.496 255.999 0c-23.199 22.397-69.176 27.232-99.646 20.118z"/><path fill="#a3d9ea" d="M156.353 20.118c-1.296 13.737-.944 32.491.172 43.368-24.442 7.524-56.325 12.33-81.545 11.491 19.828-21.08 53.586-43.583 81.373-54.859z"/><path fill="#6cc7e2" d="M74.98 74.977c30.729 38.815 62.963 87.105 84.698 126.621-9.31-7.633-17.199-15.465-24.119-22.399-13.908 11.835-34.07 26.369-47.652 34.746-23.341-11.776-48.776-31.702-67.789-57.599 27.921-2.819 56.873-12.783 79.881-22.451-10.114-16.235-20.78-38.622-25.019-58.918z"/><path fill="#a3d9ea" d="M244.028 24.146c-28.019 64.681-25.206 146.728 11.971 231.842-51.477-48.193-79.843-100.117-93.363-155.066 31.337-20.066 62.516-46.438 81.392-76.776z"/><path fill="#f28f83" d="M255.999 0c20.845 20.375 64.45 27.876 99.646 20.117-13.16 13.854-29.688 36.945-40.575 55.854C286.222 51.905 266.646 27.994 255.999 0z"/><path fill="#8484b0" d="M303.004 97.713c-2.854 5.577-6.468 12.328-9.755 19.867-13.24-29.34-29.767-73.412-37.25-117.58 13.694 43.583 31.16 74.292 47.005 97.713z"/><path fill="#d4cce7" d="M511.999 255.988c.097 36.55-8.576 72.767-20.117 99.641-17.881-24.763-43.198-45.041-67.79-57.597 27.522-16.981 56.122-31.398 87.907-42.044z"/><path fill="#e9a385" d="M255.999 255.987c15.688-13.968 36.084-28.619 52.317-38.295l10.239 24.526c14.084-2.309 35.182-4.185 48.934-4.572 4.35 5.37 9.106 11.523 15.288 18.341H255.999z"/><path fill="#d4cce7" d="M370.894 113.812c36.764 20.756 83.361 38.428 120.988 42.534-45.507 4.675-80.708 14.879-111.257 26.336 33.479 28.277 84.703 57.814 131.374 73.306-46.671-14.906-97.191-20.181-144.51-18.342-9.766-12.036-20.433-26.335-27.573-37.278-10.463 5.354-20.288 10.356-31.6 17.324-3.884-9.959-8.614-21.97-11.751-31.521-15.149 19.514-31.912 46.12-40.566 69.816 0-39.051 17.212-96.015 37.25-138.407 6.569 14.966 16.711 33.618 23.138 45.17 5.782-6.337 14.195-14.616 21.056-21.155-12.51-13.885-21.479-25.049-34.438-43.882 6.544-12.989 19.32-34.322 25.863-43.446 28.856 11.703 68.24 21.548 108.151 20.709-21.963 9.666-45.713 23.901-66.125 38.836z"/><path fill="#a497c9" d="M491.882 355.629c-13.075 31.614-33.235 59.394-54.863 81.369-4.277-19.515-13.654-40.847-25.02-58.92 25.549-10.555 53.064-19.521 79.883-22.449z"/><path fill="#6cc7e2" d="M255.999 255.987c66.091 6.662 124.816 19.203 168.093 42.045-13.738 8.57-29.915 19.822-47.651 34.744-35.128-36.254-76.27-61.336-120.442-76.789z"/><path fill="#e9a385" d="M376.44 332.776c11.348 11.715 24.711 27.89 35.559 45.302l-13.836 6.144c-9.407-13.094-22.271-33.898-29.134-45.041l7.411-6.405z"/><path fill="#8484b0" d="M293.705 296.81c37.646 47.77 68.766 119.679 61.94 195.05-11.109-25.089-19.616-49.535-25.921-67.3-20.177 15.663-57.468 44.641-73.726 87.416 18.735-59.27 42.472-91.621 63.105-119.841-6.092-20.26-18.699-64.785-25.398-95.325z"/><path fill="#00b4d5" d="M255.999 511.976c25.065-23.931 72.186-26.157 99.646-20.116-34.493 14.939-72.119 20.565-99.646 20.116z"/><path fill="#f28f83" d="M156.353 491.859c11.715-13.074 19.921-23.623 26.779-34.152 36.159 15.1 60.188 31.979 72.867 54.269-15.96-15.727-54.056-29.088-99.646-20.117z"/><path fill="#a497c9" d="M255.999 255.987v255.988c-10.337-28.979-33.074-54.056-59.072-75.972 4.23-7.303 8.416-14.184 12.069-21.743-10.1-15.413-23.345-31.94-34.441-43.881 9.29-9.055 16.14-15.629 21.057-21.156 5.979 9.89 16.764 30.869 23.137 45.171 17.422-36.922 36.646-92.831 37.25-138.407z"/><path fill="#e9a385" d="M230.672 276.352l3.818 22.167c-10.394 16.787-24.723 35.863-38.878 50.705-6.591-12.117-16.05-26.349-23.529-37.618 20.629-10.015 40.234-21.881 58.589-35.254z"/><path fill="#f28f83" d="M144.513 274.329c8.551 10.238 19.747 26.224 27.57 37.276-13.979 6.953-28.161 13.166-40.709 17.687C102.192 305.313 58.237 276.362 0 255.987c47.804 14.983 96.684 20.024 144.513 18.342z"/><path fill="#a3d9ea" d="M20.118 355.629c65.43 7.938 134.177 45.563 176.809 80.375-4.813 7.927-8.686 14.022-13.795 21.703-28.661-11.507-69.569-21.704-108.152-20.709-20.963-20.922-39.717-46.824-54.862-81.369z"/><path fill="#a497c9" d="M90.751 215.418c24.423 12.683 55.719 22.704 91.449 29.798-6.016-12.896-14.303-28.431-22.523-43.618 24.42 20.526 59.145 41.888 96.321 54.39-29.705 9.034-72.692 17.122-111.486 18.342-15.623-19.329-36.283-42.273-53.761-58.912z"/></svg>