<svg xmlns="http://www.w3.org/2000/svg" width="512" height="512" xmlns:v="https://vecta.io/nano"><path fill="#db6f20" d="M156.353 20.116c4.317 10.243 11.568 27.51 15.483 38.418C203.877 47.011 241.416 27.496 255.999 0c-23.199 22.397-69.177 27.232-99.646 20.116z"/><path fill="#aab450" d="M156.353 20.116c-1.295 13.739-.944 32.491.172 43.369-24.442 7.524-56.324 12.33-81.544 11.492 19.827-21.08 53.585-43.584 81.372-54.861z"/><path fill="#c8b446" d="M74.98 74.977c30.729 38.814 62.963 87.105 84.697 126.621-9.309-7.635-17.199-15.465-24.118-22.399-13.909 11.834-34.069 26.369-47.651 34.745-23.341-11.776-48.777-31.701-67.791-57.599 27.922-2.819 56.874-12.782 79.882-22.451C89.885 117.66 79.218 95.272 74.98 74.977z"/><path d="M244.028 24.145c-28.019 64.68-25.207 146.728 11.971 231.843-51.478-48.194-79.843-100.119-93.364-155.066 31.337-20.066 62.516-46.439 81.393-76.777zM255.999 0c20.844 20.375 64.448 27.875 99.646 20.116-13.161 13.855-29.688 36.945-40.575 55.855C286.222 51.904 266.646 27.994 255.999 0z" fill="#aab450"/><path fill="#ffb464" d="M303.003 97.713c-2.853 5.577-6.468 12.328-9.755 19.867C280.009 88.239 263.481 44.168 255.999 0c13.694 43.582 31.16 74.292 47.004 97.713z"/><path fill="#db6f20" d="M511.999 255.988c.097 36.55-8.577 72.768-20.118 99.643-17.88-24.766-43.199-45.042-67.789-57.6 27.52-16.979 56.121-31.397 87.907-42.043z"/><path fill="#ffa050" d="M255.999 255.988c15.688-13.969 36.083-28.619 52.316-38.296l10.238 24.526c14.085-2.308 35.183-4.184 48.934-4.571 4.35 5.368 9.107 11.521 15.288 18.34-26.225 0-98.429.001-126.776.001z"/><path fill="#ea8e44" d="M370.891 113.811c36.766 20.756 83.363 38.428 120.99 42.534-45.507 4.676-80.708 14.879-111.257 26.337 33.479 28.276 84.702 57.813 131.375 73.306-46.673-14.906-97.193-20.18-144.512-18.341-9.765-12.036-20.432-26.337-27.571-37.28-10.463 5.354-20.289 10.357-31.601 17.325-3.884-9.958-8.614-21.971-11.751-31.521-15.149 19.513-31.912 46.12-40.565 69.816 0-39.051 17.21-96.016 37.249-138.409 6.57 14.965 16.711 33.618 23.138 45.171 5.781-6.338 14.195-14.617 21.057-21.155-12.511-13.886-21.478-25.049-34.439-43.883 6.544-12.989 19.32-34.323 25.864-43.445 28.855 11.703 68.239 21.547 108.151 20.709-21.964 9.667-45.714 23.902-66.128 38.836z"/><path fill="#6d8e40" d="M491.881 355.631c-13.074 31.613-33.236 59.392-54.862 81.368-4.277-19.515-13.655-40.847-25.02-58.919 25.547-10.557 53.064-19.522 79.882-22.449z"/><path fill="#c8b446" d="M255.999 255.988c66.09 6.66 124.814 19.203 168.093 42.043-13.739 8.571-29.916 19.825-47.651 34.745-35.128-36.254-76.271-61.336-120.442-76.788z"/><path fill="#db6f20" d="M376.44 332.776c11.35 11.716 24.71 27.89 35.559 45.304l-13.836 6.143c-9.407-13.096-22.272-33.898-29.135-45.043l7.412-6.404z"/><path fill="#ffb464" d="M293.706 296.812c37.643 47.769 68.764 119.676 61.939 195.047-11.11-25.087-19.616-49.533-25.922-67.298-20.177 15.663-57.467 44.64-73.725 87.415 18.734-59.271 42.471-91.62 63.103-119.84-6.091-20.261-18.698-64.787-25.395-95.324z"/><path fill="#83a153" d="M255.999 511.976c25.065-23.931 72.186-26.157 99.646-20.117-34.494 14.94-72.119 20.565-99.646 20.117z"/><path fill="#6d8e40" d="M156.353 491.858c11.715-13.072 19.92-23.622 26.778-34.149 36.159 15.099 60.189 31.978 72.868 54.267-15.96-15.727-54.056-29.088-99.646-20.118z"/><path fill="#db6f20" d="M255.999 255.988v255.987c-10.339-28.978-33.075-54.054-59.072-75.97 4.231-7.305 8.416-14.186 12.068-21.745-10.1-15.414-23.346-31.939-34.44-43.88 9.29-9.055 16.139-15.63 21.056-21.156 5.979 9.889 16.764 30.869 23.137 45.172 17.423-36.922 36.645-92.833 37.251-138.408z"/><path fill="#aab450" d="M230.671 276.353l3.819 22.166c-10.394 16.788-24.724 35.863-38.879 50.706-6.591-12.117-16.05-26.349-23.528-37.617 20.629-10.015 40.233-21.883 58.588-35.255z"/><path fill="#ea8e44" d="M144.513 274.329c8.552 10.237 19.747 26.224 27.57 37.278-13.979 6.951-28.162 13.163-40.709 17.686-29.181-23.98-73.137-52.93-131.374-73.305 47.805 14.983 96.683 20.023 144.513 18.341z"/><path fill="#aab450" d="M20.117 355.631c65.431 7.938 134.178 45.562 176.81 80.375-4.813 7.926-8.687 14.021-13.796 21.703-28.66-11.508-69.568-21.705-108.151-20.71-20.963-20.921-39.717-46.824-54.863-81.368z"/><path fill="#6d8e40" d="M90.751 215.418c24.423 12.684 55.719 22.705 91.449 29.798-6.015-12.895-14.303-28.432-22.523-43.618 24.419 20.525 59.144 41.886 96.322 54.39-29.706 9.034-72.693 17.122-111.486 18.341-15.624-19.328-36.284-42.271-53.762-58.911z"/></svg>