<svg xmlns="http://www.w3.org/2000/svg" width="512" height="512" xmlns:v="https://vecta.io/nano"><style><![CDATA[.B{fill:#e2d158}.C{fill:#a0aa78}.D{fill:#8c8c64}.E{fill:#a6c176}.F{fill:#aab484}.G{fill:#6d8e40}.H{fill:#83a153}]]></style><path d="M322.258 8.723c-12.593 24.781-19.743 44.416-27.158 65.591-11.647 1.877-28.805 4.671-40.136 7.714-2.147-10.663-3.203-24.143-3.251-35.031 21.968-13.258 50.919-29.2 70.545-38.274z" class="D"/><path d="M384 34.297c-9.661 10.606-21.793 25.903-28.25 34.884-8.008.233-18.157.425-26.657 1.302-.468-8.877-1.438-17.34-2.407-27.146 17.851-3.855 42.877-7.781 57.314-9.04z" class="C"/><path d="M384 34.297c.977 36.013.319 62.163-.146 81.159 22.926-19.739 40.596-32.223 53.166-40.475-21.01 30.494-61.099 70.494-104.833 74.559l-.896-37.993c19.048-10.644 39.356-41.061 52.709-77.25z" class="B"/><path d="M477.702 128c-45.517 37.255-88.945 55.277-123.182 58.977 46.897-28.579 91.995-48.975 123.182-58.977z" class="G"/><path d="M503.276 189.743c-45.596 21.139-101.859 35.118-156.515 31.884 43.93-14.35 105.381-29.295 156.515-31.884z" class="B"/><path d="M354.521 186.977c-15.873 9.751-28.914 18.073-45.963 29.813-4.876-1.037-9.578-2.132-18.483-4.478l22.834-26.466c13.254 2.354 25.386 2.97 41.612 1.131z" class="C"/><path d="M346.762 221.627C322.267 229.196 278.018 245.899 256 256c21.665-17.426 41.886-31.844 52.558-39.209 12.477 2.442 28.184 4.494 38.204 4.836z" class="D"/><path d="M477.64 250.159c9.55 1.221 23.615 3.389 34.36 5.841-10.936 2.223-29.661 5.167-40.993 6.39l6.633-12.231z" class="E"/><path d="M449.339 247.287c-2.106 5.438-4.802 12.319-7.169 17.676-7.991.57-26.014 1.157-36.126.826l6.173-20.303c11.119.209 25.184.912 37.122 1.801z" class="C"/><path d="M373.963 245.523L371.66 263.9c-19.695-1.898-44.793-5.722-72.042-13.572 24.127-2.655 58.633-4.589 74.345-4.805zm73.998 53.146l23.983 9.194c-11.539 12.704-27.421 27.648-41.657 38.976l-13.738-9.23c10.039-10.889 21.293-24.602 31.412-38.94z" class="D"/><path d="M405.998 330.845l10.551 6.764a416.38 416.38 0 0 1-32.67 32.071l-4.135-4.463c8.485-10.013 15.138-18.365 26.254-34.372z" class="F"/><path d="M349.738 394.439c13.299-7.592 23.975-15.771 34.141-24.76l5.515 6.072c-7.727 4.859-21.473 11.701-39.656 18.688z" class="B"/><path d="M349.738 394.439c16.425 26.421 27.648 55.094 34.262 83.263-14.495-24.301-26.627-54.292-34.262-83.263z" class="F"/><path d="M322.258 503.277c-2.395-51.077-17.369-115.033-38.181-175.516 25.765 17.069 46.614 37.713 65.661 66.678-6.212 28.443-17.567 74.054-27.48 108.838z" class="B"/><path d="M370.054 275.785l30.031 7.769c-9.438 27.064-21.746 55.636-29.753 71.768l-11.22-11.356c3.579-18.975 7.694-45.927 10.942-68.181zM256 256c21.255 2.208 54.545 7.189 77.518 11.829l1.051 23.007C309.313 278.134 279.424 265.007 256 256z" class="E"/><path d="M281.75 289.602c19.358 10.072 41.776 24.929 55.662 36.113 1.938 20.199 6.686 48.023 12.326 68.725-16.818-32.751-45.025-73.756-67.988-104.838z" class="D"/><path d="M256 256c9.064 54.662 18.559 171.058 0 256 6.075-40.986 9.943-95.844-22.537-130.785C241.621 351.219 251.644 298.002 256 256z" class="H"/><path d="M205.481 364.511c10.176 2.943 19.32 8.041 27.982 16.704-7.256 29.08-22.963 82.531-43.72 122.063 42.09-85.011 20.202-115.077-3.535-105.435 8.645-13.98 13.477-22.926 19.273-33.332z" class="C"/><path d="M186.208 397.843c-17.143 28.159-39.913 59.983-58.208 79.859 16.186-42.029 37.109-71.128 58.208-79.859z" class="G"/><path d="M243.806 272.286l4.902 1.946c-5.681 14.393-25.021 57.529-43.227 90.278-15.728-4.031-29.559-2.86-44.966 2.077 32.931-31.955 67.041-72.805 83.291-94.301z" class="F"/><path fill="#cce0a6" d="M131.008 340.431l-2.354 42.143c11.868-7.794 21.128-12.365 31.861-15.985-23.274 22.843-54.923 51.063-85.535 70.432.135-28.071 1.425-49.405 4.179-70.417 12.543-5.54 33.876-16.089 51.849-26.173z"/><path d="M157.482 325.023l-26.475 15.407.758-10.244c7.234-2.03 17.52-4.184 25.717-5.163z" class="D"/><path d="M229.676 267.123l8.348 2.971a820.98 820.98 0 0 1-34.58 25.117c-12.444-2.483-26.95-4.241-38.205-4.838 24.134-7.535 55.166-19.271 64.437-23.25z" class="E"/><path d="M135.379 290.299c10.301-.501 19.708-.413 29.86.074l-30.799 9.239.939-9.313z" class="B"/><path d="M138.038 266.475l-2.659 23.824c-11.853.539-29.611 2.429-43.234 5.143l7.638-28.927c8.842.323 26.996.279 38.255-.04z" class="C"/><path d="M92.145 295.441c-4.838 19.792-10.347 48.744-12.985 71.161-14.945 6.771-31.062 13.099-44.863 17.398 2.899-24.929 8.409-54.35 14.85-77.537 13.954-4.593 27.962-8.167 42.998-11.022z" class="E"/><path d="M69.833 247.035c-8.812 20.595-15.317 39.759-20.686 59.428-10.983 3.363-26.808 9.605-40.424 15.794 8.254-25.354 20.958-52.606 32.271-72.646 7.367-.927 19.5-1.923 28.839-2.576z" class="G"/><path d="M138.038 266.475l2.304-18.373c22.35 2.121 47.493 6.473 72.043 13.572-21.342 2.394-52.859 4.46-74.347 4.801z" class="H"/><path d="M146.593 204.99C179.731 223.277 220.64 242.384 256 256c-32.255-3.009-86.994-12.972-114.054-19.786l4.647-31.224z" class="C"/><path d="M105.956 246.21c-10.386-.252-22.858.202-36.124.825 10.852-25.399 23.921-47.729 36.17-65.881l19.438 11.812c-7.833 19.058-14.163 36.876-19.484 53.244z" class="D"/><path d="M141.668 156.679l11.219 11.356-6.294 36.954-21.153-12.024c4.767-11.754 10.746-24.985 16.228-36.286z" class="H"/><path d="M254.964 82.028c5.001 24.268 13.734 38.568 23.572 48.755-5.706 22.34-11.86 51.791-15.185 72.196l-7.352-3.236-1.035-117.715z" class="F"/><path d="M244.888 229.705L256 256c-37.938-27.331-79.023-63.785-103.113-87.964 24.003 21.977 51.343 40.736 77.362 54.362-15.954-21.889-38.811-55.384-58.909-91.798 17.828 23.462 34.238 38.758 56.586 53.642-8.575-25.082-18.597-58.722-24.95-86.717l7.876-2.775c9.729 23.034 20.748 39.151 35.005 54.411.512 19.495 3.031 55.07 6.915 84.148-2.328-.983-5.522-2.524-7.884-3.604z" class="B"/><path fill="#cce0a6" d="M161.344 115.96c-35.163 25.577-67.488 55.669-97.304 97.369-8-2.799-17.683-6.648-23.984-9.193 38.415-41.606 81.536-70.31 121.288-88.176z"/><path d="M199.777 82.829l1.638 7.718c-9.669 5.404-26.636 15.66-40.071 25.413 11.962-11.688 27.882-24.903 38.433-33.131z" class="B"/><path d="M161.344 115.96C144.933 89.431 134.31 60.875 128 34.297c14.281 23.823 28.801 59.178 33.344 81.663z" class="C"/><path d="M199.777 82.829c-4.91-23.508-8.976-51.816-10.034-74.106 2.135 21.104 7.19 47.83 15.052 70.259l-5.018 3.847z" class="B"/></svg>