<svg xmlns="http://www.w3.org/2000/svg" width="512" height="512" xmlns:v="https://vecta.io/nano"><path fill="#fff" d="M256 511.976c-35.347 0-69.02-7.163-99.647-20.116S98.144 460.162 74.98 437s-41.909-50.743-54.862-81.368S0 291.333 0 255.988s7.163-69.017 20.118-99.643S51.817 98.14 74.98 74.977s50.746-41.907 81.373-54.859S220.653 0 256 0s69.02 7.163 99.646 20.117 58.21 31.697 81.372 54.859 41.909 50.743 54.863 81.369 20.117 64.298 20.117 99.643-7.162 69.016-20.117 99.643-31.699 58.205-54.863 81.368-50.745 41.907-81.372 54.86-64.3 20.117-99.646 20.117z"/><path fill="#828282" d="M156.353 20.118c4.318 10.241 11.569 27.509 15.483 38.417C203.878 47.011 241.417 27.496 256 0c-23.2 22.397-69.177 27.232-99.647 20.118z"/><path fill="#323232" d="M156.353 20.118c-1.295 13.737-.944 32.491.172 43.368-24.442 7.524-56.325 12.33-81.545 11.491 19.828-21.08 53.586-43.583 81.373-54.859z"/><path fill="#969696" d="M74.98 74.977c30.729 38.815 62.963 87.106 84.698 126.622-9.309-7.634-17.199-15.466-24.119-22.399-13.908 11.834-34.069 26.368-47.652 34.745-23.341-11.776-48.776-31.701-67.789-57.599 27.921-2.819 56.873-12.782 79.881-22.451-10.114-16.235-20.78-38.622-25.019-58.918z"/><path fill="#bebebe" d="M244.029 24.146C216.01 88.826 218.822 170.874 256 255.988c-51.478-48.194-79.844-100.118-93.364-155.066 31.337-20.066 62.516-46.438 81.393-76.776z"/><path fill="#969696" d="M256 0c20.844 20.375 64.449 27.876 99.646 20.117-13.161 13.854-29.688 36.945-40.575 55.854C286.223 51.905 266.646 27.994 256 0z"/><path d="M303.004 97.713c-2.854 5.578-6.467 12.328-9.754 19.867C280.01 88.24 263.482 44.169 256 0c13.694 43.583 31.16 74.292 47.004 97.713zm208.995 158.275c.098 36.551-8.576 72.768-20.117 99.643-17.88-24.764-43.198-45.042-67.79-57.599 27.522-16.979 56.123-31.397 87.907-42.044z" fill="#323232"/><path fill="#505050" d="M256 255.988c15.687-13.967 36.083-28.619 52.316-38.295l10.239 24.527c14.084-2.31 35.182-4.185 48.934-4.573 4.35 5.37 9.106 11.523 15.288 18.34L256 255.988z"/><path d="M370.894 113.812c36.764 20.756 83.362 38.429 120.988 42.534-45.507 4.676-80.707 14.879-111.256 26.337 33.479 28.277 84.702 57.814 131.373 73.306-46.671-14.905-97.191-20.18-144.51-18.341-9.766-12.036-20.432-26.336-27.573-37.279-10.462 5.353-20.287 10.356-31.6 17.325-3.884-9.96-8.614-21.971-11.751-31.522-15.148 19.514-31.912 46.121-40.565 69.817 0-39.051 17.211-96.015 37.25-138.408 6.569 14.965 16.71 33.618 23.137 45.171 5.782-6.338 14.195-14.617 21.057-21.155-12.511-13.885-21.479-25.049-34.439-43.883 6.544-12.989 19.32-34.321 25.864-43.446 28.855 11.703 68.24 21.549 108.15 20.709-21.962 9.666-45.712 23.9-66.125 38.835zm120.988 241.819c-13.074 31.614-33.235 59.393-54.863 81.368-4.277-19.514-13.654-40.846-25.019-58.92 25.548-10.554 53.064-19.521 79.882-22.448z" fill="#828282"/><path fill="#969696" d="M256 255.988c66.091 6.662 124.815 19.203 168.092 42.044-13.737 8.571-29.914 19.824-47.651 34.746-35.128-36.255-76.27-61.337-120.441-76.79z"/><path fill="#323232" d="M376.44 332.778c11.349 11.714 24.712 27.89 35.56 45.301l-13.836 6.144c-9.407-13.094-22.271-33.898-29.134-45.042l7.41-6.403z"/><path fill="#969696" d="M293.706 296.811c37.645 47.77 68.765 119.678 61.94 195.049-11.11-25.087-19.616-49.533-25.922-67.298-20.177 15.662-57.467 44.64-73.725 87.414 18.734-59.27 42.471-91.619 63.104-119.84-6.092-20.259-18.699-64.785-25.397-95.325z"/><path fill="#6e6e6e" d="M256 511.976c25.064-23.93 72.186-26.156 99.646-20.116-34.493 14.939-72.12 20.565-99.646 20.116z"/><path fill="#323232" d="M156.353 491.859c11.716-13.073 19.921-23.622 26.779-34.15 36.159 15.099 60.188 31.979 72.868 54.267-15.961-15.726-54.057-29.087-99.647-20.117z"/><path fill="#bebebe" d="M256 255.988v255.987c-10.338-28.979-33.075-54.054-59.073-75.971 4.231-7.303 8.416-14.184 12.069-21.743-10.101-15.413-23.346-31.94-34.441-43.88 9.291-9.056 16.14-15.63 21.057-21.157 5.98 9.89 16.764 30.87 23.138 45.172 17.421-36.922 36.645-92.833 37.25-138.408z"/><path fill="#969696" d="M230.672 276.354l3.818 22.165c-10.393 16.789-24.723 35.864-38.878 50.706-6.591-12.118-16.05-26.348-23.529-37.617 20.63-10.015 40.234-21.882 58.589-35.254z"/><path fill="#505050" d="M144.513 274.33c8.551 10.238 19.747 26.223 27.57 37.277-13.979 6.952-28.161 13.165-40.709 17.686C102.193 305.314 58.237 276.363 0 255.988c47.804 14.984 96.684 20.024 144.513 18.342z"/><path fill="#828282" d="M20.118 355.631c65.43 7.938 134.177 45.563 176.809 80.374-4.813 7.928-8.686 14.023-13.795 21.704-28.661-11.507-69.569-21.705-108.152-20.71-20.963-20.922-39.717-46.824-54.862-81.368z"/><path fill="#6e6e6e" d="M90.751 215.419c24.423 12.683 55.72 22.705 91.45 29.798-6.016-12.896-14.303-28.431-22.523-43.618 24.42 20.525 59.145 41.888 96.322 54.39-29.705 9.034-72.693 17.122-111.487 18.342-15.624-19.33-36.284-42.273-53.762-58.912z"/></svg>