<svg xmlns="http://www.w3.org/2000/svg" width="512" height="512" xmlns:v="https://vecta.io/nano"><path fill="#fff" d="M0 0h512v512H0z"/><path fill="#505050" d="M128 0L32 96l64 64-64 64 32 32 64-64 32 32 96-96-31.902-31.668L192 128l-64-64 32.098-31.668z"/><path fill="#969696" d="M256 0l-32 32 96 96-31.883 31.882 64 64L320 256l32 32 64-64 64 64 31.863-32.137v-63.726L480 160l-32 32-32-32 32-32-32-32 32-32 32 32 32-32V0z"/><path fill="#323232" d="M127.998 320l127.999-127.999 32 32-127.999 127.999z"/><path fill="#969696" d="M32 288L0 320l32 32-32 32 128 128 32-32-32-32 32-32z"/><path fill="#828282" d="M192 384l32-32 64 64-32 32 32 32-32 32-64-64 32-32z"/><path fill="#6e6e6e" d="M256 320l32-32 64 64 64-64 96 96-32 32 32 32-32 32-32-32-64 64-32-32 32-32z"/></svg>