<svg xmlns="http://www.w3.org/2000/svg" width="512" height="512" xmlns:v="https://vecta.io/nano"><path fill="#fff" d="M256 511.955h-64-64-64H0V447.68v-63.701-65.058-62.966c0-25.85 3.927-50.806 11.056-74.33 6.347-20.945 15.308-40.757 26.503-59.053 10.606-17.336 23.219-33.312 37.515-47.605 14.403-14.399 30.511-27.091 47.999-37.745 18.331-11.168 38.177-20.097 59.157-26.408C205.616 3.78 230.415 0 256.095 0L256 .045h63.727H384h64 64v63.989 63.988 63.989V256l-.095.045c0 25.851-3.833 50.806-10.961 74.328a254.65 254.65 0 0 1-26.504 59.054c-10.607 17.336-23.221 33.313-37.518 47.606-14.399 14.398-30.508 27.09-47.997 37.743a254.67 254.67 0 0 1-59.154 26.408C306.382 508.22 281.585 512 255.905 512l.095-.045z"/><path fill="#828282" d="M369.852 8.958C396.413 6.048 465.002 1.614 512 .044c-87.848 36.318-162.135 87.092-213.326 125.86-13.979-5.367-30.299-11.148-49.378-17.06 35.487-37.987 82.216-75.49 120.556-99.886z"/><path fill="#505050" d="M202.429 50.267c41.68-4.646 77.46-5.466 105.012-5.33-18.204 12.785-36.959 27.288-54.336 42.385-25.153-4.707-53.636-8.203-74.91-9.867 9.044-10.719 15.257-17.692 24.234-27.188z"/><path fill="#bebebe" d="M169.086 88.643c19.775 3.915 43.375 9.463 65.007 15.695-7.327 6.746-18.215 17.235-29.722 29.055-18.887-10.871-36.626-19.86-49.489-26.005 3.28-4.566 8.879-12.033 14.204-18.745z"/><path fill="#323232" d="M146.52 103.45l8.362 3.938-5.623 7.933-8.061-5.078 5.322-6.793z"/><path fill="#969696" d="M179.175 65.858l-10.08 10.897c-32.317-2.441-69.357-2.558-94.021-1.788 27.046-3.934 64.555-7.879 104.101-9.109z"/><path fill="#828282" d="M160.174 86.912l-7.589 9.038c-26.542-8.68-50.008-15.034-77.511-20.982 27.539 2.545 57.532 6.764 85.1 11.944z"/><path fill="#6e6e6e" d="M134.892 118.563l-5.862 8.003c-20.716-22.464-38.298-38.676-53.956-51.598 16.362 10.402 35.994 24.036 59.818 43.595z"/><path fill="#505050" d="M114.609 147.461l-7.424 11.49C95.44 120.938 81.471 88.749 75.074 74.968c8.488 13.273 25.602 42.885 39.535 72.493z"/><path d="M96.088 177.156c-5.05 8.602-8.502 14.757-14.454 25.83 2.328-58.13-2.303-102.22-6.56-128.019 5.519 18.734 14.984 55.269 21.014 102.189zm53.171-61.835c15.69 10.091 31.396 21.127 43.486 30.309-5.925 6.305-16.75 18.372-24.652 27.727-9.533-12.395-19.086-24.349-31.683-38.596 3.721-5.929 8.237-12.798 12.849-19.44z" fill="#828282"/><path fill="#6e6e6e" d="M204.371 133.393c16.724 9.54 32.075 19.229 47.827 29.784l-18.295 15.771c-11.509-9.979-26.874-22.616-41.157-33.318l11.625-12.237z"/><path d="M195.499 174.447c6.618 6.754 14.87 15.599 19.888 21.155-5.376 4.909-14.292 13.319-18.772 17.658-5.404-8.093-9.743-14.249-13.791-19.948 4.598-7.139 7.907-12.036 12.675-18.865zm-73.411-38.043c12.28 18.56 23.207 37.312 32.077 53.778l-14.139 18.037c-8.986-24.542-18.056-45.241-25.417-60.758l7.479-11.057z" fill="#969696"/><path fill="#828282" d="M81.634 202.986C78.717 271.379 68.05 333.375 50.53 392.561c-9.06-23.245-15.389-47.505-19.101-70.388 10.453-32.169 23.992-69.322 50.205-119.187z"/><path fill="#505050" d="M112.632 177.427c8.868 31.76 15.979 66.175 20.287 102.746-20.825 24.275-39.14 47.128-58.711 75.804-4.458-73.446 17.754-136.146 38.424-178.55z"/><path fill="#bebebe" d="M377.567 83.726c35.918 7.914 81.006 20.767 134.433 44.296-127.701 18.093-234.135 78.273-300.352 126.219 53.637-80.799 120.764-136.818 165.919-170.515z"/><path d="M393.411 170.65c40.353 22.813 80.734 51.584 118.494 85.395-39.871-.045-86.697 4.103-132.753 13.375-19.527-19.996-36.477-35.734-57.402-53.623 24.629-18.349 49.011-33.321 71.661-45.147zm-124.492 89.992c13.813 18.277 29.755 41.696 42.444 61.897-13.063 7.457-24.53 14.372-40 25.072-7.681-16.834-18.99-39.569-29.489-59.037 10.244-11.336 19.854-21.038 27.045-27.932z" fill="#505050"/><path fill="#828282" d="M311.363 322.539c29.838-16.547 53.907-27.448 82.191-37.867 25.714 27.687 55.486 65.11 80.886 104.755-49.82-12.494-92.369-18.002-134.94-19.082-8.377-15.407-19.5-34.235-28.137-47.806z"/><path d="M271.363 347.611l10.889 24.329c-13.764 1.066-33.118 3.454-51.363 6.945 12.558-10.756 23.505-19.4 40.474-31.274zm-31.439 77.565l2.569 11.638c-9.598-.535-18.644-.696-25.009-.651 7.822-4.185 15.398-7.87 22.44-10.987z" fill="#323232"/><path fill="#505050" d="M247.326 460.615c2.604 13.199 5.769 31.932 8.579 51.385-39.421-10.605-95.254-14.902-127.905-.045 30.424-28.843 70.473-45.681 119.326-51.34z"/><path fill="#6e6e6e" d="M217.484 436.162c-35.148 18.921-66.153 44.02-89.484 75.793 15.167-32.262 32.475-56.872 45.397-73.258 12.592-1.408 27.557-2.444 44.087-2.535z"/><path fill="#828282" d="M167.276 395.917c13.785-4.861 35.792-11.719 63.612-17.031-25.125 21.75-42.502 40.94-57.491 59.812-7.677.862-17.234 2.193-26.715 3.941 5.471-14.755 12.475-30.987 20.594-46.722z"/><path fill="#bebebe" d="M211.869 324.818c-16.04 21.629-29.729 42.31-44.593 71.099-8.132 2.889-15.348 5.616-24.021 9.292 4.17-16.01 9.797-33.784 17.01-52.455 13.162-8.08 33.411-19.256 51.604-27.936z"/><path fill="#969696" d="M296.103 405.284c13.411-3.74 34.483-8.545 55.803-11.626 11.179 21.598 25.282 51.639 37.021 81.118-28.422-14.868-55.186-22.956-77.231-28.12-5.423-15.15-9.757-26.609-15.593-41.372z"/><path fill="#6e6e6e" d="M168.191 217.567c10.158 21.031 17.718 38.478 23.17 51.927 7.704-5.996 13.252-10.164 20.287-15.253-24.155 36.982-37.986 64.875-51.383 98.513-7.791 4.696-15.89 9.882-22.015 14.058-.262-22.44-.808-33.651-1.863-49.826-3.963 3.778-8.341 8.087-13.318 13.117 10.537-43.985 27.54-81.031 45.122-112.536z"/><path d="M123.069 330.103c-13.319 55.297-12.029 103.992-4.417 144.556-4.679.118-7.932.189-12.231.49-10.211-20.545-23.602-52.04-29.503-93.029 11.675-14.885 30.517-36.332 46.151-52.017zM65.644 426.01c3.342 6.471 5.896 11.023 9.234 16.7C47.771 461.782 24.504 482.058 0 511.955c17.354-31.245 40.153-60.799 65.644-85.945z" fill="#828282"/><path fill="#323232" d="M50.531 392.562C37.439 436.702 21.281 474.623 0 511.955c11.787-46.539 31.636-85.945 50.531-119.393z"/></svg>