<svg xmlns="http://www.w3.org/2000/svg" width="512" height="512" xmlns:v="https://vecta.io/nano"><style><![CDATA[.B{fill:#6e6e6e}.C{fill:#323232}.D{fill:#969696}.E{fill:#828282}]]></style><path fill="#fff" d="M512 256c0 25.838-3.829 50.782-10.948 74.298-6.34 20.938-15.289 40.741-26.471 59.033a257.1 257.1 0 0 1-37.562 47.688c-14.315 14.316-30.32 26.944-47.688 37.562-18.415 11.257-38.364 20.252-59.461 26.6C306.482 508.218 281.683 512 256 512h-64-64-64H0v-64-64-64-64c0-25.838 3.828-50.782 10.948-74.297 6.34-20.938 15.29-40.742 26.471-59.034C48.036 105.301 60.665 89.297 74.98 74.98a257.06 257.06 0 0 1 47.688-37.561c18.415-11.257 38.364-20.253 59.46-26.6C205.519 3.782 230.317 0 256 0h64 64 64 64v64 64 64 64z"/><path d="M512 0v64l-25.817 1.618C499.405 45.584 508.842 20.793 512 0z" class="B"/><path d="M427.902 143.322c-9.669 0-22.563-2.285-34.215-8.833 23.674-3.372 51.564-5.575 74.263-6.321C483.849 108.569 499.467 85.86 512 64c-3.218 46.287-40.726 79.322-84.098 79.322z" class="C"/><path d="M512 128v64c-50.494 14.287-102.226-4.937-128-64 40.544 53.75 111.42 48.359 128 0z" class="B"/><path fill="#505050" d="M419.863 242.15c-7.695-14.295-14.938-30.976-20.009-45.616 4.546-3.685 7.537-6.257 10.931-9.191C429.241 213.477 462.679 245.358 512 256c-27.604 0-60.809 1.433-82.063 3.532 21.098 33.65 46.572 59.087 71.114 70.766-21.964-1.521-48.807-2.302-69.44-1.633 7.857 15.117 22.9 41.217 42.97 60.666-18.818-1.593-37.848-2.688-61.079-1.811-17.794-45.419-31.693-106.245-33.403-175.532l10.022-7.607c3.352 18.814 8.303 39.094 12.631 52.698 6.823-5.554 12.094-10.403 17.111-14.929z"/><path d="M379.919 200l-10.865 1.782c2.703-19.144 7.772-46.923 14.946-73.782-3.715 31.694-4.088 56.074-4.081 72z" class="C"/><path d="M384 128c-12.383 23.438-26.982 54.258-37.174 78.021l22.228-4.239-2.573 19.919c-15.173 10.645-39.538 25.338-58.179 34.485C339.601 198.082 363.864 158.697 384 128z" class="B"/><path d="M299.267 217.956c6.369-1.883 13.165-3.71 18.856-5.215-9.691 12.946-29.829 41.661-41.418 58.309-11.36 4.942-26.344 10.646-38.161 14.748l60.723-67.842z" class="C"/><path d="M448 0h64c-46.001 70.082-98.318 126.346-168.542 170.455l-44.191 47.501c-36.931 10.954-67.172 23.495-95.514 37.757l15.303-29.099c26.146-8.02 53.068-18.14 81.953-32.417C334.522 154.478 393.052 85.085 448 0z" class="D"/><path d="M448 0c-34.514 44.412-79.759 88.368-133.229 119.912C340.87 78.404 367.596 32.28 384 0h64z" class="E"/><path fill="#bebebe" d="M376.599 8.384c-26.331 29.034-59.073 51.571-86.131 66.054l-12.46 28.855c-16.473 5.275-33.606 11.565-48.065 17.594 5.532-19.665 14.401-57.292 17.908-75.594C272.533 34.272 299.436 17.071 320 0l-7.477 19.866c16.06-3.703 38.442-8.011 64.076-11.482z"/><path d="M98.701 125.006c-7.5-19.29-14.905-34.567-23.721-50.025 17.949 1.08 41.392.577 58.404-.794-3.15-12.661-5.963-22.419-10.716-36.767C163.308 35.152 211.915 24.954 256 0c-2.866 18.156-5.03 29.268-8.149 45.294-19.507 9.022-44.098 17.247-65.698 21.746-28.808 15.194-56.237 33.831-83.452 57.966z" class="B"/><path d="M37.419 122.669c19.584 1.948 47.804 2.622 61.282 2.337-11.662 10.454-22.739 21.735-32.905 33.084-10.375-16.36-20.251-27.495-28.377-35.421z" class="C"/><path d="M142.73 120.833c13.075-1.716 26.399-3.904 41.103-7.223-.237 7.256-1.095 19.474-1.861 29.948 16.54-8.89 32.708-16.316 47.97-22.671l-11.934 41.457c29.792-8.863 64.195-22.87 96.762-42.433l-23.727 37.449c-15.561 4.854-32.37 10.949-45.593 16.401-8.746 18.238-17.812 36.316-26.396 52.853-7.196 2.207-15.796 4.641-24.97 6.994 4.153-11.242 9.877-27.497 15.122-43.506-13.816 6.896-23.017 11.98-34.786 18.882 1.614-10.227 3.831-27.313 4.839-36.81-10.417 2.185-20.103 3.885-30.525 5.396.707 10.242 1.323 31.34 1.016 47.005-6.052 4.043-15.728 10.881-22.411 15.989-1.737-14.33-5.43-35.936-10.098-55.42 10.324-7.882 20.332-14.885 30.523-21.464-.905-12.25-2.986-29.196-5.034-42.847z" class="D"/><path fill="#505050" d="M123.156 180.699c-9.646 7.088-20.84 16.113-31.719 25.792 6.777 15.542 12.306 30.78 16.207 43.261 31.351-3.875 59.258-9.188 86.441-16.144l-13.144 34.422c-24.785 14.213-47.046 29.597-68.813 47.387-5.67-16.49-14.969-38.525-30.086-62.981C59.083 254.61 26.615 256.12 0 256c9.501-18.708 23.684-44.379 45.099-72.657 24.375.791 52.49-.118 78.057-2.644z"/><path d="M180.942 268.03c6.859-3.94 15.918-8.855 22.811-12.317-9.343 17.491-19.394 35.482-26.328 47.549 19.651-4.33 44.018-11.479 61.119-17.464l-27.551 32.003c-33.668 16.926-57.345 32.486-81.372 50.811 1.98-21.723 2.55-39.806 2.459-56.613 14.782-2.297 24.993-4.344 33.096-6.025 4.764-10.837 11.373-26.763 15.766-37.944z" class="B"/><path d="M210.993 317.801c48.706-24.07 99.167-39.659 151.803-49.24-.357 7.382-.392 11.298-.547 18.863-8.924 5.956-16.125 10.522-24.672 15.591-1.204 7.727-3.328 23.141-4.838 36.811 9.597-2.036 29.935-5.919 56.116-8.525-59.343 43.994-139.276 80.585-247.758 100.567 47.647-39.675 99.3-66.049 152.894-82.213l8.802-27.754c-42.938 21.373-89.239 36.846-133.761 46.537 11.546-14.361 29.578-36.105 41.961-50.637z" class="D"/><path d="M413.502 387.521c5.61 14.518 13.377 31.896 23.518 49.499-75.305-3.802-131.255 10.655-172.87 29.685 4.106-20.094 7.887-36.622 12.119-53.38 40.749-14.646 88.924-24.259 137.233-25.804z" class="E"/><path d="M389.332 474.581c-19.04 11.706-41.076 21.2-59.461 26.6-.565-6.492-.935-12.129-1.257-17.56 17.532-4.201 37.38-7.697 60.718-9.04z" class="C"/><path d="M327.316 445.531c.113 10.274.559 26.221 1.298 38.09C305.647 489.246 280.681 498.136 256 512h-64c12.157-10.015 27.455-20.838 39.608-28.077 24.392-6.827 62.162-19.838 95.708-38.392zm-105.779-7.98c-8.608 20.243-18.247 44.539-22.06 54.582-18.938 4.381-41.307 8.444-64.075 11.483 21.938-23.659 48.517-45.578 86.135-66.065zm-186.9-169.727c15.01 7.229 26.751 15.611 35.751 23.199-8.607 8.926-15.16 16.164-25.78 28.941-14.672.406-30.047.461-44.608.036 10.497-18.259 21.223-34.532 34.637-52.176z" class="B"/><path d="M47.357 316.671C78.991 321.512 109.389 341.906 128 384a97.68 97.68 0 0 0-7.053-8.561l-2.538 2.059c-20.527-11.114-45.006-11.603-67.347-2.1 8.828-10.4 18-20.144 25.085-27.267-23.706-5.933-47.52-.756-62.983 14.639a509.21 509.21 0 0 1 34.193-46.099z" class="E"/><path d="M51.062 375.398C33.237 396.705 17.384 418.098 0 448c2.41-33.273 22.307-60.204 51.062-72.602z" class="C"/><path d="M111.196 383.495C68.285 420.217 33.667 460.646 0 512c10.146-63.311 61.955-122.035 111.196-128.505z" class="B"/><path d="M141.097 431.867C117.672 451.348 90.36 478.229 64 512c25.003-38.255 36.607-54.167 52.609-75.919l24.488-4.214z" class="C"/></svg>