<svg xmlns="http://www.w3.org/2000/svg" width="512" height="512" xmlns:v="https://vecta.io/nano"><style><![CDATA[.B{fill:#6e6e6e}.C{fill:#969696}.D{fill:#505050}]]></style><path fill="#fff" d="M0 0h512v512H0z"/><path d="M384 320l64-64h-64z" class="C"/><path d="M64,0H0v64C35.346,64,64,35.346,64,0z" class="D"/><path d="M64,0c0,35.346,28.654,64,64,64l64-64H64z" class="C"/><path fill="#323232" d="M256 64c35.346 0 64-28.654 64-64H192c0 35.346 28.654 64 64 64z"/><path d="M320,0c0,35.346,28.654,64,64,64V0H320z" class="B"/><path d="M0,64v128l64-64C64,92.654,35.346,64,0,64z" class="C"/><g class="B"><path d="M64 128l64-64c-35.346 0-64 28.654-64 64z"/><circle cx="256" cy="128" r="64"/></g><path d="M320 128c0 35.346 28.654 64 64 64V64c-35.346 0-64 28.654-64 64z" class="C"/><path d="M448,128c0,35.346,28.654,64,64,64v-64H448z" class="B"/><path d="M0,256l45.254,45.255C56.837,289.674,64,273.674,64,256H0z" class="C"/><path d="M128 320c35.346 0 64-28.654 64-64h-64-64c0 35.346 28.654 64 64 64z" class="D"/><path d="M128 192c23.685 0 44.35-12.876 55.417-32-11.067-19.124-31.732-32-55.417-32s-44.349 12.876-55.417 32c11.068 19.124 31.732 32 55.417 32z" class="B"/><path d="M128 192c23.685 0 44.35 12.876 55.417 32-11.067 19.124-31.732 32-55.417 32s-44.349-12.876-55.417-32c11.068-19.124 31.732-32 55.417-32z" class="C"/><path fill="#323232" d="M256 288c0-17.674-14.326-32-32-32-12.993 0-24.153 7.757-29.166 18.881 6.216 20.161 22.124 36.068 42.285 42.284C248.243 312.152 256 300.993 256 288z"/><path d="M256 224c0 17.674 14.326 32 32 32 12.993 0 24.152-7.757 29.165-18.881-6.216-20.161-22.123-36.068-42.284-42.285C263.757 199.847 256 211.007 256 224z" class="D"/><path d="M384 192c-35.346 0-64 28.654-64 64h64v-64zm64 64c0 17.674 7.163 33.674 18.745 45.255L512 256h-64z" class="B"/><path d="M512,192c-17.674,0-33.674,7.163-45.255,18.746L512,256V192z" class="C"/><path d="M0,384l45.254,45.255C56.837,417.674,64,401.674,64,384H0z" class="B"/><path d="M64,384c0,35.346,28.654,64,64,64v-64H64z" class="D"/><path fill="#828282" d="M128 320c-17.673 0-33.673 7.163-45.254 18.745l90.509 90.51C184.837 417.674 192 401.674 192 384c0-35.346-28.654-64-64-64z"/><path d="M448,384c0,35.346,28.654,64,64,64v-64H448z" class="D"/><path d="M128,448c-17.673,0-33.673,7.163-45.254,18.745L128,512V448z" class="B"/><path d="M378.43 448.257c-30.898 2.667-55.506 27.274-58.173 58.173 27.064-9.657 48.516-31.108 58.173-58.173z" class="C"/><path d="M256 448c-18.993 0-36.046 8.281-47.766 21.421C225.463 495.098 254.756 512 288 512a95.82 95.82 0 0 0 31.757-5.404C317.011 473.781 289.524 448 256 448z" class="B"/><path fill="#bebebe" d="M256 448c35.346 0 64-28.654 64-64 0-30.4-21.202-55.831-49.62-62.357-38.885 7.216-69.521 37.853-76.737 76.737C200.169 426.798 225.6 448 256 448z"/><path d="M341.421 336.233C328.281 347.954 320 365.007 320 384c0 33.524 25.781 61.011 58.596 63.756A95.81 95.81 0 0 0 384 416c0-33.245-16.902-62.537-42.579-79.767z" class="D"/><path d="M448 384h-64v64c35.346 0 64-28.654 64-64z" class="C"/><path d="M384 448v64h64c0-35.346-28.654-64-64-64z" class="B"/><path d="M512 448c-35.346 0-64 28.654-64 64h64v-64zM384 128l45.255 45.254C440.837 161.673 448 145.673 448 128h-64z" class="C"/><path d="M448,0c0,17.673,7.163,33.673,18.745,45.254L512,0H448z" class="B"/><path d="M448 0h-64v64c35.346 0 64-28.654 64-64z" class="D"/><path d="M429.255 82.746C417.674 71.163 401.674 64 384 64v64l45.255-45.254z" class="B"/></svg>