<svg xmlns="http://www.w3.org/2000/svg" width="512" height="512" xmlns:v="https://vecta.io/nano"><path fill="#6e6e6e" d="M256 512V68.681L.05 512z"/><path fill="#505050" d="M256 512V68.681L511.95 512z"/><path fill="#969696" d="M320 512l-9.238-64.001h54.763z"/><g fill="#bebebe"><path d="M127.999 512H64l27.713-64.001z"/><path d="M119.426 383.997l-27.713 64.002H36.949L73.9 383.997l73.239-64.001h36.286z"/><path d="M183.425 319.996h36.289l-9.24 64.001z"/></g><g fill="#969696"><path d="M301.526 383.997l9.236 64.002L256 383.997zM448.001 512l-27.714-64.001h54.764z"/><path d="M392.575 383.997l27.712 64.002h-54.762l-18.477-64.002 17.881-64.001h36.218zm-91.049 0l-9.239-64.001h36.289z"/><path d="M283.048 255.997l9.239 63.999H256v-63.999zm81.881 63.999l-54.831-63.999-18.475-64h17.813l27.712 64h27.051z"/></g><g fill="#bebebe"><path d="M147.139 319.996l-36.288.002 73.901-128.001-9.899 64z"/><path d="M174.853 255.997l27.712-64h35.623z"/></g><g fill="#969696"><path d="M283.048 255.997l-27.048-64V68.592z"/><path d="M327.248 191.997h-17.812L256 68.592z"/></g><g fill="#bebebe"><path d="M238.188 191.997h-17.811L256 68.592z"/><path d="M202.565 191.997h-17.813L256 68.592zm7.721 192c20.141 0 45.714 19.673 45.714 55.188C256 479.997 228.573 512 192 512c-31.999 0-53.809-35.67-42.792-74.229 10.793-37.774 39.021-53.774 61.078-53.774zm45.714-128v63.999l-27.051-63.999z"/></g></svg>