<svg xmlns="http://www.w3.org/2000/svg" width="512" height="512" xmlns:v="https://vecta.io/nano"><path fill="#fff" d="M512.182 512L256.001 68.279-.182 512z"/><path fill="#505050" d="M256.001 512V68.279L-.182 512z"/><path fill="#828282" d="M73.771 383.908h45.558l27.068 64.046L63.863 512l27.734-64.046H36.795z"/><path fill="#bebebe" d="M210.443 383.908L191.955 512l-45.558-64.046z"/><path fill="#969696" d="M255.998 447.954V512l-54.799-64.046z"/><path fill="#bebebe" d="M320.045 512l-9.245-64.046h54.802z"/><path fill="#6e6e6e" d="M448.135 512l-27.733-64.046-73.289-64.046 17.825-64.044 27.732 64.044h45.558l36.976 64.046z"/><path fill="#828282" d="M347.113 383.908h-45.556l9.243 64.046-54.802-64.046 36.314-64.044-9.245-64.046 8.581-64.046z"/><path fill="#969696" d="M401.251 319.864h-36.313l-55.465-128.092 54.801 64.046z"/><path fill="#bebebe" d="M255.998 383.908l-36.311-64.044 18.489-128.092h17.822z"/><path fill="#969696" d="M210.443 383.908h-45.557l-17.824-64.044.663-64.046 36.977-64.046-9.908 64.046 8.581 64.046z"/><path fill="#323232" d="M201.862 255.818l36.977-128.091h8.581l-9.244 64.045z"/><path fill="#6e6e6e" d="M327.298 191.772h-17.825l-27.733-64.045h-8.58l-17.159-59.448z"/><path fill="#323232" d="M273.824 191.772h-17.826l.003-123.493z"/><path fill="#bebebe" d="M202.526 191.772h-17.824l45.557-64.045z"/><path fill="#969696" d="M238.839 127.727h-17.16l34.322-59.448z"/></svg>