<svg xmlns="http://www.w3.org/2000/svg" width="1024" height="886.5" xmlns:v="https://vecta.io/nano"><path fill="#8e2b14" d="M512 886.655V.155L0 886.655z"/><path fill="#6e1900" d="M512 886.655V.155l512 886.5z"/><path fill="#b24b27" d="M639.993 886.655l-18.472-127.954h109.526z"/><g fill="#c86e46"><path d="M255.999 886.655H128l55.426-127.954z"/><path d="M238.851 630.746l-55.425 127.955H73.897L147.8 630.746 294.276 502.79h72.577z"/><path d="M366.853 502.79h72.572L420.95 630.746z"/></g><g fill="#b24b27"><path d="M603.045 630.746l18.476 127.955L512 630.746zm292.95 255.909l-55.426-127.954h109.528z"/><path d="M785.146 630.746l55.423 127.955H731.047l-36.951-127.955 35.758-127.956h72.441zm-182.101 0L584.568 502.79h72.579z"/></g><path fill="#c86e46" d="M512 502.79l-54.103-127.955H512z"/><path d="M512 374.835h54.097l18.471 127.955H512zM729.854 502.79L620.192 374.835l-36.947-127.956h35.623l55.427 127.956h54.099z" fill="#b24b27"/><g fill="#c86e46"><path d="M294.276 502.79h-72.575l147.805-255.911-19.805 127.956z"/><path d="M349.701 374.835l55.427-127.956h71.248z"/></g><g fill="#b24b27"><path d="M566.097 374.835L512 246.879V.155z"/><path d="M654.49 246.879h-35.622L512 .155z"/></g><g fill="#c86e46"><path d="M476.376 246.879H440.75L512 .155z"/><path d="M405.128 246.879h-35.622L512 .155zm15.442 383.867c40.281 0 91.43 39.328 91.43 110.338 0 81.593-54.858 145.571-128 145.571-64 0-107.62-71.309-85.587-148.401C320 662.73 376.457 630.746 420.57 630.746z"/></g></svg>