<svg xmlns="http://www.w3.org/2000/svg" width="1024" height="886.5" xmlns:v="https://vecta.io/nano"><path fill="#5d505c" d="M512 886.655V.155L0 886.655z"/><path fill="#787850" d="M512 886.655V.155l512 886.5z"/><path fill="#c8b43c" d="M147.8 630.745h91.052L292.95 758.7 128 886.655 183.426 758.7H73.9z"/><path fill="#dcc878" d="M420.95 630.745l-36.948 255.91L292.95 758.7z"/><path fill="#aaa046" d="M511.996 758.7v127.955L402.474 758.7z"/><path fill="#beb4ce" d="M639.996 886.655L621.524 758.7h109.524z"/><g fill="#aaa0b4"><path d="M896 886.655L840.572 758.7 694.096 630.745l35.629-127.955 55.423 127.955h91.048l73.9 127.955z"/><path d="M694.096 630.745h-91.048L621.524 758.7 511.996 630.745l72.576-127.955-18.476-127.956 17.148-127.955z"/></g><path fill="#beb4ce" d="M802.296 502.79h-72.571L618.872 246.879l109.524 127.955z"/><path d="M511.996 630.745L439.424 502.79l36.952-255.911h35.62zm-91.046 0H329.9L294.275 502.79l1.329-127.956 73.902-127.955-19.804 127.955 17.152 127.956z" fill="#c8b43c"/><path fill="#aaa046" d="M403.802 374.834l73.902-255.91h17.148l-18.476 127.955z"/><path fill="#aaa0b4" d="M654.492 246.879h-35.62l-55.428-127.955h-17.148L512 .155z"/><path fill="#beb4ce" d="M547.624 246.879h-35.628L512 .155z"/><path fill="#dcc878" d="M405.13 246.879h-35.624l91.046-127.955z"/><path fill="#c8b43c" d="M477.704 118.924h-34.301L512 .155z"/></svg>