<svg xmlns="http://www.w3.org/2000/svg" width="1024" height="1024" xmlns:v="https://vecta.io/nano"><path fill="#fce9f3" d="M320 448l128-128v128z"/><path fill="#d4edf9" d="M192 64L64 192V64z"/><path fill="#c8c8e6" d="M352 64c-53.02 0-96 42.98-96 96 0 6.022.581 11.906 1.643 17.62C264.17 149.202 289.601 128 320 128c35.346 0 64 28.654 64 64 0 30.399-21.202 55.83-49.62 62.357C340.094 255.419 345.978 256 352 256c53.02 0 96-42.98 96-96s-42.98-96-96-96z"/><circle fill="#ffbedb" cx="288" cy="224" r="32"/><path fill="#e9efc6" d="M224 384c-53.02 0-96-42.98-96-96a95.82 95.82 0 0 1 5.483-32H0v128c70.692 0 128 57.308 128 128h128V378.517A95.82 95.82 0 0 1 224 384zm-128 0c-17.674 0-32-14.327-32-32s14.326-32 32-32 32 14.326 32 32-14.327 32-32 32zm64 64c-17.674 0-32-14.327-32-32s14.326-32 32-32 32 14.326 32 32-14.327 32-32 32z"/><path fill="#fce9f3" d="M704 448L576 320v128z"/><path fill="#d4edf9" d="M832 64l128 128V64z"/><path fill="#c8c8e6" d="M672 64c53.019 0 96 42.98 96 96 0 6.022-.581 11.906-1.644 17.62C759.829 149.202 734.398 128 704 128c-35.348 0-64 28.654-64 64 0 30.399 21.204 55.83 49.62 62.357A96.3 96.3 0 0 1 672 256c-53.019 0-96-42.98-96-96s42.981-96 96-96z"/><circle fill="#ffbedb" cx="736" cy="224" r="32"/><path fill="#e9efc6" d="M768 378.517V512h128c0-70.692 57.308-128 128-128V256H890.517A95.82 95.82 0 0 1 896 288c0 53.02-42.981 96-96 96-11.223 0-21.988-1.944-32-5.483zM896 352c0-17.674 14.326-32 32-32s32 14.326 32 32-14.326 32-32 32-32-14.327-32-32zm-64 64c0-17.674 14.326-32 32-32s32 14.326 32 32-14.326 32-32 32-32-14.327-32-32z"/><path fill="#fce9f3" d="M704 576L576 704V576z"/><path fill="#d4edf9" d="M832 960l128-128v128z"/><path fill="#c8c8e6" d="M672 960c53.019 0 96-42.98 96-96 0-6.021-.581-11.906-1.644-17.62C759.829 874.798 734.398 896 704 896c-35.348 0-64-28.654-64-64 0-30.399 21.204-55.83 49.62-62.357A96.3 96.3 0 0 0 672 768c-53.019 0-96 42.98-96 96s42.981 96 96 96z"/><circle fill="#ffbedb" cx="736" cy="800" r="32"/><path fill="#e9efc6" d="M800 640c53.019 0 96 42.98 96 96a95.82 95.82 0 0 1-5.483 32H1024V640c-70.692 0-128-57.308-128-128H768v133.483c10.012-3.539 20.777-5.483 32-5.483zm128 0c17.674 0 32 14.326 32 32s-14.326 32-32 32-32-14.326-32-32 14.326-32 32-32zm-64-64c17.674 0 32 14.326 32 32s-14.326 32-32 32-32-14.326-32-32 14.326-32 32-32z"/><path fill="#fce9f3" d="M320 576l128 128V576z"/><path fill="#d4edf9" d="M192 960L64 832v128z"/><path fill="#c8c8e6" d="M352 960c-53.02 0-96-42.98-96-96 0-6.021.581-11.906 1.643-17.62C264.17 874.798 289.601 896 320 896c35.346 0 64-28.654 64-64 0-30.399-21.202-55.83-49.62-62.357C340.094 768.581 345.978 768 352 768c53.02 0 96 42.98 96 96s-42.98 96-96 96z"/><circle fill="#ffbedb" cx="288" cy="800" r="32"/><path fill="#e9efc6" d="M256 645.483V512H128c0 70.692-57.308 128-128 128v128h133.483A95.82 95.82 0 0 1 128 736c0-53.02 42.98-96 96-96a95.82 95.82 0 0 1 32 5.483zM128 672c0 17.674-14.327 32-32 32s-32-14.326-32-32 14.326-32 32-32 32 14.326 32 32zm64-64c0 17.674-14.327 32-32 32s-32-14.326-32-32 14.326-32 32-32 32 14.326 32 32z"/></svg>