<svg xmlns="http://www.w3.org/2000/svg" width="1024" height="1024" xmlns:v="https://vecta.io/nano"><style><![CDATA[.O{fill:#d54a30}.P{fill:#e7660b}.Q{fill:#a9332e}.R{fill:#8d2333}.S{fill:#dedcdd}.T{fill:#a5a0a3}.U{fill:#bcb9bb}]]></style><circle cx="128" cy="256" r="64" class="Q"/><circle cx="224" cy="160" r="32" class="O"/><circle cx="288" cy="224" r="32" class="P"/><circle cx="288" cy="288" r="32" class="R"/><circle cx="224" cy="352" r="32" class="O"/><path d="M384 384V256l64 64z" class="S"/><path fill="#c81932" d="M384 0c-53.228 0-98.862 32.492-118.164 78.721C335.224 107.654 384 176.127 384 256c70.692 0 128-57.308 128-128S454.692 0 384 0z"/><path d="M256 437.06V448h128V256c0 83.596-53.431 154.7-128 181.06z" class="T"/><path d="M512 512V320L384 448l64 64z" class="P"/><g class="U"><path d="M128,512h64v-64C85.961,448,0,362.039,0,256v128L128,512z"/><path d="M0,128v128C0,149.961,85.961,64,192,64V0h-64L0,128z"/></g><circle cx="896" cy="256" r="64" class="Q"/><circle cx="800" cy="160" r="32" class="O"/><circle cx="736" cy="224" r="32" class="P"/><circle cx="736" cy="288" r="32" class="R"/><circle cx="800" cy="352" r="32" class="O"/><path d="M640 384V256l-64 64z" class="S"/><path fill="#f0a174" d="M640 0c53.228 0 98.861 32.492 118.164 78.721C688.776 107.654 640 176.127 640 256c-70.692 0-128-57.308-128-128S569.308 0 640 0z"/><path d="M768 437.06V448H640V256c0 83.596 53.431 154.7 128 181.06z" class="T"/><path fill="#b2191e" d="M512 512V320l128 128-64 64z"/><g class="U"><path d="M896,512h-64v-64c106.039,0,192-85.961,192-192v128L896,512z"/><path d="M1024 128v128c0-106.039-85.961-192-192-192V0h64l128 128z"/></g><circle cx="128" cy="768" r="64" class="Q"/><circle cx="224" cy="864" r="32" class="O"/><circle cx="288" cy="800" r="32" class="P"/><circle cx="288" cy="736" r="32" class="R"/><circle cx="224" cy="672" r="32" class="O"/><path d="M384 640v128l64-64z" class="S"/><path fill="#f0a174" d="M384 1024c-53.228 0-98.862-32.492-118.164-78.721C335.224 916.346 384 847.873 384 768c70.692 0 128 57.308 128 128s-57.308 128-128 128z"/><path d="M256 586.94V576h128v192c0-83.596-53.431-154.7-128-181.06z" class="T"/><path fill="#b2191e" d="M512 512v192L384 576l64-64z"/><g class="U"><path d="M128,512h64v64C85.961,576,0,661.961,0,768V640L128,512z"/><path d="M0,896V768c0,106.039,85.961,192,192,192v64h-64L0,896z"/></g><circle cx="896" cy="768" r="64" class="Q"/><circle cx="800" cy="864" r="32" class="O"/><circle cx="736" cy="800" r="32" class="P"/><circle cx="736" cy="736" r="32" class="R"/><circle cx="800" cy="672" r="32" class="O"/><path d="M640 640v128l-64-64z" class="S"/><path fill="#c81932" d="M640 1024c53.228 0 98.861-32.492 118.164-78.721C688.776 916.346 640 847.873 640 768c-70.692 0-128 57.308-128 128s57.308 128 128 128z"/><path d="M768 586.94V576H640v192c0-83.596 53.431-154.7 128-181.06z" class="T"/><path d="M512 512v192l128-128-64-64z" class="P"/><g class="U"><path d="M896,512h-64v64c106.039,0,192,85.961,192,192V640L896,512z"/><path d="M1024 896V768c0 106.039-85.961 192-192 192v64h64l128-128z"/></g></svg>