<svg xmlns="http://www.w3.org/2000/svg" width="1024" height="1024" xmlns:v="https://vecta.io/nano"><style><![CDATA[.B{fill:#f8cc88}.C{fill:#8da25f}.D{fill:#68934f}.E{fill:#a3d9ea}.F{fill:#bbe1e4}.G{fill:#97a469}.H{fill:#6ab0ce}.I{fill:#f2e4a1}]]></style><path d="M0 0h64v64H0z" class="B"/><g class="E"><path d="M384 384V256c0 35.346-14.327 67.346-37.49 90.51L384 384zM165.49 165.49C188.654 142.327 220.654 128 256 128H128l37.49 37.49z"/><path d="M256,128c70.692,0,128,57.308,128,128V128H256z"/></g><path d="M128 256v128h128z" class="F"/><path d="M0 384v128h128z" class="G"/><path d="M256 192c-35.346 0-64 28.654-64 64l64 64c35.346 0 64-28.654 64-64s-28.654-64-64-64z" class="H"/><path d="M384 384v64h64z" class="C"/><path d="M384 512v-64h-64z" class="D"/><path d="M64 192v-64H0z" class="C"/><path d="M64 64v64h64z" class="D"/><path d="M448 448h64v64h-64z" class="B"/><path d="M128 0l101.49 101.49C252.654 78.327 284.654 64 320 64c70.692 0 128 57.308 128 128 0 35.346-14.327 67.346-37.49 90.51L512 384V0H128z" class="I"/><path d="M960 0h64v64h-64z" class="B"/><g class="E"><path d="M640 384V256c0 35.346 14.327 67.346 37.49 90.51L640 384zm218.51-218.51C835.346 142.327 803.346 128 768 128h128l-37.49 37.49z"/><path d="M768,128c-70.692,0-128,57.308-128,128V128H768z"/></g><path d="M896 256v128H768z" class="F"/><path d="M1024 384v128H896z" class="G"/><path d="M768 192c35.347 0 64 28.654 64 64l-64 64c-35.347 0-64-28.654-64-64s28.653-64 64-64z" class="H"/><path d="M640 384v64h-64z" class="C"/><path d="M640 512v-64h64z" class="D"/><path d="M960 192v-64h64z" class="C"/><path d="M960 64v64h-64z" class="D"/><path d="M512 448h64v64h-64z" class="B"/><path d="M896 0L794.51 101.49C771.346 78.327 739.346 64 704 64c-70.692 0-128 57.308-128 128 0 35.346 14.327 67.346 37.49 90.51L512 384V0h384z" class="I"/><path d="M960 960h64v64h-64z" class="B"/><g class="E"><path d="M640 640v128c0-35.346 14.327-67.346 37.49-90.51L640 640zm218.51 218.51C835.346 881.673 803.346 896 768 896h128l-37.49-37.49z"/><path d="M768,896c-70.692,0-128-57.308-128-128v128H768z"/></g><path d="M896 768V640H768z" class="F"/><path d="M1024 640V512H896z" class="G"/><path d="M768 832c35.347 0 64-28.653 64-64l-64-64c-35.347 0-64 28.654-64 64s28.653 64 64 64z" class="H"/><path d="M640 640v-64h-64z" class="C"/><path d="M640 512v64h64z" class="D"/><path d="M960 832v64h64z" class="C"/><path d="M960 960v-64h-64z" class="D"/><path d="M512 512h64v64h-64z" class="B"/><path d="M896 1024L794.51 922.51C771.346 945.673 739.346 960 704 960c-70.692 0-128-57.308-128-128 0-35.346 14.327-67.346 37.49-90.51L512 640v384h384z" class="I"/><path d="M0 960h64v64H0z" class="B"/><g class="E"><path d="M384 640v128c0-35.346-14.327-67.346-37.49-90.51L384 640zM165.49 858.51C188.654 881.673 220.654 896 256 896H128l37.49-37.49z"/><path d="M256,896c70.692,0,128-57.308,128-128v128H256z"/></g><path d="M128 768V640h128z" class="F"/><path d="M0 640V512h128z" class="G"/><path d="M256 832c-35.346 0-64-28.653-64-64l64-64c35.346 0 64 28.654 64 64s-28.654 64-64 64z" class="H"/><path d="M384 640v-64h64z" class="C"/><path d="M384 512v64h-64z" class="D"/><path d="M64 832v64H0z" class="C"/><path d="M64 960v-64h64z" class="D"/><path d="M448 512h64v64h-64z" class="B"/><path d="M128 1024l101.49-101.49C252.654 945.673 284.654 960 320 960c70.692 0 128-57.308 128-128 0-35.346-14.327-67.346-37.49-90.51L512 640v384H128z" class="I"/></svg>