<svg xmlns="http://www.w3.org/2000/svg" width="1024" height="1024" xmlns:v="https://vecta.io/nano"><style><![CDATA[.Q{fill:#6a528c}.R{fill:#407c7f}.S{fill:#ac86a6}.T{fill:#878564}.U{fill:#8b9567}.V{fill:#83a153}.W{fill:#b4cd84}.X{fill:#f49c68}]]></style><path d="M64 64H0L64 0z" class="Q"/><path d="M0 512v-64l64 64z" class="R"/><path d="M512 512v-64l-64 64z" class="S"/><path d="M0 256.023h64V320H0zM192 448h64v63.977h-64z" class="T"/><path d="M320 0C213.961 0 128 85.961 128 192c0 29.641 6.722 57.711 18.716 82.775C135.152 286.355 128 302.342 128 320a63.98 63.98 0 0 0 2.827 18.854A31.86 31.86 0 0 0 128 352c0 17.673 14.327 32 32 32 4.687 0 9.134-1.016 13.146-2.827A63.98 63.98 0 0 0 192 384c17.658 0 33.645-7.152 45.225-18.716C262.289 377.278 290.359 384 320 384c106.039 0 192-85.961 192-192S426.039 0 320 0z" class="U"/><circle cx="96" cy="416" r="32" class="V"/><path d="M448 320L320 448h128z" class="R"/><path d="M320 192L192 320h128z" class="Q"/><path d="M512 0v174.876C493.173 185.767 471.314 192 448 192c-70.692 0-128-57.308-128-128 0-23.314 6.233-45.173 17.124-64H512z" class="W"/><path d="M128.147 0L0 128.443V192l192 .591V0z" class="X"/><path d="M960 64h64L960 0z" class="Q"/><path d="M1024 512v-64l-64 64z" class="R"/><path d="M512 512v-64l64 64z" class="S"/><path d="M960 256.023h64V320h-64zM768 448h64v63.977h-64z" class="T"/><path d="M704 0c106.039 0 192 85.961 192 192 0 29.641-6.722 57.711-18.717 82.775C888.848 286.355 896 302.342 896 320a63.98 63.98 0 0 1-2.827 18.854A31.88 31.88 0 0 1 896 352c0 17.673-14.327 32-32 32a31.86 31.86 0 0 1-13.146-2.827C844.894 383.008 838.563 384 832 384c-17.658 0-33.646-7.152-45.225-18.716C761.711 377.278 733.642 384 704 384c-106.039 0-192-85.961-192-192S597.961 0 704 0z" class="U"/><circle cx="928" cy="416" r="32" class="V"/><path d="M576 320l128 128H576z" class="R"/><path d="M704 192l128 128H704z" class="Q"/><path d="M512 0v174.876C530.827 185.767 552.686 192 576 192c70.692 0 128-57.308 128-128 0-23.314-6.233-45.173-17.124-64H512z" class="W"/><path d="M895.853 0L1024 128.443V192l-192 .591V0z" class="X"/><path d="M64 960H0l64 64z" class="Q"/><path d="M0 512v64l64-64z" class="R"/><path d="M512 512v64l-64-64z" class="S"/><path d="M0 704h64v63.978H0zm192-191.977h64V576h-64z" class="T"/><path d="M320 1024c-106.039 0-192-85.961-192-192 0-29.642 6.722-57.711 18.716-82.775C135.152 737.646 128 721.658 128 704a63.98 63.98 0 0 1 2.827-18.854A31.86 31.86 0 0 1 128 672c0-17.673 14.327-32 32-32a31.88 31.88 0 0 1 13.146 2.827A63.98 63.98 0 0 1 192 640c17.658 0 33.645 7.152 45.225 18.717C262.289 646.722 290.359 640 320 640c106.039 0 192 85.961 192 192s-85.961 192-192 192z" class="U"/><circle cx="96" cy="608" r="32" class="V"/><path d="M448 704L320 576h128z" class="R"/><path d="M320 832L192 704h128z" class="Q"/><path d="M512 1024V849.124C493.173 838.233 471.314 832 448 832c-70.692 0-128 57.308-128 128 0 23.314 6.233 45.173 17.124 64H512z" class="W"/><path d="M128.147 1024L0 895.557V832l192-.591V1024z" class="X"/><path d="M960 960h64l-64 64z" class="Q"/><path d="M1024 512v64l-64-64z" class="R"/><path d="M512 512v64l64-64z" class="S"/><path d="M960 704h64v63.978h-64zM768 512.023h64V576h-64z" class="T"/><path d="M704 1024c106.039 0 192-85.961 192-192 0-29.642-6.722-57.711-18.717-82.775C888.848 737.646 896 721.658 896 704a63.98 63.98 0 0 0-2.827-18.854c1.81-4.011 2.827-8.458 2.827-13.146 0-17.673-14.327-32-32-32-4.688 0-9.135 1.017-13.146 2.827C844.894 640.992 838.563 640 832 640c-17.658 0-33.646 7.152-45.225 18.717C761.711 646.722 733.642 640 704 640c-106.039 0-192 85.961-192 192s85.961 192 192 192z" class="U"/><circle cx="928" cy="608" r="32" class="V"/><path d="M576 704l128-128H576z" class="R"/><path d="M704 832l128-128H704z" class="Q"/><path d="M512 1024V849.124C530.827 838.233 552.686 832 576 832c70.692 0 128 57.308 128 128 0 23.314-6.233 45.173-17.124 64H512z" class="W"/><path d="M895.853 1024L1024 895.557V832l-192-.591V1024z" class="X"/></svg>