<svg xmlns="http://www.w3.org/2000/svg" width="1024" height="1024" xmlns:v="https://vecta.io/nano"><circle fill="#eb6209" cx="64" cy="192" r="64"/><circle fill="#99b815" cx="192" cy="320" r="64"/><circle fill="#8ca9dc" cx="320" cy="448" r="64"/><path fill="#d54d1d" d="M256 128h128v128H256z"/><path fill="#96b464" d="M0 384h128v128H0z"/><path fill="#f4b26f" d="M0 128V0h128z"/><path fill="#8c7ba3" d="M384 384V256h128z"/><path d="M384 384v128h128zM256 128V0H128z" fill="#97a469"/><path fill="#007c37" d="M512 128V0H384z"/><circle fill="#eb6209" cx="960" cy="192" r="64"/><circle fill="#99b815" cx="832" cy="320" r="64"/><circle fill="#8ca9dc" cx="704" cy="448" r="64"/><path fill="#d54d1d" d="M640 128h128v128H640z"/><path fill="#f09c26" d="M896 384h128v128H896z"/><path fill="#f4b26f" d="M1024 128V0H896z"/><path fill="#8c7ba3" d="M640 384V256H512z"/><path d="M640 384v128H512zm128-256V0h128z" fill="#97a469"/><path fill="#007c37" d="M512 128V0h128z"/><circle fill="#eb6209" cx="64" cy="832" r="64"/><circle fill="#99b815" cx="192" cy="704" r="64"/><circle fill="#8ca9dc" cx="320" cy="576" r="64"/><path fill="#d54d1d" d="M256 768h128v128H256z"/><path fill="#f09c26" d="M0 512h128v128H0z"/><path fill="#f4b26f" d="M0 896v128h128z"/><path fill="#8c7ba3" d="M384 640v128h128z"/><path d="M384 640V512h128zM256 896v128H128z" fill="#97a469"/><path fill="#007c37" d="M512 896v128H384z"/><circle fill="#eb6209" cx="960" cy="832" r="64"/><circle fill="#99b815" cx="832" cy="704" r="64"/><circle fill="#8ca9dc" cx="704" cy="576" r="64"/><path fill="#d54d1d" d="M640 768h128v128H640z"/><path fill="#96b464" d="M896 512h128v128H896z"/><path fill="#f4b26f" d="M1024 896v128H896z"/><path fill="#8c7ba3" d="M640 640v128H512z"/><path d="M640 640V512H512zm128 256v128h128z" fill="#97a469"/><path fill="#007c37" d="M512 896v128h128z"/></svg>