<svg xmlns="http://www.w3.org/2000/svg" width="1024" height="1024" xmlns:v="https://vecta.io/nano"><path fill="#e7660b" d="M512 512L384 384l128-128z"/><path fill="#c51415" d="M320 448V320l64 64z"/><path fill="#875495" d="M320 320L128 128v64c-35.346 0-64 28.654-64 64s28.654 64 64 64c-35.346 0-64 28.654-64 64s28.654 64 64 64v64l192-192z"/><path fill="#b297b0" d="M384 64L320 0l-64 64c-35.346 0-64 28.654-64 64s28.654 64 64 64 64-28.654 64-64c0 35.346 28.654 64 64 64s64-28.654 64-64-28.654-64-64-64z"/><path fill="#e7660b" d="M512 512l128-128-128-128z"/><path fill="#c51415" d="M704 448V320l-64 64z"/><path fill="#875495" d="M704 320l192-192v64c35.346 0 64 28.654 64 64s-28.654 64-64 64c35.346 0 64 28.654 64 64s-28.654 64-64 64v64L704 320z"/><path fill="#b297b0" d="M640 64l64-64 64 64c35.346 0 64 28.654 64 64s-28.654 64-64 64-64-28.654-64-64c0 35.346-28.654 64-64 64s-64-28.654-64-64 28.654-64 64-64z"/><path fill="#e7660b" d="M512 512L384 640l128 128z"/><path fill="#c51415" d="M320 576v128l64-64z"/><path fill="#875495" d="M320 704L128 896v-64c-35.346 0-64-28.654-64-64s28.654-64 64-64c-35.346 0-64-28.654-64-64s28.654-64 64-64v-64l192 192z"/><path fill="#b297b0" d="M384 960l-64 64-64-64c-35.346 0-64-28.654-64-64s28.654-64 64-64 64 28.654 64 64c0-35.346 28.654-64 64-64s64 28.654 64 64-28.654 64-64 64z"/><path fill="#e7660b" d="M512 512l128 128-128 128z"/><path fill="#c51415" d="M704 576v128l-64-64z"/><path fill="#875495" d="M704 704l192 192v-64c35.346 0 64-28.654 64-64s-28.654-64-64-64c35.346 0 64-28.654 64-64s-28.654-64-64-64v-64L704 704z"/><path fill="#b297b0" d="M640 960l64 64 64-64c35.346 0 64-28.654 64-64s-28.654-64-64-64-64 28.654-64 64c0-35.346-28.654-64-64-64s-64 28.654-64 64 28.654 64 64 64z"/></svg>