<svg xmlns="http://www.w3.org/2000/svg" width="1024" height="1024" xmlns:v="https://vecta.io/nano"><circle fill="#dc643c" cx="256" cy="256" r="64"/><circle fill="#82a1e6" cx="448" cy="448" r="64"/><circle fill="#892a81" cx="448" cy="64" r="64"/><path fill="#dc3264" d="M0 192h128v128H0z"/><path fill="#c878c8" d="M192 64h128v128H192z"/><path fill="#c896d2" d="M192 320h128v128H192z"/><path fill="#8c8ce6" d="M128 128L0 0h128z"/><path fill="#a58abf" d="M512 256L384 128h128z"/><path fill="#9646a0" d="M0 384l128 128H0z"/><path fill="#f3a2b9" d="M512 256L384 384h128z"/><circle fill="#c84564" cx="768" cy="256" r="64"/><circle fill="#a0a1d2" cx="576" cy="448" r="64"/><circle fill="#b42a81" cx="576" cy="64" r="64"/><path fill="#c8508c" d="M896 192h128v128H896z"/><path fill="#c896d2" d="M704 64h128v128H704z"/><path fill="#c878c8" d="M704 320h128v128H704z"/><path fill="#78a1e6" d="M896 128L1024 0H896z"/><path fill="#a58abf" d="M512 256l128-128H512z"/><path fill="#9646a0" d="M1024 384L896 512h128z"/><path fill="#f3a2b9" d="M512 256l128 128H512z"/><circle fill="#c84564" cx="256" cy="768" r="64"/><circle fill="#a0a1d2" cx="448" cy="576" r="64"/><circle fill="#b42a81" cx="448" cy="960" r="64"/><path fill="#c8508c" d="M0 704h128v128H0z"/><path fill="#c896d2" d="M192 832h128v128H192z"/><path fill="#c878c8" d="M192 576h128v128H192z"/><path fill="#78a1e6" d="M128 896L0 1024h128z"/><path fill="#a58abf" d="M512 768L384 896h128z"/><path fill="#9646a0" d="M0 640l128-128H0z"/><path fill="#f3a2b9" d="M512 768L384 640h128z"/><circle fill="#dc643c" cx="768" cy="768" r="64"/><circle fill="#82a1e6" cx="576" cy="576" r="64"/><circle fill="#892a81" cx="576" cy="960" r="64"/><path fill="#dc3264" d="M896 704h128v128H896z"/><path fill="#c878c8" d="M704 832h128v128H704z"/><path fill="#c896d2" d="M704 576h128v128H704z"/><path fill="#8c8ce6" d="M896 896l128 128H896z"/><path fill="#a58abf" d="M512 768l128 128H512z"/><path fill="#9646a0" d="M1024 640L896 512h128z"/><path fill="#f3a2b9" d="M512 768l128-128H512z"/></svg>