<svg xmlns="http://www.w3.org/2000/svg" width="1024" height="1024" xmlns:v="https://vecta.io/nano"><style><![CDATA[.M{fill:#dee7a4}.N{fill:#c9e8fb}.O{fill:#f59f5c}.P{fill:#fbcda9}.Q{fill:#f9d0da}.R{fill:#ffdf8c}]]></style><path fill="#fbb464" d="M0 128V0h128z"/><path d="M0 448V320h128z" class="N"/><path d="M384 128L256 0h256z" class="R"/><path d="M128 512V384l-64 64z" class="P"/><path d="M256 512V384l-64 64z" class="O"/><path fill="#dca0e6" d="M512 512V384l-64 64z"/><circle cx="480" cy="96" r="32" class="N"/><circle cx="96" cy="96" r="32" class="Q"/><circle cx="32" cy="160" r="32" class="M"/><circle fill="#fddec9" cx="256" cy="256" r="128"/><ellipse fill="#c8c878" cx="448" cy="320.291" rx="64" ry="63.709"/><path d="M128 0v64l32 32 32-32V0z" class="O"/><path d="M255.996 447.999l32-32 32 32-32 32z" class="M"/><path d="M1024 128V0H896z" class="P"/><path d="M1024 448V320H896z" class="N"/><path d="M640 128L768 0H512z" class="R"/><path d="M896 512V384l64 64z" class="P"/><path d="M768 512V384l64 64z" class="O"/><path d="M512 512V384l64 64z" class="Q"/><circle cx="544" cy="96" r="32" class="N"/><circle cx="928" cy="96" r="32" class="Q"/><circle cx="992" cy="160" r="32" class="M"/><circle fill="#fdc896" cx="768" cy="256" r="128"/><ellipse cx="576" cy="320.291" rx="64" ry="63.709" class="M"/><path d="M896 0v64l-32 32-32-32V0z" class="O"/><path d="M736.002 480.007l-32-32 32-32 32 32z" class="M"/><path d="M0 896v128h128z" class="P"/><path d="M0 576v128h128z" class="N"/><path d="M384 896l-128 128h256z" class="R"/><path d="M128 512v128l-64-64z" class="P"/><path d="M256 512v128l-64-64z" class="O"/><path d="M512 512v128l-64-64z" class="Q"/><circle cx="480" cy="928" r="32" class="N"/><circle cx="96" cy="928" r="32" class="Q"/><circle cx="32" cy="864" r="32" class="M"/><circle fill="#fdc896" cx="256" cy="768" r="128"/><ellipse cx="448" cy="703.709" rx="64" ry="63.709" class="M"/><path d="M128 1024v-64l32-32 32 32v64z" class="O"/><path d="M288.002 543.995l32 32-32 32-32-32z" class="M"/><path fill="#fbb464" d="M1024 896v128H896z"/><path d="M1024 576v128H896z" class="N"/><path d="M640 896l128 128H512z" class="R"/><path d="M896 512v128l64-64z" class="P"/><path d="M768 512v128l64-64z" class="O"/><path fill="#dca0e6" d="M512 512v128l64-64z"/><circle cx="544" cy="928" r="32" class="N"/><circle cx="928" cy="928" r="32" class="Q"/><circle cx="992" cy="864" r="32" class="M"/><circle fill="#fddec9" cx="768" cy="768" r="128"/><ellipse fill="#c8c878" cx="576" cy="703.709" rx="64" ry="63.709"/><path d="M896 1024v-64l-32-32-32 32v64z" class="O"/><path d="M768.008 575.999l-32 32-32-32 32-32z" class="M"/></svg>