<svg xmlns="http://www.w3.org/2000/svg" width="1024" height="1024" xmlns:v="https://vecta.io/nano"><path fill="#9263a7" d="M0,0c282.77,0,512,229.23,512,512V0H0z"/><path fill="#f0836e" d="M192 192h128v128H192z"/><path fill="#e19ba3" d="M192 448V320H64z"/><path fill="#d466a3" d="M128 512V384H0z"/><path fill="#9263a7" d="M512,512C512,229.23,741.23,0,1024,0H512V512z"/><path fill="#f0836e" d="M704 192h128v128H704z"/><path fill="#e19ba3" d="M960 320H832v128z"/><path fill="#d466a3" d="M1024 384H896v128z"/><path fill="#9263a7" d="M0,1024c282.77,0,512-229.23,512-512v512H0z"/><path fill="#f0836e" d="M192 704h128v128H192z"/><path fill="#e19ba3" d="M192 576v128H64z"/><path fill="#d466a3" d="M128 512v128H0z"/><path fill="#9263a7" d="M512,512c0,282.77,229.23,512,512,512H512V512z"/><path fill="#f0836e" d="M704 704h128v128H704z"/><path fill="#e19ba3" d="M960 704H832V576z"/><path fill="#d466a3" d="M1024 640H896V512z"/></svg>