<svg xmlns="http://www.w3.org/2000/svg" width="1024" height="1024" xmlns:v="https://vecta.io/nano"><style><![CDATA[.K{fill:#9b9e25}.L{fill:#fccf97}.M{fill:#9e7745}.N{fill:#e3bb94}.O{fill:#ddc08f}]]></style><path fill="#fde7af" d="M384 384h128v128H384z"/><path d="M448 128V0l64 64z" class="K"/><path d="M512 320V192l-64 64z" class="L"/><path d="M64 512V384L0 448z" class="K"/><path d="M128 384V128l128 128z" class="M"/><path d="M0,128c70.692,0,128-57.308,128-128H0V128z" class="N"/><path d="M303.914 70.027C353.228 116.69 384 182.749 384 256s-30.772 139.31-80.086 185.973C386.768 420.688 448 345.495 448 256S386.768 91.312 303.914 70.027z" class="K"/><path d="M239.914 70.027C289.228 116.69 320 182.749 320 256s-30.772 139.31-80.086 185.973C322.768 420.688 384 345.495 384 256S322.768 91.312 239.914 70.027z" class="O"/><path fill="#f4d9bf" d="M512 384h128v128H512z"/><path d="M576 128V0l-64 64z" class="K"/><path d="M512 320V192l64 64z" class="L"/><path d="M960 512V384l64 64z" class="K"/><path d="M896 384V128L768 256z" class="M"/><path d="M1024,128c-70.692,0-128-57.308-128-128h128V128z" class="N"/><path d="M720.087 70.027C670.772 116.69 640 182.749 640 256s30.772 139.31 80.087 185.973C637.231 420.688 576 345.495 576 256S637.231 91.312 720.087 70.027z" class="K"/><path d="M784.087 70.027C734.772 116.69 704 182.749 704 256s30.772 139.31 80.087 185.973C701.231 420.688 640 345.495 640 256S701.231 91.312 784.087 70.027z" class="O"/><path fill="#f4d9bf" d="M384 512h128v128H384z"/><path d="M448 896v128l64-64z" class="K"/><path d="M512 704v128l-64-64z" class="L"/><path d="M64 512v128L0 576z" class="K"/><path d="M128 640v256l128-128z" class="M"/><path d="M0,896c70.692,0,128,57.308,128,128H0V896z" class="N"/><path d="M303.914 953.973C353.228 907.31 384 841.251 384 768s-30.772-139.31-80.086-185.973C386.768 603.312 448 678.505 448 768s-61.232 164.688-144.086 185.973z" class="K"/><path d="M239.914 953.973C289.228 907.31 320 841.251 320 768s-30.772-139.31-80.086-185.973C322.768 603.312 384 678.505 384 768s-61.232 164.688-144.086 185.973z" class="O"/><path fill="#fde7af" d="M512 512h128v128H512z"/><path d="M576 896v128l-64-64z" class="K"/><path d="M512 704v128l64-64z" class="L"/><path d="M960 512v128l64-64z" class="K"/><path d="M896 640v256L768 768z" class="M"/><path d="M1024,896c-70.692,0-128,57.308-128,128h128V896z" class="N"/><path d="M720.087 953.973C670.772 907.31 640 841.251 640 768s30.772-139.31 80.087-185.973C637.231 603.312 576 678.505 576 768s61.231 164.688 144.087 185.973z" class="K"/><path d="M784.087 953.973C734.772 907.31 704 841.251 704 768s30.772-139.31 80.087-185.973C701.231 603.312 640 678.505 640 768s61.231 164.688 144.087 185.973z" class="O"/></svg>