<svg xmlns="http://www.w3.org/2000/svg" width="1024" height="1024" xmlns:v="https://vecta.io/nano"><path fill="#8a9092" d="M512,384c-70.692,0-128,57.308-128,128h128V384z"/><path fill="#5d5d5c" d="M0,128c70.692,0,128-57.308,128-128H0V128z"/><path fill="#c58511" d="M128 512V352c0 17.673-14.327 32-32 32s-32-14.327-32-32 14.327-32 32-32 32 14.327 32 32V192L0 320v128.37L63.264 512H128z"/><path fill="#f7e6a4" d="M384 128v128l128 128V160c0 17.673-14.327 32-32 32s-32-14.327-32-32 14.327-32 32-32 32 14.327 32 32V0L384 128z"/><path fill="#d5a940" d="M256 192v128l128 128V224c0 17.673-14.327 32-32 32s-32-14.327-32-32 14.327-32 32-32 32 14.327 32 32V64L256 192z"/><path fill="#f4b26f" d="M128 256v128l128 128V288c0 17.673-14.327 32-32 32s-32-14.327-32-32 14.327-32 32-32 32 14.327 32 32V128L128 256z"/><path fill="#8a9092" d="M896,0c0,70.692,57.308,128,128,128V0H896z"/><path fill="#5d5d5c" d="M640,512c0-70.692-57.308-128-128-128v128H640z"/><path fill="#c58511" d="M1024 384H864c17.673 0 32 14.327 32 32s-14.327 32-32 32-32-14.327-32-32 14.327-32 32-32H704l128 128h128.37l63.63-63.264V384z"/><path fill="#f7e6a4" d="M640 128h128L896 0H672c17.673 0 32 14.327 32 32s-14.327 32-32 32-32-14.327-32-32 14.327-32 32-32H512l128 128z"/><path fill="#d5a940" d="M704 256h128l128-128H736c17.673 0 32 14.327 32 32s-14.327 32-32 32-32-14.327-32-32 14.327-32 32-32H576l128 128z"/><path fill="#f4b26f" d="M768 384h128l128-128H800c17.673 0 32 14.327 32 32s-14.327 32-32 32-32-14.327-32-32 14.327-32 32-32H640l128 128z"/><path fill="#8a9092" d="M1024,896c-70.692,0-128,57.308-128,128h128V896z"/><path fill="#5d5d5c" d="M512,640c70.692,0,128-57.308,128-128H512V640z"/><path fill="#c58511" d="M640 1024V864c0 17.673-14.327 32-32 32s-32-14.327-32-32 14.327-32 32-32 32 14.327 32 32V704L512 832v128.37l63.265 63.63H640z"/><path fill="#f7e6a4" d="M896 640v128l128 128V672c0 17.673-14.327 32-32 32s-32-14.327-32-32 14.327-32 32-32 32 14.327 32 32V512L896 640z"/><path fill="#d5a940" d="M768 704v128l128 128V736c0 17.673-14.327 32-32 32s-32-14.327-32-32 14.327-32 32-32 32 14.327 32 32V576L768 704z"/><path fill="#f4b26f" d="M640 768v128l128 128V800c0 17.673-14.327 32-32 32s-32-14.327-32-32 14.327-32 32-32 32 14.327 32 32V640L640 768z"/><path fill="#8a9092" d="M384,512c0,70.692,57.308,128,128,128V512H384z"/><path fill="#5d5d5c" d="M128,1024c0-70.692-57.308-128-128-128v128H128z"/><path fill="#c58511" d="M512 896H352c17.673 0 32 14.327 32 32s-14.327 32-32 32-32-14.327-32-32 14.327-32 32-32H192l128 128h128.37L512 960.735V896z"/><path fill="#f7e6a4" d="M128 640h128l128-128H160c17.673 0 32 14.327 32 32s-14.327 32-32 32-32-14.327-32-32 14.327-32 32-32H0l128 128z"/><path fill="#d5a940" d="M192 768h128l128-128H224c17.673 0 32 14.327 32 32s-14.327 32-32 32-32-14.327-32-32 14.327-32 32-32H64l128 128z"/><path fill="#f4b26f" d="M256 896h128l128-128H288c17.673 0 32 14.327 32 32s-14.327 32-32 32-32-14.327-32-32 14.327-32 32-32H128l128 128z"/></svg>