<svg xmlns="http://www.w3.org/2000/svg" width="1024" height="1024" xmlns:v="https://vecta.io/nano"><style><![CDATA[.G{fill:#679840}.H{fill:#cce0a6}.I{fill:#b7c54c}]]></style><path d="M448 64H64l128 128H64l256 256V320l128 128z" class="H"/><path d="M64 512L0 448h64z" class="G"/><path d="M128 320l-64 64h64v64l64-64v-64z" class="I"/><path d="M512 128L384 0h128z" class="G"/><path d="M576 64h384L832 192h128L704 448V320L576 448z" class="H"/><path d="M960 512l64-64h-64z" class="G"/><path d="M896 320l64 64h-64v64l-64-64v-64z" class="I"/><path d="M512 128L640 0H512z" class="G"/><path d="M448 960H64l128-128H64l256-256v128l128-128z" class="H"/><path d="M64 512L0 576h64z" class="G"/><path d="M128 704l-64-64h64v-64l64 64v64z" class="I"/><path d="M512 896l-128 128h128z" class="G"/><path d="M576 960h384L832 832h128L704 576v128L576 576z" class="H"/><path d="M960 512l64 64h-64z" class="G"/><path d="M896 704l64-64h-64v-64l-64 64v64z" class="I"/><path d="M512 896l128 128H512z" class="G"/></svg>