<svg xmlns="http://www.w3.org/2000/svg" xmlns:xlink="http://www.w3.org/1999/xlink" width="1024" height="1024" xmlns:v="https://vecta.io/nano"><style><![CDATA[.B{fill:#d20000}.C{fill:#b40000}.D{fill:#960000}.E{fill:#780000}.F{fill:#5a0000}]]></style><path d="M384 320l64-64h-64z" class="B"/><path d="M64,0H0v64C35.346,64,64,35.346,64,0z" class="E"/><path d="M64,0c0,35.346,28.654,64,64,64l64-64H64z" class="B"/><path d="M256 64c35.346 0 64-28.654 64-64H192c0 35.346 28.654 64 64 64z" class="F"/><path d="M320,0c0,35.346,28.654,64,64,64V0H320z" class="C"/><path d="M0,64v128l64-64C64,92.654,35.346,64,0,64z" class="B"/><g class="D"><path d="M64 128l64-64c-35.346 0-64 28.654-64 64z"/><circle cx="256" cy="128" r="64"/></g><path d="M320 128c0 35.346 28.654 64 64 64V64c-35.346 0-64 28.654-64 64z" class="C"/><path d="M448 128c0 35.346 28.654 64 64 64v-64h-64zM0 256l45.254 45.255C56.837 289.674 64 273.674 64 256H0z" class="B"/><path d="M128 320c35.346 0 64-28.654 64-64h-64-64c0 35.346 28.654 64 64 64z" class="E"/><use xlink:href="#B" fill="red"/><use xlink:href="#C" class="B"/><path d="M256 288c0-17.674-14.327-32-32-32-12.993 0-24.153 7.757-29.166 18.881 6.217 20.161 22.124 36.068 42.285 42.284C248.243 312.152 256 300.993 256 288z" class="C"/><path d="M256 224c0 17.673 14.326 32 32 32 12.993 0 24.152-7.757 29.165-18.881-6.216-20.161-22.123-36.068-42.284-42.285C263.757 199.847 256 211.007 256 224z" class="B"/><path d="M384,192c-35.346,0-64,28.654-64,64h64V192z" class="D"/><path d="M448,256c0,17.674,7.163,33.674,18.745,45.255L512,256H448z" class="C"/><path d="M512,192c-17.674,0-33.674,7.163-45.255,18.745L512,256V192z" class="B"/><g class="E"><path d="M0,384l45.254,45.255C56.837,417.674,64,401.674,64,384H0z"/><path d="M64,384c0,35.346,28.654,64,64,64v-64H64z"/></g><path d="M128 320c-17.673 0-33.673 7.163-45.255 18.745l90.509 90.51C184.837 417.674 192 401.674 192 384c0-35.346-28.654-64-64-64z" class="C"/><path d="M448,384c0,35.346,28.654,64,64,64v-64H448z" class="D"/><path d="M128,448c-17.673,0-33.673,7.163-45.255,18.745L128,512V448z" class="E"/><g fill="red"><path d="M378.43 448.257c-30.898 2.667-55.506 27.274-58.173 58.173 27.064-9.657 48.516-31.109 58.173-58.173zM256 448c-18.993 0-36.046 8.281-47.767 21.421C225.463 495.098 254.756 512 288 512a95.82 95.82 0 0 0 31.757-5.404C317.011 473.781 289.524 448 256 448z"/><path d="M256 448c35.346 0 64-28.654 64-64 0-30.4-21.202-55.831-49.62-62.357-38.885 7.216-69.521 37.853-76.737 76.737C200.17 426.798 225.601 448 256 448z"/><path d="M341.421 336.233C328.281 347.954 320 365.007 320 384c0 33.524 25.781 61.011 58.596 63.756A95.81 95.81 0 0 0 384 416c0-33.245-16.902-62.537-42.579-79.767z"/></g><path d="M448 384h-64v64c35.346 0 64-28.654 64-64z" class="B"/><path d="M384 448v64h64c0-35.346-28.654-64-64-64z" class="D"/><path d="M512 448c-35.346 0-64 28.654-64 64h64v-64zM384 128l45.255 45.254C440.837 161.673 448 145.673 448 128h-64z" class="B"/><g class="D"><path d="M448,0c0,17.673,7.163,33.673,18.745,45.254L512,0H448z"/><path d="M448 0h-64v64c35.346 0 64-28.654 64-64z"/><path d="M429.255 82.746C417.674 71.163 401.674 64 384 64v64l45.255-45.254z"/></g><path d="M640 320l-64-64h64z" class="B"/><path d="M960 0h64v64c-35.346 0-64-28.654-64-64z" class="E"/><path d="M960,0c0,35.346-28.654,64-64,64L832,0H960z" class="B"/><path d="M768 64c-35.346 0-64-28.654-64-64h128c0 35.346-28.654 64-64 64z" class="F"/><path d="M704 0c0 35.346-28.654 64-64 64V0h64z" class="C"/><path d="M1024 64v128l-64-64c0-35.346 28.654-64 64-64z" class="B"/><g class="D"><path d="M960 128l-64-64c35.346 0 64 28.654 64 64z"/><circle cx="768" cy="128" r="64"/></g><path d="M704 128c0 35.346-28.654 64-64 64V64c35.346 0 64 28.654 64 64z" class="C"/><path d="M576 128c0 35.346-28.654 64-64 64v-64h64zm448 128l-45.254 45.255C967.163 289.674 960 273.674 960 256h64z" class="B"/><path d="M896 320c-35.346 0-64-28.654-64-64h64 64c0 35.346-28.654 64-64 64z" class="E"/><use xlink:href="#D" fill="red"/><use xlink:href="#E" class="B"/><path d="M768 288c0-17.674 14.327-32 32-32 12.993 0 24.153 7.757 29.166 18.881-6.217 20.161-22.124 36.068-42.285 42.284C775.757 312.152 768 300.993 768 288z" class="C"/><path d="M768 224c0 17.673-14.326 32-32 32-12.993 0-24.152-7.757-29.165-18.881 6.216-20.161 22.123-36.068 42.284-42.285C760.243 199.847 768 211.007 768 224z" class="B"/><path d="M640,192c35.346,0,64,28.654,64,64h-64V192z" class="D"/><path d="M576 256c0 17.674-7.163 33.674-18.745 45.255L512 256h64z" class="C"/><path d="M512,192c17.674,0,33.674,7.163,45.255,18.745L512,256V192z" class="B"/><g class="E"><path d="M1024 384l-45.254 45.255C967.163 417.674 960 401.674 960 384h64z"/><path d="M960 384c0 35.346-28.654 64-64 64v-64h64z"/></g><path d="M896 320c17.673 0 33.673 7.163 45.255 18.745l-90.509 90.51C839.163 417.674 832 401.674 832 384c0-35.346 28.654-64 64-64z" class="C"/><path d="M576 384c0 35.346-28.654 64-64 64v-64h64z" class="D"/><path d="M896,448c17.673,0,33.673,7.163,45.255,18.745L896,512V448z" class="E"/><g fill="red"><path d="M645.57 448.257c30.898 2.667 55.506 27.274 58.173 58.173-27.064-9.657-48.516-31.109-58.173-58.173zM768 448c18.993 0 36.046 8.281 47.767 21.421C798.537 495.098 769.244 512 736 512a95.82 95.82 0 0 1-31.757-5.404C706.989 473.781 734.476 448 768 448z"/><path d="M768 448c-35.346 0-64-28.654-64-64 0-30.4 21.202-55.831 49.62-62.357 38.885 7.216 69.521 37.853 76.737 76.737C823.83 426.798 798.399 448 768 448z"/><path d="M682.579 336.233C695.719 347.954 704 365.007 704 384c0 33.524-25.781 61.011-58.596 63.756A95.81 95.81 0 0 1 640 416c0-33.245 16.902-62.537 42.579-79.767z"/></g><path d="M576 384h64v64c-35.346 0-64-28.654-64-64z" class="B"/><path d="M640 448v64h-64c0-35.346 28.654-64 64-64z" class="D"/><path d="M512 448c35.346 0 64 28.654 64 64h-64v-64zm128-320l-45.255 45.254C583.163 161.673 576 145.673 576 128h64z" class="B"/><g class="D"><path d="M576 0c0 17.673-7.163 33.673-18.745 45.254L512 0h64z"/><path d="M576 0h64v64c-35.346 0-64-28.654-64-64z"/><path d="M594.745,82.746C606.326,71.163,622.326,64,640,64v64L594.745,82.746z"/></g><path d="M384 704l64 64h-64z" class="B"/><path d="M64 1024H0v-64c35.346 0 64 28.654 64 64z" class="E"/><path d="M64,1024c0-35.346,28.654-64,64-64l64,64H64z" class="B"/><path d="M256 960c35.346 0 64 28.654 64 64H192c0-35.346 28.654-64 64-64z" class="F"/><path d="M320,1024c0-35.346,28.654-64,64-64v64H320z" class="C"/><path d="M0 960V832l64 64c0 35.346-28.654 64-64 64z" class="B"/><g class="D"><path d="M64 896l64 64c-35.346 0-64-28.654-64-64z"/><circle cx="256" cy="896" r="64"/></g><path d="M320 896c0-35.346 28.654-64 64-64v128c-35.346 0-64-28.654-64-64z" class="C"/><path d="M448 896c0-35.346 28.654-64 64-64v64h-64zM0 768l45.254-45.255C56.837 734.326 64 750.326 64 768H0z" class="B"/><path d="M128 704c35.346 0 64 28.654 64 64h-64-64c0-35.346 28.654-64 64-64z" class="E"/><use xlink:href="#C" y="640" fill="red"/><use xlink:href="#B" y="640" class="B"/><path d="M256 736c0 17.674-14.327 32-32 32-12.993 0-24.153-7.757-29.166-18.881 6.217-20.161 22.124-36.068 42.285-42.284C248.243 711.848 256 723.007 256 736z" class="C"/><path d="M256 800c0-17.673 14.326-32 32-32 12.993 0 24.152 7.757 29.165 18.881-6.216 20.161-22.123 36.068-42.284 42.285C263.757 824.153 256 812.993 256 800z" class="B"/><path d="M384 832c-35.346 0-64-28.654-64-64h64v64z" class="D"/><path d="M448,768c0-17.674,7.163-33.674,18.745-45.255L512,768H448z" class="C"/><path d="M512 832c-17.674 0-33.674-7.163-45.255-18.745L512 768v64z" class="B"/><g class="E"><path d="M0,640l45.254-45.255C56.837,606.326,64,622.326,64,640H0z"/><path d="M64,640c0-35.346,28.654-64,64-64v64H64z"/></g><path d="M128 704c-17.673 0-33.673-7.163-45.255-18.745l90.509-90.51C184.837 606.326 192 622.326 192 640c0 35.346-28.654 64-64 64z" class="C"/><path d="M448,640c0-35.346,28.654-64,64-64v64H448z" class="D"/><path d="M128 576c-17.673 0-33.673-7.163-45.255-18.745L128 512v64z" class="E"/><g fill="red"><path d="M378.43 575.743c-30.898-2.667-55.506-27.274-58.173-58.173 27.064 9.657 48.516 31.109 58.173 58.173zM256 576c-18.993 0-36.046-8.281-47.767-21.421C225.463 528.902 254.756 512 288 512a95.82 95.82 0 0 1 31.757 5.404C317.011 550.219 289.524 576 256 576z"/><path d="M256 576c35.346 0 64 28.654 64 64 0 30.4-21.202 55.831-49.62 62.357-38.885-7.216-69.521-37.853-76.737-76.737C200.17 597.202 225.601 576 256 576z"/><path d="M341.421 687.767C328.281 676.046 320 658.993 320 640c0-33.524 25.781-61.011 58.596-63.756A95.81 95.81 0 0 1 384 608c0 33.245-16.902 62.537-42.579 79.767z"/></g><path d="M448 640h-64v-64c35.346 0 64 28.654 64 64z" class="B"/><path d="M384 576v-64h64c0 35.346-28.654 64-64 64z" class="D"/><path d="M512 576c-35.346 0-64-28.654-64-64h64v64zM384 896l45.255-45.254C440.837 862.327 448 878.327 448 896h-64z" class="B"/><g class="D"><path d="M448,1024c0-17.673,7.163-33.673,18.745-45.254L512,1024H448z"/><path d="M448 1024h-64v-64c35.346 0 64 28.654 64 64z"/><path d="M429.255 941.254C417.674 952.837 401.674 960 384 960v-64l45.255 45.254z"/></g><path d="M640 704l-64 64h64z" class="B"/><path d="M960 1024h64v-64c-35.346 0-64 28.654-64 64z" class="E"/><path d="M960,1024c0-35.346-28.654-64-64-64l-64,64H960z" class="B"/><path d="M768 960c-35.346 0-64 28.654-64 64h128c0-35.346-28.654-64-64-64z" class="F"/><path d="M704 1024c0-35.346-28.654-64-64-64v64h64z" class="C"/><path d="M1024 960V832l-64 64c0 35.346 28.654 64 64 64z" class="B"/><g class="D"><path d="M960 896l-64 64c35.346 0 64-28.654 64-64z"/><circle cx="768" cy="896" r="64"/></g><path d="M704 896c0-35.346-28.654-64-64-64v128c35.346 0 64-28.654 64-64z" class="C"/><path d="M576 896c0-35.346-28.654-64-64-64v64h64zm448-128l-45.254-45.255C967.163 734.326 960 750.326 960 768h64z" class="B"/><path d="M896 704c-35.346 0-64 28.654-64 64h64 64c0-35.346-28.654-64-64-64z" class="E"/><use xlink:href="#E" y="640" fill="red"/><use xlink:href="#D" y="640" class="B"/><path d="M768 736c0 17.674 14.327 32 32 32 12.993 0 24.153-7.757 29.166-18.881-6.217-20.161-22.124-36.068-42.285-42.284C775.757 711.848 768 723.007 768 736z" class="C"/><path d="M768 800c0-17.673-14.326-32-32-32-12.993 0-24.152 7.757-29.165 18.881 6.216 20.161 22.123 36.068 42.284 42.285C760.243 824.153 768 812.993 768 800z" class="B"/><path d="M640 832c35.346 0 64-28.654 64-64h-64v64z" class="D"/><path d="M576 768c0-17.674-7.163-33.674-18.745-45.255L512 768h64z" class="C"/><path d="M512 832c17.674 0 33.674-7.163 45.255-18.745L512 768v64z" class="B"/><g class="E"><path d="M1024 640l-45.254-45.255C967.163 606.326 960 622.326 960 640h64z"/><path d="M960 640c0-35.346-28.654-64-64-64v64h64z"/></g><path d="M896 704c17.673 0 33.673-7.163 45.255-18.745l-90.509-90.51C839.163 606.326 832 622.326 832 640c0 35.346 28.654 64 64 64z" class="C"/><path d="M576 640c0-35.346-28.654-64-64-64v64h64z" class="D"/><path d="M896 576c17.673 0 33.673-7.163 45.255-18.745L896 512v64z" class="E"/><g fill="red"><path d="M645.57 575.743c30.898-2.667 55.506-27.274 58.173-58.173-27.064 9.657-48.516 31.109-58.173 58.173zM768 576c18.993 0 36.046-8.281 47.767-21.421C798.537 528.902 769.244 512 736 512a95.82 95.82 0 0 0-31.757 5.404C706.989 550.219 734.476 576 768 576z"/><path d="M768 576c-35.346 0-64 28.654-64 64 0 30.4 21.202 55.831 49.62 62.357 38.885-7.216 69.521-37.853 76.737-76.737C823.83 597.202 798.399 576 768 576z"/><path d="M682.579 687.767C695.719 676.046 704 658.993 704 640c0-33.524-25.781-61.011-58.596-63.756A95.81 95.81 0 0 0 640 608c0 33.245 16.902 62.537 42.579 79.767z"/></g><path d="M576 640h64v-64c-35.346 0-64 28.654-64 64z" class="B"/><path d="M640 576v-64h-64c0 35.346 28.654 64 64 64z" class="D"/><path d="M512 576c35.346 0 64-28.654 64-64h-64v64zm128 320l-45.255-45.254C583.163 862.327 576 878.327 576 896h64z" class="B"/><g class="D"><path d="M576 1024c0-17.673-7.163-33.673-18.745-45.254L512 1024h64z"/><path d="M576 1024h64v-64c-35.346 0-64 28.654-64 64z"/><path d="M594.745 941.254C606.326 952.837 622.326 960 640 960v-64l-45.255 45.254z"/></g><defs ><path id="B" d="M128 192c23.685 0 44.35-12.876 55.416-32-11.066-19.124-31.731-32-55.416-32s-44.35 12.876-55.416 32c11.066 19.124 31.73 32 55.416 32z"/><path id="C" d="M128 192c23.685 0 44.35 12.876 55.416 32-11.066 19.124-31.731 32-55.416 32s-44.35-12.876-55.416-32c11.066-19.124 31.73-32 55.416-32z"/><path id="D" d="M896 192c-23.685 0-44.35-12.876-55.416-32 11.066-19.124 31.731-32 55.416-32s44.35 12.876 55.416 32c-11.066 19.124-31.73 32-55.416 32z"/><path id="E" d="M896 192c-23.685 0-44.35 12.876-55.416 32 11.066 19.124 31.731 32 55.416 32s44.35-12.876 55.416-32c-11.066-19.124-31.73-32-55.416-32z"/></defs></svg>