<svg xmlns="http://www.w3.org/2000/svg" width="1024" height="1024" xmlns:v="https://vecta.io/nano"><style><![CDATA[.B{fill:#c6ca50}.C{fill:#7c7640}.D{fill:#d2b569}.E{fill:#b58500}.F{fill:#8f7e14}]]></style><path d="M128 0L32 96l64 64-64 64 32 32 64-64 32 32 96-96-31.902-31.668L192 128l-64-64 32.098-31.668z" class="C"/><path d="M256 0l-32 32 96 96-31.883 31.882 64 64L320 256l32 32 64-64 64 64 31.863-32.137v-63.726L480 160l-32 32-32-32 32-32-32-32 32-32 32 32 32-32V0z" class="B"/><path d="M127.998 320l127.999-127.999 32 32-127.999 127.999z" class="D"/><path d="M32 288L0 320l32 32-32 32 128 128 32-32-32-32 32-32z" class="B"/><path d="M192 384l32-32 64 64-32 32 32 32-32 32-64-64 32-32z" class="E"/><path d="M256 320l32-32 64 64 64-64 96 96-32 32 32 32-32 32-32-32-64 64-32-32 32-32z" class="F"/><path d="M896 0l96 96-64 64 64 64-32 32-64-64-32 32-96-96 31.902-31.668L832 128l64-64-32.098-31.668z" class="C"/><path d="M768 0l32 32-96 96 31.883 31.882-64 64L704 256l-32 32-64-64-64 64-31.863-32.137v-63.726L544 160l32 32 32-32-32-32 32-32-32-32-32 32-32-32V0z" class="B"/><path d="M864.004 352.007L736.005 224.008l32-32 127.999 127.999z" class="D"/><path d="M992 288l32 32-32 32 32 32-128 128-32-32 32-32-32-32z" class="B"/><path d="M832 384l-32-32-64 64 32 32-32 32 32 32 64-64-32-32z" class="E"/><path d="M768 320l-32-32-64 64-64-64-96 96 32 32-32 32 32 32 32-32 64 64 32-32-32-32z" class="F"/><path d="M128 1024l-96-96 64-64-64-64 32-32 64 64 32-32 96 96-31.902 31.668L192 896l-64 64 32.098 31.668z" class="C"/><path d="M256 1024l-32-32 96-96-31.883-31.883 64-63.999L320 768l32-32 64 64 64-64 31.863 32.137v63.726L480 864l-32-32-32 32 32 32-32 32 32 32 32-32 32 32v64z" class="B"/><path d="M160.004 671.994l127.999 127.999-32 32-127.999-127.999z" class="D"/><path d="M32 736L0 704l32-32-32-32 128-128 32 32-32 32 32 32z" class="B"/><path d="M192 640l32 32 64-64-32-32 32-32-32-32-64 64 32 32z" class="E"/><path d="M256 704l32 32 64-64 64 64 96-96-32-32 32-32-32-32-32 32-64-64-32 32 32 32z" class="F"/><path d="M896 1024l96-96-64-64 64-64-32-32-64 64-32-32-96 96 31.902 31.668L832 896l64 64-32.098 31.668z" class="C"/><path d="M768 1024l32-32-96-96 31.883-31.883-64-63.999L704 768l-32-32-64 64-64-64-31.863 32.137v63.726L544 864l32-32 32 32-32 32 32 32-32 32-32-32-32 32v64z" class="B"/><path d="M896.01 704L768.011 831.998l-32-32L864.01 672z" class="D"/><path d="M992 736l32-32-32-32 32-32-128-128-32 32 32 32-32 32z" class="B"/><path d="M832 640l-32 32-64-64 32-32-32-32 32-32 64 64-32 32z" class="E"/><path d="M768 704l-32 32-64-64-64 64-96-96 32-32-32-32 32-32 32 32 64-64 32 32-32 32z" class="F"/></svg>