<svg xmlns="http://www.w3.org/2000/svg" width="1024" height="1024" xmlns:v="https://vecta.io/nano"><style><![CDATA[.B{fill:#f2a75e}.C{fill:#f0a174}.D{fill:#da8131}.E{fill:#dba063}.F{fill:#fac6a9}]]></style><path d="M128 0L32 96l64 64-64 64 32 32 64-64 32 32 96-96-31.902-31.668L192 128l-64-64 32.098-31.668z" class="C"/><path d="M256 0l-32 32 96 96-31.883 31.882 64 64L320 256l32 32 64-64 64 64 31.863-32.137v-63.726L480 160l-32 32-32-32 32-32-32-32 32-32 32 32 32-32V0z" class="B"/><path d="M127.998 320l127.999-127.999 32 32-127.999 127.999z" class="D"/><path d="M32 288L0 320l32 32-32 32 128 128 32-32-32-32 32-32z" class="B"/><path d="M192 384l32-32 64 64-32 32 32 32-32 32-64-64 32-32z" class="E"/><path d="M256 320l32-32 64 64 64-64 96 96-32 32 32 32-32 32-32-32-64 64-32-32 32-32z" class="F"/><path d="M640 512l-96 96 64 64-64 64 32 32 64-64 32 32 96-96-31.902-31.668L704 640l-64-64 32.098-31.668z" class="C"/><path d="M768 512l-32 32 96 96-31.883 31.883 64 64L832 768l32 32 64-64 64 64 31.863-32.137v-63.726L992 672l-32 32-32-32 32-32-32-32 32-32 32 32 32-32v-64z" class="B"/><path d="M639.991 832l127.999-127.999 32 32-127.999 127.999z" class="D"/><path d="M544 800l-32 32 32 32-32 32 128 128 32-32-32-32 32-32z" class="B"/><path d="M704 896l32-32 64 64-32 32 32 32-32 32-64-64 32-32z" class="E"/><path d="M768 832l32-32 64 64 64-64 96 96-32 32 32 32-32 32-32-32-64 64-32-32 32-32z" class="F"/><path d="M512 384l95.999 96 64-64 64 64 32-32-64-64 32-32-96-96-31.668 31.902L639.999 320l-64 64-31.668-32.098z" class="C"/><path d="M512 256l31.999 32 96-96 31.883 31.883 64-64L767.999 192l32-32-64-64 64-64L767.862.137h-63.726L671.999 32l32 32-32 32-32-32-32 32-32-32 32-32-32-32H512z" class="B"/><path d="M832.002 384.007L704.004 256.008l32-32 127.999 127.999z" class="D"/><path d="M799.999 480l32 32 32-32 32 32L1024 384l-32-32-32.001 32-32-32z" class="B"/><path d="M895.999 320l-32-32 64-64 32 32L992 224l32 32-64.001 64-32-32z" class="E"/><path d="M831.999 256l-32-32 64-64-64-64 96-96 32 32 32-32L992 32l-32.001 32L1024 128l-32 32-32.001-32z" class="F"/><path d="M0 896l95.999 96 64-64 64 64 32-32-64-64 32-32-96-96-31.668 31.902L127.999 832l-64 64-31.668-32.098z" class="C"/><path d="M0 768l31.999 32 96-96 31.883 31.883 64-64L255.999 704l32-32-64-64 64-64-32.137-31.863h-63.726L159.999 544l32 32-32 32-32-32-32 32-32-32 32-32-32-32H0z" class="B"/><path d="M319.995 896.007L191.997 768.008l32-32 127.999 127.999z" class="D"/><path d="M287.999 992l32 32 32-32 32 32L512 896l-32-32-32.001 32-32-32z" class="B"/><path d="M383.999 832l-32-32 64-64 32 32L480 736l32 32-64.001 64-32-32z" class="E"/><path d="M319.999 768l-32-32 64-64-64-64 96-96 32 32 32-32L480 544l-32.001 32L512 640l-32 32-32.001-32z" class="F"/></svg>