<svg xmlns="http://www.w3.org/2000/svg" width="1024" height="1024" xmlns:v="https://vecta.io/nano"><style><![CDATA[.B{fill:#875495}.C{fill:#8484b0}.D{fill:#a95260}.E{fill:#d4cce7}.F{fill:#a3d9ea}.G{fill:#f08285}.H{fill:#c87896}]]></style><path d="M512 512v-64l-25.817-1.618C499.405 466.416 508.843 491.208 512 512z" class="D"/><path d="M427.902 368.678c-9.669 0-22.563 2.285-34.215 8.833 23.674 3.372 51.564 5.574 74.262 6.32C483.848 403.431 499.468 426.14 512 448c-3.218-46.287-40.727-79.322-84.098-79.322z" class="B"/><path d="M512 384v-64c-50.495-14.287-102.227 4.937-128 64 40.544-53.75 111.421-48.357 128 0z" class="E"/><path d="M419.863 269.851c-7.696 14.294-14.938 30.975-20.009 45.615 4.546 3.684 7.537 6.257 10.931 9.191C429.24 298.523 462.678 266.641 512 256c-27.604 0-60.811-1.433-82.063-3.532 21.098-33.652 46.571-59.087 71.113-70.765-21.963 1.52-48.806 2.301-69.439 1.632 7.856-15.117 22.9-41.216 42.97-60.666-18.819 1.593-37.848 2.688-61.079 1.81-17.794 45.419-31.691 106.245-33.404 175.533l10.022 7.607c3.353-18.815 8.304-39.094 12.632-52.697 6.822 5.553 12.096 10.402 17.111 14.929z" class="F"/><path d="M379.919 312.001l-10.866-1.785c2.704 19.145 7.773 46.925 14.947 73.784-3.715-31.694-4.088-56.075-4.081-71.999z" class="B"/><path d="M384 384c-12.385-23.438-26.981-54.258-37.174-78.021l22.227 4.237-2.571-19.917c-15.174-10.645-39.539-25.338-58.181-34.485C339.602 313.918 363.865 353.302 384 384z" class="D"/><path d="M299.267 294.043c6.367 1.884 13.164 3.711 18.856 5.216-9.692-12.946-29.829-41.661-41.419-58.309-11.359-4.942-26.343-10.647-38.16-14.748l60.723 67.841z" class="B"/><path d="M448 512h64c-46-70.082-98.319-126.346-168.542-170.455l-44.191-47.502c-36.931-10.953-67.172-23.496-95.515-37.756l15.304 29.098c26.148 8.02 53.069 18.139 81.953 32.418C334.523 357.522 393.051 426.915 448 512z" class="C"/><path d="M448 512c-34.514-44.412-79.76-88.368-133.229-119.911C340.87 433.595 367.598 479.72 384 512h64z" class="G"/><path d="M376.598 503.616c-26.329-29.033-59.072-51.572-86.13-66.055l-12.459-28.855c-16.474-5.274-33.606-11.565-48.066-17.594 5.532 19.666 14.4 57.292 17.909 75.594C272.532 477.727 299.436 494.928 320 512l-7.477-19.866c16.06 3.704 38.442 8.01 64.075 11.482z" class="C"/><path d="M98.701 386.994c-7.502 19.29-14.905 34.567-23.72 50.025 17.949-1.08 41.392-.576 58.402.794-3.15 12.661-5.963 22.419-10.717 36.768C163.308 476.847 211.912 487.046 256 512c-2.866-18.155-5.03-29.269-8.148-45.294-19.509-9.023-44.1-17.248-65.699-21.746-28.808-15.194-56.236-33.831-83.452-57.966z" class="E"/><path d="M37.419 389.331c19.583-1.948 47.804-2.622 61.282-2.337-11.662-10.454-22.738-21.736-32.905-33.084-10.375 16.36-20.25 27.495-28.377 35.421z" class="B"/><path d="M142.731 391.167c13.074 1.715 26.398 3.904 41.102 7.224-.235-7.256-1.095-19.475-1.86-29.948 16.539 8.89 32.708 16.315 47.97 22.67l-11.934-41.456c29.792 8.862 64.195 22.869 96.762 42.433l-23.727-37.451c-15.561-4.853-32.37-10.948-45.593-16.4a1896.32 1896.32 0 0 0-26.396-52.853c-7.194-2.207-15.797-4.64-24.97-6.995 4.152 11.244 9.877 27.499 15.122 43.508-13.816-6.896-23.019-11.98-34.787-18.883 1.616 10.229 3.834 27.313 4.838 36.811a482.11 482.11 0 0 0-30.522-5.396c.706-10.242 1.321-31.34 1.014-47.005-6.051-4.042-15.727-10.881-22.41-15.989-1.735 14.33-5.428 35.936-10.1 55.42a469.75 469.75 0 0 0 30.526 21.464c-.908 12.248-2.989 29.194-5.035 42.846z" class="F"/><path d="M123.157 331.301c-9.648-7.088-20.84-16.113-31.72-25.792 6.775-15.543 12.306-30.781 16.206-43.262 31.352 3.875 59.259 9.189 86.442 16.143l-13.142-34.42c-24.787-14.213-47.046-29.598-68.814-47.386-5.672 16.489-14.97 38.526-30.088 62.981C59.083 257.39 26.616 255.879 0 256c9.5 18.709 23.685 44.379 45.1 72.657 24.373-.79 52.488.117 78.057 2.644z" class="C"/><path d="M180.944 243.97c6.856 3.941 15.917 8.855 22.808 12.317a1889.87 1889.87 0 0 0-26.326-47.549c19.65 4.33 44.017 11.479 61.118 17.464l-27.554-32.003c-33.666-16.926-57.342-32.486-81.37-50.811 1.981 21.724 2.551 39.805 2.461 56.614a623.77 623.77 0 0 1 33.095 6.025 1192.8 1192.8 0 0 1 15.768 37.943z" class="E"/><path d="M210.99 194.199c48.709 24.07 99.17 39.66 151.806 49.241-.356-7.383-.394-11.299-.546-18.864-8.926-5.955-16.127-10.523-24.671-15.591-1.206-7.727-3.329-23.14-4.839-36.81 9.596 2.036 29.934 5.919 56.116 8.525-59.343-43.994-139.277-80.584-247.759-100.567 47.647 39.674 99.301 66.048 152.893 82.213l8.802 27.754c-42.936-21.375-89.236-36.847-133.76-46.538 11.547 14.36 29.579 36.105 41.958 50.637z" class="H"/><path d="M413.502 124.479c5.609-14.517 13.378-31.895 23.517-49.499-75.304 3.802-131.255-10.655-172.87-29.684 4.106 20.094 7.889 36.622 12.12 53.379 40.75 14.647 88.925 24.259 137.233 25.804z" class="C"/><path d="M389.333 37.419c-19.041-11.706-41.078-21.201-59.463-26.6-.564 6.492-.935 12.127-1.255 17.559 17.531 4.202 37.38 7.698 60.718 9.041z" class="B"/><path d="M327.314 66.469c.116-10.274.561-26.221 1.301-38.09C305.648 22.753 280.681 13.865 256 0h-64c12.157 10.015 27.454 20.838 39.611 28.078 24.389 6.826 62.158 19.838 95.703 38.391z" class="E"/><path d="M221.537 74.449c-8.606-20.243-18.245-44.54-22.061-54.583-18.938-4.38-41.306-8.444-64.074-11.482 21.938 23.659 48.517 45.578 86.135 66.065z" class="D"/><path d="M34.637 244.176c15.012-7.23 26.752-15.611 35.752-23.199-8.606-8.927-15.162-16.165-25.78-28.943C29.935 191.628 14.56 191.575 0 192c10.498 18.259 21.222 34.534 34.637 52.176z" class="C"/><path d="M47.356 195.329C78.99 190.49 109.389 170.094 128 128a97.65 97.65 0 0 1-7.054 8.56l-2.536-2.058c-20.528 11.112-45.008 11.601-67.348 2.101 8.826 10.399 17.998 20.142 25.086 27.265-23.709 5.933-47.521.756-62.984-14.639 11.921 18.084 23.003 32.616 34.192 46.1z" class="G"/><path d="M51.063 136.603C33.236 115.295 17.384 93.903 0 64c2.41 33.273 22.306 60.204 51.063 72.603z" class="B"/><path d="M111.194,128.503C68.285,91.784,33.667,51.354,0,0C10.146,63.31,61.954,122.035,111.194,128.503z" class="D"/><path d="M141.098 80.133C117.671 60.653 90.361 33.771 64 0c25.002 38.255 36.606 54.167 52.608 75.919l24.49 4.214z" class="B"/><path d="M512 512v-64l25.817-1.618C524.595 466.416 515.157 491.208 512 512z" class="D"/><path d="M596.098 368.678c9.669 0 22.563 2.285 34.215 8.833-23.674 3.372-51.564 5.574-74.264 6.32C540.15 403.431 524.532 426.14 512 448c3.218-46.287 40.727-79.322 84.098-79.322z" class="B"/><path d="M512 384v-64c50.493-14.287 102.225 4.937 128 64-40.544-53.75-111.421-48.357-128 0z" class="E"/><path d="M604.137 269.851c7.696 14.294 14.939 30.975 20.009 45.615-4.546 3.684-7.537 6.257-10.931 9.191C594.759 298.523 561.321 266.641 512 256c27.604 0 60.808-1.433 82.063-3.532-21.098-33.652-46.572-59.087-71.113-70.765 21.963 1.52 48.806 2.301 69.439 1.632-7.858-15.117-22.9-41.216-42.97-60.666 18.819 1.593 37.848 2.688 61.079 1.81 17.794 45.419 31.694 106.245 33.404 175.533l-10.022 7.607c-3.353-18.815-8.304-39.094-12.632-52.697-6.822 5.553-12.093 10.402-17.111 14.929z" class="F"/><path d="M644.081 312.001l10.865-1.785C652.243 329.361 647.174 357.141 640 384c3.715-31.694 4.088-56.075 4.081-71.999z" class="B"/><path d="M640 384c12.382-23.438 26.981-54.258 37.174-78.021l-22.228 4.237 2.572-19.917c15.174-10.645 39.539-25.338 58.181-34.485C684.398 313.918 660.134 353.302 640 384z" class="D"/><path d="M724.733 294.043c-6.368 1.884-13.166 3.711-18.856 5.216 9.692-12.946 29.829-41.661 41.417-58.309 11.361-4.942 26.345-10.647 38.162-14.748l-60.723 67.841z" class="B"/><path d="M576 512h-64c46-70.082 98.319-126.346 168.542-170.455l44.191-47.502c36.931-10.953 67.172-23.496 95.515-37.756l-15.304 29.098c-26.148 8.02-53.069 18.139-81.954 32.418C689.477 357.522 630.949 426.915 576 512z" class="C"/><path d="M576 512c34.514-44.412 79.759-88.368 133.229-119.911C683.13 433.595 656.402 479.72 640 512h-64z" class="G"/><path d="M647.402 503.616c26.329-29.033 59.072-51.572 86.13-66.055l12.461-28.855c16.472-5.274 33.604-11.565 48.064-17.594-5.532 19.666-14.4 57.292-17.907 75.594C751.465 477.727 724.564 494.928 704 512l7.477-19.866c-16.06 3.704-38.442 8.01-64.075 11.482z" class="C"/><path d="M925.299 386.994c7.5 19.29 14.905 34.567 23.72 50.025-17.949-1.08-41.392-.576-58.403.794 3.151 12.661 5.964 22.419 10.716 36.768C860.692 476.847 812.086 487.046 768 512c2.865-18.155 5.03-29.269 8.15-45.294 19.507-9.023 44.098-17.248 65.697-21.746 28.808-15.194 56.236-33.831 83.452-57.966z" class="E"/><path d="M986.581 389.331c-19.583-1.948-47.804-2.622-61.282-2.337 11.662-10.454 22.738-21.736 32.905-33.084 10.375 16.36 20.25 27.495 28.377 35.421z" class="B"/><path d="M881.269 391.167c-13.074 1.715-26.398 3.904-41.102 7.224.235-7.256 1.095-19.475 1.86-29.948-16.539 8.89-32.708 16.315-47.97 22.67l11.933-41.456c-29.791 8.862-64.194 22.869-96.761 42.433l23.727-37.451c15.561-4.853 32.37-10.948 45.593-16.4 8.745-18.238 17.81-36.316 26.396-52.853 7.194-2.207 15.796-4.64 24.97-6.995-4.152 11.244-9.877 27.499-15.122 43.508 13.816-6.896 23.019-11.98 34.787-18.883-1.616 10.229-3.831 27.313-4.839 36.811 10.417-2.185 20.103-3.885 30.523-5.396-.706-10.242-1.321-31.34-1.014-47.005 6.051-4.042 15.727-10.881 22.41-15.989 1.735 14.33 5.428 35.936 10.097 55.42a468.89 468.89 0 0 1-30.523 21.464c.908 12.248 2.989 29.194 5.035 42.846z" class="F"/><path d="M900.843 331.301c9.646-7.088 20.84-16.113 31.72-25.792-6.775-15.543-12.306-30.781-16.206-43.262-31.352 3.875-59.259 9.189-86.442 16.143l13.144-34.42c24.785-14.213 47.047-29.598 68.813-47.386 5.672 16.489 14.97 38.526 30.088 62.981 22.959-2.175 55.429-3.686 82.042-3.565-9.5 18.709-23.686 44.379-45.1 72.657-24.377-.79-52.49.117-78.059 2.644z" class="C"/><path d="M843.058 243.97c-6.858 3.941-15.919 8.855-22.81 12.317 9.342-17.491 19.394-35.483 26.326-47.549-19.65 4.33-44.017 11.479-61.118 17.464l27.551-32.003c33.669-16.926 57.345-32.486 81.373-50.811-1.981 21.724-2.551 39.805-2.461 56.614a623.77 623.77 0 0 0-33.095 6.025c-4.763 10.836-11.373 26.763-15.766 37.943z" class="E"/><path d="M813.007 194.199c-48.706 24.07-99.167 39.66-151.803 49.241.356-7.383.394-11.299.546-18.864 8.926-5.955 16.127-10.523 24.671-15.591 1.206-7.727 3.331-23.14 4.838-36.81-9.595 2.036-29.933 5.919-56.115 8.525 59.343-43.994 139.277-80.584 247.759-100.567-47.647 39.674-99.301 66.048-152.894 82.213l-8.801 27.754c42.936-21.375 89.236-36.847 133.76-46.538l-41.961 50.637z" class="H"/><path d="M610.498 124.479c-5.611-14.517-13.378-31.895-23.517-49.499 75.304 3.802 131.255-10.655 172.868-29.684-4.104 20.094-7.887 36.622-12.118 53.379-40.75 14.647-88.925 24.259-137.233 25.804z" class="C"/><path d="M634.669 37.419c19.039-11.706 41.076-21.201 59.458-26.6.567 6.492.936 12.127 1.257 17.559-17.53 4.202-37.379 7.698-60.715 9.041z" class="B"/><path d="M696.683 66.469c-.113-10.274-.558-26.221-1.299-38.09C718.352 22.753 743.319 13.865 768 0h64c-12.157 10.015-27.454 20.838-39.608 28.078-24.392 6.826-62.161 19.838-95.709 38.391z" class="E"/><path d="M802.463 74.449c8.606-20.243 18.245-44.54 22.061-54.583 18.938-4.38 41.308-8.444 64.074-11.482-21.938 23.659-48.517 45.578-86.135 66.065z" class="D"/><path d="M989.363 244.176c-15.012-7.23-26.752-15.611-35.752-23.199 8.606-8.927 15.159-16.165 25.78-28.943 14.673-.405 30.048-.458 44.608-.034-10.497 18.259-21.222 34.534-34.636 52.176z" class="C"/><path d="M976.644 195.329C945.009 190.49 914.611 170.094 896 128a97.65 97.65 0 0 0 7.053 8.56l2.537-2.058c20.528 11.112 45.008 11.601 67.348 2.101-8.826 10.399-18 20.142-25.083 27.265 23.703 5.933 47.519.756 62.981-14.639-11.922 18.084-23.003 32.616-34.192 46.1z" class="G"/><path d="M972.938 136.603c17.826-21.308 33.678-42.7 51.063-72.603-2.411 33.273-22.309 60.204-51.063 72.603z" class="B"/><path d="M912.803 128.503C955.715 91.784 990.333 51.354 1024 0c-10.146 63.31-61.956 122.035-111.197 128.503z" class="D"/><path d="M882.902 80.133C906.329 60.653 933.639 33.771 960 0c-25.002 38.255-36.606 54.167-52.608 75.919l-24.49 4.214z" class="B"/><path d="M512 512v64l25.817 1.618C524.595 557.583 515.157 532.792 512 512z" class="D"/><path d="M596.098 655.321c9.669 0 22.563-2.284 34.215-8.833-23.674-3.372-51.564-5.574-74.264-6.321C540.15 620.569 524.532 597.861 512 576c3.218 46.287 40.727 79.321 84.098 79.321z" class="B"/><path d="M512 640v64c50.493 14.287 102.225-4.936 128-64-40.544 53.75-111.421 48.356-128 0z" class="E"/><path d="M604.137 754.148c7.696-14.292 14.939-30.973 20.009-45.613-4.546-3.684-7.537-6.258-10.931-9.192C594.759 725.477 561.321 757.361 512 768c27.604 0 60.808 1.433 82.063 3.532-21.098 33.653-46.572 59.088-71.113 70.764 21.963-1.519 48.806-2.301 69.439-1.629-7.858 15.115-22.9 41.215-42.97 60.664 18.819-1.595 37.848-2.688 61.079-1.811 17.794-45.419 31.694-106.243 33.404-175.532l-10.022-7.608c-3.353 18.814-8.304 39.095-12.632 52.699-6.822-5.554-12.093-10.403-17.111-14.931z" class="F"/><path d="M644.081 712l10.865 1.782C652.243 694.639 647.174 666.858 640 640c3.715 31.694 4.088 56.074 4.081 72z" class="B"/><path d="M640 640c12.382 23.438 26.981 54.259 37.174 78.021l-22.228-4.238 2.572 19.919c15.174 10.646 39.539 25.338 58.181 34.484C684.398 710.083 660.134 670.699 640 640z" class="D"/><path d="M724.733 729.958c-6.368-1.884-13.166-3.713-18.856-5.217 9.692 12.944 29.829 41.661 41.417 58.31 11.361 4.94 26.345 10.646 38.162 14.745l-60.723-67.838z" class="B"/><path d="M576 512h-64c46 70.083 98.319 126.348 168.542 170.454l44.191 47.504c36.931 10.952 67.172 23.496 95.515 37.755l-15.304-29.097c-26.148-8.021-53.069-18.14-81.954-32.42C689.477 666.477 630.949 597.086 576 512z" class="C"/><path d="M576 512c34.514 44.412 79.759 88.368 133.229 119.912C683.13 590.405 656.402 544.28 640 512h-64z" class="G"/><path d="M647.402 520.384c26.329 29.033 59.072 51.572 86.13 66.056l12.461 28.854c16.472 5.275 33.604 11.564 48.064 17.595-5.532-19.666-14.4-57.291-17.907-75.595C751.465 546.273 724.564 529.071 704 512l7.477 19.866c-16.06-3.704-38.442-8.01-64.075-11.482z" class="C"/><path d="M925.299 637.005c7.5-19.29 14.905-34.565 23.72-50.023-17.949 1.079-41.392.574-58.403-.796 3.151-12.66 5.964-22.417 10.716-36.767C860.692 547.152 812.086 536.954 768 512c2.865 18.155 5.03 29.269 8.15 45.294 19.507 9.023 44.098 17.248 65.697 21.745 28.808 15.194 56.236 33.831 83.452 57.966z" class="E"/><path d="M986.581 634.669c-19.583 1.947-47.804 2.623-61.282 2.336 11.662 10.453 22.738 21.736 32.905 33.085 10.375-16.359 20.25-27.495 28.377-35.421z" class="B"/><path d="M881.269 632.833c-13.074-1.715-26.398-3.902-41.102-7.222.235 7.255 1.095 19.472 1.86 29.946-16.539-8.891-32.708-16.314-47.97-22.669l11.933 41.456c-29.791-8.863-64.194-22.87-96.761-42.433l23.727 37.449c15.561 4.852 32.37 10.949 45.593 16.4 8.745 18.238 17.81 36.317 26.396 52.854 7.194 2.205 15.796 4.639 24.97 6.995-4.152-11.245-9.877-27.5-15.122-43.51 13.816 6.896 23.019 11.981 34.787 18.882-1.616-10.229-3.831-27.313-4.839-36.81 10.417 2.185 20.103 3.887 30.523 5.396-.706 10.241-1.321 31.341-1.014 47.005 6.051 4.042 15.727 10.88 22.41 15.99 1.735-14.331 5.428-35.938 10.097-55.421a468.48 468.48 0 0 0-30.523-21.463c.908-12.247 2.989-29.192 5.035-42.845z" class="F"/><path d="M900.843 692.699c9.646 7.088 20.84 16.113 31.72 25.792-6.775 15.541-12.306 30.779-16.206 43.261-31.352-3.875-59.259-9.188-86.442-16.141l13.144 34.419c24.785 14.213 47.047 29.6 68.813 47.387 5.672-16.491 14.97-38.528 30.088-62.981 22.959 2.176 55.429 3.685 82.042 3.564-9.5-18.708-23.686-44.38-45.1-72.657-24.377.791-52.49-.118-78.059-2.644z" class="C"/><path d="M843.058 780.03c-6.858-3.942-15.919-8.854-22.81-12.317 9.342 17.491 19.394 35.481 26.326 47.549-19.65-4.331-44.017-11.479-61.118-17.466l27.551 32.005c33.669 16.926 57.345 32.486 81.373 50.811-1.981-21.723-2.551-39.806-2.461-56.613-14.782-2.297-24.993-4.346-33.095-6.025a1186.26 1186.26 0 0 1-15.766-37.944z" class="E"/><path d="M813.007 829.801c-48.706-24.069-99.167-39.659-151.803-49.24.356 7.384.394 11.298.546 18.863 8.926 5.956 16.127 10.523 24.671 15.59 1.206 7.728 3.331 23.142 4.838 36.811-9.595-2.035-29.933-5.917-56.115-8.523 59.343 43.993 139.277 80.584 247.759 100.565-47.647-39.674-99.301-66.047-152.894-82.214l-8.801-27.754c42.936 21.375 89.236 36.847 133.76 46.539l-41.961-50.637z" class="H"/><path d="M610.498 899.521c-5.611 14.517-13.378 31.896-23.517 49.498 75.304-3.801 131.255 10.657 172.868 29.686-4.104-20.093-7.887-36.621-12.118-53.38-40.75-14.646-88.925-24.261-137.233-25.804z" class="C"/><path d="M634.669 986.581c19.039 11.706 41.076 21.201 59.458 26.6.567-6.491.936-12.127 1.257-17.561-17.53-4.199-37.379-7.696-60.715-9.039z" class="B"/><path d="M696.683 957.532c-.113 10.273-.558 26.22-1.299 38.088 22.968 5.625 47.936 14.515 72.616 28.38h64c-12.157-10.017-27.454-20.838-39.608-28.079-24.392-6.826-62.161-19.838-95.709-38.389z" class="E"/><path d="M802.463 949.551c8.606 20.243 18.245 44.539 22.061 54.584 18.938 4.379 41.308 8.444 64.074 11.48-21.938-23.657-48.517-45.578-86.135-66.064z" class="D"/><path d="M989.363 779.824c-15.012 7.231-26.752 15.611-35.752 23.199 8.606 8.926 15.159 16.164 25.78 28.941 14.673.405 30.048.461 44.608.035-10.497-18.258-21.222-34.531-34.636-52.175z" class="C"/><path d="M976.644 828.671C945.009 833.51 914.611 853.907 896 896a97.68 97.68 0 0 1 7.053-8.561l2.537 2.059c20.528-11.113 45.008-11.6 67.348-2.1-8.826-10.4-18-20.144-25.083-27.267 23.703-5.933 47.519-.757 62.981 14.639a509.26 509.26 0 0 0-34.192-46.099z" class="G"/><path d="M972.938 887.398c17.826 21.306 33.678 42.699 51.063 72.602-2.411-33.273-22.309-60.204-51.063-72.602z" class="B"/><path d="M912.803 895.495c42.912 36.723 77.53 77.15 111.197 128.505-10.146-63.311-61.956-122.035-111.197-128.505z" class="D"/><path d="M882.902 943.866C906.329 963.348 933.639 990.229 960 1024c-25.002-38.255-36.606-54.167-52.608-75.919l-24.49-4.215z" class="B"/><path d="M512 512v64l-25.817 1.618C499.405 557.583 508.843 532.792 512 512z" class="D"/><path d="M427.902 655.321c-9.669 0-22.563-2.284-34.215-8.833 23.674-3.372 51.564-5.574 74.262-6.321C483.848 620.569 499.468 597.861 512 576c-3.218 46.287-40.727 79.321-84.098 79.321z" class="B"/><path d="M512 640v64c-50.495 14.287-102.227-4.936-128-64 40.544 53.75 111.421 48.356 128 0z" class="E"/><path d="M419.863 754.148c-7.696-14.292-14.938-30.973-20.009-45.613 4.546-3.684 7.537-6.258 10.931-9.192C429.24 725.477 462.678 757.361 512 768c-27.604 0-60.811 1.433-82.063 3.532 21.098 33.653 46.571 59.088 71.113 70.764-21.963-1.519-48.806-2.301-69.439-1.629 7.856 15.115 22.9 41.215 42.97 60.664-18.819-1.595-37.848-2.688-61.079-1.811-17.794-45.419-31.691-106.243-33.404-175.532l10.022-7.608c3.353 18.814 8.304 39.095 12.632 52.699 6.822-5.554 12.096-10.403 17.111-14.931z" class="F"/><path d="M379.919 712l-10.866 1.782c2.704-19.144 7.773-46.924 14.947-73.782-3.715 31.694-4.088 56.074-4.081 72z" class="B"/><path d="M384 640c-12.385 23.438-26.981 54.259-37.174 78.021l22.227-4.238-2.571 19.919c-15.174 10.646-39.539 25.338-58.181 34.484C339.602 710.083 363.865 670.699 384 640z" class="D"/><path d="M299.267 729.958c6.367-1.884 13.164-3.713 18.856-5.217-9.692 12.944-29.829 41.661-41.419 58.31-11.359 4.94-26.343 10.646-38.16 14.745l60.723-67.838z" class="B"/><path d="M448 512h64c-46 70.083-98.319 126.348-168.542 170.454l-44.191 47.504c-36.931 10.952-67.172 23.496-95.515 37.755l15.304-29.097c26.148-8.021 53.069-18.14 81.953-32.42C334.523 666.477 393.051 597.086 448 512z" class="C"/><path d="M448 512c-34.514 44.412-79.76 88.368-133.229 119.912C340.87 590.405 367.598 544.28 384 512h64z" class="G"/><path d="M376.598 520.384c-26.329 29.033-59.072 51.572-86.13 66.056l-12.459 28.854c-16.474 5.275-33.606 11.564-48.066 17.595 5.532-19.666 14.4-57.291 17.909-75.595C272.532 546.273 299.436 529.071 320 512l-7.477 19.866c16.06-3.704 38.442-8.01 64.075-11.482z" class="C"/><path d="M98.701 637.005c-7.502-19.29-14.905-34.565-23.72-50.023 17.949 1.079 41.392.574 58.402-.796-3.15-12.66-5.963-22.417-10.717-36.767C163.308 547.152 211.912 536.954 256 512c-2.866 18.155-5.03 29.269-8.148 45.294-19.509 9.023-44.1 17.248-65.699 21.745-28.808 15.194-56.236 33.831-83.452 57.966z" class="E"/><path d="M37.419 634.669c19.583 1.947 47.804 2.623 61.282 2.336-11.662 10.453-22.738 21.736-32.905 33.085-10.375-16.359-20.25-27.495-28.377-35.421z" class="B"/><path d="M142.731 632.833c13.074-1.715 26.398-3.902 41.102-7.222-.235 7.255-1.095 19.472-1.86 29.946 16.539-8.891 32.708-16.314 47.97-22.669l-11.934 41.456c29.792-8.863 64.195-22.87 96.762-42.433l-23.727 37.449c-15.561 4.852-32.37 10.949-45.593 16.4-8.747 18.238-17.813 36.317-26.396 52.854-7.194 2.205-15.797 4.639-24.97 6.995 4.152-11.245 9.877-27.5 15.122-43.51-13.816 6.896-23.019 11.981-34.787 18.882 1.616-10.229 3.834-27.313 4.838-36.81-10.416 2.185-20.102 3.887-30.522 5.396.706 10.241 1.321 31.341 1.014 47.005-6.051 4.042-15.727 10.88-22.41 15.99-1.735-14.331-5.428-35.938-10.1-55.421 10.327-7.882 20.334-14.885 30.526-21.463-.908-12.247-2.989-29.192-5.035-42.845z" class="F"/><path d="M123.157 692.699c-9.648 7.088-20.84 16.113-31.72 25.792 6.775 15.541 12.306 30.779 16.206 43.261 31.352-3.875 59.259-9.188 86.442-16.141l-13.142 34.419c-24.787 14.213-47.046 29.6-68.814 47.387-5.672-16.491-14.97-38.528-30.088-62.981C59.083 766.611 26.616 768.12 0 768c9.5-18.708 23.685-44.38 45.1-72.657 24.373.791 52.488-.118 78.057-2.644z" class="C"/><path d="M180.944 780.03c6.856-3.942 15.917-8.854 22.808-12.317-9.342 17.491-19.396 35.481-26.326 47.549 19.65-4.331 44.017-11.479 61.118-17.466l-27.554 32.005c-33.666 16.926-57.342 32.486-81.37 50.811 1.981-21.723 2.551-39.806 2.461-56.613 14.782-2.297 24.993-4.346 33.095-6.025a1190.92 1190.92 0 0 0 15.768-37.944z" class="E"/><path d="M210.99 829.801c48.709-24.069 99.17-39.659 151.806-49.24-.356 7.384-.394 11.298-.546 18.863-8.926 5.956-16.127 10.523-24.671 15.59-1.206 7.728-3.329 23.142-4.839 36.811 9.596-2.035 29.934-5.917 56.116-8.523-59.343 43.993-139.277 80.584-247.759 100.565 47.647-39.674 99.301-66.047 152.893-82.214l8.802-27.754c-42.936 21.375-89.236 36.847-133.76 46.539 11.547-14.359 29.579-36.105 41.958-50.637z" class="H"/><path d="M413.502 899.521c5.609 14.517 13.378 31.896 23.517 49.498-75.304-3.801-131.255 10.657-172.87 29.686 4.106-20.093 7.889-36.621 12.12-53.38 40.75-14.646 88.925-24.261 137.233-25.804z" class="C"/><path d="M389.333 986.581c-19.041 11.706-41.078 21.201-59.463 26.6-.564-6.491-.935-12.127-1.255-17.561 17.531-4.199 37.38-7.696 60.718-9.039z" class="B"/><path d="M327.314 957.532c.116 10.273.561 26.22 1.301 38.088-22.967 5.625-47.935 14.515-72.615 28.38h-64c12.157-10.017 27.454-20.838 39.611-28.079 24.389-6.826 62.158-19.838 95.703-38.389z" class="E"/><path d="M221.537 949.551c-8.606 20.243-18.245 44.539-22.061 54.584-18.938 4.379-41.306 8.444-64.074 11.48 21.938-23.657 48.517-45.578 86.135-66.064z" class="D"/><path d="M34.637 779.824c15.012 7.231 26.752 15.611 35.752 23.199-8.606 8.926-15.162 16.164-25.78 28.941-14.674.406-30.049.462-44.609.036 10.498-18.259 21.222-34.532 34.637-52.176z" class="C"/><path d="M47.356 828.671C78.99 833.51 109.389 853.907 128 896c-2.51-3.417-4.824-6.142-7.054-8.561l-2.536 2.059c-20.528-11.113-45.008-11.6-67.348-2.1 8.826-10.4 17.998-20.144 25.086-27.267-23.709-5.933-47.521-.757-62.984 14.639 11.921-18.084 23.003-32.615 34.192-46.099z" class="G"/><path d="M51.063 887.398C33.236 908.704 17.384 930.098 0 960c2.41-33.273 22.306-60.204 51.063-72.602z" class="B"/><path d="M111.194 895.495C68.285 932.218 33.667 972.646 0 1024c10.146-63.311 61.954-122.035 111.194-128.505z" class="D"/><path d="M141.098 943.866C117.671 963.348 90.361 990.229 64 1024c25.002-38.255 36.606-54.167 52.608-75.919l24.49-4.215z" class="B"/></svg>