<svg xmlns="http://www.w3.org/2000/svg" width="1024" height="1024" xmlns:v="https://vecta.io/nano"><style><![CDATA[.B{fill:#f08c96}.C{fill:#c8a0a0}.D{fill:#c85064}.E{fill:#c00}.F{fill:#dcb4c8}.G{fill:#f33}.H{fill:#e6d2dc}]]></style><path d="M369.864 8.959C396.422 6.049 465.007 1.615 512 .045c-87.84 36.321-162.12 87.1-213.308 125.871-13.978-5.367-30.296-11.148-49.372-17.063 35.483-37.99 82.21-75.496 120.544-99.894z" class="C"/><path d="M202.457 50.271c41.677-4.646 77.452-5.467 105.001-5.33-18.202 12.785-36.955 27.289-54.329 42.389-25.149-4.707-53.633-8.203-74.904-9.868 9.046-10.72 15.257-17.694 24.232-27.191z" class="D"/><path d="M169.117 88.65c19.773 3.916 43.371 9.464 65.001 15.697-7.326 6.746-18.214 17.236-29.72 29.057-18.883-10.871-36.622-19.862-49.481-26.008 3.277-4.564 8.879-12.033 14.2-18.746z" class="H"/><path d="M146.554 103.46l8.363 3.937-5.625 7.936-8.06-5.079 5.322-6.794z" class="E"/><path d="M179.206 65.863l-10.077 10.898c-32.317-2.44-69.354-2.558-94.016-1.788 27.044-3.934 64.55-7.879 104.093-9.11z" class="F"/><path d="M160.206 86.921l-7.585 9.037c-26.542-8.681-50.005-15.034-77.508-20.984 27.54 2.546 57.528 6.765 85.093 11.947z" class="B"/><path d="M134.926 118.573l-5.861 8.004c-20.713-22.466-38.295-38.68-53.951-51.604 16.36 10.405 35.991 24.039 59.812 43.6z" class="G"/><path d="M114.647 147.475l-7.426 11.489C95.477 120.95 81.51 88.758 75.113 74.974c8.489 13.276 25.6 42.889 39.534 72.501z" class="D"/><path d="M96.126 177.172c-5.051 8.603-8.502 14.758-14.453 25.832 2.329-58.135-2.301-102.229-6.56-128.03 5.519 18.735 14.983 55.274 21.013 102.198z" class="B"/><path d="M149.292 115.332c15.688 10.091 31.396 21.127 43.482 30.311-5.925 6.305-16.748 18.373-24.648 27.728-9.533-12.395-19.084-24.35-31.682-38.599 3.722-5.929 8.238-12.797 12.848-19.44z" class="F"/><path d="M204.398 133.404c16.726 9.541 32.071 19.229 47.824 29.787l-18.294 15.771c-11.509-9.979-26.871-22.617-41.154-33.32l11.624-12.238z" class="G"/><path d="M195.529 174.463c6.615 6.755 14.866 15.6 19.885 21.155l-18.771 17.661c-5.402-8.094-9.742-14.25-13.788-19.95 4.596-7.14 7.906-12.037 12.674-18.866z" class="B"/><path d="M122.123 136.416c12.281 18.563 23.207 37.315 32.076 53.783l-14.138 18.038c-8.987-24.544-18.057-45.245-25.414-60.763l7.476-11.058z" class="H"/><path d="M81.673 203.004c-2.916 68.399-13.582 130.4-31.099 189.592-9.06-23.249-15.388-47.511-19.1-70.395 10.45-32.172 23.989-69.326 50.199-119.197z" class="C"/><path d="M112.671 177.443c8.864 31.762 15.975 66.182 20.285 102.754-20.825 24.277-39.141 47.131-58.708 75.811-4.458-73.451 17.753-136.156 38.423-178.565z" class="D"/><path d="M377.579 83.733c35.916 7.915 81 20.769 134.421 44.301-127.688 18.095-234.113 78.28-300.324 126.229 53.633-80.805 120.752-136.829 165.903-170.53z" class="E"/><path d="M393.423 170.666c40.348 22.814 80.727 51.589 118.482 85.402-39.864-.046-86.689 4.102-132.741 13.374-19.525-19.997-36.473-35.735-57.397-53.626 24.628-18.351 49.007-33.324 71.656-45.15zm-124.483 90c13.812 18.277 29.752 41.698 42.443 61.9-13.063 7.459-24.53 14.373-39.999 25.075-7.678-16.835-18.988-39.573-29.485-59.042 10.246-11.336 19.851-21.04 27.041-27.933z" class="D"/><path d="M311.384 322.566c29.835-16.549 53.9-27.449 82.183-37.871 25.71 27.69 55.48 65.117 80.877 104.766-49.815-12.496-92.357-18.004-134.928-19.084-8.377-15.407-19.499-34.238-28.132-47.811z" class="B"/><path d="M271.385 347.642l10.888 24.331c-13.76 1.067-33.114 3.455-51.357 6.946 12.556-10.759 23.5-19.402 40.469-31.277z" class="G"/><path d="M239.951 425.213l2.566 11.639c-9.594-.535-18.64-.697-25.007-.652 7.822-4.184 15.397-7.87 22.441-10.987z" class="E"/><path d="M247.354 460.654c2.602 13.201 5.768 31.936 8.574 51.392-39.414-10.607-95.243-14.906-127.893-.046 30.421-28.846 70.466-45.686 119.319-51.346z" class="H"/><path d="M217.511 436.199c-35.145 18.924-66.145 44.025-89.476 75.801 15.165-32.266 32.474-56.877 45.394-73.265 12.592-1.408 27.553-2.444 44.082-2.536z" class="F"/><path d="M167.31 395.952c13.781-4.862 35.788-11.72 63.605-17.033-25.123 21.751-42.496 40.944-57.486 59.816-7.675.862-17.229 2.194-26.713 3.942 5.47-14.757 12.473-30.989 20.594-46.725z" class="C"/><path d="M211.897 324.846c-16.037 21.632-29.727 42.314-44.588 71.106-8.134 2.889-15.349 5.616-24.021 9.292 4.171-16.012 9.796-33.787 17.01-52.459 13.161-8.08 33.407-19.26 51.599-27.939z" class="B"/><path d="M296.121 405.319c13.411-3.74 34.48-8.546 55.798-11.628 11.178 21.601 25.283 51.645 37.018 81.127-28.419-14.871-55.18-22.958-77.225-28.123-5.421-15.151-9.754-26.611-15.591-41.376z" class="F"/><path d="M168.224 217.588c10.158 21.031 17.718 38.48 23.167 51.93 7.703-5.996 13.253-10.166 20.285-15.254-24.153 36.986-37.982 64.881-51.378 98.521-7.788 4.695-15.89 9.883-22.014 14.059-.26-22.441-.808-33.654-1.863-49.831-3.963 3.778-8.34 8.089-13.316 13.119 10.536-43.988 27.539-81.038 45.119-112.544z" class="G"/><path d="M123.104 330.132c-13.318 55.302-12.028 104.001-4.416 144.567-4.68.119-7.933.188-12.23.491-10.207-20.547-23.6-52.045-29.502-93.038 11.675-14.884 30.516-36.334 46.148-52.02z" class="C"/><path d="M65.684 426.047c3.343 6.472 5.897 11.024 9.235 16.702C47.815 461.822 24.549 482.1.046 512c17.352-31.248 40.149-60.804 65.638-85.953z" class="B"/><path d="M50.574 392.596C37.482 436.74 21.326 474.665.046 512c11.786-46.543 31.632-85.953 50.528-119.404z" class="E"/><path d="M520.914 142.18c-2.91-26.557-7.345-95.143-8.914-142.134 36.321 87.839 87.099 162.119 125.871 213.306-5.368 13.979-11.149 30.297-17.062 49.374-37.991-35.484-75.497-82.209-99.895-120.546z" class="C"/><path d="M562.228 309.59c-4.648-41.678-5.468-77.454-5.331-105.002 12.783 18.2 27.289 36.953 42.388 54.329-4.706 25.15-8.203 53.632-9.867 74.904-10.72-9.044-17.696-15.257-27.19-24.231z" class="D"/><path d="M600.605 342.93c3.914-19.774 9.465-43.371 15.695-65.002 6.747 7.326 17.239 18.213 29.058 29.719a748.35 748.35 0 0 0-26.007 49.484c-4.564-3.28-12.033-8.879-18.746-14.201z" class="H"/><path d="M615.414 365.492l3.938-8.361 7.935 5.623-5.078 8.059-6.795-5.321z" class="E"/><path d="M577.818 332.84l10.897 10.079c-2.44 32.315-2.556 69.351-1.787 94.013-3.934-27.045-7.878-64.551-9.11-104.092z" class="F"/><path d="M598.877 351.84l9.036 7.586c-8.68 26.541-15.036 50.004-20.984 77.506 2.546-27.537 6.765-57.528 11.948-85.092z" class="B"/><path d="M630.526 377.121l8.004 5.859c-22.466 20.714-38.677 38.296-51.602 53.951 10.405-16.359 24.04-35.99 43.598-59.81z" class="G"/><path d="M659.43 397.4l11.489 7.424c-38.013 11.744-70.207 25.711-83.99 32.107 13.276-8.486 42.889-25.599 72.501-39.531z" class="D"/><path d="M689.128 415.92c8.601 5.05 14.758 8.502 25.831 14.451-58.134-2.326-102.229 2.304-128.03 6.561 18.734-5.518 55.272-14.983 102.199-21.012z" class="B"/><path d="M627.286 362.754c10.092-15.688 21.128-31.395 30.313-43.483 6.305 5.927 18.373 16.749 27.727 24.649-12.395 9.533-24.35 19.085-38.599 31.682-5.928-3.721-12.798-8.237-19.441-12.848z" class="F"/><path d="M645.358 307.646c9.541-16.723 19.23-32.071 29.789-47.822l15.772 18.293c-9.981 11.508-22.619 26.871-33.321 41.153l-12.24-11.624z" class="G"/><path d="M686.418 316.518a818.25 818.25 0 0 1 21.155-19.885c4.909 5.377 13.32 14.29 17.66 18.771-8.094 5.402-14.251 9.742-19.949 13.787-7.138-4.597-12.036-7.907-18.866-12.673z" class="B"/><path d="M648.372 389.923c18.562-12.28 37.314-23.206 53.782-32.075l18.038 14.138c-24.544 8.987-45.246 18.056-60.763 25.415l-11.057-7.478z" class="H"/><path d="M714.959 430.371c68.398 2.918 130.399 13.584 189.591 31.102-23.25 9.059-47.51 15.387-70.394 19.1-32.174-10.452-69.326-23.989-119.197-50.202z" class="C"/><path d="M689.396 399.377c31.764-8.867 66.184-15.979 102.754-20.285 24.278 20.822 47.132 39.137 75.813 58.706-73.452 4.458-136.156-17.753-178.567-38.421z" class="D"/><path d="M595.688 134.467c7.916-35.916 20.769-81.002 44.301-134.421 18.096 127.689 78.28 234.113 126.23 300.326-80.806-53.635-136.831-120.755-170.531-165.905z" class="E"/><path d="M682.619 118.623C705.436 78.273 734.21 37.896 768.023.14c-.047 39.866 4.102 86.689 13.373 132.741-19.998 19.525-35.734 36.473-53.624 57.396-18.352-24.627-33.325-49.006-45.153-71.654zm90.002 124.481c18.274-13.812 41.698-29.752 61.9-42.441 7.458 13.062 14.374 24.528 25.074 39.997-16.834 7.68-39.573 18.989-59.043 29.487-11.336-10.245-21.038-19.85-27.931-27.043z" class="D"/><path d="M834.521 200.663c-16.55-29.837-27.451-53.903-37.872-82.184 27.69-25.711 65.117-55.481 104.765-80.878-12.494 49.814-18.003 92.359-19.082 134.928-15.408 8.377-34.237 19.499-47.811 28.134z" class="B"/><path d="M859.596 240.66c8.788-4.094 17.309-7.814 24.331-10.888 1.067 13.762 3.456 33.115 6.946 51.358-10.759-12.556-19.401-23.502-31.277-40.47z" class="G"/><path d="M937.165 272.096l11.641-2.567c-.535 9.595-.697 18.641-.65 25.007-4.186-7.823-7.871-15.397-10.991-22.44z" class="E"/><path d="M972.608 264.694c13.201-2.603 31.936-5.769 51.392-8.577-10.607 39.417-14.906 95.245-.046 127.895-28.845-30.422-45.685-70.468-51.346-119.318z" class="H"/><path d="M948.155 294.535c18.922 35.145 44.023 66.146 75.799 89.477-32.266-15.166-56.877-32.474-73.265-45.396-1.409-12.589-2.444-27.552-2.534-44.081z" class="F"/><path d="M907.906 344.738c-4.863-13.783-11.719-35.789-17.033-63.607 21.753 25.122 40.945 42.498 59.816 57.484.863 7.678 2.194 17.232 3.942 26.715-14.758-5.47-30.987-12.473-46.725-20.592z" class="C"/><path d="M836.799 300.148c21.633 16.037 42.316 29.727 71.107 44.59 2.889 8.132 5.617 15.347 9.293 24.019-16.013-4.17-33.788-9.796-52.46-17.009-8.081-13.161-19.26-33.408-27.94-51.6z" class="B"/><path d="M917.273 215.923c-3.74-13.411-8.546-34.479-11.629-55.797 21.601-11.177 51.644-25.281 81.128-37.018-14.869 28.419-22.957 55.181-28.123 77.224-15.151 5.422-26.611 9.754-41.376 15.591z" class="F"/><path d="M729.541 343.822c21.033-10.157 38.482-17.717 51.93-23.166-5.994-7.703-10.166-13.253-15.252-20.285 36.986 24.15 64.88 37.982 98.521 51.377 4.696 7.789 9.883 15.89 14.059 22.014-22.44.261-33.654.809-49.831 1.863 3.779 3.963 8.087 8.339 13.119 13.316-43.988-10.537-81.038-27.538-112.546-45.119z" class="G"/><path d="M842.086 388.941c55.301 13.318 104 12.029 144.568 4.415.118 4.681.188 7.933.49 12.23-20.547 10.21-52.044 23.601-93.038 29.502-14.884-11.673-36.332-30.514-52.02-46.147z" class="C"/><path d="M938.001 446.361a318.04 318.04 0 0 0 16.702-9.233c19.074 27.104 39.351 50.369 69.251 74.872-31.247-17.354-60.805-40.149-85.953-65.639z" class="B"/><path d="M904.55 461.473c44.145 13.09 82.069 29.246 119.404 50.527-46.542-11.786-85.953-31.632-119.404-50.527z" class="E"/><path d="M881.818 520.913c26.558-2.909 95.142-7.344 142.136-8.913-87.84 36.32-162.12 87.099-213.308 125.87-13.979-5.367-30.295-11.149-49.373-17.061 35.484-37.992 82.21-75.497 120.545-99.896z" class="C"/><path d="M714.41 562.227c41.676-4.647 77.453-5.467 105.002-5.33-18.202 12.783-36.955 27.289-54.328 42.387-25.15-4.705-53.634-8.203-74.905-9.867 9.046-10.72 15.258-17.696 24.231-27.19z" class="D"/><path d="M681.07 600.605c19.774 3.914 43.372 9.464 65.002 15.695-7.326 6.747-18.214 17.239-29.72 29.058a747.42 747.42 0 0 0-49.481-26.007c3.277-4.564 8.876-12.034 14.199-18.746z" class="H"/><path d="M658.508 615.414l8.363 3.938-5.625 7.935-8.06-5.079 5.322-6.794z" class="E"/><path d="M691.16 577.817l-10.078 10.897c-32.316-2.439-69.353-2.555-94.015-1.787 27.044-3.934 64.55-7.878 104.093-9.11z" class="F"/><path d="M672.159 598.876l-7.585 9.036c-26.541-8.68-50.005-15.035-77.507-20.984 27.539 2.547 57.528 6.765 85.092 11.948z" class="B"/><path d="M646.879 630.526l-5.86 8.004c-20.713-22.466-38.295-38.678-53.951-51.603 16.359 10.405 35.992 24.041 59.811 43.599z" class="G"/><path d="M626.602 659.429l-7.426 11.489c-11.744-38.013-25.711-70.206-32.108-83.99 8.487 13.277 25.599 42.889 39.534 72.501z" class="D"/><path d="M608.079 689.127c-5.05 8.602-8.501 14.759-14.452 25.831 2.329-58.134-2.301-102.227-6.56-128.03 5.519 18.734 14.983 55.273 21.012 102.199z" class="B"/><path d="M661.246 627.286c15.688 10.091 31.396 21.127 43.482 30.312-5.926 6.305-16.749 18.373-24.648 27.727-9.534-12.395-19.084-24.35-31.683-38.599 3.722-5.927 8.239-12.797 12.849-19.44z" class="F"/><path d="M716.353 645.358c16.723 9.541 32.071 19.229 47.823 29.789l-18.294 15.771c-11.508-9.98-26.87-22.618-41.153-33.321l11.624-12.239z" class="G"/><path d="M707.482 686.417a823.4 823.4 0 0 1 19.885 21.155c-5.376 4.909-14.29 13.32-18.771 17.661-5.402-8.095-9.742-14.252-13.788-19.95 4.596-7.137 7.907-12.036 12.674-18.866z" class="B"/><path d="M634.077 648.372c12.279 18.561 23.206 37.313 32.076 53.782l-14.138 18.037c-8.988-24.544-18.057-45.243-25.414-60.763l7.476-11.056z" class="H"/><path d="M593.627 714.958c-2.916 68.399-13.582 130.4-31.099 189.592-9.06-23.25-15.388-47.512-19.101-70.394 10.451-32.173 23.989-69.327 50.2-119.198z" class="C"/><path d="M624.624 689.396c8.865 31.764 15.976 66.185 20.285 102.755-20.824 24.278-39.14 47.133-58.707 75.813-4.458-73.452 17.753-136.157 38.422-178.568z" class="D"/><path d="M889.533 595.687c35.915 7.916 80.999 20.77 134.421 44.302-127.688 18.096-234.113 78.28-300.324 126.229 53.634-80.806 120.752-136.83 165.903-170.531z" class="E"/><path d="M905.376 682.619c40.349 22.817 80.728 51.59 118.483 85.404-39.865-.047-86.689 4.102-132.741 13.373-19.525-19.998-36.474-35.734-57.397-53.624 24.628-18.352 49.007-33.326 71.655-45.153zM780.895 772.62c13.812 18.276 29.752 41.7 42.442 61.901-13.063 7.458-24.529 14.374-39.997 25.074-7.678-16.834-18.99-39.572-29.486-59.043 10.244-11.336 19.849-21.039 27.041-27.932z" class="D"/><path d="M823.337 834.521c29.836-16.549 53.9-27.451 82.183-37.871 25.711 27.689 55.481 65.116 80.878 104.764-49.815-12.494-92.36-18.003-134.929-19.082-8.376-15.408-19.498-34.237-28.132-47.811z" class="B"/><path d="M783.34 859.596l10.887 24.331c-13.76 1.067-33.115 3.456-51.358 6.946 12.557-10.758 23.502-19.4 40.471-31.277z" class="G"/><path d="M751.904 937.165l2.566 11.641c-9.593-.535-18.639-.697-25.006-.65 7.822-4.185 15.397-7.871 22.44-10.991z" class="E"/><path d="M759.307 972.609c2.602 13.2 5.766 31.935 8.576 51.391-39.416-10.607-95.246-14.906-127.895-.046 30.422-28.845 70.467-45.685 119.319-51.345z" class="H"/><path d="M729.465 948.155c-35.146 18.922-66.145 44.023-89.477 75.799 15.166-32.266 32.475-56.877 45.395-73.265 12.592-1.409 27.553-2.444 44.082-2.534z" class="F"/><path d="M679.263 907.906c13.781-4.863 35.789-11.719 63.605-17.033-25.122 21.753-42.496 40.945-57.485 59.816-7.675.863-17.229 2.194-26.713 3.942 5.47-14.758 12.474-30.987 20.593-46.725z" class="C"/><path d="M723.852 836.8c-16.038 21.632-29.727 42.315-44.589 71.106-8.133 2.889-15.348 5.618-24.021 9.293 4.171-16.012 9.795-33.788 17.01-52.46 13.161-8.081 33.407-19.26 51.6-27.939z" class="B"/><path d="M808.075 917.273c13.413-3.74 34.48-8.545 55.798-11.628 11.178 21.6 25.282 51.644 37.018 81.127-28.419-14.869-55.181-22.957-77.225-28.123-5.421-15.151-9.754-26.611-15.591-41.376z" class="F"/><path d="M680.178 729.54c10.158 21.033 17.718 38.483 23.167 51.931 7.702-5.994 13.253-10.165 20.285-15.253-24.153 36.987-37.983 64.881-51.378 98.521-7.788 4.696-15.89 9.883-22.014 14.059-.26-22.44-.809-33.654-1.863-49.831-3.963 3.777-8.34 8.087-13.316 13.119 10.536-43.986 27.539-81.037 45.119-112.546z" class="G"/><path d="M635.059 842.086c-13.318 55.301-12.029 104-4.416 144.568-4.681.118-7.933.188-12.23.49-10.208-20.547-23.6-52.044-29.502-93.038 11.674-14.884 30.515-36.332 46.148-52.02z" class="C"/><path d="M577.638 938.001c3.343 6.472 5.897 11.024 9.235 16.702-27.104 19.075-50.37 39.351-74.873 69.251 17.353-31.247 40.149-60.805 65.638-85.953z" class="B"/><path d="M562.528 904.55c-13.092 44.145-29.248 82.069-50.528 119.404 11.786-46.542 31.632-85.953 50.528-119.404z" class="E"/><path d="M8.96 654.135C6.051 627.577 1.615 558.993.046 512c36.321 87.839 87.098 162.119 125.871 213.305-5.367 13.98-11.149 30.298-17.061 49.375-37.992-35.483-75.499-82.21-99.896-120.545z" class="C"/><path d="M50.273 821.544c-4.648-41.677-5.467-77.454-5.33-105.002 12.783 18.202 27.289 36.955 42.387 54.328-4.705 25.15-8.203 53.632-9.867 74.905-10.719-9.046-17.695-15.257-27.19-24.231z" class="D"/><path d="M88.651 854.884c3.914-19.774 9.465-43.371 15.695-65.002 6.748 7.326 17.239 18.212 29.059 29.72-10.87 18.883-19.862 36.622-26.008 49.482-4.564-3.278-12.033-8.879-18.746-14.2z" class="H"/><path d="M103.461 877.446l3.937-8.362 7.935 5.624-5.078 8.06-6.794-5.322z" class="E"/><path d="M65.864 844.794l10.897 10.078c-2.439 32.316-2.556 69.353-1.787 94.015-3.934-27.044-7.878-64.55-9.11-104.093z" class="F"/><path d="M86.923 863.792l9.036 7.588c-8.68 26.541-15.036 50.005-20.984 77.507 2.546-27.539 6.765-57.528 11.948-85.095z" class="B"/><path d="M118.573 889.075l8.004 5.86c-22.466 20.713-38.678 38.295-51.603 53.951 10.405-16.359 24.041-35.991 43.599-59.811z" class="G"/><path d="M147.476 909.354l11.489 7.425c-38.013 11.744-70.207 25.711-83.99 32.108 13.276-8.489 42.889-25.6 72.501-39.533z" class="D"/><path d="M177.174 927.875c8.602 5.05 14.758 8.501 25.831 14.452-58.134-2.329-102.227 2.301-128.03 6.56 18.734-5.519 55.273-14.983 102.199-21.012z" class="B"/><path d="M115.332 874.708c10.092-15.688 21.128-31.396 30.313-43.482 6.305 5.926 18.373 16.749 27.727 24.648-12.395 9.534-24.35 19.084-38.599 31.683-5.928-3.722-12.797-8.239-19.441-12.849z" class="F"/><path d="M133.405 819.602c9.54-16.725 19.229-32.071 29.788-47.824l15.772 18.295c-9.98 11.508-22.618 26.87-33.321 41.153l-12.239-11.624z" class="G"/><path d="M174.464 828.472a823.4 823.4 0 0 1 21.155-19.885c4.909 5.377 13.32 14.29 17.66 18.771-8.094 5.402-14.251 9.742-19.949 13.788-7.139-4.596-12.036-7.907-18.866-12.674z" class="B"/><path d="M136.418 901.877c18.562-12.281 37.314-23.206 53.783-32.076l18.037 14.138c-24.544 8.988-45.243 18.057-60.763 25.415l-11.057-7.477z" class="H"/><path d="M203.005 942.327c68.398 2.916 130.399 13.582 189.592 31.099-23.251 9.06-47.513 15.388-70.395 19.101-32.173-10.451-69.327-23.99-119.197-50.2z" class="C"/><path d="M177.442 911.33c31.764-8.865 66.185-15.976 102.754-20.285 24.278 20.824 47.133 39.14 75.813 58.707-73.451 4.458-136.155-17.753-178.567-38.422z" class="D"/><path d="M83.733 646.421c7.916-35.916 20.769-81 44.302-134.421 18.096 127.688 78.28 234.113 126.229 300.324-80.805-53.634-136.83-120.753-170.531-165.903z" class="E"/><path d="M170.665 630.577c22.817-40.349 51.591-80.727 85.405-118.482-.047 39.864 4.1 86.688 13.372 132.74-19.997 19.526-35.734 36.474-53.624 57.397-18.352-24.627-33.325-49.006-45.153-71.655zm90.001 124.482c18.275-13.811 41.7-29.752 61.901-42.442 7.458 13.063 14.374 24.53 25.074 39.999-16.834 7.677-39.572 18.988-59.043 29.485-11.336-10.245-21.039-19.851-27.932-27.042z" class="D"/><path d="M322.567 712.616c-16.549-29.836-27.451-53.902-37.871-82.183 27.689-25.711 65.116-55.481 104.764-80.877-12.494 49.814-18.003 92.357-19.082 134.928-15.408 8.376-34.237 19.498-47.811 28.132z" class="B"/><path d="M347.642 752.615c8.789-4.095 17.309-7.817 24.331-10.889 1.067 13.761 3.456 33.115 6.946 51.359-10.758-12.556-19.4-23.502-31.277-40.47z" class="G"/><path d="M425.211 784.05l11.641-2.567c-.535 9.594-.696 18.64-.65 25.007-4.185-7.821-7.871-15.397-10.991-22.44z" class="E"/><path d="M460.655 776.647c13.2-2.602 31.935-5.769 51.391-8.576-10.607 39.416-14.905 95.244-.046 127.895-28.845-30.421-45.686-70.467-51.345-119.319z" class="H"/><path d="M436.201 806.489c18.922 35.143 44.023 66.145 75.799 89.477-32.266-15.166-56.877-32.475-73.265-45.395-1.409-12.592-2.444-27.552-2.534-44.082z" class="F"/><path d="M395.952 856.691c-4.862-13.781-11.719-35.789-17.033-63.605 21.753 25.122 40.945 42.496 59.816 57.485.863 7.675 2.194 17.229 3.942 26.713-14.757-5.47-30.988-12.473-46.725-20.593z" class="C"/><path d="M324.846 812.103c21.632 16.038 42.315 29.727 71.106 44.589 2.889 8.133 5.618 15.348 9.293 24.021-16.012-4.171-33.788-9.795-52.46-17.01-8.08-13.162-19.26-33.408-27.939-51.6z" class="B"/><path d="M405.319 727.879c-3.74-13.413-8.545-34.481-11.628-55.799 21.6-11.177 51.644-25.282 81.127-37.018-14.869 28.419-22.956 55.181-28.123 77.225a1239.1 1239.1 0 0 0-41.376 15.592z" class="F"/><path d="M217.587 855.776c21.033-10.158 38.483-17.718 51.93-23.166-5.995-7.703-10.165-13.254-15.253-20.286 36.987 24.151 64.881 37.983 98.521 51.378 4.696 7.788 9.883 15.89 14.059 22.014-22.44.26-33.654.809-49.831 1.863 3.777 3.963 8.087 8.34 13.119 13.316-43.987-10.536-81.036-27.539-112.545-45.119z" class="G"/><path d="M330.132 900.896c55.301 13.318 104 12.029 144.568 4.416.118 4.681.188 7.933.49 12.23-20.547 10.208-52.044 23.6-93.038 29.502-14.884-11.675-36.332-30.516-52.02-46.148z" class="C"/><path d="M426.047 958.316c6.472-3.343 11.024-5.897 16.702-9.235 19.075 27.104 39.351 50.37 69.251 74.873-31.247-17.352-60.805-40.149-85.953-65.638z" class="B"/><path d="M392.597 973.426c44.144 13.092 82.068 29.248 119.403 50.528-46.542-11.786-85.953-31.632-119.403-50.528z" class="E"/></svg>