# Blender v2.79 (sub 0) OBJ File: ''
# www.blender.org
mtllib blender-box-open.mtl
o blender-box-open.001
v -0.341157 -0.355102 -0.358504
v -0.241157 -0.255102 -0.258504
v -0.341157 -0.355102 -0.008504
v 0.033149 -0.355102 -0.057115
v -0.241157 -0.255102 0.241496
v -0.341157 -0.155102 -0.258504
v -0.341157 0.344899 -0.358504
v -0.341157 -0.055102 -0.258504
v -0.241157 -0.155102 -0.258504
v -0.241157 -0.055102 -0.258504
v -0.341157 -0.155102 -0.058504
v -0.341157 -0.055102 -0.158504
v -0.341157 0.044898 -0.058504
v -0.241157 -0.155102 -0.058504
v -0.241157 -0.055102 -0.158504
v -0.241157 0.044898 -0.058504
v 0.008844 -0.355102 -0.358504
v -0.039767 0.019204 -0.358504
v 0.258844 -0.255102 -0.258504
v -0.009385 0.031357 -0.258504
v -0.341157 -0.355102 0.341496
v -0.341157 -0.155102 0.141496
v -0.141157 -0.155102 0.341496
v -0.341157 -0.155102 0.041496
v -0.341157 0.044898 0.041496
v -0.241157 -0.155102 0.041496
v -0.241157 -0.155102 0.141496
v -0.241157 0.044898 0.041496
v -0.341157 0.344898 0.341496
v -0.241157 0.244898 0.241496
v -0.141157 -0.055102 0.341496
v 0.008844 -0.355102 0.341496
v 0.158844 -0.155102 0.341496
v -0.141157 -0.155102 0.241496
v -0.141157 -0.055102 0.241496
v 0.158844 -0.155102 0.241496
v 0.058843 -0.055102 0.241496
v 0.058843 -0.055102 0.341496
v -0.341157 0.144898 -0.158504
v -0.341157 0.144898 0.141496
v -0.241157 0.144898 -0.158504
v -0.241157 0.144898 0.141496
v -0.241157 0.244899 -0.258504
v -0.039767 0.344899 0.015802
v 0.258844 0.244899 -0.258504
v 0.008844 0.344899 -0.358504
v -0.141157 0.044898 0.341496
v -0.141157 0.044898 0.241496
v 0.058843 0.044898 0.241496
v 0.058843 0.044898 0.341496
v -0.041157 0.144898 0.241496
v -0.041157 0.144898 0.341496
v -0.141157 0.244898 0.241496
v -0.141157 0.244898 0.341496
v -0.041157 0.244898 0.341496
v 0.008844 0.344898 0.341496
v 0.358844 -0.355102 -0.358504
v 0.258844 0.044898 -0.258504
v 0.358844 -0.155102 -0.158504
v 0.258844 -0.255102 0.241496
v 0.358844 -0.355102 0.341496
v 0.358844 -0.155102 0.141496
v 0.358844 -0.005101 -0.358504
v 0.258844 -0.155102 -0.158504
v 0.258844 -0.155102 0.141496
v 0.258844 0.044898 -0.158504
v 0.258844 -0.055102 -0.058504
v 0.358844 0.044898 -0.158504
v 0.358844 -0.055102 -0.058504
v 0.158844 0.144898 0.241496
v 0.158844 0.144898 0.341496
v 0.258844 -0.055102 0.041496
v 0.358844 -0.055102 0.041496
v 0.358844 0.144898 0.141496
v 0.258844 0.244898 0.241496
v 0.358844 -0.005101 0.341496
v 0.258844 0.144898 -0.258504
v 0.358844 0.044898 -0.258504
v 0.358844 0.344899 -0.358504
v 0.358844 0.144898 -0.258504
v 0.258844 0.144898 -0.058504
v 0.358844 0.144898 -0.058504
v 0.358844 0.344899 -0.008504
v -0.041157 0.244898 0.241496
v 0.358844 0.344898 0.341496
v 0.258844 0.144898 0.041496
v 0.258844 0.144898 0.141496
v 0.358844 0.144898 0.041496
vt 0.000000 0.000000
vt 1.000000 0.000000
vt 1.000000 1.000000
vt 0.000000 0.000000
vt 1.000000 0.000000
vt 1.000000 1.000000
vt 0.000000 0.000000
vt 1.000000 0.000000
vt 1.000000 1.000000
vt 0.000000 0.000000
vt 1.000000 0.000000
vt 1.000000 1.000000
vt 1.000000 0.000000
vt 1.000000 1.000000
vt 0.000000 0.000000
vt 1.000000 0.000000
vt 1.000000 1.000000
vt 0.000000 0.000000
vt 1.000000 0.000000
vt 0.000000 0.000000
vt 1.000000 1.000000
vt 0.000000 0.000000
vt 1.000000 0.000000
vt 1.000000 1.000000
vt 0.000000 0.000000
vt 1.000000 0.000000
vt 0.000000 0.000000
vt 1.000000 1.000000
vt 0.000000 0.000000
vt 1.000000 0.000000
vt 1.000000 1.000000
vt 0.000000 0.000000
vt 1.000000 0.000000
vt 1.000000 1.000000
vt 0.000000 0.000000
vt 1.000000 0.000000
vt 0.000000 0.000000
vt 1.000000 1.000000
vt 0.000000 0.000000
vt 1.000000 1.000000
vt 0.000000 0.000000
vt 1.000000 0.000000
vt 1.000000 1.000000
vt 1.000000 0.000000
vt 1.000000 1.000000
vt 0.000000 0.000000
vt 1.000000 0.000000
vt 1.000000 1.000000
vt 0.000000 0.000000
vt 1.000000 0.000000
vt 1.000000 1.000000
vt 0.000000 0.000000
vt 1.000000 0.000000
vt 1.000000 1.000000
vt 0.000000 0.000000
vt 1.000000 0.000000
vt 1.000000 1.000000
vt 0.000000 0.000000
vt 1.000000 0.000000
vt 1.000000 1.000000
vt 0.000000 0.000000
vt 1.000000 1.000000
vt 0.000000 0.000000
vt 1.000000 1.000000
vt 0.000000 1.000000
vt 0.000000 0.000000
vt 0.000000 0.000000
vt 1.000000 0.000000
vt 0.000000 1.000000
vt 0.000000 0.000000
vt 1.000000 0.000000
vt 0.000000 0.000000
vt 1.000000 0.000000
vt 1.000000 1.000000
vt 0.000000 1.000000
vt 0.000000 0.000000
vt 1.000000 0.000000
vt 0.000000 1.000000
vt 0.000000 0.000000
vt 0.000000 0.000000
vt 1.000000 1.000000
vt 1.000000 1.000000
vt 1.000000 1.000000
vt 1.000000 0.000000
vt 0.000000 1.000000
vt 0.000000 0.000000
vt 1.000000 0.000000
vt 1.000000 1.000000
vt 0.000000 1.000000
vt 0.000000 0.000000
vt 1.000000 0.000000
vt 1.000000 0.000000
vt 1.000000 1.000000
vt 0.000000 1.000000
vt 1.000000 0.000000
vt 1.000000 1.000000
vt 0.000000 1.000000
vt 0.000000 0.000000
vt 1.000000 1.000000
vt 0.000000 1.000000
vt 0.000000 0.000000
vt 0.000000 1.000000
vt 0.000000 0.000000
vt 1.000000 0.000000
vt 1.000000 1.000000
vt 0.000000 1.000000
vt 0.000000 0.000000
vt 1.000000 0.000000
vt 0.000000 1.000000
vt 0.000000 0.000000
vt 1.000000 1.000000
vt 0.000000 1.000000
vt 0.000000 0.000000
vt 1.000000 0.000000
vt 1.000000 1.000000
vt 0.000000 1.000000
vt 0.000000 0.000000
vt 1.000000 0.000000
vt 0.000000 1.000000
vt 1.000000 0.000000
vt 0.000000 0.000000
vt 1.000000 1.000000
vt 1.000000 1.000000
vt 0.000000 0.000000
vt 1.000000 0.000000
vt 1.000000 1.000000
vt 1.000000 0.000000
vt 0.000000 1.000000
vt 0.000000 0.000000
vt 1.000000 1.000000
vt 1.000000 0.000000
vt 1.000000 1.000000
vt 1.000000 0.000000
vt 0.000000 0.000000
vt 1.000000 0.000000
vt 1.000000 1.000000
vt 0.000000 1.000000
vt 0.000000 0.000000
vt 1.000000 1.000000
vt 0.000000 0.000000
vt 1.000000 0.000000
vt 0.000000 1.000000
vt 1.000000 0.000000
vt 1.000000 1.000000
vt 0.000000 1.000000
vt 1.000000 1.000000
vt 0.000000 0.000000
vt 1.000000 0.000000
vt 1.000000 1.000000
vt 0.000000 1.000000
vt 1.000000 1.000000
vt 0.000000 1.000000
vt 1.000000 1.000000
vt 0.000000 0.000000
vt 1.000000 0.000000
vt 1.000000 1.000000
vt 1.000000 1.000000
vt 0.000000 1.000000
vt 1.000000 1.000000
vt 0.000000 0.000000
vt 1.000000 0.000000
vt 0.000000 1.000000
vt 1.000000 0.000000
vt 1.000000 1.000000
vt 1.000000 0.000000
vt 1.000000 1.000000
vt 1.000000 1.000000
vt 0.000000 1.000000
vt 1.000000 1.000000
vt 0.000000 1.000000
vt 0.000000 0.000000
vt 1.000000 0.000000
vt 0.000000 1.000000
vt 0.000000 0.000000
vt 1.000000 1.000000
vt 1.000000 1.000000
vt 0.000000 0.000000
vt 0.000000 1.000000
vt 0.000000 0.000000
vt 1.000000 1.000000
vt 0.000000 1.000000
vt 1.000000 0.000000
vt 1.000000 1.000000
vt 0.000000 0.000000
vt 1.000000 0.000000
vt 1.000000 1.000000
vt 0.000000 1.000000
vt 0.000000 0.000000
vt 1.000000 0.000000
vt 0.000000 1.000000
vt 0.000000 0.000000
vt 1.000000 1.000000
vt 0.000000 1.000000
vt 1.000000 0.000000
vt 0.000000 1.000000
vt 0.000000 0.000000
vt 1.000000 1.000000
vt 0.000000 0.000000
vt 1.000000 0.000000
vt 0.000000 0.000000
vt 1.000000 1.000000
vt 1.000000 0.000000
vt 0.000000 0.000000
vt 0.000000 0.000000
vt 1.000000 1.000000
vt 1.000000 0.000000
vt 1.000000 1.000000
vt 0.000000 1.000000
vt 0.000000 0.000000
vt 1.000000 0.000000
vt 0.000000 1.000000
vt 0.000000 0.000000
vt 1.000000 0.000000
vt 1.000000 0.000000
vt 1.000000 1.000000
vt 0.000000 0.000000
vt 1.000000 0.000000
vt 1.000000 1.000000
vt 0.000000 0.000000
vt 1.000000 0.000000
vt 1.000000 0.000000
vt 1.000000 0.000000
vt 0.000000 0.000000
vt 1.000000 1.000000
vt 1.000000 0.000000
vt 1.000000 0.000000
vt 1.000000 1.000000
vt 0.000000 1.000000
vt 1.000000 1.000000
vn -0.0000 -1.0000 -0.0000
vn -0.0000 1.0000 0.0000
vn -1.0000 0.0000 0.0000
vn 1.0000 0.0000 -0.0000
vn -0.0000 -0.0000 1.0000
vn 0.0000 0.0000 -1.0000
usemtl palette
s off
f 4/1/1 21/2/1 3/3/1
f 44/4/2 7/5/2 29/6/2
f 12/7/3 39/8/3 8/9/3
f 43/10/4 41/11/4 10/12/4
f 43/10/5 10/13/5 20/14/5
f 47/15/5 29/16/5 31/17/5
f 56/18/2 44/19/2 29/6/2
f 54/20/5 29/16/5 47/21/5
f 57/22/1 4/23/1 17/24/1
f 18/25/6 57/26/6 17/24/6
f 59/27/4 57/26/4 63/28/4
f 19/29/3 64/30/3 58/31/3
f 33/32/5 32/33/5 61/34/5
f 77/35/5 20/36/5 58/31/5
f 45/37/5 20/36/5 77/38/5
f 85/39/2 44/19/2 56/40/2
f 87/41/6 74/42/6 65/43/6
f 85/39/5 71/44/5 76/45/5
f 51/46/6 84/47/6 70/48/6
f 65/49/3 75/50/3 87/51/3
f 68/52/4 59/53/4 78/54/4
f 30/55/6 48/56/6 35/57/6
f 26/58/4 5/59/4 14/60/4
f 86/61/3 75/50/3 81/62/3
f 8/63/3 7/5/3 1/64/3 6/65/3
f 1/66/1 4/23/1 3/3/1
f 6/67/5 9/68/5 10/12/5 8/69/5
f 7/70/6 18/71/6 1/64/6
f 14/72/6 11/73/6 13/74/6 16/75/6
f 2/76/5 19/77/5 20/14/5 9/78/5
f 17/79/1 4/23/1 1/64/1
f 1/66/6 18/71/6 17/24/6
f 20/80/5 10/13/5 9/81/5
f 1/66/3 11/73/3 6/82/3
f 6/67/2 11/73/2 14/60/2 9/78/2
f 14/72/4 5/59/4 2/83/4
f 12/7/1 8/84/1 10/12/1 15/85/1
f 24/86/3 3/87/3 21/88/3 22/89/3
f 9/90/4 14/91/4 2/83/4
f 24/86/2 22/92/2 27/93/2 26/94/2
f 24/86/5 26/95/5 28/96/5 25/97/5
f 27/98/6 22/92/6 40/99/6 42/100/6
f 40/101/3 22/92/3 21/88/3 29/102/3
f 21/103/5 23/104/5 31/17/5 29/102/5
f 21/103/5 32/33/5 33/105/5 23/106/5
f 4/1/1 32/33/1 21/88/1
f 34/107/4 35/108/4 31/17/4 23/106/4
f 34/107/2 23/104/2 33/105/2 36/109/2
f 31/110/1 35/108/1 37/111/1 38/112/1
f 35/113/6 34/114/6 5/115/6 30/116/6
f 36/117/6 60/118/6 5/115/6 34/119/6
f 26/58/4 27/120/4 5/115/4
f 5/121/4 27/120/4 42/122/4 30/116/4
f 40/101/1 39/8/1 41/123/1 42/100/1
f 60/124/2 2/125/2 5/115/2
f 8/63/3 39/8/3 7/126/3
f 12/7/5 15/127/5 41/123/5 39/128/5
f 7/70/3 39/8/3 40/99/3 29/102/3
f 42/129/4 41/11/4 43/130/4 30/116/4
f 44/4/2 46/131/2 7/126/2
f 7/70/6 46/131/6 18/132/6
f 45/37/5 43/133/5 20/14/5
f 48/134/2 47/135/2 50/136/2 49/137/2
f 10/138/4 41/11/4 15/139/4
f 11/140/3 1/141/3 3/3/3 24/142/3
f 54/20/1 53/143/1 84/144/1 55/145/1
f 43/10/1 84/47/1 53/146/1
f 29/147/5 54/148/5 55/149/5 56/150/5
f 48/134/4 53/143/4 54/151/4 47/152/4
f 43/10/1 53/143/1 30/153/1
f 84/154/3 51/155/3 52/156/3 55/145/3
f 57/22/4 59/53/4 62/157/4 61/158/4
f 30/55/6 53/143/6 48/159/6
f 64/160/2 65/161/2 62/157/2 59/162/2
f 57/22/1 61/163/1 4/164/1
f 18/25/6 63/165/6 57/166/6
f 64/160/5 59/53/5 68/167/5 66/168/5
f 65/49/3 64/30/3 19/169/3 60/170/3
f 60/124/2 19/77/2 2/83/2
f 70/171/3 36/172/3 33/105/3 71/173/3
f 58/174/3 64/30/3 66/175/3
f 58/174/5 20/36/5 19/169/5
f 4/1/1 61/163/1 32/176/1
f 62/177/4 74/42/4 76/45/4 61/158/4
f 65/49/6 74/42/6 62/157/6
f 33/32/5 61/163/5 76/45/5 71/173/5
f 60/124/6 36/172/6 70/48/6 75/178/6
f 78/179/4 63/165/4 79/180/4 80/181/4
f 60/124/3 75/50/3 65/43/3
f 44/4/2 79/182/2 46/183/2
f 46/184/6 79/182/6 18/132/6
f 58/174/5 78/185/5 80/186/5 77/187/5
f 18/25/6 79/182/6 63/28/6
f 69/188/6 67/189/6 81/62/6 82/190/6
f 82/191/4 79/182/4 83/192/4 88/193/4
f 58/174/2 66/194/2 68/167/2 78/195/2
f 83/196/2 79/182/2 44/197/2
f 45/37/1 75/50/1 43/130/1
f 79/198/4 82/199/4 80/186/4
f 81/200/3 75/50/3 45/201/3
f 82/191/1 81/202/1 77/38/1 80/181/1
f 52/203/1 51/155/1 70/48/1 71/173/1
f 77/35/3 81/202/3 45/201/3
f 55/204/5 71/44/5 85/205/5 56/150/5
f 43/10/1 75/50/1 84/144/1
f 87/41/1 86/206/1 88/207/1 74/208/1
f 72/209/5 73/210/5 88/207/5 86/211/5
f 88/212/4 83/213/4 85/205/4 74/208/4
f 85/39/4 76/214/4 74/215/4
f 37/216/6 35/108/6 48/159/6 49/137/6
f 85/39/2 83/213/2 44/197/2
f 86/61/3 87/217/3 75/218/3
f 71/219/5 55/220/5 52/156/5
f 70/171/6 84/47/6 75/218/6
f 78/179/4 59/53/4 63/28/4
f 31/110/5 38/221/5 50/136/5 47/152/5
f 37/216/4 49/222/4 50/136/4 38/112/4
f 13/223/3 11/73/3 24/224/3 25/97/3
f 14/72/4 16/225/4 28/96/4 26/94/4
f 13/223/2 25/226/2 28/96/2 16/75/2
f 72/209/1 67/189/1 69/227/1 73/228/1
f 81/200/3 67/189/3 72/229/3 86/211/3
f 69/188/4 82/199/4 88/207/4 73/228/4
