# Blender v2.79 (sub 0) OBJ File: ''
# www.blender.org
mtllib platform.mtl
o platform.001
v -0.042857 0.004215 -0.050000
v -0.042857 0.404215 -0.050000
v -0.042857 0.004215 0.050000
v -0.042857 0.404215 0.050000
v -0.242858 0.404215 -0.250000
v -0.242858 0.504215 -0.250000
v -0.044940 0.504215 -0.034722
v -0.242858 0.404215 0.250000
v -0.242858 0.504215 0.250000
v 0.257143 0.404215 -0.250000
v 0.257143 0.504215 -0.250000
v 0.057142 0.004215 -0.050000
v 0.057142 0.404215 -0.050000
v 0.057142 0.004215 0.050000
v 0.057142 0.404215 0.050000
v 0.257143 0.404215 0.250000
v 0.257143 0.504215 0.250000
vt 0.209201 0.505876
vt 0.291667 0.423077
vt 0.291667 0.615385
vt 0.083333 0.615385
vt 0.083333 0.423077
vt 0.500000 0.269231
vt 0.458333 0.269231
vt 0.458333 0.076923
vt 0.500000 0.076923
vt 0.291667 0.076923
vt 0.291667 0.269231
vt 0.208333 0.192308
vt 0.208333 0.153846
vt 0.083333 0.269231
vt 0.166667 0.192308
vt 0.708333 0.076923
vt 0.708333 0.269231
vt 0.666667 0.269231
vt 0.666667 0.076923
vt 0.166667 0.153846
vt 0.083333 0.076923
vt 0.458333 0.615385
vt 0.458333 0.423077
vt 0.500000 0.423077
vt 0.500000 0.615385
vt 0.708333 0.615385
vt 0.666667 0.615385
vt 0.666667 0.423077
vt 0.708333 0.423077
vt 0.125000 0.923077
vt 0.083333 0.923077
vt 0.083333 0.769231
vt 0.125000 0.769231
vt 0.875000 0.692308
vt 0.916667 0.692308
vt 0.916667 0.846154
vt 0.875000 0.846154
vt 0.916667 0.384615
vt 0.916667 0.538462
vt 0.875000 0.538462
vt 0.875000 0.384615
vt 0.916667 0.076923
vt 0.916667 0.230769
vt 0.875000 0.230769
vt 0.875000 0.076923
vt 0.333333 0.769231
vt 0.333333 0.807692
vt 0.291666 0.807692
vt 0.291666 0.769231
vn 0.0000 1.0000 0.0000
vn -1.0000 -0.0000 0.0000
vn 0.0000 -1.0000 0.0000
vn 0.0000 0.0000 -1.0000
vn 0.0000 -0.0000 1.0000
vn 1.0000 -0.0000 0.0000
usemtl palette
s off
f 7/1/1 6/2/1 9/3/1
f 17/4/1 7/1/1 9/3/1
f 17/4/1 11/5/1 7/1/1
f 6/6/2 5/7/2 8/8/2 9/9/2
f 8/10/3 5/11/3 2/12/3 4/13/3
f 2/12/3 5/11/3 10/14/3 13/15/3
f 10/16/4 5/17/4 6/18/4 11/19/4
f 7/1/1 11/5/1 6/2/1
f 8/10/3 4/13/3 15/20/3 16/21/3
f 8/22/5 16/23/5 17/24/5 9/25/5
f 10/26/6 11/27/6 17/28/6 16/29/6
f 15/20/3 13/15/3 10/14/3 16/21/3
f 12/30/4 1/31/4 2/32/4 13/33/4
f 3/34/5 14/35/5 15/36/5 4/37/5
f 2/38/2 1/39/2 3/40/2 4/41/2
f 12/42/6 13/43/6 15/44/6 14/45/6
f 3/46/3 1/47/3 12/48/3 14/49/3
